<svg width="151" height="157" viewBox="0 0 151 157" fill="none"
    xmlns="http://www.w3.org/2000/svg">
    <path d="M1.96484 70.2787L33.9648 121.559H85.6353L45.8001 97.303M1.96484 70.2787L33.9648 16.7787M1.96484 70.2787L45.8001 97.303M33.9648 16.7787L45.8001 97.303M33.9648 16.7787L72.4648 52.7786M33.9648 16.7787H72.4648M45.8001 97.303L72.4648 52.7786M72.4648 52.7786L98.9648 43.7787L115.465 13.806L72.4648 16.7787M72.4648 52.7786V16.7787" stroke="#111111" stroke-width="2"/>
    <g clip-path="url(#clip0_65_357)">
        <path d="M132.965 79.3002C132.828 73.6756 131.441 68.4836 128.554 63.6333C127.053 61.1056 125.28 58.6235 123.256 56.4602C122.892 56.0731 121.892 55.1622 121.892 55.1622L121.414 42.8655L107.84 46.2813C107.84 46.2813 104.929 45.1883 103.406 44.7556C102.064 44.3912 100.746 44.0952 99.3814 43.8675C99.0403 43.7992 97.5624 43.6398 97.5624 43.6398L92.9694 38.4023L87.9444 33.2787L83.5333 38.0607L77.6897 44.8467C77.6897 44.8467 75.1886 45.5298 74.3928 45.8031C71.8234 46.6229 69.2086 47.9208 66.9348 49.3327C66.5256 49.5832 65.3887 50.2208 65.3887 50.2208L43.7425 51.0178C43.7425 51.0178 49.1768 70.8747 49.3359 71.5578C49.4951 72.332 48.5401 74.0627 48.3127 74.8597C47.858 76.4537 47.426 78.0705 47.0849 79.6873C46.8575 80.7803 46.1981 83.4218 46.1981 83.4218L32.9648 98.6333L51.8825 109.108C51.8825 109.108 53.0649 110.976 53.4742 111.59C54.3155 112.866 55.1795 114.118 56.1799 115.279C56.9303 116.145 58.4082 118.331 58.4082 118.331L58.772 133.907L77.1895 129.011C77.1895 129.011 79.9635 129.808 80.873 130.035C83.7834 130.764 86.8985 131.151 89.8998 131.197C90.6502 131.197 92.1736 131.197 92.1736 131.197L105.884 138.301L110.796 125.845C110.796 125.845 111.591 125.276 113.115 124.138C115.571 122.293 117.731 120.175 119.618 117.784C120.027 117.283 121.46 115.029 121.551 114.983C121.914 114.801 132.647 111.135 132.647 111.135L126.689 100.819C126.689 100.819 126.644 100.683 126.598 99.7946C126.553 98.7927 126.598 97.7907 126.598 96.8115C126.598 94.3522 126.644 92.075 125.939 89.684C122.665 78.6398 112.819 70.237 100.768 69.7361C97.0622 69.5767 93.4241 69.8272 90.0135 71.3529C84.7611 73.6983 80.3955 77.9339 78.5083 83.2624C76.9394 87.7029 76.6211 92.9404 78.6902 97.2897C80.9867 102.14 85.4432 105.647 90.9685 106.353C94.1518 106.763 97.1076 106.489 99.586 104.599C100.177 104.167 101.382 102.869 101.382 102.869C101.382 102.869 100.132 103.097 99.2222 103.233C97.6761 103.461 96.3118 103.461 94.7657 103.461C90.6729 103.461 86.8985 101.229 84.8521 97.7907C82.4191 93.7146 83.0558 89.0236 85.5797 85.1297C88.2172 81.0763 92.3555 78.7309 97.2668 78.7309C107.772 78.7309 116.162 88.6593 114.888 98.5877C113.433 109.974 102.974 118.718 91.2413 118.718C76.0754 118.718 60.5001 105.784 60.4091 90.5038C60.3182 77.5467 66.0253 62.9046 79.395 57.9176C83.8744 56.278 88.4219 55.1395 92.9012 55.1395C99.0858 55.1395 104.657 55.9365 110.341 58.4413C114.729 60.3769 118.231 63.2234 121.528 66.548C124.87 69.9182 127.531 74.0627 129.509 78.2982C130.009 79.3912 130.737 80.8714 131.123 81.714C131.783 83.1258 132.374 85.4485 132.374 85.4485C132.374 85.4485 133.079 81.5318 132.965 79.3002Z" fill="#FF5656"/>
    </g>
    <path fill-rule="evenodd" clip-rule="evenodd" d="M127.079 131.416L118.438 138.207L115.965 135.07L124.606 128.279L127.079 131.416Z" fill="#111111"/>
    <circle cx="123.465" cy="25.7786" r="4.5" stroke="#111111" stroke-width="2"/>
    <path fill-rule="evenodd" clip-rule="evenodd" d="M135.082 141.422L126.439 148.226L123.965 145.083L132.608 138.279L135.082 141.422Z" fill="#111111"/>
    <path fill-rule="evenodd" clip-rule="evenodd" d="M140.861 25.8056L136.662 35.9725L132.965 34.4456L137.164 24.2786L140.861 25.8056Z" fill="#111111"/>
    <defs>
        <clipPath id="clip0_65_357">
            <rect width="100" height="105" fill="white" transform="translate(32.9648 33.2787)"/>
        </clipPath>
    </defs>
</svg>
