<svg xmlns="http://www.w3.org/2000/svg" xmlns:xlink="http://www.w3.org/1999/xlink" version="1.1"
    baseProfile="full" width="838" height="496"
    style="position:absolute;left:0;top:0;user-select:none">
    <rect width="838" height="496" x="0" y="0" id="0" fill="none" fill-opacity="1"></rect>
    <g>
        <path
            d="M419 146.8933A10 10 0 0 1 429.9843 136.9419A111.6 111.6 0 0 1 481.5182 340.4448A10 10 0 0 1 467.1215 336.9207L419 248Z"
            fill="#91cc75" stroke="white" stroke-width="5" stroke-opacity="0"
            stroke-linejoin="bevel"></path>
        <path
            d="M419 35.0347A10 10 0 0 1 429.469 25.0457A223.2 223.2 0 0 1 599.9239 117.2912A10 10 0 0 1 597.2875 131.519L520.4546 181.7164A10 10 0 0 1 507.0916 179.4841A111.6 111.6 0 0 0 428.1776 136.778A10 10 0 0 1 419 126.8119Z"
            fill="rgb(172,216,151)" stroke="white" stroke-width="5" stroke-opacity="0"
            stroke-linejoin="bevel"></path>
        <path
            d="M597.2875 131.519A10 10 0 0 1 611.3759 134.8199A223.2 223.2 0 0 1 642.0574 255.9781A10 10 0 0 1 631.238 265.5865L539.7742 258.0076A10 10 0 0 1 530.6 248.0384A111.6 111.6 0 0 0 517.131 194.8505A10 10 0 0 1 520.4546 181.7164Z"
            fill="rgb(172,216,151)" stroke="white" stroke-width="5" stroke-opacity="0"
            stroke-linejoin="bevel"></path>
        <path
            d="M631.238 265.5865A10 10 0 0 1 640.3283 276.8447A223.2 223.2 0 0 1 590.1233 391.3005A10 10 0 0 1 575.6837 392.2375L508.161 330.0785A10 10 0 0 1 507.0445 316.5764A111.6 111.6 0 0 0 529.0842 266.3309A10 10 0 0 1 539.7742 258.0076Z"
            fill="rgb(172,216,151)" stroke="white" stroke-width="5" stroke-opacity="0"
            stroke-linejoin="bevel"></path>
        <path
            d="M575.6837 392.2375A10 10 0 0 1 575.9424 406.7052A223.2 223.2 0 0 1 534.3218 439.0998A10 10 0 0 1 520.3603 435.2974L476.6792 354.5818A10 10 0 0 1 480.0073 341.4488A111.6 111.6 0 0 0 494.6128 330.0808A10 10 0 0 1 508.161 330.0785Z"
            fill="rgb(172,216,151)" stroke="white" stroke-width="5" stroke-opacity="0"
            stroke-linejoin="bevel"></path>
        <path
            d="M467.1215 336.9207A10 10 0 0 1 462.1975 350.9006A111.6 111.6 0 0 1 308.6438 231.385A10 10 0 0 1 320.9872 223.1798L419 248Z"
            fill="#fac858" stroke="white" stroke-width="5" stroke-opacity="0"
            stroke-linejoin="bevel"></path>
        <path
            d="M520.3603 435.2974A10 10 0 0 1 515.9073 449.0652A223.2 223.2 0 0 1 322.0927 449.0652A10 10 0 0 1 317.6397 435.2974L361.3208 354.5818A10 10 0 0 1 374.1357 350.1849A111.6 111.6 0 0 0 463.8643 350.1849A10 10 0 0 1 476.6792 354.5818Z"
            fill="rgb(251,213,129)" stroke="white" stroke-width="5" stroke-opacity="0"
            stroke-linejoin="bevel"></path>
        <path
            d="M317.6397 435.2974A10 10 0 0 1 303.6782 439.0998A223.2 223.2 0 0 1 219.0297 347.147A10 10 0 0 1 223.972 333.5472L308.0192 296.6807A10 10 0 0 1 320.8325 301.082A111.6 111.6 0 0 0 357.9927 341.4488A10 10 0 0 1 361.3208 354.5818Z"
            fill="rgb(251,213,129)" stroke="white" stroke-width="5" stroke-opacity="0"
            stroke-linejoin="bevel"></path>
        <path
            d="M223.972 333.5472A10 10 0 0 1 210.619 327.9725A223.2 223.2 0 0 1 197.6717 276.8447A10 10 0 0 1 206.762 265.5865L298.2258 258.0076A10 10 0 0 1 308.9158 266.3309A111.6 111.6 0 0 0 313.4593 284.2727A10 10 0 0 1 308.0192 296.6807Z"
            fill="rgb(251,213,129)" stroke="white" stroke-width="5" stroke-opacity="0"
            stroke-linejoin="bevel"></path>
        <path
            d="M206.762 265.5865A10 10 0 0 1 195.9426 255.9781A223.2 223.2 0 0 1 200.298 203.4166A10 10 0 0 1 212.5513 195.7201L301.5202 218.2501A10 10 0 0 1 308.9284 229.5934A111.6 111.6 0 0 0 307.4 248.0384A10 10 0 0 1 298.2258 258.0076Z"
            fill="rgb(251,213,129)" stroke="white" stroke-width="5" stroke-opacity="0"
            stroke-linejoin="bevel"></path>
        <path
            d="M320.9872 223.1798A10 10 0 0 1 314.0367 210.0887A111.6 111.6 0 0 1 408.0157 136.9419A10 10 0 0 1 419 146.8933L419 248Z"
            fill="#ee6666" stroke="white" stroke-width="5" stroke-opacity="0"
            stroke-linejoin="bevel"></path>
        <path
            d="M212.5513 195.7201A10 10 0 0 1 205.438 183.1193A223.2 223.2 0 0 1 408.531 25.0457A10 10 0 0 1 419 35.0347L419 126.8119A10 10 0 0 1 409.8224 136.778A111.6 111.6 0 0 0 313.4343 211.7998A10 10 0 0 1 301.5202 218.2501Z"
            fill="rgb(242,140,140)" stroke="white" stroke-width="5" stroke-opacity="0"
            stroke-linejoin="bevel"></path>
        <text dominant-baseline="central" text-anchor="middle"
            style="font-size:14px;font-family:sans-serif;"
            transform="matrix(0.969,-0.245,0.245,0.969,473.0925,234.3019)" fill="#333">Visualize</text>
        <text dominant-baseline="central" text-anchor="middle"
            style="font-size:14px;font-family:sans-serif;" xml:space="preserve"
            transform="matrix(0.476,-0.879,0.879,0.476,498.6736,100.7761)" fill="#333">Business Charts</text>
        <text dominant-baseline="central" text-anchor="middle"
            style="font-size:14px;font-family:sans-serif;"
            transform="matrix(0.969,-0.245,0.245,0.969,581.2776,206.9057)" fill="#333">Calendar</text>
        <text dominant-baseline="central" text-anchor="middle"
            style="font-size:14px;font-family:sans-serif;" xml:space="preserve"
            transform="matrix(0.916,0.402,-0.402,0.916,572.3005,315.2438)" fill="#333">Dynamic Text</text>
        <text dominant-baseline="central" text-anchor="middle"
            style="font-size:12px;font-family:sans-serif;" xml:space="preserve"
            transform="matrix(0.614,0.789,-0.789,0.614,521.8192,380.1021)" fill="#333">Base64 Image/PDF</text>
        <text dominant-baseline="central" text-anchor="middle"
            style="font-size:14px;font-family:sans-serif;"
            transform="matrix(0.614,-0.789,0.789,0.614,384.7269,292.034)" fill="#333">Operate</text>
        <text dominant-baseline="central" text-anchor="middle"
            style="font-size:12px;font-family:sans-serif;" xml:space="preserve"
            transform="matrix(0,1,-1,0,419,415.4)" fill="#333">Data Manipulation</text>
        <text dominant-baseline="central" text-anchor="middle"
            style="font-size:14px;font-family:sans-serif;" xml:space="preserve"
            transform="matrix(0.736,-0.677,0.677,0.736,295.8398,361.3769)" fill="#333">RSS/Atom DS</text>
        <text dominant-baseline="central" text-anchor="middle"
            style="font-size:14px;font-family:sans-serif;" xml:space="preserve"
            transform="matrix(0.969,-0.245,0.245,0.969,256.7224,289.0943)" fill="#333">Environment DS</text>
        <text dominant-baseline="central" text-anchor="middle"
            style="font-size:14px;font-family:sans-serif;" xml:space="preserve"
            transform="matrix(0.997,0.083,-0.083,0.997,252.1718,234.1762)" fill="#333">Static DS</text>
        <text dominant-baseline="central" text-anchor="middle"
            style="font-size:14px;font-family:sans-serif;"
            transform="matrix(0.614,0.789,-0.789,0.614,384.7269,203.966)" fill="#333">Manage</text>
        <text dominant-baseline="central" text-anchor="middle"
            style="font-size:14px;font-family:sans-serif;" xml:space="preserve"
            transform="matrix(0.614,0.789,-0.789,0.614,316.1808,115.8979)" fill="#333">Balena App</text>
    </g>
</svg>