<svg width="156" height="151" viewBox="0 0 156 151" fill="none"
    xmlns="http://www.w3.org/2000/svg">
    <path d="M60.6614 148.479L79.7112 77.5027L30.3125 24.7962M150.856 60.0096L79.2501 77.58M29.0918 23.3379L153.24 59.4375L59.9025 148.903L29.0918 23.3379Z" stroke="black" stroke-width="2"/>
    <path d="M73.3974 71.4841L70.4913 44.0928L80.668 42.1796L86.5061 26.2798L127.992 37.1024L114.108 60.6049L87.4435 54.6926L73.3974 71.4841Z" fill="#FF4040"/>
    <path d="M89.0494 76.4393L114.165 87.75L110.682 97.5018L121.465 110.564L91.1892 140.923L77.9027 117.077L96.4602 97.0385L89.0494 76.4393Z" fill="#111111"/>
    <path d="M76.8285 87.6592L54.5377 103.841L47.8033 95.9749L31.1106 98.8458L19.7974 57.4909L47.0929 57.8017L55.2689 83.8609L76.8285 87.6592Z" fill="#9D70F9"/>
    <path d="M22.8227 120.271C25.4724 118.741 28.8605 119.649 30.3903 122.299C31.9201 124.948 31.0122 128.337 28.3626 129.866C25.7129 131.396 22.3248 130.488 20.795 127.839C19.2653 125.189 20.1731 121.801 22.8227 120.271ZM27.3367 128.089C29.0051 127.126 29.5767 124.993 28.6135 123.325C27.6502 121.656 25.5169 121.085 23.8486 122.048C22.1803 123.011 21.6086 125.144 22.5719 126.813C23.5351 128.481 25.6684 129.053 27.3367 128.089Z" fill="#111111"/>
    <path d="M57.4844 3.53182C60.134 2.00204 63.5221 2.90988 65.0519 5.55953C66.5817 8.20919 65.6738 11.5973 63.0242 13.1271C60.3745 14.6568 56.9864 13.749 55.4567 11.0994C53.9269 8.4497 54.8347 5.0616 57.4844 3.53182ZM61.9983 11.3502C63.6667 10.387 64.2383 8.25372 63.2751 6.58538C62.3119 4.91704 60.1786 4.34543 58.5102 5.30864C56.8419 6.27186 56.2703 8.40516 57.2335 10.0735C58.1967 11.7418 60.33 12.3135 61.9983 11.3502Z" fill="#111111"/>
    <rect x="9.7959" y="108.788" width="11.0796" height="3.45801" transform="rotate(-30 9.7959 108.788)" fill="#111111"/>
    <rect x="1.13818" y="92.9194" width="11.0796" height="3.45801" transform="rotate(-30 1.13818 92.9194)" fill="#111111"/>
    <rect x="129.391" y="74.8486" width="11.0796" height="3.45801" transform="rotate(150 129.391 74.8486)" fill="#111111"/>
    <rect x="137.62" y="89.1016" width="11.0796" height="3.45801" transform="rotate(150 137.62 89.1016)" fill="#111111"/>
    <rect x="145.275" y="102.19" width="11.0796" height="3.45801" transform="rotate(150 145.275 102.19)" fill="#111111"/>
</svg>
