<svg width="192" height="156" viewBox="0 0 192 156" fill="none" xmlns="http://www.w3.org/2000/svg">
<path d="M2.3501 119.909L101.645 87.2399L131.923 15.1382L189.65 132.23L51.35 149.659L41.3501 46.2454L2.3501 119.909Z" stroke="black" stroke-width="2"/>
<path d="M101.484 87.0786L188.865 131.769" stroke="black" stroke-width="2"/>
<path d="M51.3618 148.887L101.967 87.4014" stroke="black" stroke-width="2"/>
<path d="M144.333 62.2327C149.829 71.753 152.031 82.8209 150.596 93.7199C149.161 104.619 144.17 114.74 136.397 122.513C128.623 130.286 118.502 135.278 107.603 136.713C96.7042 138.147 85.6363 135.946 76.116 130.449C66.5957 124.953 59.1552 116.468 54.9483 106.312C50.7414 96.1559 50.0034 84.8953 52.8486 74.2768C55.6938 63.6583 61.9633 54.2754 70.6846 47.5832C79.406 40.891 90.0919 37.2637 101.085 37.2637L101.085 49.2843C92.7381 49.2843 84.6244 52.0386 78.0024 57.1198C71.3803 62.2011 66.62 69.3255 64.4596 77.388C62.2993 85.4505 62.8597 94.0005 66.0539 101.712C69.2482 109.424 74.8977 115.866 82.1263 120.039C89.355 124.213 97.7587 125.884 106.034 124.795C114.31 123.705 121.994 119.915 127.897 114.013C133.799 108.111 137.588 100.426 138.678 92.1509C139.767 83.8754 138.096 75.4717 133.922 68.243L144.333 62.2327Z" fill="#111111"/>
<path d="M132.576 69.02C136.579 75.9523 138.182 84.0116 137.137 91.9479C136.092 99.8842 132.458 107.254 126.798 112.914C121.137 118.574 113.768 122.209 105.831 123.254C97.8949 124.299 89.8356 122.695 82.9033 118.693C75.9709 114.691 70.553 108.513 67.4897 101.117C64.4264 93.7217 63.8889 85.5221 65.9607 77.7901C68.0325 70.0581 72.5977 63.2257 78.9484 58.3527C85.299 53.4797 93.0801 50.8384 101.085 50.8384L101.085 62.7859C95.7101 62.7859 90.4856 64.5594 86.2216 67.8314C81.9575 71.1033 78.8923 75.6908 77.5012 80.8823C76.1101 86.0739 76.471 91.5794 78.5278 96.545C80.5846 101.511 84.2224 105.659 88.8771 108.346C93.5317 111.033 98.943 112.11 104.272 111.408C109.6 110.707 114.549 108.267 118.349 104.466C122.15 100.666 124.59 95.7172 125.292 90.3884C125.993 85.0597 124.917 79.6484 122.229 74.9937L132.576 69.02Z" fill="#FF5656"/>
<path d="M68.2739 12.4394C65.6243 13.9691 62.2362 13.0613 60.7064 10.4117C59.1766 7.762 60.0845 4.37391 62.7341 2.84413C65.3838 1.31435 68.7719 2.22219 70.3016 4.87184C71.8314 7.52149 70.9236 10.9096 68.2739 12.4394ZM63.76 4.62095C62.0916 5.58417 61.52 7.71747 62.4832 9.38581C63.4464 11.0541 65.5797 11.6258 67.2481 10.6625C68.9164 9.69933 69.488 7.56603 68.5248 5.89769C67.5616 4.22935 65.4283 3.65773 63.76 4.62095Z" fill="#111111"/>
<rect x="81.3003" y="23.9224" width="11.0796" height="3.45801" transform="rotate(150 81.3003 23.9224)" fill="#111111"/>
<path d="M168.828 44.0878C166.178 45.6176 162.79 44.7097 161.26 42.0601C159.73 39.4104 160.638 36.0223 163.288 34.4926C165.937 32.9628 169.326 33.8706 170.855 36.5203C172.385 39.1699 171.477 42.558 168.828 44.0878ZM164.314 36.2694C162.645 37.2326 162.074 39.3659 163.037 41.0342C164 42.7026 166.133 43.2742 167.802 42.311C169.47 41.3478 170.042 39.2145 169.079 37.5461C168.115 35.8778 165.982 35.3062 164.314 36.2694Z" fill="#111111"/>
<rect x="181.854" y="55.5708" width="11.0796" height="3.45801" transform="rotate(150 181.854 55.5708)" fill="#111111"/>
<rect x="162.347" y="20.9277" width="11.0796" height="3.45801" transform="rotate(150 162.347 20.9277)" fill="#111111"/>
<rect x="156.685" y="9.66943" width="11.0796" height="3.45801" transform="rotate(150 156.685 9.66943)" fill="#111111"/>
</svg>
