<?xml version="1.0"?>
<svg xmlns:rdf="http://www.w3.org/1999/02/22-rdf-syntax-ns#" xmlns="http://www.w3.org/2000/svg" xmlns:cc="http://creativecommons.org/ns#" xmlns:dc="http://purl.org/dc/elements/1.1/" xmlns:svg="http://www.w3.org/2000/svg" id="svg2505" viewBox="0 0 365.38 365.38" version="1.0">
  <g id="layer1" transform="translate(-108.74 -343.96)">
    <g id="g3727" transform="matrix(.63447 .051763 -.051763 .63447 198.58 289.1)">
      <path id="path3157" transform="matrix(.44304 0 0 .44304 95.651 204.67)" d="m237.14 355.93a56.429 56.429 0 1 1 -112.85 0 56.429 56.429 0 1 1 112.85 0z"/>
      <path id="path3159" d="m205.71 252.36a114.29 114.29 0 1 1 -228.57 0 114.29 114.29 0 1 1 228.57 0z" transform="matrix(.80676 0 0 .80676 101.95 158.77)" stroke="#000" stroke-linecap="round" stroke-width="8" fill="none"/>
      <path id="path3174" transform="matrix(0 -.44304 .44304 0 18.022 303.28)" d="m237.14 355.93a56.429 56.429 0 1 1 -112.85 0 56.429 56.429 0 1 1 112.85 0z"/>
      <path id="path3307" transform="matrix(.44304 0 0 .44304 232.79 202.67)" d="m237.14 355.93a56.429 56.429 0 1 1 -112.85 0 56.429 56.429 0 1 1 112.85 0z"/>
      <path id="path3309" transform="matrix(0 .44304 -.44304 0 333.41 417.44)" d="m237.14 355.93a56.429 56.429 0 1 1 -112.85 0 56.429 56.429 0 1 1 112.85 0z"/>
      <path id="path3311" transform="matrix(-.44304 0 0 -.44304 118.63 518.05)" d="m237.14 355.93a56.429 56.429 0 1 1 -112.85 0 56.429 56.429 0 1 1 112.85 0z"/>
      <path id="path3313" transform="matrix(.22101 -.38398 .38398 .22101 67.518 232.23)" d="m237.14 355.93a56.429 56.429 0 1 1 -112.85 0 56.429 56.429 0 1 1 112.85 0z"/>
      <path id="path3315" transform="matrix(.38398 .22101 -.22101 .38398 303.85 252.17)" d="m237.14 355.93a56.429 56.429 0 1 1 -112.85 0 56.429 56.429 0 1 1 112.85 0z"/>
      <path id="path3317" transform="matrix(-.22101 .38398 -.38398 -.22101 283.91 488.5)" d="m237.14 355.93a56.429 56.429 0 1 1 -112.85 0 56.429 56.429 0 1 1 112.85 0z"/>
      <path id="path3319" transform="matrix(-.38398 -.22101 .22101 -.38398 47.579 468.56)" d="m237.14 355.93a56.429 56.429 0 1 1 -112.85 0 56.429 56.429 0 1 1 112.85 0z"/>
      <path id="path3321" transform="matrix(.39079 -.20872 .20872 .39079 151.77 194.38)" d="m237.14 355.93a56.429 56.429 0 1 1 -112.85 0 56.429 56.429 0 1 1 112.85 0z"/>
      <path id="path3323" transform="matrix(.20872 .39079 -.39079 .20872 341.7 336.42)" d="m237.14 355.93a56.429 56.429 0 1 1 -112.85 0 56.429 56.429 0 1 1 112.85 0z"/>
      <path id="path3325" transform="matrix(-.39079 .20872 -.20872 -.39079 199.66 526.35)" d="m237.14 355.93a56.429 56.429 0 1 1 -112.85 0 56.429 56.429 0 1 1 112.85 0z"/>
      <path id="path3327" transform="matrix(-.20872 -.39079 .39079 -.20872 9.7275 384.3)" d="m237.14 355.93a56.429 56.429 0 1 1 -112.85 0 56.429 56.429 0 1 1 112.85 0z"/>
      <path id="path3329" transform="matrix(0 -.44304 .44304 0 18.022 303.28)" d="m237.14 355.93a56.429 56.429 0 1 1 -112.85 0 56.429 56.429 0 1 1 112.85 0z"/>
      <path id="path3331" transform="matrix(.44304 0 0 .44304 232.79 202.67)" d="m237.14 355.93a56.429 56.429 0 1 1 -112.85 0 56.429 56.429 0 1 1 112.85 0z"/>
      <path id="path3333" transform="matrix(0 .44304 -.44304 0 333.41 417.44)" d="m237.14 355.93a56.429 56.429 0 1 1 -112.85 0 56.429 56.429 0 1 1 112.85 0z"/>
      <path id="path3335" transform="matrix(-.44304 0 0 -.44304 118.63 518.05)" d="m237.14 355.93a56.429 56.429 0 1 1 -112.85 0 56.429 56.429 0 1 1 112.85 0z"/>
      <path id="path3337" transform="matrix(.22101 -.38398 .38398 .22101 67.518 232.23)" d="m237.14 355.93a56.429 56.429 0 1 1 -112.85 0 56.429 56.429 0 1 1 112.85 0z"/>
      <path id="path3339" transform="matrix(.38398 .22101 -.22101 .38398 303.85 252.17)" d="m237.14 355.93a56.429 56.429 0 1 1 -112.85 0 56.429 56.429 0 1 1 112.85 0z"/>
      <path id="path3341" transform="matrix(-.22101 .38398 -.38398 -.22101 283.91 488.5)" d="m237.14 355.93a56.429 56.429 0 1 1 -112.85 0 56.429 56.429 0 1 1 112.85 0z"/>
      <path id="path3343" transform="matrix(-.38398 -.22101 .22101 -.38398 47.579 468.56)" d="m237.14 355.93a56.429 56.429 0 1 1 -112.85 0 56.429 56.429 0 1 1 112.85 0z"/>
      <path id="path3345" transform="matrix(.39079 -.20872 .20872 .39079 151.77 194.38)" d="m237.14 355.93a56.429 56.429 0 1 1 -112.85 0 56.429 56.429 0 1 1 112.85 0z"/>
      <path id="path3347" transform="matrix(.20872 .39079 -.39079 .20872 341.7 336.42)" d="m237.14 355.93a56.429 56.429 0 1 1 -112.85 0 56.429 56.429 0 1 1 112.85 0z"/>
      <path id="path3349" transform="matrix(-.39079 .20872 -.20872 -.39079 199.66 526.35)" d="m237.14 355.93a56.429 56.429 0 1 1 -112.85 0 56.429 56.429 0 1 1 112.85 0z"/>
      <path id="path3351" transform="matrix(-.20872 -.39079 .39079 -.20872 9.7275 384.3)" d="m237.14 355.93a56.429 56.429 0 1 1 -112.85 0 56.429 56.429 0 1 1 112.85 0z"/>
      <path id="path3353" transform="matrix(0 -.44304 .44304 0 18.022 239.28)" d="m237.14 355.93a56.429 56.429 0 1 1 -112.85 0 56.429 56.429 0 1 1 112.85 0z"/>
      <path id="path3355" transform="matrix(.44304 0 0 .44304 295.65 201.53)" d="m237.14 355.93a56.429 56.429 0 1 1 -112.85 0 56.429 56.429 0 1 1 112.85 0z"/>
      <path id="path3357" transform="matrix(0 .44304 -.44304 0 333.41 479.16)" d="m237.14 355.93a56.429 56.429 0 1 1 -112.85 0 56.429 56.429 0 1 1 112.85 0z"/>
      <path id="path3359" transform="matrix(-.44304 0 0 -.44304 55.778 516.91)" d="m237.14 355.93a56.429 56.429 0 1 1 -112.85 0 56.429 56.429 0 1 1 112.85 0z"/>
      <path id="path3361" transform="matrix(.14398 -.41899 .41899 .14398 65.56 194.54)" d="m237.14 355.93a56.429 56.429 0 1 1 -112.85 0 56.429 56.429 0 1 1 112.85 0z"/>
      <path id="path3363" transform="matrix(.41899 .14398 -.14398 .41899 340.39 249.07)" d="m237.14 355.93a56.429 56.429 0 1 1 -112.85 0 56.429 56.429 0 1 1 112.85 0z"/>
      <path id="path3365" transform="matrix(-.14398 .41899 -.41899 -.14398 285.87 523.89)" d="m237.14 355.93a56.429 56.429 0 1 1 -112.85 0 56.429 56.429 0 1 1 112.85 0z"/>
      <path id="path3367" transform="matrix(-.41899 -.14398 .14398 -.41899 11.04 469.37)" d="m237.14 355.93a56.429 56.429 0 1 1 -112.85 0 56.429 56.429 0 1 1 112.85 0z"/>
      <path id="path3369" transform="matrix(.28637 -.33804 .33804 .28637 132.92 165.78)" d="m237.14 355.93a56.429 56.429 0 1 1 -112.85 0 56.429 56.429 0 1 1 112.85 0z"/>
      <path id="path3371" transform="matrix(.33804 .28637 -.28637 .33804 369.16 316.42)" d="m237.14 355.93a56.429 56.429 0 1 1 -112.85 0 56.429 56.429 0 1 1 112.85 0z"/>
      <path id="path3373" transform="matrix(-.28637 .33804 -.33804 -.28637 218.51 552.66)" d="m237.14 355.93a56.429 56.429 0 1 1 -112.85 0 56.429 56.429 0 1 1 112.85 0z"/>
      <path id="path3375" transform="matrix(-.33804 -.28637 .28637 -.33804 -17.729 402.01)" d="m237.14 355.93a56.429 56.429 0 1 1 -112.85 0 56.429 56.429 0 1 1 112.85 0z"/>
      <path id="path3377" transform="matrix(.37294 -.23916 .23916 .37294 191.55 161.73)" d="m237.14 355.93a56.429 56.429 0 1 1 -112.85 0 56.429 56.429 0 1 1 112.85 0z"/>
      <path id="path3379" transform="matrix(.23916 .37294 -.37294 .23916 373.2 375.05)" d="m237.14 355.93a56.429 56.429 0 1 1 -112.85 0 56.429 56.429 0 1 1 112.85 0z"/>
      <path id="path3381" transform="matrix(-.37294 .23916 -.23916 -.37294 159.88 556.71)" d="m237.14 355.93a56.429 56.429 0 1 1 -112.85 0 56.429 56.429 0 1 1 112.85 0z"/>
      <path id="path3383" transform="matrix(-.23916 -.37294 .37294 -.23916 -21.772 343.38)" d="m237.14 355.93a56.429 56.429 0 1 1 -112.85 0 56.429 56.429 0 1 1 112.85 0z"/>
      <path id="path3385" transform="matrix(.42566 -.12287 .12287 .42566 247.21 174.45)" d="m237.14 355.93a56.429 56.429 0 1 1 -112.85 0 56.429 56.429 0 1 1 112.85 0z"/>
      <path id="path3387" transform="matrix(.12287 .42566 -.42566 .12287 360.48 430.72)" d="m237.14 355.93a56.429 56.429 0 1 1 -112.85 0 56.429 56.429 0 1 1 112.85 0z"/>
      <path id="path3389" transform="matrix(-.42566 .12287 -.12287 -.42566 104.22 543.99)" d="m237.14 355.93a56.429 56.429 0 1 1 -112.85 0 56.429 56.429 0 1 1 112.85 0z"/>
      <path id="path3391" transform="matrix(-.12287 -.42566 .42566 -.12287 -9.0545 287.72)" d="m237.14 355.93a56.429 56.429 0 1 1 -112.85 0 56.429 56.429 0 1 1 112.85 0z"/>
      <path id="path3393" transform="matrix(0 -.44304 .44304 0 18.022 177.28)" d="m237.14 355.93a56.429 56.429 0 1 1 -112.85 0 56.429 56.429 0 1 1 112.85 0z"/>
      <path id="path3395" transform="matrix(.44304 0 0 .44304 358.51 202.38)" d="m237.14 355.93a56.429 56.429 0 1 1 -112.85 0 56.429 56.429 0 1 1 112.85 0z"/>
      <path id="path3397" transform="matrix(0 .44304 -.44304 0 333.41 542.87)" d="m237.14 355.93a56.429 56.429 0 1 1 -112.85 0 56.429 56.429 0 1 1 112.85 0z"/>
      <path id="path3399" transform="matrix(-.44304 0 0 -.44304 -7.0795 517.77)" d="m237.14 355.93a56.429 56.429 0 1 1 -112.85 0 56.429 56.429 0 1 1 112.85 0z"/>
      <path id="path3401" transform="matrix(.10973 -.42923 .42923 .10973 68.209 143.92)" d="m237.14 355.93a56.429 56.429 0 1 1 -112.85 0 56.429 56.429 0 1 1 112.85 0z"/>
      <path id="path3403" transform="matrix(.42923 .10973 -.10973 .42923 391.87 252.57)" d="m237.14 355.93a56.429 56.429 0 1 1 -112.85 0 56.429 56.429 0 1 1 112.85 0z"/>
      <path id="path3405" transform="matrix(-.10973 .42923 -.42923 -.10973 283.22 576.23)" d="m237.14 355.93a56.429 56.429 0 1 1 -112.85 0 56.429 56.429 0 1 1 112.85 0z"/>
      <path id="path3407" transform="matrix(-.42923 -.10973 .10973 -.42923 -40.441 467.58)" d="m237.14 355.93a56.429 56.429 0 1 1 -112.85 0 56.429 56.429 0 1 1 112.85 0z"/>
      <path id="path3409" transform="matrix(.42867 -.11192 .11192 .42867 312.74 161.32)" d="m237.14 355.93a56.429 56.429 0 1 1 -112.85 0 56.429 56.429 0 1 1 112.85 0z"/>
      <path id="path3411" transform="matrix(.11192 .42867 -.42867 .11192 374.47 497.1)" d="m237.14 355.93a56.429 56.429 0 1 1 -112.85 0 56.429 56.429 0 1 1 112.85 0z"/>
      <path id="path3413" transform="matrix(-.42867 .11192 -.11192 -.42867 38.686 558.83)" d="m237.14 355.93a56.429 56.429 0 1 1 -112.85 0 56.429 56.429 0 1 1 112.85 0z"/>
      <path id="path3415" transform="matrix(-.11192 -.42867 .42867 -.11192 -23.041 223.05)" d="m237.14 355.93a56.429 56.429 0 1 1 -112.85 0 56.429 56.429 0 1 1 112.85 0z"/>
      <path id="path3417" transform="matrix(.38945 -.21122 .21122 .38945 261.22 134.31)" d="m237.14 355.93a56.429 56.429 0 1 1 -112.85 0 56.429 56.429 0 1 1 112.85 0z"/>
      <path id="path3419" transform="matrix(.21122 .38945 -.38945 .21122 401.48 445.58)" d="m237.14 355.93a56.429 56.429 0 1 1 -112.85 0 56.429 56.429 0 1 1 112.85 0z"/>
      <path id="path3421" transform="matrix(-.38945 .21122 -.21122 -.38945 90.21 585.84)" d="m237.14 355.93a56.429 56.429 0 1 1 -112.85 0 56.429 56.429 0 1 1 112.85 0z"/>
      <path id="path3423" transform="matrix(-.21122 -.38945 .38945 -.21122 -50.05 274.57)" d="m237.14 355.93a56.429 56.429 0 1 1 -112.85 0 56.429 56.429 0 1 1 112.85 0z"/>
      <path id="path3425" transform="matrix(.39233 .20582 -.20582 .39233 410.84 305.35)" d="m237.14 355.93a56.429 56.429 0 1 1 -112.85 0 56.429 56.429 0 1 1 112.85 0z"/>
      <path id="path3427" transform="matrix(-.20582 .39233 -.39233 -.20582 230.44 595.21)" d="m237.14 355.93a56.429 56.429 0 1 1 -112.85 0 56.429 56.429 0 1 1 112.85 0z"/>
      <path id="path3429" transform="matrix(-.39233 -.20582 .20582 -.39233 -59.415 414.8)" d="m237.14 355.93a56.429 56.429 0 1 1 -112.85 0 56.429 56.429 0 1 1 112.85 0z"/>
      <path id="path3431" transform="matrix(.20582 -.39233 .39233 .20582 120.99 124.95)" d="m237.14 355.93a56.429 56.429 0 1 1 -112.85 0 56.429 56.429 0 1 1 112.85 0z"/>
      <path id="path3433" transform="matrix(.31163 .31492 -.31492 .31163 416.38 379.09)" d="m237.14 355.93a56.429 56.429 0 1 1 -112.85 0 56.429 56.429 0 1 1 112.85 0z"/>
      <path id="path3435" transform="matrix(-.31492 .31163 -.31163 -.31492 156.7 600.74)" d="m237.14 355.93a56.429 56.429 0 1 1 -112.85 0 56.429 56.429 0 1 1 112.85 0z"/>
      <path id="path3437" transform="matrix(-.31163 -.31492 .31492 -.31163 -64.949 341.06)" d="m237.14 355.93a56.429 56.429 0 1 1 -112.85 0 56.429 56.429 0 1 1 112.85 0z"/>
      <path id="path3439" transform="matrix(.31492 -.31163 .31163 .31492 194.73 119.41)" d="m237.14 355.93a56.429 56.429 0 1 1 -112.85 0 56.429 56.429 0 1 1 112.85 0z"/>
    </g>
  </g>
</svg>
