<svg width="185" height="161" viewBox="0 0 185 161" fill="none" xmlns="http://www.w3.org/2000/svg">
<path d="M39.4583 47.7338L21.248 72.9797L90.5605 89.8906L181.133 58.112L117.486 35.8686L102.366 -1.10303L39.4583 47.7338Z" stroke="black" stroke-width="2"/>
<path d="M90.6738 89.6279L102.415 -1.55023" stroke="black" stroke-width="2"/>
<path d="M90.6738 89.6274L117.22 35.3355" stroke="black" stroke-width="2"/>
<path d="M90.674 89.6275L38.1429 47.3167" stroke="black" stroke-width="2"/>
<rect x="12.1909" y="81.832" width="11.0796" height="3.45801" transform="rotate(150 12.1909 81.832)" fill="#111111"/>
<rect x="20.4199" y="96.085" width="11.0796" height="3.45801" transform="rotate(150 20.4199 96.085)" fill="#111111"/>
<rect x="28.0747" y="109.174" width="11.0796" height="3.45801" transform="rotate(150 28.0747 109.174)" fill="#111111"/>
<path d="M150.626 100.991C147.977 102.52 144.589 101.613 143.059 98.9629C141.529 96.3133 142.437 92.9252 145.087 91.3954C147.736 89.8656 151.124 90.7735 152.654 93.4231C154.184 96.0728 153.276 99.4609 150.626 100.991ZM146.113 93.1722C144.444 94.1354 143.873 96.2687 144.836 97.9371C145.799 99.6054 147.932 100.177 149.601 99.2138C151.269 98.2506 151.841 96.1173 150.877 94.449C149.914 92.7806 147.781 92.209 146.113 93.1722Z" fill="#111111"/>
<rect x="163.653" y="112.474" width="11.0796" height="3.45801" transform="rotate(150 163.653 112.474)" fill="#111111"/>
<rect x="38.52" y="30.5938" width="11.0796" height="3.45801" transform="rotate(-30 38.52 30.5938)" fill="#111111"/>
<rect x="30.291" y="16.3408" width="11.0796" height="3.45801" transform="rotate(-30 30.291 16.3408)" fill="#111111"/>
<path d="M86.3151 104.629L138.647 133.312L86.3151 161.994L33.9834 133.312L86.3151 104.629Z" fill="#9D70F9"/>
<path d="M86.3151 80.5312L138.647 109.214L86.3151 137.896L33.9834 109.214L86.3151 80.5312Z" fill="#111111"/>
<path d="M86.3151 56.4326L138.647 85.1152L86.3151 113.798L33.9834 85.1152L86.3151 56.4326Z" fill="#9D70F9"/>
</svg>
