<svg id="Layer_1" data-name="Layer 1" xmlns="http://www.w3.org/2000/svg" viewBox="0 0 727.2 727.2"><defs><style>.cls-1{fill:#72c48e;}.cls-2{fill:#fff;}</style></defs><circle class="cls-1" cx="363.6" cy="363.6" r="363.6"/><path class="cls-2" d="M236.45,602.31l8.15-2.06c19.9-5,33.06-14.69,40.24-29.52,7.54-15.82,11.37-43.58,11.37-82.45V215.61h-95c-23.75,0-40.31,4.52-49.22,13.44-9.6,9.6-18,29-25,57.59l-2,8.24H97l-.77-10c-.3-3.83-.45-8-.45-12.46A180.89,180.89,0,0,1,97.49,250a721.37,721.37,0,0,0,4.9-79.22V158.46l12.22,1.61c14.21,1.88,32.26,3.11,53.64,3.65L203.44,165H351V624H327.77c-17.57,0-44.33,1.66-79.52,4.94L236.45,630ZM464,629c-60.42-4.1-78.09-5-82.28-5H360.13V165H520.34a644.16,644.16,0,0,0,79.6-4.9l12.14-1.52v12.24c0,5.51-.42,15.09-1.27,29.28-.81,12.49-1.22,28.31-1.22,47.09a345.07,345.07,0,0,1-2.15,38.12l-1.06,9.61H576.21L576,284.35C575.45,264,570.41,247,561,234c-8.73-12-30-18.35-61.39-18.35H416.18V502c0,32,4.42,56,13.13,71.47,8.14,14.44,20.44,23.17,37.59,26.69l8.63,1.77v27.84Z" transform="translate(0 0)"/><path class="cls-2" d="M203.25,175.76h137V613.21H327.77q-27,0-80.52,5v-7.47q34.44-8.72,47.31-35.28Q307,549.29,307,488.28V204.81H201.18q-40.26,0-56.86,16.6t-27.81,62.67H107q-.4-5.38-.41-11.62a171,171,0,0,1,1.66-21.16,728.52,728.52,0,0,0,5-80.52q22,2.91,54.79,3.73ZM381.72,613.21H370.93V175.76H520.34a652.09,652.09,0,0,0,80.94-5q0,7.89-1.25,28.64-1.24,19.1-1.24,47.73a335.06,335.06,0,0,1-2.08,36.93h-10q-.84-34-17-56.44-16.61-22.81-70.14-22.83H405.38V502q0,51,14.52,76.78t44.83,32v7.47Q391.26,613.21,381.72,613.21Z" transform="translate(0 0)"/></svg>
