<svg width="171" height="153" viewBox="0 0 171 153" fill="none" xmlns="http://www.w3.org/2000/svg">
<rect x="132.645" y="20.3647" width="11.0796" height="3.45801" transform="rotate(150 132.645 20.3647)" fill="#111111"/>
<rect x="140.874" y="34.6177" width="11.0796" height="3.45801" transform="rotate(150 140.874 34.6177)" fill="#111111"/>
<rect x="26.8472" y="114.043" width="11.0796" height="3.45801" transform="rotate(150 26.8472 114.043)" fill="#111111"/>
<path d="M37.8789 146.769C35.2293 148.299 31.8412 147.391 30.3114 144.741C28.7816 142.092 29.6894 138.703 32.3391 137.174C34.9888 135.644 38.3768 136.552 39.9066 139.201C41.4364 141.851 40.5286 145.239 37.8789 146.769ZM33.3649 138.951C31.6966 139.914 31.125 142.047 32.0882 143.715C33.0514 145.384 35.1847 145.955 36.8531 144.992C38.5214 144.029 39.093 141.896 38.1298 140.227C37.1666 138.559 35.0333 137.987 33.3649 138.951Z" fill="#111111"/>
<path d="M165.87 99.1244C163.22 100.654 159.832 99.7464 158.302 97.0967C156.772 94.4471 157.68 91.059 160.33 89.5292C162.979 87.9994 166.368 88.9072 167.897 91.5569C169.427 94.2066 168.519 97.5947 165.87 99.1244ZM161.356 91.306C159.687 92.2692 159.116 94.4025 160.079 96.0709C161.042 97.7392 163.175 98.3108 164.844 97.3476C166.512 96.3844 167.084 94.2511 166.121 92.5827C165.157 90.9144 163.024 90.3428 161.356 91.306Z" fill="#111111"/>
<path d="M48.512 71.935L1.54985 23.8699L2.29495 90.9761M48.512 71.935L2.29495 90.9761M48.512 71.935L137.987 128.358L2.29495 90.9761M117.488 52.6675L48.9879 71.6685L30.2574 2.65927L117.488 52.6675ZM117.488 52.6675L137.817 128.849M1.33252 23.7928L29.3281 1.43359" stroke="black" stroke-width="2"/>
<rect x="80.436" y="64.5776" width="10.345" height="87.9892" fill="#9D70F9"/>
<rect width="10.345" height="22.007" transform="matrix(-4.37114e-08 -1 -1 4.37114e-08 90.7808 152.547)" fill="#9D70F9"/>
<rect x="42.6768" y="74.917" width="10.345" height="48.1042" transform="rotate(-90 42.6768 74.917)" fill="#9D70F9"/>
<rect x="42.6768" y="64.5718" width="10.345" height="24.971" fill="#9D70F9"/>
<rect width="10.345" height="87.9892" transform="matrix(-1 0 0 1 103.683 64.5571)" fill="#111111"/>
<rect width="10.345" height="48.1042" transform="matrix(4.37114e-08 -1 -1 -4.37114e-08 141.442 74.9019)" fill="#111111"/>
<rect width="10.345" height="24.9852" transform="matrix(1 0 0 -1 131.097 89.543)" fill="#111111"/>
<rect width="10.345" height="22.007" transform="matrix(-4.37114e-08 -1 -1 4.37114e-08 115.345 152.547)" fill="#111111"/>
</svg>
