<svg width="151" height="139" viewBox="0 0 151 139" fill="none" xmlns="http://www.w3.org/2000/svg">
<path d="M2 62.3953L70.3721 90.8837L96.5814 137.035M2 62.3953L24.2209 29.3488L44.1628 6.55814L65.814 20.2326L85.7558 2L116.523 3.7093L130.767 51.5698L149 68.6628L96.5814 137.035M2 62.3953L42.4535 125.64L96.5814 137.035" stroke="black" stroke-width="2"/>
<path d="M24.2207 30.4882L69.2323 89.744L65.244 19.6626" stroke="black" stroke-width="2"/>
<path d="M117.093 5.41846L70.3721 88.0347" stroke="black" stroke-width="2"/>
<path d="M69.8027 90.3141L130.768 52.1396" stroke="black" stroke-width="2"/>
<path d="M35.7715 48.082H135.739V137.605H35.7715V48.082Z" fill="#9D70F9"/>
<path d="M35.7715 48.082H135.739V71.9549H35.7715V48.082Z" fill="#FF5656"/>
<path fill-rule="evenodd" clip-rule="evenodd" d="M61.8831 33.9072V51.8119H54.4229V33.9072H61.8831Z" fill="black"/>
<path fill-rule="evenodd" clip-rule="evenodd" d="M117.088 33.9072V51.8119H109.628V33.9072H117.088Z" fill="black"/>
<rect x="43.2324" y="77.9229" width="8.95232" height="8.95232" fill="white"/>
<rect x="68.5967" y="77.9229" width="8.95232" height="8.95232" fill="white"/>
<rect x="93.9619" y="77.9229" width="8.95232" height="8.95232" fill="white"/>
<rect x="119.326" y="77.9229" width="8.95232" height="8.95232" fill="white"/>
<rect x="43.2324" y="100.303" width="8.95232" height="8.95232" fill="white"/>
<rect x="68.5967" y="100.303" width="8.95232" height="8.95232" fill="white"/>
<rect x="93.9619" y="100.303" width="8.95232" height="8.95232" fill="white"/>
<rect x="119.326" y="100.303" width="8.95232" height="8.95232" fill="white"/>
<rect x="43.2324" y="122.684" width="8.95232" height="8.95232" fill="white"/>
<rect x="68.5967" y="122.684" width="8.95232" height="8.95232" fill="white"/>
<rect x="93.9619" y="122.684" width="8.95232" height="8.95232" fill="white"/>
<rect x="119.326" y="122.684" width="8.95232" height="8.95232" fill="white"/>
</svg>
