<svg width="743" height="837" viewBox="0 0 743 837" fill="none" xmlns="http://www.w3.org/2000/svg">
<path fill-rule="evenodd" clip-rule="evenodd" d="M572.657 820.455L529.258 782.884L542.92 767.103L586.319 804.674L572.657 820.455Z" fill="#111111"/>
<path fill-rule="evenodd" clip-rule="evenodd" d="M609.188 778.708L565.789 741.137L579.451 725.356L622.85 762.926L609.188 778.708Z" fill="#111111"/>
<path fill-rule="evenodd" clip-rule="evenodd" d="M645.715 736.961L602.316 699.39L615.979 683.609L659.377 721.179L645.715 736.961Z" fill="#111111"/>
<path fill-rule="evenodd" clip-rule="evenodd" d="M614.407 53.3521L571.008 15.7814L584.67 0L628.069 37.5707L614.407 53.3521Z" fill="#111111"/>
<circle cx="46.5625" cy="180.034" r="25.2011" stroke="#111111" stroke-width="7"/>
<circle cx="552.746" cy="80.885" r="25.2011" stroke="#111111" stroke-width="7"/>
<path d="M578.839 190.471L305.057 153.942M578.839 190.471L738 589.678M578.839 190.471L372.896 516.62L738 589.678M578.839 190.471L239.644 344.414L305.057 153.942M305.057 153.942L5 529.666M5 529.666L182.425 832.333M5 529.666L239.644 555.758L182.425 832.333M182.425 832.333L738 589.678" stroke="#111111" stroke-width="7"/>
<rect x="145" y="318" width="454" height="349.632" fill="#9D70F9"/>
<rect x="145" y="318" width="454" height="41.7471" fill="#FF5656"/>
<circle cx="542.204" cy="340.739" r="6.15088" fill="white"/>
<circle cx="560.653" cy="340.739" r="6.15088" fill="#F5F6F9"/>
<circle cx="579.11" cy="340.739" r="6.15088" fill="white"/>
<path d="M451.195 396.39V441.39H391.195V606.39H346.195V441.39H286.195V396.39H451.195Z" fill="white"/>
<path d="M207.195 483.19C204.929 487.724 203.795 493.857 203.795 501.59L203.995 509.59V517.39C203.995 524.457 203.262 530.39 201.795 535.19C200.462 539.99 197.395 545.124 192.595 550.59C195.395 553.124 197.262 557.457 198.195 563.59C199.129 569.724 199.662 577.324 199.795 586.39C199.929 596.39 200.395 604.124 201.195 609.59C202.129 615.19 204.329 619.324 207.795 621.99C209.262 623.19 210.929 623.99 212.795 624.39C214.662 624.79 216.862 625.057 219.395 625.19C222.329 625.457 224.395 625.857 225.595 626.39C226.929 627.057 227.595 628.39 227.595 630.39C227.595 633.457 226.129 635.79 223.195 637.39C220.395 638.99 216.862 639.79 212.595 639.79C205.529 639.79 199.129 637.19 193.395 631.99C187.662 626.79 184.129 620.657 182.795 613.59C182.262 611.057 181.995 607.99 181.995 604.39C181.995 602.257 182.129 598.924 182.395 594.39L182.595 584.39C182.595 575.057 181.795 568.724 180.195 565.39C179.395 563.524 177.195 561.524 173.595 559.39C171.062 557.79 169.262 556.457 168.195 555.39C167.129 554.19 166.595 552.59 166.595 550.59C166.595 548.99 166.929 547.457 167.595 545.99C168.395 544.79 169.395 543.79 170.595 542.99C171.929 542.19 173.262 541.457 174.595 540.79C177.262 539.324 179.062 538.124 179.995 537.19C182.395 535.057 183.862 532.19 184.395 528.59C185.062 524.99 185.395 519.79 185.395 512.99V506.79C185.395 495.99 186.329 487.124 188.195 480.19C190.062 473.257 194.129 468.524 200.395 465.99C202.662 465.057 205.662 464.59 209.395 464.59C213.662 464.59 217.462 465.19 220.795 466.39C224.129 467.457 225.795 469.124 225.795 471.39C225.795 475.524 224.929 478.124 223.195 479.19C221.595 480.124 219.795 480.524 217.795 480.39C215.795 480.257 214.395 480.19 213.595 480.19C210.529 480.19 208.395 481.19 207.195 483.19ZM276.531 483.19C274.265 487.724 273.131 493.857 273.131 501.59L273.331 509.59V517.39C273.331 524.457 272.598 530.39 271.131 535.19C269.798 539.99 266.731 545.124 261.931 550.59C264.731 553.124 266.598 557.457 267.531 563.59C268.465 569.724 268.998 577.324 269.131 586.39C269.265 596.39 269.731 604.124 270.531 609.59C271.465 615.19 273.665 619.324 277.131 621.99C278.598 623.19 280.265 623.99 282.131 624.39C283.998 624.79 286.198 625.057 288.731 625.19C291.665 625.457 293.731 625.857 294.931 626.39C296.265 627.057 296.931 628.39 296.931 630.39C296.931 633.457 295.465 635.79 292.531 637.39C289.731 638.99 286.198 639.79 281.931 639.79C274.865 639.79 268.465 637.19 262.731 631.99C256.998 626.79 253.465 620.657 252.131 613.59C251.598 611.057 251.331 607.99 251.331 604.39C251.331 602.257 251.465 598.924 251.731 594.39L251.931 584.39C251.931 575.057 251.131 568.724 249.531 565.39C248.731 563.524 246.531 561.524 242.931 559.39C240.398 557.79 238.598 556.457 237.531 555.39C236.465 554.19 235.931 552.59 235.931 550.59C235.931 548.99 236.265 547.457 236.931 545.99C237.731 544.79 238.731 543.79 239.931 542.99C241.265 542.19 242.598 541.457 243.931 540.79C246.598 539.324 248.398 538.124 249.331 537.19C251.731 535.057 253.198 532.19 253.731 528.59C254.398 524.99 254.731 519.79 254.731 512.99V506.79C254.731 495.99 255.665 487.124 257.531 480.19C259.398 473.257 263.465 468.524 269.731 465.99C271.998 465.057 274.998 464.59 278.731 464.59C282.998 464.59 286.798 465.19 290.131 466.39C293.465 467.457 295.131 469.124 295.131 471.39C295.131 475.524 294.265 478.124 292.531 479.19C290.931 480.124 289.131 480.524 287.131 480.39C285.131 480.257 283.731 480.19 282.931 480.19C279.865 480.19 277.731 481.19 276.531 483.19ZM457.033 483.19C456.499 481.99 455.633 481.257 454.433 480.99C453.366 480.59 451.966 480.39 450.233 480.39C449.699 480.39 448.233 480.457 445.833 480.59C443.433 480.59 441.633 479.857 440.433 478.39C439.233 476.924 438.633 474.59 438.633 471.39C438.633 469.124 440.299 467.457 443.633 466.39C446.966 465.19 450.766 464.59 455.033 464.59C458.633 464.59 461.633 465.057 464.033 465.99C470.299 468.524 474.299 473.257 476.033 480.19C477.899 486.99 478.833 495.857 478.833 506.79V512.99C478.833 519.657 479.166 524.857 479.833 528.59C480.499 532.19 482.033 535.057 484.433 537.19C485.366 538.124 487.166 539.324 489.833 540.79C491.166 541.457 492.433 542.19 493.633 542.99C494.833 543.79 495.833 544.79 496.633 545.99C497.433 547.724 497.833 549.324 497.833 550.79C497.833 552.657 497.233 554.19 496.033 555.39C494.833 556.59 493.099 557.924 490.833 559.39C487.366 561.39 485.099 563.39 484.033 565.39C482.566 568.857 481.833 575.19 481.833 584.39L482.033 594.39C482.166 596.657 482.233 599.99 482.233 604.39C482.233 608.657 482.033 611.724 481.633 613.59C480.299 620.657 476.766 626.79 471.033 631.99C465.299 637.19 458.833 639.79 451.633 639.79C447.366 639.79 443.833 638.99 441.033 637.39C438.233 635.79 436.833 633.457 436.833 630.39C436.833 628.39 437.433 627.057 438.633 626.39C439.966 625.857 442.099 625.457 445.033 625.19C447.566 625.057 449.766 624.79 451.633 624.39C453.499 623.99 455.166 623.19 456.633 621.99C459.966 619.324 462.033 615.257 462.833 609.79C463.766 604.457 464.366 596.657 464.633 586.39C464.766 577.324 465.233 569.724 466.033 563.59C466.966 557.457 468.833 553.124 471.633 550.59C466.833 545.124 463.766 539.99 462.433 535.19C461.099 530.257 460.433 524.324 460.433 517.39V509.59V501.79C460.433 493.79 459.299 487.59 457.033 483.19ZM525.588 483.19C525.054 481.99 524.188 481.257 522.988 480.99C521.921 480.59 520.521 480.39 518.788 480.39C518.254 480.39 516.788 480.457 514.388 480.59C511.988 480.59 510.188 479.857 508.988 478.39C507.788 476.924 507.188 474.59 507.188 471.39C507.188 469.124 508.854 467.457 512.188 466.39C515.521 465.19 519.321 464.59 523.588 464.59C527.188 464.59 530.188 465.057 532.587 465.99C538.854 468.524 542.854 473.257 544.588 480.19C546.454 486.99 547.388 495.857 547.388 506.79V512.99C547.388 519.657 547.721 524.857 548.388 528.59C549.054 532.19 550.588 535.057 552.988 537.19C553.921 538.124 555.721 539.324 558.388 540.79C559.721 541.457 560.988 542.19 562.188 542.99C563.388 543.79 564.388 544.79 565.188 545.99C565.988 547.724 566.388 549.324 566.388 550.79C566.388 552.657 565.788 554.19 564.588 555.39C563.388 556.59 561.654 557.924 559.388 559.39C555.921 561.39 553.654 563.39 552.588 565.39C551.121 568.857 550.388 575.19 550.388 584.39L550.588 594.39C550.721 596.657 550.788 599.99 550.788 604.39C550.788 608.657 550.588 611.724 550.188 613.59C548.854 620.657 545.321 626.79 539.588 631.99C533.854 637.19 527.388 639.79 520.188 639.79C515.921 639.79 512.388 638.99 509.588 637.39C506.788 635.79 505.388 633.457 505.388 630.39C505.388 628.39 505.988 627.057 507.188 626.39C508.521 625.857 510.654 625.457 513.588 625.19C516.121 625.057 518.321 624.79 520.188 624.39C522.054 623.99 523.721 623.19 525.188 621.99C528.521 619.324 530.588 615.257 531.388 609.79C532.321 604.457 532.921 596.657 533.188 586.39C533.321 577.324 533.788 569.724 534.588 563.59C535.521 557.457 537.388 553.124 540.188 550.59C535.388 545.124 532.321 539.99 530.988 535.19C529.654 530.257 528.988 524.324 528.988 517.39V509.59V501.79C528.988 493.79 527.854 487.59 525.588 483.19Z" fill="white"/>
</svg>
