<svg width="140" height="143" viewBox="0 0 140 143" fill="none" xmlns="http://www.w3.org/2000/svg">
<path d="M74.9724 9.09668C103.5 33.5082 131 70.5 131 70.5M74.9724 9.09668L8.5 9.0968M74.9724 9.09668L67 23.5M131 70.5C131 70.5 56 103.508 13 123.508M131 70.5L98 128.508L13 123.508M131 70.5L67 23.5M13 123.508L60.5 37.5082L67 23.5M13 123.508L8.5 9.0968M8.5 9.0968L67 23.5" stroke="#dddddd" stroke-width="2"/>
<path fill-rule="evenodd" clip-rule="evenodd" d="M87.439 6.42525L92.3638 0.000185531L94.7002 1.79102L89.7754 8.21608L87.439 6.42525Z" fill="#dddddd"/>
<path fill-rule="evenodd" clip-rule="evenodd" d="M36.0002 140.038L36.9578 132L39.8809 132.348L38.9233 140.387L36.0002 140.038Z" fill="#dddddd"/>
<path fill-rule="evenodd" clip-rule="evenodd" d="M98.2916 15.3613L103.216 8.93622L105.553 10.7271L100.628 17.1521L98.2916 15.3613Z" fill="#dddddd"/>
<path fill-rule="evenodd" clip-rule="evenodd" d="M46.7218 141.056L47.6794 133.018L50.6025 133.366L49.6449 141.404L46.7218 141.056Z" fill="#dddddd"/>
<circle cx="117.048" cy="117.556" r="3.04768" stroke="#dddddd" stroke-width="2"/>
<circle cx="60.0477" cy="138.048" r="3.04768" stroke="#dddddd" stroke-width="2"/>
<circle cx="24.5389" cy="71.5389" r="24.5389" fill="#FF5656"/>
<path d="M13.0387 68.6202V61.9111H11.9404L12.3821 60.2637H14.6861V68.6202H13.0387Z" fill="#dddddd"/>
<path d="M18.4061 68.6202V61.9111H17.3078L17.7495 60.2637H20.0535V68.6202H18.4061Z" fill="#dddddd"/>
<path d="M23.7734 68.6202V61.9111H22.6752L23.1169 60.2637H25.4209V68.6202H23.7734Z" fill="#dddddd"/>
<path d="M29.1408 68.6202V61.9111H28.0425L28.4842 60.2637H30.7882V68.6202H29.1408Z" fill="#dddddd"/>
<path d="M34.5082 68.6202V61.9111H33.4099L33.8516 60.2637H36.1556V68.6202H34.5082Z" fill="#dddddd"/>
<path d="M13.0387 83.2108V76.5018H11.9404L12.3821 74.8544H14.6861V83.2108H13.0387Z" fill="#dddddd"/>
<path d="M18.4061 83.2108V76.5018H17.3078L17.7495 74.8544H20.0535V83.2108H18.4061Z" fill="#dddddd"/>
<path d="M23.7734 83.2108V76.5018H22.6752L23.1169 74.8544H25.4209V83.2108H23.7734Z" fill="#dddddd"/>
<path d="M29.1408 83.2108V76.5018H28.0425L28.4842 74.8544H30.7882V83.2108H29.1408Z" fill="#dddddd"/>
<path d="M34.5082 83.2108V76.5018H33.4099L33.8516 74.8544H36.1556V83.2108H34.5082Z" fill="#dddddd"/>
<path d="M71.4412 72.202V67.08H57.5889V60.0805H71.4412V54.9585L82.791 63.5803L71.4412 72.202Z" fill="#dddddd"/>
<path d="M68.9387 89.4457V84.3237H82.791V77.3242H68.9387V72.2021L57.5889 80.8239L68.9387 89.4457Z" fill="#dddddd"/>
<circle cx="115.036" cy="71.5389" r="24.5389" fill="#9D70F9"/>
<path d="M121.314 51.5703L104.208 73.632H112.099L109.041 90.8774L126.147 68.8157H118.256L121.314 51.5703Z" fill="#dddddd"/>
</svg>
