<svg width="147" height="135" viewBox="0 0 147 135" fill="none"
    xmlns="http://www.w3.org/2000/svg">
    <path fill-rule="evenodd" clip-rule="evenodd" d="M99.38 125.979L94.7056 134.845L90.9941 132.888L95.6685 124.022L99.38 125.979Z" fill="#dddddd"/>
    <path fill-rule="evenodd" clip-rule="evenodd" d="M88.3018 119.628L83.6275 128.494L79.916 126.537L84.5904 117.671L88.3018 119.628Z" fill="#dddddd"/>
    <path fill-rule="evenodd" clip-rule="evenodd" d="M77.38 113.979L72.7056 122.845L68.9941 120.888L73.6685 112.022L77.38 113.979Z" fill="#dddddd"/>
    <path fill-rule="evenodd" clip-rule="evenodd" d="M71.1899 -4.76837e-05V10.0225H66.9941V-4.76837e-05H71.1899Z" fill="#dddddd"/>
    <circle cx="49.4941" cy="5.52246" r="4.5" stroke="#dddddd" stroke-width="2"/>
    <path d="M106.191 13.5615L134.224 44.5877M106.191 13.5615C106.191 13.5615 100.736 59.7731 97.2416 89.3835M106.191 13.5615L38.1195 29.0596M134.224 44.5877L108.095 105.995M134.224 44.5877C134.224 44.5877 111.684 71.8896 97.2416 89.3835M108.095 105.995C83.472 104.748 34.1338 101.85 33.7655 100.233M108.095 105.995C108.095 105.995 101.48 95.8707 97.2416 89.3835M33.7655 100.233C33.3973 98.6154 17.3225 71.6031 9.33114 58.2991M33.7655 100.233L44.1806 55.6816M33.7655 100.233C33.7655 100.233 72.4526 93.6204 97.2416 89.3835M9.33114 58.2991L38.1195 29.0596M9.33114 58.2991L44.1806 55.6816M38.1195 29.0596L44.1806 55.6816M97.2416 89.3835C97.2416 89.3835 44.7865 55.6594 44.1806 55.6816" stroke="#dddddd" stroke-width="2"/>
    <circle cx="43.7554" cy="55.7554" r="5.75542" fill="#FF5656"/>
    <circle cx="105" cy="17" r="12" fill="#FF5656"/>
    <circle cx="99" cy="89" r="12" fill="#9D70F9"/>
    <circle cx="36.2978" cy="101.109" r="8.85449" fill="#dddddd"/>
    <circle cx="133.696" cy="45.3259" r="8.85449" fill="#dddddd"/>
    <circle cx="12" cy="57" r="12" fill="#9D70F9"/>
</svg>
