<svg width="149" height="152" viewBox="0 0 149 152" fill="none"
    xmlns="http://www.w3.org/2000/svg">
    <path d="M10.4707 96.3471C7.82106 97.8769 4.43296 96.969 2.90318 94.3194C1.3734 91.6697 2.28124 88.2816 4.93089 86.7518C7.58055 85.2221 10.9686 86.1299 12.4984 88.7796C14.0282 91.4292 13.1204 94.8173 10.4707 96.3471ZM5.95674 88.5287C4.2884 89.4919 3.71679 91.6252 4.68 93.2935C5.64322 94.9619 7.77652 95.5335 9.44486 94.5703C11.1132 93.607 11.6848 91.4737 10.7216 89.8054C9.75838 88.1371 7.62508 87.5654 5.95674 88.5287Z" fill="#dddddd"/>
    <rect x="23.4976" y="107.83" width="11.0796" height="3.45801" transform="rotate(150 23.4976 107.83)" fill="#dddddd"/>
    <rect x="87.7393" y="3.28223" width="11.0796" height="3.45801" transform="rotate(150 87.7393 3.28223)" fill="#dddddd"/>
    <rect x="95.9683" y="17.5352" width="11.0796" height="3.45801" transform="rotate(150 95.9683 17.5352)" fill="#dddddd"/>
    <path d="M107 50.2607C104.35 51.7904 100.962 50.8826 99.4325 48.2329C97.9027 45.5833 98.8105 42.1952 101.46 40.6654C104.11 39.1356 107.498 40.0435 109.028 42.6931C110.557 45.3428 109.65 48.7309 107 50.2607ZM102.486 42.4422C100.818 43.4055 100.246 45.5388 101.209 47.2071C102.173 48.8754 104.306 49.4471 105.974 48.4838C107.642 47.5206 108.214 45.3873 107.251 43.719C106.288 42.0506 104.154 41.479 102.486 42.4422Z" fill="#dddddd"/>
    <path d="M8.60107 57.8097L41.2807 43.8032L59.4146 61.2653L102.884 149.79M103.077 149.768L115.493 63.9829L131.659 26.4091M41.166 43.8492L131.278 26.2168L147.867 65.3459M8.81845 57.8582L103.241 149.821L146.955 66.6057L8.81845 57.8582Z" stroke="#dddddd" stroke-width="2"/>
    <path d="M51.7495 53.0308C60.25 53.0308 68.6672 54.7051 76.5206 57.958C84.374 61.211 91.5098 65.979 97.5205 71.9897C103.531 78.0005 108.299 85.1362 111.552 92.9896C114.805 100.843 116.479 109.26 116.479 117.761H103.719C103.719 110.936 102.375 104.178 99.7629 97.8729C97.1512 91.5677 93.3232 85.8387 88.4974 81.0129C83.6716 76.1871 77.9425 72.3591 71.6373 69.7474C65.3321 67.1357 58.5742 65.7914 51.7495 65.7914L51.7495 53.0308Z" fill="#9D70F9"/>
    <path d="M51.7496 74.7493C57.3979 74.7493 62.9909 75.8618 68.2093 78.0233C73.4277 80.1848 78.1693 83.353 82.1633 87.347C86.1573 91.341 89.3255 96.0826 91.487 101.301C93.6485 106.519 94.761 112.112 94.761 117.761H82.3872C82.3872 113.737 81.5948 109.753 80.0551 106.036C78.5154 102.319 76.2586 98.9416 73.4137 96.0966C70.5687 93.2517 67.1912 90.9949 63.4741 89.4552C59.7569 87.9155 55.7729 87.1231 51.7496 87.1231L51.7496 74.7493Z" fill="#9D70F9"/>
    <path d="M69.824 108.724C69.824 113.715 65.7779 117.761 60.7868 117.761C55.7956 117.761 51.7495 113.715 51.7495 108.724C51.7495 103.732 55.7956 99.6863 60.7868 99.6863C65.7779 99.6863 69.824 103.732 69.824 108.724Z" fill="#dddddd"/>
</svg>
