<svg width="24" height="24" viewBox="0 0 91 90" fill="none" xmlns="http://www.w3.org/2000/svg">
<path d="M0.679688 0C12.4997 0 24.1996 2.32801 35.1196 6.85101C46.0396 11.374 55.9597 18.003 64.3197 26.36C72.6797 34.718 79.3097 44.639 83.8297 55.558C88.3497 66.478 90.6797 78.181 90.6797 90H72.9397C72.9397 80.511 71.0697 71.115 67.4397 62.348C63.8097 53.581 58.4797 45.616 51.7697 38.906C45.0597 32.196 37.0997 26.874 28.3297 23.243C19.5697 19.611 10.1697 17.742 0.679688 17.742V0Z" fill="#9D70F9"/>
<path d="M0.679688 30.1968C8.52969 30.1968 16.3097 31.7438 23.5697 34.7488C30.8197 37.7548 37.4097 42.1598 42.9697 47.7128C48.5197 53.2658 52.9297 59.8588 55.9297 67.1138C58.9397 74.3698 60.4797 82.1468 60.4797 89.9998H43.2797C43.2797 84.4058 42.1797 78.8668 40.0397 73.6978C37.8997 68.5298 34.7597 63.8338 30.7997 59.8778C26.8497 55.9228 22.1497 52.7848 16.9797 50.6438C11.8097 48.5038 6.26969 47.4018 0.679688 47.4018V30.1968Z" fill="#9D70F9"/>
<path d="M25.8097 77.4351C25.8097 84.3741 20.1796 90.0001 13.2496 90.0001C6.30963 90.0001 0.679688 84.3741 0.679688 77.4351C0.679688 70.4951 6.30963 64.8701 13.2496 64.8701C20.1796 64.8701 25.8097 70.4951 25.8097 77.4351Z" fill="white"/>
</svg>
