<svg width="67" height="72" viewBox="0 0 67 72" fill="none" xmlns="http://www.w3.org/2000/svg">
<path d="M33.4515 0.260254L62.0303 50.5103L4.87264 50.5103L33.4515 0.260254Z" fill="#9D70F9"/>
<mask id="path-2-inside-1_138_19" fill="white">
<path fill-rule="evenodd" clip-rule="evenodd" d="M45.6634 32.2603C45.6634 30.6034 44.3202 29.2603 42.6634 29.2603H24.4516C22.7948 29.2603 21.4516 30.6034 21.4516 32.2603V41.5259C21.4516 42.0564 21.6623 42.5651 22.0374 42.9402L29.3574 50.2602L22.0373 57.5803C21.6622 57.9554 21.4515 58.4641 21.4515 58.9946V68.2603C21.4515 69.9171 22.7946 71.2603 24.4515 71.2603H42.6632C44.3201 71.2603 45.6632 69.9171 45.6632 68.2603V58.9946C45.6632 58.4641 45.4525 57.9554 45.0775 57.5803L37.7574 50.2603L45.0776 42.9402C45.4527 42.5651 45.6634 42.0564 45.6634 41.5259V32.2603Z"/>
</mask>
<path fill-rule="evenodd" clip-rule="evenodd" d="M45.6634 32.2603C45.6634 30.6034 44.3202 29.2603 42.6634 29.2603H24.4516C22.7948 29.2603 21.4516 30.6034 21.4516 32.2603V41.5259C21.4516 42.0564 21.6623 42.5651 22.0374 42.9402L29.3574 50.2602L22.0373 57.5803C21.6622 57.9554 21.4515 58.4641 21.4515 58.9946V68.2603C21.4515 69.9171 22.7946 71.2603 24.4515 71.2603H42.6632C44.3201 71.2603 45.6632 69.9171 45.6632 68.2603V58.9946C45.6632 58.4641 45.4525 57.9554 45.0775 57.5803L37.7574 50.2603L45.0776 42.9402C45.4527 42.5651 45.6634 42.0564 45.6634 41.5259V32.2603Z" fill="white"/>
<path d="M22.0374 42.9402L23.4516 41.5259L23.4516 41.5259L22.0374 42.9402ZM29.3574 50.2602L30.7716 51.6744C31.5527 50.8933 31.5527 49.627 30.7716 48.846L29.3574 50.2602ZM22.0373 57.5803L23.4515 58.9946H23.4515L22.0373 57.5803ZM37.7574 50.2603L36.3432 48.8461C35.5622 49.6272 35.5622 50.8935 36.3432 51.6745L37.7574 50.2603ZM45.0776 42.9402L46.4918 44.3544L46.4918 44.3544L45.0776 42.9402ZM42.6634 31.2603C43.2157 31.2603 43.6634 31.708 43.6634 32.2603H47.6634C47.6634 29.4988 45.4248 27.2603 42.6634 27.2603V31.2603ZM24.4516 31.2603H42.6634V27.2603H24.4516V31.2603ZM23.4516 32.2603C23.4516 31.708 23.8993 31.2603 24.4516 31.2603V27.2603C21.6902 27.2603 19.4516 29.4988 19.4516 32.2603H23.4516ZM23.4516 41.5259V32.2603H19.4516V41.5259H23.4516ZM23.4516 41.5259L23.4516 41.5259H19.4516C19.4516 42.5868 19.8731 43.6042 20.6232 44.3544L23.4516 41.5259ZM30.7716 48.846L23.4516 41.5259L20.6232 44.3544L27.9432 51.6744L30.7716 48.846ZM23.4515 58.9946L30.7716 51.6744L27.9432 48.846L20.623 56.1661L23.4515 58.9946ZM23.4515 58.9946H23.4515L20.6231 56.1661C19.8729 56.9163 19.4515 57.9337 19.4515 58.9946H23.4515ZM23.4515 68.2603V58.9946H19.4515V68.2603H23.4515ZM24.4515 69.2603C23.8992 69.2603 23.4515 68.8125 23.4515 68.2603H19.4515C19.4515 71.0217 21.69 73.2603 24.4515 73.2603V69.2603ZM42.6632 69.2603H24.4515V73.2603H42.6632V69.2603ZM43.6632 68.2603C43.6632 68.8125 43.2155 69.2603 42.6632 69.2603V73.2603C45.4247 73.2603 47.6632 71.0217 47.6632 68.2603H43.6632ZM43.6632 58.9946V68.2603H47.6632V58.9946H43.6632ZM43.6632 58.9946H47.6632C47.6632 57.9337 47.2418 56.9163 46.4917 56.1661L43.6632 58.9946ZM36.3432 51.6745L43.6632 58.9946L46.4917 56.1661L39.1716 48.8461L36.3432 51.6745ZM43.6634 41.5259L36.3432 48.8461L39.1716 51.6745L46.4918 44.3544L43.6634 41.5259ZM43.6634 41.5259L43.6634 41.5259L46.4918 44.3544C47.242 43.6042 47.6634 42.5868 47.6634 41.5259H43.6634ZM43.6634 32.2603V41.5259H47.6634V32.2603H43.6634Z" fill="black" mask="url(#path-2-inside-1_138_19)"/>
</svg>
