<svg width="24" height="24" viewBox="0 0 822 823" fill="none" xmlns="http://www.w3.org/2000/svg">
<g clip-path="url(#clip0_1407_804)">
<path fill-rule="evenodd" clip-rule="evenodd" d="M472.831 427.997C472.793 427.513 472.716 427.03 472.627 426.546L473.315 425.807L471.952 331.571C481.634 320.543 489.163 311.552 490.335 309.782C493.89 304.434 503.788 245.893 505.215 228.433C507.814 196.482 510.948 111.199 507.139 99.9413C503.241 88.4547 436.574 36.0901 390.761 37.389C344.745 38.6879 282.193 79.3877 274.167 106.678C271.709 115.057 266.676 187.555 268.766 220.805C269.861 238.303 279.594 311.883 285.442 319.537C286.448 320.861 294.691 328.948 305.265 338.855H304.819L304.615 427.03L472.831 427.997Z" fill="#F5F6F9"/>
<path d="M503.1 286.019C501.075 286.019 498.705 284.758 498.246 282.657L498.195 282.441L498.234 282.224C499.571 274.647 500.718 266.904 501.826 259.429C502.119 257.455 502.412 255.494 502.705 253.52C504.298 242.938 505.546 231.973 506.565 220.003L506.616 219.455L507.088 219.188C507.228 219.112 507.33 218.971 507.419 218.793C508.884 215.635 512.808 208.3 517.713 208.3C519.127 208.3 520.477 208.911 521.713 210.108C523.688 212.018 524.35 215.266 524.745 218.195C525.79 226.065 524.35 234.431 522.796 241.575C520.872 250.477 518.108 259.302 514.579 267.783C512.757 272.177 510.782 276.315 508.718 280.098C508.54 280.429 508.349 280.823 508.145 281.256C507.406 282.823 506.476 284.758 505.126 285.535C504.565 285.854 503.877 286.019 503.126 286.019H503.1Z" fill="#F5F6F9"/>
<path fill-rule="evenodd" clip-rule="evenodd" d="M503.203 250.171L511.484 232.534L518.949 221.531C518.949 221.531 522.16 217.851 524.084 219.506C526.007 221.162 526.249 235.399 524.084 240.391C521.918 245.383 507.395 264.689 507.395 264.689L511.662 253.559L516.07 239.436C516.07 239.436 514.389 231.209 514.975 230.636C515.561 230.063 512.924 232.546 512.924 232.546L503.216 250.184L503.203 250.171Z" fill="#BABABA"/>
<path d="M508.323 219.201C510.221 215.113 515.967 205.116 521.229 211.076C522.91 212.973 523.445 215.979 523.751 218.398C524.719 225.988 523.394 233.947 521.802 241.359C519.929 250.031 517.254 258.551 513.891 266.764C512.145 271.03 510.196 275.22 508.005 279.283C507.253 280.671 506.081 283.854 504.616 284.682C502.731 285.752 499.405 284.351 499.189 282.161C498.934 279.588 494.87 279.563 495.138 282.161C495.558 286.376 498.539 288.846 502.781 288.948C507.89 289.063 509.33 285.37 511.521 281.333C518.082 269.222 522.821 255.902 525.726 242.454C527.751 233.081 530.096 221.175 526.312 211.916C524.872 208.389 522.006 205.218 517.929 205.154C511.508 205.053 507.177 212.107 504.833 217.163C503.737 219.519 507.24 221.582 508.336 219.213L508.323 219.201Z" fill="#D1D1D1"/>
<path d="M503.203 254.399C504.464 250.821 519.013 217.8 522.988 221.289C524.453 222.576 526.619 220.436 525.141 219.137C516.159 211.255 502.247 247.956 500.273 253.584C499.623 255.431 502.566 256.233 503.203 254.387V254.399Z" fill="#D1D1D1"/>
<path d="M513.239 226.956C514.22 239.385 511.52 252.718 506.067 263.912C505.213 265.669 507.838 267.21 508.691 265.453C514.386 253.788 517.316 239.933 516.284 226.969C516.131 225.033 513.087 225.02 513.239 226.969V226.956Z" fill="#D1D1D1"/>
<path d="M271.747 286.019C273.772 286.019 276.142 284.759 276.6 282.657L276.651 282.441L276.613 282.224C275.276 274.647 274.129 266.905 273.021 259.429C272.728 257.456 272.435 255.494 272.142 253.521C270.549 242.938 269.301 231.974 268.281 220.003L268.23 219.456L267.759 219.188C267.619 219.112 267.517 218.972 267.428 218.793C265.963 215.635 262.039 208.3 257.134 208.3C255.72 208.3 254.37 208.911 253.134 210.108C251.159 212.019 250.497 215.266 250.102 218.195C249.057 226.065 250.497 234.431 252.051 241.576C253.975 250.477 256.739 259.302 260.268 267.783C262.09 272.177 264.065 276.316 266.128 280.098C266.307 280.429 266.498 280.824 266.702 281.257C267.441 282.823 268.371 284.759 269.721 285.535C270.282 285.854 270.969 286.019 271.721 286.019H271.747Z" fill="#F5F6F9"/>
<path fill-rule="evenodd" clip-rule="evenodd" d="M271.658 250.171L263.377 232.534L255.911 221.531C255.911 221.531 252.701 217.851 250.777 219.506C248.853 221.162 248.611 235.399 250.777 240.391C252.943 245.383 267.466 264.689 267.466 264.689L263.198 253.559L258.79 239.436C258.79 239.436 260.472 231.209 259.886 230.636C259.3 230.063 261.937 232.547 261.937 232.547L271.645 250.184L271.658 250.171Z" fill="#BABABA"/>
<path d="M266.537 219.201C264.639 215.113 258.893 205.116 253.632 211.076C251.95 212.974 251.415 215.979 251.109 218.399C250.141 225.988 251.466 233.948 253.058 241.359C254.931 250.031 257.606 258.551 260.97 266.765C262.715 271.031 264.664 275.22 266.855 279.283C267.607 280.671 268.779 283.854 270.244 284.682C272.13 285.752 275.455 284.351 275.671 282.161C275.926 279.588 279.99 279.563 279.723 282.161C279.302 286.376 276.321 288.846 272.079 288.948C266.97 289.063 265.53 285.37 263.339 281.333C256.778 269.222 252.039 255.902 249.134 242.454C247.109 233.082 244.765 221.175 248.548 211.917C249.988 208.389 252.854 205.218 256.931 205.155C263.352 205.053 267.684 212.108 270.028 217.163C271.123 219.519 267.62 221.582 266.524 219.214L266.537 219.201Z" fill="#D1D1D1"/>
<path d="M271.643 254.4C270.382 250.821 255.833 217.8 251.859 221.29C250.393 222.576 248.228 220.436 249.706 219.137C258.687 211.255 272.599 247.956 274.574 253.585C275.223 255.431 272.28 256.233 271.643 254.387V254.4Z" fill="#D1D1D1"/>
<path d="M261.62 226.956C260.639 239.385 263.34 252.718 268.793 263.912C269.646 265.669 267.022 267.21 266.168 265.453C260.474 253.788 257.543 239.933 258.575 226.969C258.728 225.033 261.773 225.021 261.62 226.969V226.956Z" fill="#D1D1D1"/>
<path fill-rule="evenodd" clip-rule="evenodd" d="M377.297 223.811C377.297 223.811 362.315 225.199 361.755 244.135C361.627 248.388 360.188 272.342 359.602 281.957C354.302 285.522 348.849 290.132 347.397 291.941C335.524 306.802 367.093 292.234 367.093 292.234L373.705 289.547L373.093 288.337C373.31 288.337 373.513 288.349 373.705 288.349C377.883 288.349 377.297 223.811 377.297 223.811Z" fill="#D1D1D1"/>
<path fill-rule="evenodd" clip-rule="evenodd" d="M402.409 293.138L391.644 296.729L385.669 295.532C385.669 295.532 366.291 287.153 366.533 288.362C369.222 301.505 390.752 334.373 411.963 287.165C412.575 285.803 402.396 293.138 402.396 293.138H402.409Z" fill="#D1D1D1"/>
<path d="M366.81 279.435C365.817 281.842 364.008 285.599 365.906 287.955C367.345 289.725 370.62 290.693 372.62 291.546C377.41 293.609 383.843 297.085 389.207 296.869C394.914 296.64 401.564 293.252 406.699 291.011C408.559 290.196 411.514 289.266 412.648 287.394C414.355 284.567 412.062 280.989 410.304 278.837C408.648 276.825 405.794 279.703 407.437 281.702C410.138 285 409.196 285.382 406.329 286.758C404.049 287.84 401.666 288.732 399.297 289.598C396.214 290.731 391.882 292.934 388.519 292.781C384.672 292.603 380.047 290.209 376.556 288.808C374.671 288.044 371.957 287.305 370.339 286.006C370.008 285.752 368.9 285.484 368.76 285.064C368.683 284.822 370.454 281.091 370.696 280.492C371.69 278.085 367.766 277.028 366.785 279.41L366.81 279.435Z" fill="#111111"/>
<path d="M739.155 931.842C740.557 929.651 759.017 920.151 765.896 897.013C772.776 873.874 773.718 869.493 770.584 863.24C767.45 856.988 766.202 855.116 766.52 853.231C766.839 851.346 770.686 841.77 771.323 837.809C771.96 833.849 774.113 822.171 772.304 820.096C770.495 818.007 768.406 813.843 768.61 813.219C768.814 812.595 769.654 809.679 769.858 807.794C770.062 805.909 767.973 787.571 768.189 785.903C768.406 784.235 767.565 779.65 768.406 777.562C769.247 775.474 774.037 761.924 774.241 761.096C774.444 760.268 773.196 755.557 772.776 755.302C772.355 755.047 770.89 753.175 770.686 750.463C770.482 747.75 767.973 741.498 768.189 740.874C768.406 740.25 756.239 712.934 756.481 712.31C756.723 711.686 753.806 691.26 753.182 689.999C752.558 688.738 746.71 676.869 746.71 675.825C746.71 674.781 743.576 659.245 743.576 659.245C743.576 659.245 736.34 639.723 729.639 632.553C729.639 632.553 734.607 609.338 734.607 608.497C734.607 607.657 729.664 604.957 729.639 604.117C729.613 603.276 732.123 583.894 732.123 583.894C732.123 583.894 737.385 574.598 738.99 573.885C740.595 573.172 729.817 571.389 726.059 571.593C722.301 571.796 719.804 567.008 719.804 567.008C719.804 567.008 712.364 554.885 711.039 544.493C709.714 534.102 705.191 529.275 704.784 528.231C704.376 527.187 698.961 509.346 696.019 508.212C693.076 507.092 689.152 501.132 689.763 499.871C690.375 498.611 682.973 484.373 681.215 483.813C679.444 483.253 681.419 478.604 681.215 478.604C681.011 478.604 676.629 475.268 675.584 474.44C674.539 473.613 671.622 471.104 670.577 468.812C669.533 466.519 664.118 459.643 659.519 455.886C654.92 452.129 640.333 436.173 634.702 434.25C629.071 432.327 611.439 426.698 608.573 424.61C605.707 422.521 600.916 422.114 597.362 423.362C593.82 424.61 582.762 427.322 580.049 428.15C577.335 428.99 568.991 423.986 557.525 420.229C546.059 416.472 512.464 399.803 500.795 401.051C500.795 401.051 496.603 374.588 482.373 373.659C468.143 372.742 447.16 440.375 447.16 440.375L407.578 482.285L398.966 489.493C398.966 489.493 392.329 482.247 389.959 479.878C387.589 477.509 365.371 468.595 364.123 468.098C362.874 467.602 347.459 459.286 345.37 455.135C343.28 450.983 341.866 442.935 341.866 442.935C341.866 442.935 311.801 381.376 310.807 382.637C309.813 383.897 304.144 385.145 302.896 388.303C301.647 391.462 299.8 397.332 298.946 397.32C298.093 397.307 279.493 402.821 274.817 405.482C270.142 408.144 256.931 416.536 256.548 416.409C256.166 416.281 252.204 418.179 250.535 418.586C248.866 418.994 246.573 417.759 242.611 418.586C238.649 419.401 236.139 420.204 236.139 420.204C236.139 420.204 235.298 422.139 233.005 423.897C230.712 425.667 229.043 426.507 226.954 427.131C224.865 427.755 224.661 427.271 222.571 427.73C220.482 428.175 219.144 429.373 216.1 427.73C213.055 426.087 213.386 429.258 211.093 429.449C208.8 429.64 208.176 431.818 205.258 431.359C202.341 430.901 181.906 433.511 172.3 437.688C162.695 441.865 159.79 446.577 157.904 446.972C156.032 447.366 153.191 448.347 150.401 449.621C147.611 450.894 146.235 448.271 145.394 450.423C144.553 452.562 144.146 453.365 143.929 454.944C143.725 456.523 143.509 458.191 143.929 459.655C144.349 461.12 143.687 461.82 143.687 461.82L141.419 466.265C141.419 466.265 133.075 476.121 130.782 478.21C128.488 480.298 123.061 486.755 123.278 488.423C123.494 490.091 125.991 494.752 125.991 494.752L121.583 503.119C121.583 503.119 120.36 511.154 110.551 512.3C110.551 512.3 107.009 514.274 106.589 516.783C106.168 519.292 105.544 532.714 105.34 532.981C105.136 533.249 100.537 542.634 100.13 543.462C99.7221 544.29 95.8492 550.822 95.8492 550.822C95.8492 550.822 92.8299 565.977 92.626 569.313C92.4222 572.649 89.7086 584.951 89.492 585.995C89.2755 587.04 89.0716 591.255 87.4027 592.796C85.7338 594.337 85.5937 593.967 85.53 596.005C85.4663 598.042 85.1096 597.851 83.8611 598.717C82.6126 599.583 81.9883 601.633 81.3641 602.257C80.7398 602.881 78.4467 604.346 78.2301 605.594C78.0135 606.842 76.5612 619.768 76.5612 623.728V635.609C76.5612 637.278 71.5545 652.343 70.9302 654.087C70.306 655.832 62.3819 672.298 61.9615 674.182C61.541 676.067 60.2925 698.989 60.0887 706.286C59.8849 713.583 56.1267 735.258 56.1267 735.258C56.1267 735.258 52.7888 766.941 54.0373 768.406C55.2858 769.87 57.3751 776.123 57.3751 776.123C57.3751 776.123 53.6806 786.336 53.7571 788.628C53.8335 790.921 52.636 799.682 53.7571 801.35C54.8782 803.018 54.6743 807.195 54.6743 807.195C54.6743 807.195 51.7442 812.187 51.7442 812.811C51.7442 813.435 49.0306 831.162 52.7888 833.454C56.5471 835.746 59.4645 838.039 60.2925 839.707C61.1206 841.375 58.2287 851.601 56.7509 853.256C55.2731 854.912 59.6683 863.89 60.713 865.558C61.7576 867.226 63.6304 873.899 64.0508 874.943C64.4712 875.988 62.3819 890.785 62.3819 893.498C62.3819 896.21 63.2864 902.081 66.1401 903.507C68.9938 904.933 71.4653 908.907 71.4653 908.907C71.4653 908.907 68.8537 904.348 76.3574 893.714C83.8611 883.081 130.578 850.977 141.432 833.887C152.286 816.797 176.466 798.447 188.352 795.314C200.239 792.181 210.456 788.437 211.297 788.017C212.138 787.597 230.011 838.879 230.011 838.879L188.289 940.488L190.493 1011.03H612.025C612.025 1011.03 612.701 933.306 614.663 931.116C616.625 928.925 737.716 934.045 739.104 931.867L739.155 931.842Z" fill="black"/>
<path d="M464.104 437.319C456.473 443.431 454.256 451.212 451.44 460.368C449.861 465.488 448.103 470.543 444.752 474.81C440.866 479.751 434.076 482.629 428.407 484.959C418.852 488.881 408.915 491.415 400.367 497.477C397.551 499.464 394.787 502.125 392.379 505.169C393.334 503.055 394.417 500.992 395.691 499.005C402.01 489.212 413.285 484.717 421.222 476.796C421.527 476.49 421.324 475.816 420.84 475.879C412.903 476.847 404.94 483.469 398.991 489.493C395.373 479.114 384.544 474.835 374.913 470.76C369.001 468.264 363.078 465.87 357.485 462.712C351.433 459.286 347.217 454.243 341.955 449.888C341.165 449.238 340.184 450.219 340.834 451.009C343.968 454.803 346.376 458.382 350.427 461.425C355.459 465.208 360.95 467.996 366.683 470.531C377.244 475.217 392.315 479.419 397.883 490.639C397.246 491.301 396.634 491.95 396.048 492.587C395.729 492.931 395.475 493.3 395.182 493.644C394.124 487.366 385.512 483.953 380.174 482.259C378.684 481.788 377.18 481.393 375.664 481.037C367.855 478.401 359.307 477.267 350.58 475.51C340.452 473.472 332.273 468.086 325.215 460.712C319.023 454.23 316.488 447.15 313.189 439.369C313.38 439.369 313.571 439.369 313.749 439.369C317.546 439.267 321.699 438.478 325.24 440.35C326.82 441.19 328.438 439.178 327.164 437.866C322.259 432.836 312.119 435.116 305.774 435.078C296.551 435.027 287.327 436.517 278.791 440.057C271.097 443.253 259.835 449.722 254.102 458.114C255.146 452.155 256.828 446.475 259.924 440.923C264.243 433.167 270.498 426.584 276.791 420.42C282.83 414.498 289.353 409.379 295.965 404.132C298.538 402.095 300.64 399.739 302.016 396.759C304.105 392.213 305.226 386.724 309.825 383.872C310.539 383.426 310.31 382.14 309.367 382.203C302.971 382.636 301.035 388.991 298.385 394.238C291.327 396.543 284.282 398.86 277.466 401.828C269.593 405.253 263.848 409.43 257.019 414.397C251.363 418.51 244.674 416.485 238.266 417.835C235.642 418.382 233.82 419.86 232.89 421.885C232.533 421.935 232.177 422.05 231.896 422.317C230.329 423.731 228.762 425.068 226.953 426.189C226.622 426.393 226.278 426.558 225.921 426.724C225.654 426.584 225.323 426.533 224.94 426.596C221.628 427.22 218.787 424.686 215.169 425.31C212.901 425.705 210.481 427.781 208.29 428.468C205.092 429.474 201.385 429.181 198.085 429.029C187.677 428.545 179.179 433.053 169.803 437.077C164.567 439.331 161.127 444.285 155.738 446.029C152.783 446.997 148.999 446.309 146.273 447.99C143.049 449.964 142.107 453.683 142.693 457.198C142.629 458.853 142.833 460.47 143.266 462.062C142.884 461.973 142.451 462.088 142.234 462.47C138.616 469.028 134.221 473.689 128.577 478.553C124.475 482.094 121.621 485.417 122.105 491.097C122.271 492.995 123.099 494.637 124.246 496.102C124.233 496.14 124.195 496.153 124.182 496.191C123.124 501.157 120.959 505.385 116.818 508.531C113.926 510.734 109.531 508.9 106.907 511.18C104.028 513.688 104.372 518.642 105.161 522.959C104.282 529.798 103.467 536.012 99.6578 541.959C97.8105 544.863 96.4856 547.269 96.1671 550.198C92.307 558.107 91.5681 565.544 90.9948 574.381C90.5489 581.309 88.3704 585.626 85.402 591.548C84.9434 592.452 84.7778 593.318 84.816 594.145C83.7713 595.164 82.9815 597.38 82.6502 599.494C80.217 601.328 78.013 603.289 76.3441 605.989C73.8598 609.987 74.6497 615.501 74.7643 619.92C74.8663 623.944 74.5095 627.625 75.8217 631.203C75.8217 631.203 75.8217 631.203 75.8217 631.216C74.5478 639.786 72.9298 647.376 69.3372 655.335C66.0758 662.568 61.5914 669.038 59.7314 676.844C58.0243 683.963 58.8269 691.54 58.7887 698.773C58.776 701.829 58.4447 704.873 58.0371 707.904C55.0432 720.562 54.1897 734.073 53.145 746.986C52.2914 757.479 51.234 767.591 55.7949 777.18C54.2661 780.631 52.4443 784.197 52.1258 787.966C51.629 793.964 52.9666 800 53.5909 805.947C53.6673 806.699 54.1769 807.068 54.712 807.106C52.0621 809.628 50.0365 812.646 48.9281 816.301C47.4376 821.203 47.7306 827.163 49.6798 831.862C50.3295 833.429 51.6544 835.288 53.1832 836.09C54.5718 836.816 55.7439 837.274 57.209 837.937C60.1519 839.261 59.2473 843.451 59.2346 846.036C55.9477 849.538 54.0877 853.778 56.2153 860.35C57.3873 863.992 59.8461 867.15 61.273 870.69C63.5024 876.268 60.9672 883.068 60.3175 888.799C59.4002 896.885 63.1967 906.207 69.592 911.263C69.592 911.275 69.592 911.301 69.592 911.313C69.6684 912.281 70.9169 912.409 71.2354 911.67C71.9998 911.415 72.5221 910.6 72.0126 909.645C71.8597 909.352 71.6686 909.072 71.503 908.792C73.2993 892.887 89.3641 880.967 101.072 872.078C107.429 867.252 114.576 863.622 120.831 858.694C126.793 853.995 131.329 847.653 136.081 841.821C146.209 829.392 157.025 817.472 169.548 807.399C176.606 801.719 184.275 796.804 193.002 794.219C200.518 791.99 208.481 791.685 216.226 790.933C217.934 790.768 218.176 788.794 216.991 788.068C216.94 788.03 216.927 787.966 216.876 787.941C210.608 784.426 206.646 781.662 199.219 782.388C198.289 782.477 197.282 782.605 196.263 782.758C196.11 782.516 195.894 782.325 195.601 782.248C194.454 781.994 193.384 781.637 192.314 781.268C192.531 781.115 192.696 780.911 192.734 780.593C192.76 780.338 192.747 780.083 192.773 779.816C194.123 775.397 197.486 771.704 199.117 767.311C200.072 764.738 200.671 762 201.474 759.377C202.531 755.926 204.531 752.908 205.818 749.559C207.767 744.465 208.736 739.18 209.869 733.857C210.022 733.156 210.201 732.456 210.404 731.768C210.404 731.743 210.417 731.73 210.43 731.705C211.526 728.063 213.233 724.586 214.073 720.918C214.379 720.231 214.698 719.556 215.054 718.881C217.284 714.691 218.596 710.616 218.8 705.866C219.055 699.906 218.736 693.921 219.106 687.948C219.437 682.574 220.227 677.264 220.316 671.865C220.392 666.911 218.889 663.027 216.774 659.385C216.57 651.133 218.01 642.753 214.583 634.947C213.105 631.598 211.347 628.363 209.411 625.243C207.462 613.795 210.468 601.773 209.067 590.172C207.207 574.776 202.519 560.17 201.792 544.557C201.053 528.741 201.869 512.924 200.913 497.095C200.467 489.645 199.423 482.399 197.257 475.242C195.295 468.773 191.116 463.234 189.155 456.765C189.027 456.37 188.454 456.535 188.53 456.93C189.766 463.578 192.9 469.461 194.607 475.981C196.811 484.36 197.002 493.262 197.346 501.883C197.983 517.674 196.964 533.478 197.907 549.269C198.837 564.716 204.111 579.348 205.856 594.655C206.672 601.85 204.608 610.7 205.003 618.647C202.735 615.514 200.353 612.471 197.932 609.516C184.008 592.452 165.217 579.513 153.521 560.603C153.42 560.437 153.19 560.577 153.267 560.755C162.465 579.271 177.969 592.49 191.562 607.657C198.569 615.476 205.003 624.288 210.15 633.457C214.022 640.359 213.411 647.885 214.086 655.221C212.392 652.763 210.57 650.28 208.939 647.491C206.417 643.174 203.691 638.997 200.582 635.087C196.696 630.21 191.384 626.886 186.67 622.913C186.53 622.798 186.326 622.989 186.466 623.117C194.34 630.719 200.799 639.621 206.124 649.133C208.137 652.712 210.073 656.201 212.659 659.398C216.596 664.275 216.634 669.445 216.354 675.443C215.87 685.644 214.659 695.627 215.003 705.879C215.182 711.418 212.124 715.952 209.933 720.791C208.57 723.796 207.742 727.031 207.067 730.291C207.003 730.469 206.926 730.648 206.876 730.826C204.799 737.27 204.48 743.866 201.703 750.157C199.321 755.544 197.461 760.727 195.728 766.381C194.989 768.775 193.779 770.94 192.709 773.13C192.429 768.431 191.371 763.681 190.314 759.339C188.084 750.234 184.071 741.803 178.708 734.15C173.778 727.12 167.79 720.995 162.095 714.602C157.382 709.305 152.235 703.739 145.011 702.3C144.858 702.275 144.744 702.491 144.897 702.568C151.381 705.866 155.891 710.705 160.465 716.219C165.764 722.612 171.039 729.018 175.727 735.882C180.453 742.796 183.817 750.272 186.212 758.269C186.785 760.179 187.218 762.102 187.588 764.025C184.594 759.657 180.759 755.799 177.141 752.87C167.204 744.783 154.974 738.721 143.011 734.328C130.208 729.616 116.704 729.807 103.403 731.998C93.1988 733.678 81.3126 735.894 74.1019 743.853C73.8853 744.083 74.2165 744.427 74.4459 744.197C81.096 737.613 93.3389 736.964 102.142 735.5C114.831 733.373 127.596 733.156 139.966 736.989C150.706 740.313 160.974 746.018 170.338 752.169C179.931 758.473 185.587 765.973 189.384 776.008C189.498 776.772 189.626 777.524 189.753 778.288C187.957 776.874 185.371 776.123 183.396 775.384C176.593 772.812 171.115 768.992 163.65 768.189C150.642 766.814 137.227 768.953 125.813 775.473C125.647 775.563 125.8 775.817 125.965 775.728C136.246 770.456 148.82 769.705 160.184 770.341C166.669 770.698 172.402 772.71 178.135 775.69C180.785 777.065 183.562 778.071 186.161 779.408C185.753 779.345 185.345 779.281 184.925 779.256C179.167 778.81 173.255 779.714 167.522 780.083C155.802 780.835 143.725 784.502 133.533 790.335C123.188 796.256 115.328 805.731 107.34 814.327C102.703 819.319 98.473 824.68 93.6956 829.545C89.9246 833.39 86.2683 836.931 83.7076 841.719C83.5038 842.101 84.0516 842.419 84.2809 842.05C87.1729 837.542 91.0967 834.396 95.0715 830.907C99.6068 826.947 103.492 822.26 107.582 817.854C115.544 809.284 123.443 800.357 133.227 793.824C143.521 786.96 157.05 783.624 169.268 782.872C174.491 782.554 179.676 782.044 184.912 782.274C187.027 782.363 188.798 783.178 190.607 783.815C185.931 784.935 181.23 786.654 177.995 789.176C177.854 789.278 177.969 789.545 178.135 789.52C184.683 788.768 191.129 787.177 197.601 785.98C201.996 785.177 205.385 785.725 208.863 787.495C176.67 788.348 152.413 815.371 133.176 838.803C127.647 845.539 122.462 852.467 115.328 857.637C108.079 862.884 100.346 867.226 93.3262 872.868C82.3955 881.642 71.2354 891.804 69.7576 905.787C68.2289 903.431 66.6619 901.113 65.5917 898.401C63.2731 892.555 64.7636 886.481 65.5917 880.521C66.7256 872.358 63.8082 867.379 60.2283 860.401C52.508 845.348 75.6561 841.642 75.9619 828.398C75.9619 828.246 75.7326 828.22 75.6943 828.36C73.8726 834.906 67.9741 838.612 63.0056 842.623C63.1839 840.229 62.4323 837.835 60.7634 835.81C59.3238 834.053 55.986 833.531 54.3171 832.079C51.4888 829.634 51.8073 824.26 51.9857 820.936C52.4443 812.531 58.381 807.565 64.9293 803.286C70.9806 799.325 75.7071 795.034 80.115 789.303C80.5354 788.743 79.6054 788.03 79.1468 788.552C73.5031 795.148 66.216 799.134 59.0308 803.719C57.9861 804.381 57.0179 805.094 56.1006 805.858C56.5465 801.77 56.0242 797.797 55.6929 793.709C55.3108 788.921 56.4318 785.114 58.2664 780.758C60.1901 776.174 61.6042 771.997 66.0631 769.259C69.1843 767.349 72.5349 765.795 75.6943 763.936C76.0128 763.745 75.7963 763.274 75.4523 763.35C66.9167 765.235 61.3239 766.61 57.4001 773.869C57.0688 771.182 56.1388 768.444 56.0369 765.757C55.7821 759.504 56.4191 753.137 56.9287 746.91C57.6421 738.161 59.1072 729.349 60.0245 720.549C64.012 705.879 60.3175 690.445 63.3878 675.685C65.0694 667.573 70.6367 660.085 73.8216 652.457C76.1402 646.918 77.962 640.78 77.9111 634.705C80.8412 638.475 85.8352 641.289 88.9819 644.855C89.3259 645.249 89.9756 644.74 89.7081 644.294C87.7461 641.123 85.0453 638.806 82.3445 636.272C77.72 631.929 78.1149 625.587 78.2041 619.857C78.2805 615.017 77.4142 610.599 79.8857 606.129C80.3698 605.25 80.9813 604.499 81.6056 603.798C81.5037 604.117 81.3763 604.422 81.2871 604.741C80.3826 607.924 81.7202 609.682 82.3955 612.751C82.5101 613.273 83.0197 613.795 83.542 613.91C89.3004 615.068 95.1479 615.591 100.919 616.686C106.83 617.806 112.117 620.188 117.646 622.442C122.831 624.556 128.36 625.702 133.737 627.192C139.087 628.682 143.61 632.171 148.884 633.903C149.598 634.145 150.018 633.075 149.394 632.706C144.502 629.841 139.737 626.759 134.412 624.772C131.189 623.575 127.634 623.002 124.322 622.034C120.143 620.824 116.321 618.914 112.283 617.335C105.365 614.635 98.1545 613.387 90.8929 611.999C87.3894 611.337 82.8286 610.891 84.1153 605.505C84.7778 602.729 85.6313 600.64 85.6059 597.877C85.797 597.533 85.9753 597.329 86.1409 597.316C86.2938 597.533 86.4467 597.749 86.5996 597.966C86.7397 598.144 86.8926 598.284 87.0582 598.373C88.0009 599.838 89.2494 601.162 90.447 602.385C93.1096 605.135 96.7786 607.797 100.486 608.867C100.868 608.981 101.034 608.472 100.741 608.255C97.8488 606.154 94.8549 604.371 92.1923 601.939C90.8801 600.742 89.81 599.392 88.7781 598.017C89.0329 597.66 89.1348 597.164 88.8927 596.603C88.4213 595.508 87.95 594.757 87.4913 594.26C86.8798 591.242 90.5489 588.16 91.326 585.69C92.5235 581.908 93.0968 578.202 93.479 574.267C93.9122 569.708 93.8994 565.149 94.7148 560.615C95.0715 558.616 95.8741 556.846 96.6003 555.076C97.594 560.628 99.5431 566.588 101.301 571.834C103.021 576.954 105.429 581.907 109.378 585.664C109.684 585.957 110.206 585.575 109.977 585.206C106.958 580.125 104.27 575.12 102.422 569.466C100.664 564.105 98.0144 556.069 98.8297 550.44C99.4667 546.085 103.607 542.392 105.276 538.419C106.27 536.025 106.818 533.465 107.072 530.842C109.646 539.96 114.678 548.607 118.831 556.973C123.494 566.359 129.482 573.643 135.941 581.627C136.246 581.997 136.871 581.513 136.603 581.118C134.233 577.603 131.061 574.598 128.679 571.007C125.927 566.868 123.672 562.36 121.468 557.915C116.538 547.982 111.022 537.999 108.665 527.085C107.888 523.456 107.76 519.508 107.888 515.815C108.002 512.402 115.557 512.313 118.22 510.696C122.258 508.251 125.838 502.571 125.787 497.604C127.43 499.234 129.367 500.635 131.023 501.909C138.03 507.295 143.699 513.676 148.502 521.125C148.668 521.393 149.164 521.214 149.037 520.896C146.935 515.598 143.304 511.243 139.724 506.862C134.985 501.056 125.889 497.77 125.328 489.34C124.921 483.202 135.648 476.873 139.419 472.81C141.61 470.454 144.03 467.589 144.17 464.354C147.368 472.148 155.254 479.012 160.49 484.679C175.612 501.005 179.689 522.399 187.83 542.328C187.995 542.749 188.594 542.596 188.505 542.137C186.836 533.72 183.281 525.277 180.402 517.203C177.358 508.684 173.561 500.661 169.166 492.765C165.255 485.723 159.624 480.349 154.235 474.491C148.999 468.786 146.12 463.246 145.33 456.293C145.381 453.721 145.992 451.314 148.464 450.359C150.935 449.404 154.082 449.582 156.706 449.073C160.082 448.411 162.758 446.042 165.28 443.877C169.357 440.388 174.708 439.165 179.536 437.051C184.313 434.963 188.747 433.053 194.008 432.722C198.48 432.441 202.85 433.639 207.334 432.747C211.551 431.894 216.303 427.997 220.354 429.907C221.921 430.646 223.195 430.582 224.469 429.996C227.285 430.315 230.062 428.443 232.38 426.494C233.221 428.723 234.342 430.875 235.323 433.002C236.597 435.752 238.037 438.987 240.254 441.101C240.725 441.547 241.591 441.101 241.375 440.439C240.445 437.548 238.75 434.848 237.578 432.047C236.406 429.271 235.769 426.443 235.056 423.54C238.279 419.771 244.165 420.878 249.171 420.955C254.165 421.031 258.242 418.332 262 415.364C268.714 410.054 275.39 406.705 283.301 403.368C286.983 401.815 291.174 400.745 294.996 399.128C291.62 402.553 287.136 404.858 283.543 408.042C279.721 411.442 275.95 414.906 272.307 418.497C265.72 424.966 259.733 432.098 255.236 440.184C250.407 448.856 249.63 457.49 249.936 467.194C249.949 467.793 250.229 468.175 250.598 468.417C250.598 468.85 250.547 469.27 250.586 469.703C250.624 470.225 251.312 470.314 251.49 469.83C251.656 469.397 251.834 468.977 252.012 468.544C252.509 468.34 252.917 467.895 252.981 467.207C253.006 466.876 253.044 466.557 253.083 466.226C258.382 455.848 268.676 449.188 279.148 444.336C286.18 441.076 294.015 439.726 301.697 439.267C304.615 439.089 307.52 439.216 310.437 439.267C310.259 446.118 314.87 453.084 318.73 458.28C323.724 465.004 330.4 470.607 337.815 474.478C343.216 477.293 349.166 478.515 355.179 479.381C363.179 482.412 372.734 482.616 380.748 485.341C381.385 485.647 382.034 485.914 382.659 486.245C385.92 487.977 388.684 490.422 391.615 492.625C392.315 493.517 392.965 494.497 393.564 495.58C388.047 503.08 385.499 512.262 383.614 521.329C381.066 533.58 378.786 545.996 377.41 558.438C376.467 566.881 375.588 575.795 375.512 584.607C374.531 593.674 374.378 602.971 373.702 611.948C372.722 624.9 371.881 637.863 371.498 650.853C371.116 663.816 370.811 676.653 369.779 689.591C369.014 699.193 367.753 709.636 369.04 719.428C368.454 726.114 367.384 733.589 369.396 739.753C369.702 740.708 370.976 740.683 371.295 739.753C373.511 733.309 372.887 725.388 373.295 718.601C373.601 713.469 373.983 708.298 373.664 703.179C373.843 698.633 374.034 694.087 374.403 689.591C375.448 676.653 375.83 663.816 376.136 650.853C376.442 637.863 377.512 624.912 378.212 611.948C378.531 606.04 379.015 599.901 379.168 593.776C379.945 584.442 379.754 574.942 380.467 565.645C381.435 552.86 383.945 540.393 386.187 527.798C386.582 525.582 387.003 523.367 387.474 521.151C392.188 510.415 398.405 501.59 409.488 496.14C418.648 491.632 428.827 489.684 437.898 484.921C446.09 480.629 450.765 474.389 453.861 465.819C457.097 456.879 457.95 445.087 465.021 438.045C465.582 437.484 464.766 436.733 464.18 437.204L464.104 437.319Z" fill="#9D70F9"/>
<path d="M422.114 502.367C422.075 501.934 421.489 501.934 421.451 502.367C420.598 512.262 421.209 522.182 421.324 532.09C421.451 542.685 420.305 553.102 419.922 563.659C419.897 564.346 420.942 564.474 421.107 563.824C423.655 554.388 423.362 544.111 423.337 534.407C423.311 523.736 423.095 513.001 422.114 502.367Z" fill="#9D70F9"/>
<path d="M418.801 577.425C418.789 577.234 418.521 577.234 418.508 577.425C417.171 592.783 417.617 608.319 417.362 623.728C417.107 638.997 416.317 654.253 416.852 669.534C417.375 684.434 419.923 699.996 418.419 714.831C417.642 722.561 417.502 730.406 417.018 738.148C416.521 746.057 415.68 753.99 416.266 761.911C416.304 762.446 417.171 762.65 417.26 762.051C419.388 748.12 419.196 733.564 419.821 719.479C420.521 703.599 419.923 687.783 419.222 671.916C417.846 640.474 421.528 608.841 418.789 577.425H418.801Z" fill="#9D70F9"/>
<path d="M391.423 597.826C388.111 599.94 387.041 604.244 387.537 608.319C387.436 613.311 390.684 618.15 395.78 619.78C404.01 622.403 409.246 612.127 408.291 605.415C407.144 597.469 398.01 593.61 391.423 597.838V597.826ZM396.468 615.081C393.614 614.177 391.971 610.917 391.143 607.771C391.143 605.721 391.487 603.734 392.277 602.346C393.563 600.092 397.092 599.812 399.296 600.423C401.742 601.086 403.156 603.62 403.755 605.874C404.864 610.038 401.322 616.609 396.468 615.081Z" fill="#9D70F9"/>
<path d="M387.081 731.768C387.081 731.768 387.03 731.819 387.005 731.845C386.89 731.845 386.775 731.883 386.712 732.023C386.686 732.074 386.661 732.125 386.622 732.176C383.017 735.359 382.864 740.339 385.247 743.866C385.489 744.401 385.782 744.923 386.126 745.445C388.699 749.253 393.578 749.992 397.655 748.502C404.191 746.12 409.006 735.754 402.827 730.495C398.356 726.687 391.26 728.521 387.068 731.768H387.081ZM398.967 743.624C396.585 745.865 392.585 746.54 389.922 744.439C389.527 744.121 389.196 743.777 388.916 743.395C387.26 740.683 386.546 737.588 389.107 734.99C391.527 732.532 395.719 731.501 399.006 732.481C404.089 734.01 401.617 741.115 398.98 743.611L398.967 743.624Z" fill="#9D70F9"/>
<path d="M657.227 592.935C641.735 598.691 627.326 611.783 617.479 624.759C612.281 631.61 609.185 639.697 604.611 646.879C604.204 645.033 603.248 643.377 601.885 641.34C599.414 637.659 602.165 626.338 603.172 622.365C604.828 615.807 611.797 609.885 616.51 605.364C621.874 600.207 627.836 595.648 632.575 589.879C632.868 589.51 632.422 589.077 632.066 589.37C626.218 593.98 620.587 598.933 614.918 603.773C611.809 606.421 608.421 609.083 605.49 612.088C607.809 606.307 611.873 601.366 612.714 594.82C613.338 589.968 613.058 585.206 614.192 580.379C615.173 576.202 616.994 572.331 617.759 568.078C618.753 562.602 619.644 559.074 623.377 554.783C626.04 551.714 629.161 549.052 631.887 546.034C638.142 539.119 642.143 530.269 649.952 524.78C650.143 524.653 650.029 524.296 649.787 524.385C641.595 527.352 637.123 534.713 631.874 541.233C626.957 547.346 620.269 551.663 616.396 558.412C617.135 551.306 618.485 544.404 620.472 537.502C622.702 529.759 624.587 522.844 624.906 514.732C625.224 506.468 624.906 498.152 625.033 489.874C625.033 489.607 624.676 489.581 624.587 489.811C622.154 496.458 622.039 503.182 621.759 510.199C621.39 519.482 619.606 527.683 616.892 536.508C614.994 542.685 613.708 548.976 612.943 555.394C612.485 559.329 612.918 563.251 613.3 567.161C612.676 570.051 612.153 572.993 611.198 575.757C609.427 580.812 608.815 585.893 608.65 591.229C608.446 597.622 606.115 601.761 602.93 607.045C600.904 610.407 600.445 613.744 601.146 617.488C600.777 618.074 600.42 618.647 600.102 619.258C597.681 623.995 597.222 630.999 596.878 636.182C596.483 642.129 600.114 645.593 601.732 650.967C601.63 651.094 601.554 651.234 601.452 651.349C598.318 655.246 595.757 659.97 595.49 664.988C594.19 667.267 595.337 671.419 596.764 673.138C597.057 673.495 597.668 673.622 598.101 673.495C598.203 673.469 598.305 673.418 598.407 673.367C598.407 673.367 598.42 673.367 598.433 673.355C598.815 673.1 599.159 672.654 599.121 672.17C599.07 671.597 598.955 671.037 598.84 670.476C599.006 670.298 599.146 670.094 599.21 669.827C600 666.796 599.809 663.638 600.624 660.594C601.669 656.634 605.006 653.616 607.287 650.33C612.077 643.454 614.676 635.24 619.364 628.236C624.243 620.952 630.499 614.533 637.06 608.752C643.302 603.251 649.646 596.985 657.469 593.814C657.991 593.598 657.774 592.744 657.227 592.948V592.935Z" fill="#9D70F9"/>
<path d="M773.783 753.544C773.312 752.882 772.777 752.284 772.203 751.711C772.267 751.571 772.344 751.443 772.356 751.29C772.586 743.828 769.821 735.372 766.139 728.916C763.63 724.535 761.349 720.804 760.241 715.774C759.986 714.64 759.769 713.532 759.527 712.45C758.1 704.045 758.585 695.449 754.266 687.859C751.603 683.186 750.1 679.404 749.73 673.902C749.412 669.267 748.571 665.192 747.068 660.773C744.023 651.846 740.278 641.977 733.589 635.622C732.29 630.184 733.857 624.39 734.43 618.889C734.749 615.794 735.36 613.031 736.277 610.102C736.532 609.3 736.621 607.873 736.099 607.16C734.965 605.594 733.538 604.588 731.92 604.002C731.385 600.08 733.029 595.241 732.901 591.484C732.71 585.97 732.901 582.34 737.335 578.533C739.106 577.017 740.214 575.451 740.596 573.172C740.787 572.038 740.137 571.172 738.991 571.07C735.054 570.688 731.118 570.485 727.168 570.306C721.983 567.059 718.085 563.901 715.754 557.877C713.511 552.096 713.499 545.805 711.983 539.858C710.479 533.949 706.466 529.212 704.581 523.519C703.128 519.139 702.453 514.618 700.3 510.492C699.014 508.021 697.357 506.977 695.548 506.824C694.223 503.984 692.121 501.667 690.58 498.954C688.975 496.14 688.401 492.804 687.611 489.696C687.051 487.493 685.497 483.673 683.025 483.469C683.267 482.794 683.407 482.081 683.407 481.342C683.407 476.631 679.585 474.682 675.98 472.454C674.935 471.804 674.107 471.04 673.394 470.212C672.222 466.927 669.725 463.514 668.209 461.26C664.387 455.593 658.705 452.702 653.469 448.602C648.641 444.82 646.526 438.847 641.481 435.256C636.041 431.385 628.41 431.283 622.244 429.245C616.243 427.246 611.874 422.305 605.618 420.815C599.427 419.338 591.261 423.132 585.413 424.813C582.725 425.59 580.215 426.571 577.769 427.666C564.405 419.809 549.462 415.428 535.575 408.488C530.085 405.75 524.759 403.241 518.886 401.407C514.122 399.917 507.089 397.689 502.134 399.51C501.076 395.295 499.7 391.156 497.993 387.132C495.662 381.618 491.343 372.258 485.241 370.055C484.54 369.8 483.75 370.602 484.005 371.29C485.024 374.117 487.33 376.307 489.075 378.74C491.636 382.318 493.649 386.317 495.356 390.354C498.605 398.058 500.095 406.425 500.681 414.728C501.356 424.139 500.044 433.371 498.299 442.604C497.738 445.558 497.076 448.589 496.439 451.658C494.744 437.765 489.305 423.578 478.909 416.676C477.903 416.001 476.603 417.326 477.253 418.332C482.884 427.042 487.941 434.415 490.579 444.679C492.948 453.937 492.935 463.59 494.732 472.95C494.859 473.612 495.955 473.625 496.069 472.95C496.222 472.097 496.35 471.206 496.464 470.314C498.961 459.986 500.605 449.226 502.554 438.796C504.299 429.5 504.962 420.229 504.095 410.805C503.828 407.864 503.318 404.96 502.694 402.095C507.599 403.483 512.86 403.814 517.816 405.291C524.823 407.38 531.078 410.869 537.626 414.002C544.646 417.364 551.971 420.102 559.195 422.967C563.96 424.852 569.157 427.844 574.342 429.322C572.062 430.506 569.807 431.805 567.565 433.256C560.087 438.134 551.513 441.394 543.117 444.387C542.952 444.45 543.015 444.692 543.194 444.654C549.64 443.189 556.163 442.349 562.303 439.713C568.686 436.988 574.215 432.773 580.75 430.34C587.082 427.984 593.771 426.545 600.281 424.801C607.326 422.903 613.275 429.296 619.123 432.11C624.117 434.504 629.862 434.925 635.136 436.478C642.041 438.529 644.908 445.1 649.43 450.053C653.66 454.702 659.826 457.338 664.272 461.897C666.476 464.151 668.043 467.678 670.043 470.543C670.171 470.875 670.298 471.218 670.438 471.537C671.98 474.962 676.324 476.236 678.974 478.579C683.879 482.909 671.254 491.543 668.718 494.293C664.311 499.107 660.552 504.519 656.246 509.435C656.119 509.588 656.284 509.855 656.476 509.728C662.845 505.423 666.795 498.56 672.489 493.504C674.999 491.288 679.585 488.792 681.93 485.481C685.153 487.519 685.369 495.21 686.567 498.33C687.879 501.756 690.147 504.863 693.077 507.092C689.803 507.97 686.363 510.721 683.841 512.606C674.706 519.432 665.534 527.875 658.794 537.018C658.705 537.133 658.896 537.273 658.998 537.171C667.253 529.174 675.993 521.787 685.229 514.949C688.592 512.453 694.567 506.748 697.841 511.931C700.3 515.815 700.657 521.074 702.058 525.391C703.6 530.129 706.861 534.115 708.39 538.915C710.123 544.328 709.842 550.351 711.206 555.903C712.556 561.418 715.575 566.983 720.263 569.962C717.486 569.822 714.696 569.682 711.919 569.453C708.466 569.186 704.938 569.682 701.549 570.319C697.179 571.147 693.523 573.974 689.229 575.069C689.077 575.107 689.102 575.362 689.268 575.362C692.542 575.158 695.294 574.076 698.351 572.891C702.937 571.096 708.874 571.287 713.664 572.013C721.283 573.172 728.99 573.452 736.659 574.165C735.207 576.61 732.213 578.265 730.646 580.596C728.43 583.907 729.372 588.733 729.487 592.375C729.563 594.553 728.162 599.66 728.455 603.34C722.251 603.111 714.798 606.918 710.772 609.771C710.619 609.873 710.709 610.127 710.9 610.076C716.021 608.561 721.181 607.097 726.557 607.007C728.353 606.982 733.22 607.224 732.29 610.013C731.589 612.114 731.22 614.202 730.901 616.406C730.328 620.442 728.366 627.561 729.665 632.528C726.646 630.643 723.143 629.382 718.989 629.026C718.709 629 718.607 629.433 718.849 629.548C725.805 633.113 732.06 637.723 736.112 644.511C738.469 648.458 739.908 653.323 741.653 657.576C743.501 662.097 745.259 666.822 745.616 671.737C746.138 678.843 747.144 683.682 750.839 689.846C754.1 695.284 754.049 701.575 755.387 707.534C756.049 714.704 756.89 721.708 760.75 727.961C763.107 731.768 765.146 735.474 766.33 739.817C767.146 742.822 767.362 745.865 768.42 748.616C765.974 746.961 763.337 745.509 761.133 743.79C756.075 739.855 752.966 734.315 747.183 731.157C747.106 731.119 747.03 731.208 747.093 731.284C750.762 735.78 754.291 740.415 758.049 744.834C761.018 748.323 765.642 750.412 769.069 753.417C777.108 760.447 768.203 768.801 766.916 777.078C757.693 765.923 748.673 751.787 732.761 751.583C732.43 751.583 732.366 752.067 732.685 752.156C748.584 756.448 757.629 768.711 766.789 781.51C767.222 786.54 765.502 791.685 766.674 796.536C767.197 798.701 767.872 800.803 768.343 802.98C768.84 805.272 768.598 807.577 768.471 809.895C766.955 807.386 765.63 804.941 764.56 801.923C763.196 798.103 761.706 794.499 759.438 791.099C754.113 783.089 747.208 776.569 740.481 769.781C740.201 769.501 739.806 769.921 740.048 770.214C746.482 777.817 752.864 785.648 757.693 794.384C759.731 798.077 760.598 802.56 761.999 806.52C763.349 810.303 765.668 813.321 767.745 816.683C771.77 823.203 771.12 834.6 768.967 841.553C767.999 844.673 766.305 848.073 765.884 851.321C762.317 846.482 758.495 841.833 754.648 837.236C749.043 830.525 742.278 824.705 736.965 817.765C736.838 817.599 736.57 817.74 736.672 817.931C739.781 823.508 743.424 828.055 747.641 832.83C753.323 839.274 757.706 846.52 762.483 853.613C766.509 859.598 770.738 864.807 770.815 872.358C770.866 878.777 767.655 884.609 766.127 890.722C764.407 896.134 762.623 901.521 759.884 906.627C754.533 916.624 746.495 924.214 740.379 933.548C740.035 934.07 740.698 934.643 741.195 934.363C750.648 929.206 757.973 917.668 763.298 908.626C766.572 903.049 768.725 897.344 770.114 891.409C772.777 886.124 774.497 879.63 774.904 874.268C775.414 867.621 773.414 862.349 769.783 856.86C769.745 856.797 769.694 856.733 769.655 856.669C768.802 852.199 770.942 848.354 772.496 844.253C773.834 840.726 774.458 837.236 774.637 833.492C774.968 826.641 774.305 819.777 770.853 813.817C772.28 807.959 772.063 802.955 770.343 797.16C768.891 792.283 770.904 787.419 769.706 782.796C770.101 782.567 770.356 782.159 770.28 781.548C769.069 771.615 780.739 763.274 773.796 753.481L773.783 753.544Z" fill="#9D70F9"/>
<path d="M181.649 441.101C180.986 440.184 180.082 439.7 179.356 438.872C179.203 438.694 178.986 438.923 179.063 439.102C179.368 439.828 179.381 440.63 179.712 441.343C180.26 442.54 180.935 443.635 181.585 444.781C182.604 446.577 183.318 448.665 184.668 450.244C184.999 450.639 185.611 450.308 185.624 449.85C185.675 447.914 184.643 446.093 183.725 444.45C183.088 443.304 182.413 442.183 181.649 441.114V441.101Z" fill="#9D70F9"/>
<path d="M392.7 736.378C392.369 736.085 391.821 736.365 391.949 736.811C392.229 737.83 392.586 738.849 392.955 739.842C393.261 740.657 393.465 741.434 394.344 741.701C394.586 741.777 394.802 741.612 394.891 741.395C395.223 740.53 394.649 739.6 394.267 738.823C393.859 737.944 393.426 737.04 392.687 736.378H392.7Z" fill="#9D70F9"/>
<path d="M396.506 735.894C396.099 735.41 395.36 736.034 395.653 736.557C396.15 737.448 396.736 738.25 397.36 739.052C397.819 739.651 398.163 740.275 398.927 740.479C399.233 740.568 399.488 740.326 399.513 740.033C399.577 739.231 399.054 738.721 398.545 738.136C397.882 737.372 397.169 736.671 396.506 735.894Z" fill="#9D70F9"/>
<path d="M392.34 604.804C392.187 604.843 392.212 605.034 392.34 605.072C393.193 605.39 393.767 606.371 394.072 607.186C394.314 607.835 394.34 608.446 395.002 608.778C395.295 608.93 395.627 608.841 395.805 608.561C396.416 607.631 395.563 606.294 394.926 605.568C394.212 604.741 393.372 604.562 392.34 604.792V604.804Z" fill="#9D70F9"/>
<path d="M397.259 602.754C396.686 602.423 395.998 603.238 396.533 603.696C397.756 604.766 398.304 606.358 399.501 607.402C399.82 607.682 400.457 607.529 400.406 607.02C400.253 605.237 398.762 603.607 397.259 602.754Z" fill="#9D70F9"/>
<path d="M569.791 597.393C569.728 597.202 569.447 597.278 569.498 597.469C572.747 608.599 573.346 620.341 576.276 631.573C577.754 637.278 579.295 642.957 580.404 648.739C581.652 655.284 581.741 661.69 581.41 668.312C581.397 668.694 581.983 668.758 582.06 668.401C584.812 656.927 581.13 644.575 578.161 633.508C574.964 621.563 573.651 609.147 569.791 597.393Z" fill="#9D70F9"/>
<path d="M543.283 698.289C537.78 707 533.41 716.257 529.091 725.605C524.722 735.054 519.881 744.006 514.364 752.831C514.211 753.073 514.581 753.379 514.772 753.15C521.053 745.445 525.244 735.971 529.359 727.006C533.78 717.353 537.844 707.445 543.462 698.404C543.538 698.289 543.36 698.187 543.283 698.302V698.289Z" fill="#9D70F9"/>
<path d="M518.543 734.901C516.836 738.288 514.988 741.446 512.759 744.515C512.632 744.681 512.912 744.885 513.052 744.745C515.664 742.019 517.307 738.492 518.963 735.143C519.103 734.863 518.683 734.621 518.543 734.901Z" fill="#9D70F9"/>
<path d="M459.375 678.589C456.687 681.212 454.139 683.975 451.477 686.624C452.267 683.759 453.936 681.263 454.751 678.398C454.827 678.13 454.458 677.99 454.318 678.219C452.56 681.072 450.903 684.485 450.381 687.821C450.317 688.203 450.763 688.547 451.069 688.216C453.986 685.147 456.751 681.951 459.694 678.907C459.885 678.703 459.579 678.398 459.375 678.589Z" fill="#9D70F9"/>
<path d="M468.497 532.191C457.897 545.639 446.138 560.335 442.202 577.361C442.138 577.654 442.571 577.769 442.648 577.488C447.005 560.246 458.98 546.76 468.955 532.548C469.146 532.281 468.7 531.937 468.509 532.204L468.497 532.191Z" fill="#9D70F9"/>
<path d="M607.478 434.288C599.185 440.808 591.069 447.163 584.445 455.478C578.916 462.419 572.979 472.772 575.132 482.03C575.208 482.374 575.782 482.387 575.845 482.03C576.661 477.369 577.056 472.899 578.788 468.429C580.648 463.629 583.604 459.286 586.827 455.313C592.968 447.736 600.573 441.127 607.733 434.53C607.899 434.377 607.657 434.161 607.491 434.288H607.478Z" fill="#9D70F9"/>
<path d="M579.106 501.196C584.52 509.498 589.629 517.585 593.553 526.728C593.706 527.085 594.279 526.83 594.164 526.461C591.4 516.986 585.221 508.811 579.374 501.043C579.259 500.89 578.991 501.03 579.106 501.196Z" fill="#9D70F9"/>
<path d="M317.354 636.997C317.303 636.934 317.176 637.023 317.227 637.087C331.928 656.825 341.432 679.2 350.872 701.727C350.974 701.969 351.356 701.88 351.28 701.613C347.662 690.177 342.528 679.073 337.126 668.388C331.521 657.322 325.049 646.727 317.354 636.985V636.997Z" fill="#9D70F9"/>
<path d="M350.785 691.425C353.321 696.353 354.837 701.549 356.658 706.745C356.773 707.076 357.244 706.948 357.181 706.592C356.263 701.167 354.008 695.869 351.371 691.068C351.155 690.686 350.581 691.03 350.785 691.412V691.425Z" fill="#9D70F9"/>
<path d="M206.569 520.832C209.397 526.588 212.111 532.395 214.684 538.266C217.424 544.493 219.64 550.924 222.341 557.151C222.481 557.483 223.004 557.241 222.914 556.909C219.334 544.302 213.168 532.09 206.951 520.603C206.811 520.348 206.442 520.578 206.569 520.82V520.832Z" fill="#9D70F9"/>
<path d="M322.577 493.453C322.424 493.122 321.838 493.364 321.978 493.708C323.278 496.853 324.45 499.999 326.272 502.902C326.425 503.157 326.781 502.928 326.654 502.673C325.163 499.655 323.915 496.522 322.565 493.44L322.577 493.453Z" fill="#9D70F9"/>
<path d="M209.833 959.947C216.508 961.806 252.995 955.133 290.335 953.287C327.663 951.44 381.781 930.606 388.571 929.931C395.362 929.257 481.482 904.284 481.482 904.284L513.077 917.21C513.077 917.21 570.215 935.764 571.884 935.764C573.552 935.764 662.756 944.169 673.865 941.966C684.974 939.763 718.76 949.314 721.576 949.632C724.391 949.95 741.602 944.627 753.17 912.893C764.751 881.158 755.361 872.397 754.89 870.359C754.419 868.321 725.792 824.387 712.658 801.719C699.523 779.052 676.999 765.999 676.999 765.999C676.999 765.999 731.589 737.461 737.067 733.857C742.545 730.266 746.762 722.918 742.227 718.537C737.691 714.156 736.647 714.105 718.798 717.289C700.95 720.473 669.547 738.709 669.547 738.709C655.686 743.242 652.017 740.861 653.851 741.001C655.686 741.141 688.427 714.628 691.102 714.322C693.777 714.016 729.907 703.396 738.634 697.461C747.361 691.527 748.8 684.612 742.227 678.359C735.653 672.107 708.594 680.231 704.683 681.174C700.772 682.116 682.783 683.988 682.821 683.364C682.859 682.74 715.32 672.884 719.55 673.482C723.78 674.068 734.162 667.904 735.347 662.747C736.532 657.589 730.34 652.979 730.34 652.979C714.378 643.263 674.528 653.591 670.897 652.979C667.266 652.368 650.564 661.486 650.564 661.486C650.564 661.486 653.851 656.634 655.418 654.444C656.985 652.253 687.484 639.124 691.077 635.839C694.669 632.553 698.746 621.767 684.643 620.048C670.553 618.329 641.022 631.458 632.257 636.157C623.492 640.843 604.421 664.733 604.421 664.733C583.146 684.918 574.801 708.337 574.177 708.757C573.552 709.177 551.653 758.791 551.232 759.415C551.232 759.415 519.536 761.083 496.171 762.968C472.807 764.853 385.221 744.21 357.27 736.289C329.319 728.368 269.671 727.528 265.709 727.54C261.747 727.54 210.304 735.283 210.304 735.283C210.304 735.283 199.59 765.273 199.59 765.897C199.59 766.521 194.583 777.575 194.749 780.529C194.915 783.484 203.756 782.567 204.38 782.567C205.004 782.567 219.439 787.317 219.439 787.317L185.818 795.709C147.026 815.307 151.829 836.982 122.413 856.58C93.0093 876.179 77.7726 896.656 74.8679 898.694C71.9632 900.731 66.7399 909.531 80.4989 941.851C86.3974 955.694 91.0856 963.678 96.0286 965.614C104.258 968.823 117.113 965.614 117.113 965.614C126.655 963.793 138.911 961.348 141.382 960.303C145.548 958.533 203.119 958.113 209.795 959.972L209.833 959.947Z" fill="#F5F6F9"/>
<path d="M599.913 707.19C597.25 709.534 594.664 712.666 593.963 716.245C593.9 716.55 594.333 716.767 594.486 716.461C596.167 713.29 597.925 710.285 600.244 707.509C600.435 707.28 600.142 706.974 599.913 707.178V707.19Z" fill="#D1D1D1"/>
<path d="M593.643 714.131C593.082 715.213 592.789 716.563 592.789 717.773C592.789 717.989 593.095 718.027 593.159 717.824C593.553 716.703 593.745 715.442 594.012 714.283C594.063 714.067 593.745 713.914 593.63 714.131H593.643Z" fill="#D1D1D1"/>
<path d="M616.6 737.219C615.02 738.683 613.415 740.135 612.357 742.032C612.204 742.3 612.561 742.58 612.778 742.363C614.281 740.873 615.491 739.103 616.918 737.537C617.109 737.32 616.816 737.028 616.6 737.219Z" fill="#D1D1D1"/>
<path d="M615.85 741.052C615.404 741.497 614.971 741.905 614.614 742.427C614.436 742.682 614.793 743.038 615.048 742.86C615.57 742.503 615.978 742.07 616.424 741.625C616.78 741.255 616.232 740.695 615.863 741.052H615.85Z" fill="#D1D1D1"/>
<path d="M688.531 735.971C688.798 737.422 689.499 738.798 689.945 740.199C690.684 742.504 690.352 743.955 688.505 745.509C688.263 745.713 688.531 746.056 688.785 746.006C693.754 744.961 690.161 738.403 688.875 735.831C688.773 735.627 688.492 735.78 688.531 735.983V735.971Z" fill="#D1D1D1"/>
<path d="M684.556 736.289C684.556 736.289 684.467 736.365 684.531 736.378C685.665 736.824 686.123 737.715 686.939 738.53C687.04 738.632 687.257 738.53 687.206 738.378C686.786 737.257 685.728 736.467 684.569 736.289H684.556Z" fill="#D1D1D1"/>
<path d="M678.324 690.521C678.133 690.457 678.057 690.725 678.197 690.827C679.242 691.616 680.273 692.38 681.038 693.463C681.84 694.621 681.649 695.742 681.853 697.041C681.917 697.436 682.427 697.385 682.605 697.143C683.497 695.933 682.949 694.303 682.21 693.157C681.356 691.858 679.777 690.967 678.337 690.521H678.324Z" fill="#D1D1D1"/>
<path d="M684.033 696.48C684.823 697.907 684.963 699.626 684.53 701.18C684.365 701.753 685.193 701.944 685.397 701.421C686.136 699.511 685.893 697.754 684.645 696.124C684.377 695.78 683.804 696.073 684.033 696.48Z" fill="#D1D1D1"/>
<path d="M662.743 660.633C662.654 660.582 662.552 660.709 662.628 660.786C663.278 661.32 663.979 661.766 664.629 662.276C665.457 662.925 665.813 663.842 666.552 664.517C666.743 664.682 667.011 664.568 667.036 664.313C667.202 662.174 664.17 661.41 662.73 660.633H662.743Z" fill="#D1D1D1"/>
<path d="M666.515 660.48C666.209 660.2 665.764 660.633 666.057 660.938C667.088 661.995 668.184 662.989 669.191 664.084C670.859 665.918 671.203 667.65 670.222 669.929C670.082 670.247 670.503 670.68 670.757 670.349C673.904 666.338 669.216 663.014 666.515 660.493V660.48Z" fill="#D1D1D1"/>
<path d="M669.243 673.38C668.007 673.953 666.924 674.73 665.599 675.124C665.229 675.239 665.382 675.761 665.752 675.697C667.166 675.43 668.631 674.984 669.688 673.953C669.994 673.647 669.599 673.214 669.243 673.38Z" fill="#D1D1D1"/>
<path d="M637.494 639.812C636.106 638.755 634.411 638.067 632.704 637.723C632.488 637.685 632.411 637.978 632.615 638.041C633.774 638.424 634.857 639.022 635.889 639.671C636.526 640.066 637.15 640.55 637.596 641.149C637.979 641.658 637.915 642.142 637.953 642.728C637.979 643.021 638.284 643.148 638.514 642.957C639.647 642.002 638.31 640.423 637.482 639.799L637.494 639.812Z" fill="#D1D1D1"/>
<path d="M640.169 641.302C640.64 643.798 639.978 645.631 639.201 647.962C639.086 648.293 639.57 648.586 639.812 648.318C641.634 646.255 641.762 643.619 641.125 641.047C640.972 640.423 640.067 640.69 640.182 641.302H640.169Z" fill="#D1D1D1"/>
<path d="M628.156 648.981C628.181 648.535 627.532 648.56 627.481 648.981C627.175 651.464 628.882 654.214 631.57 654.291C631.863 654.291 632.016 653.845 631.723 653.705C629.621 652.75 628.003 651.527 628.143 648.968L628.156 648.981Z" fill="#D1D1D1"/>
<path d="M194.342 780.898C194.533 781.344 195.056 783.547 201.094 784.107C204.649 784.438 207.35 784.617 210.484 785.05C211.477 785.623 212.484 786.183 213.49 786.731C207.388 786.985 201.4 789.048 195.527 790.818C187.119 793.365 179.207 796.625 171.704 801.248C155.868 810.99 146.097 827.125 134.899 841.426C128.975 848.99 122.643 856.045 114.362 861.05C106.374 865.889 98.9726 870.27 92.3224 876.955C88.9846 880.317 85.1882 883.59 81.6975 887.067C79.226 889.155 77.2513 891.447 75.7098 893.892C73.1491 897.42 71.9516 901.024 71.5949 904.844C69.7094 915.834 72.9962 928.161 77.2768 938.858C80.4617 946.83 85.5194 958.635 93.1505 965.308C93.176 965.333 93.2652 965.41 93.2907 965.435C100.501 971.089 108.183 971.994 131.459 965.435C133.637 964.849 135.739 964.302 137.714 963.894C162.875 958.673 189.501 961.118 215.032 961.169C239.976 961.22 264.538 958.775 289.368 956.687C307.535 955.158 326.504 953.414 343.474 946.155C357.143 942.577 370.66 938.362 384.241 934.503C416.957 925.194 450.488 918.597 482.554 907.098C482.796 907.009 482.987 906.869 483.165 906.729C483.7 906.907 484.235 907.085 484.783 907.238C485.165 907.429 485.535 907.633 485.93 907.811C494.58 911.823 503.51 915.185 512.53 918.266C530.57 924.443 547.514 932.504 566.356 936.311C585.21 940.119 605.186 940.03 624.347 941.405C640.718 942.577 657.929 944.767 674.567 943.825C681.103 944.079 687.689 944.092 694.123 944.996C704.633 946.461 714.302 952.382 725.106 950.065C740.661 946.741 749.986 927.117 755.184 914.038C761.834 897.305 764.178 881.489 755.044 865.265C750.254 856.758 743.948 849.041 738.431 841.005C738.329 840.853 738.228 840.7 738.126 840.547C737.578 839.643 737.017 838.751 736.495 837.822C731.794 829.404 726.711 821.19 721.819 812.875C717.029 804.737 711.716 797.199 706.162 789.583C702.926 785.152 699.715 780.618 695.575 777.065C691.027 772.442 685.88 768.775 680.364 765.795C680.86 765.489 681.345 765.171 681.841 764.84C684.682 762.93 687.587 761.3 690.606 759.682C698.785 755.289 706.913 750.87 715.296 746.871C725.985 741.777 744.062 736.913 745.655 722.79C745.68 722.536 745.553 722.395 745.387 722.294C745.336 721.695 745.209 721.071 744.916 720.371C743.54 717.123 740.992 714.666 737.973 714.322C734.087 712.844 728.099 713.761 724.813 714.322C714.99 715.952 705.601 720.485 696.39 724.064C687.281 727.604 678.898 732.558 670.529 737.499C667.789 738.25 665.012 738.887 662.299 739.689C660.693 740.16 658.974 740.415 657.279 740.708C670.974 732.341 682.224 719.556 697.295 713.481C707.334 709.432 718.188 707.7 728.354 703.981C735.527 701.358 744.33 697.245 747.808 689.999C747.897 689.82 747.923 689.655 747.923 689.489C748.763 687.159 747.617 683.708 746.636 681.568C746.075 680.346 745.477 679.467 744.585 678.856C739.756 673.1 731.921 673.787 724.481 675.774C715.487 676.589 706.582 679.161 697.702 680.715C693.868 681.39 690.135 682.001 686.453 682.791C695.486 679.926 705.117 678.257 713.907 675.914C719.653 674.386 732.788 672.82 735.527 665.905C735.603 665.816 735.705 665.765 735.781 665.675C737.068 663.842 736.699 661.575 736.189 659.525C735.45 656.545 734.406 653.921 732.304 652.623C730.202 650.19 727.055 648.917 723.144 648.267C718.252 647.452 712.875 647.032 707.601 647.287C700.48 647.516 693.384 648.904 686.237 649.795C676.3 651.031 666.77 651.184 657.508 655.526C657.292 655.628 657.101 655.755 656.884 655.857C661.254 652.686 665.891 649.808 671 647.376C679.663 643.263 692.836 641.34 695.639 630.515C695.677 630.362 695.677 630.21 695.664 630.082C696.798 627.79 695.613 624.492 693.83 622.773C693.524 622.48 693.193 622.212 692.849 621.97C692.428 621.563 691.919 621.244 691.396 621.041C691.333 620.964 691.307 620.875 691.205 620.812C684.02 616.762 673.089 619.984 665.471 621.321C654.922 623.18 643.75 628.019 634.335 633.075C626.181 637.443 619.875 644.536 614.168 651.642C613.187 652.864 612.219 654.112 611.25 655.348C608.142 658.621 605.416 662.377 602.256 665.586C598.281 669.61 594.23 673.52 590.523 677.812C583.898 685.465 578.242 693.857 574.484 703.294C570.241 713.965 565.145 724.178 560.674 734.761C557.412 742.478 553.094 750.08 550.469 758.065C530.952 758.689 511.46 760.599 491.892 760.472C479.381 760.395 467.215 758.88 454.947 756.473C445.723 754.665 435.964 751.978 426.384 751.749C421.123 750.475 415.619 749.711 410.51 748.527C400.369 746.171 390.305 743.484 380.292 740.695C370.342 737.932 360.456 735.092 350.379 732.8C343.028 731.131 334.925 728.928 327.141 728.737C325.052 728.266 322.886 728.062 320.695 727.871C314.338 727.324 307.879 727.133 301.509 726.751C288.234 725.961 274.921 725.999 261.659 726.903C248.652 727.782 235.823 730.189 222.841 731.361C219.147 731.692 213.465 732.596 210.331 735.296L209.337 738.072C216.216 734.022 226.23 734.659 233.479 733.742C244.41 732.367 255.289 730.864 266.309 730.227C277.24 729.59 288.234 729.616 299.165 730.087C307.968 730.469 317.472 730.342 326.352 731.717C333.027 733.806 340.302 734.633 347.041 736.085C357.118 738.237 367.017 741.013 376.916 743.815C386.942 746.655 397.006 749.291 407.16 751.634C415.3 753.519 424.053 756.078 432.525 756.269C439.633 757.798 446.87 758.957 453.876 760.37C465.712 762.751 477.407 764.229 489.484 764.471C502.262 764.725 515.065 764.076 527.805 763.108C534.15 762.624 540.494 762.089 546.838 761.567C546.889 761.567 546.94 761.567 546.978 761.567C547.093 761.656 547.233 761.72 547.399 761.707C548.571 761.567 549.743 761.452 550.915 761.325C552.839 761.211 554.788 761.058 556.673 760.739C574.28 759.135 592.115 758.918 609.747 758.511C623.812 758.18 637.736 757.938 651.661 760.434C666.668 763.121 679.994 769.488 692.084 778.3C694.428 781.038 696.862 783.725 699.218 786.45C699.511 786.794 699.792 787.164 700.097 787.507C701.741 789.889 703.372 792.296 705.079 794.664C710.277 801.898 714.99 809.207 719.385 816.963C722.048 821.649 724.8 826.284 727.615 830.894C733.374 840.802 740.024 850.187 746.483 859.84C750.942 866.487 754.815 873.453 756.496 881.349C758.42 890.403 755.388 899.597 752.509 908.104C747.63 922.494 737.782 944.716 720.239 946.295C714.952 946.766 709.283 944.13 704.327 942.615C699.69 941.201 694.849 940.565 690.046 940.004C683.714 939.266 677.051 938.693 670.516 938.947C655.992 937.763 641.24 937.788 626.818 936.808C606.499 935.433 585.44 935.458 565.438 931.523C547.564 927.996 530.621 920.737 513.677 914.268C504.339 910.715 494.873 907.748 485.688 903.762C481.56 901.979 477.432 899.546 473.139 897.789C470.667 896.312 468.209 894.822 465.712 893.37C455.634 887.5 445.303 882.036 434.958 876.65C424.575 871.237 414.052 866.182 403.529 861.062C398.841 858.796 394.305 856.236 389.604 853.995C388.547 853.485 387.477 853.014 386.407 852.543C375.96 846.456 365.386 840.751 355.487 833.594C341.69 823.623 327.524 814.161 311.828 807.412C296.209 800.701 281.087 798.93 264.309 798.103C254.55 797.619 245.645 795.874 236.549 792.385C228.37 789.239 220.14 785.47 211.668 783.101C208.101 782.108 200.712 783.012 195.145 778.224L194.342 780.949V780.898ZM101.814 965.435C98.5267 964.276 95.7239 962.15 92.9085 959.017C87.6087 953.108 84.4365 944.933 81.4299 937.725C77.952 929.384 75.455 920.775 74.6397 911.759C74.5887 911.262 74.576 910.778 74.5632 910.294C74.6906 909.11 74.7161 907.888 74.7288 906.589C75.1365 903.341 76.1939 900.438 77.608 897.649C78.6654 896.108 79.9139 894.682 81.2516 893.306C86.6915 887.703 92.6282 882.38 98.2719 876.968C104.629 870.868 112.553 867.341 119.904 862.68C126.529 858.477 131.714 852.161 136.631 846.163C147.613 832.754 156.442 817.51 170.672 807.157C184.189 797.313 202.381 791.341 218.943 789.851C219.07 789.851 219.185 789.787 219.299 789.749C230.6 795.416 242.702 799.924 255.136 801.414C263.952 802.471 272.832 802.101 281.648 803.018C290.871 803.973 299.942 806.609 308.567 809.895C336.938 820.694 358.863 843.476 386.075 856.172C390.483 858.719 395.07 860.999 399.49 863.329C410.51 869.124 421.81 874.421 432.856 880.19C443.787 885.908 454.666 891.74 465.368 897.865C469.304 900.12 473.254 902.463 477.368 904.386C447.85 913.911 417.504 920.418 387.668 928.823C361.36 936.235 335.104 945.289 308.248 950.765C301.993 951.364 295.687 951.682 289.432 952.128C266.22 953.783 243.263 956.305 219.962 956.47C196.788 956.636 173.169 954.84 150.084 957.362C140.479 958.406 131.064 960.762 121.713 963.156C118.286 964.035 114.948 964.849 111.725 965.423C109.037 965.906 104.629 966.403 101.839 965.423L101.814 965.435ZM734.66 716.983C738.38 714.475 741.234 717.849 742.967 720.905C745.043 724.573 740.482 725.719 737.603 725.63C736.431 725.605 735.603 724.968 734.928 724.089C733.501 721.67 731.819 718.906 734.66 716.983ZM741.362 680.015C743.094 680.066 743.808 680.613 744.559 682.103C745.209 683.389 745.604 684.828 745.91 686.229C746.266 687.897 746.381 689.222 744.572 689.757C743.107 690.19 741.476 690.177 739.973 690.1C738.686 690.024 737.896 689.502 737.17 688.802C736.673 687.783 735.973 686.802 735.616 685.758C735.259 684.739 735.145 683.657 734.902 682.613C735.043 681.683 735.527 680.932 736.597 680.562C738.113 680.04 739.795 679.964 741.374 680.027L741.362 680.015ZM730.94 654.125C731.628 654.673 732.253 655.297 732.826 655.972C733.157 656.749 733.348 657.627 733.59 658.34C734.533 661.231 735.501 665.102 731.272 665.102C728.367 665.102 726.494 663.714 724.889 661.741C724.558 660.735 724.227 659.728 724.112 658.646C724.112 658.57 724.112 658.493 724.112 658.429C724.125 656.685 724.201 655.017 726.239 654.24C727.641 653.705 729.501 653.616 730.953 654.138L730.94 654.125ZM685.37 622.709C687.523 622.021 690.033 622.709 691.842 623.932C693.779 625.23 694.963 628.656 692.568 630.019C690.632 631.114 688.16 631.025 686.007 630.452C685.893 630.375 685.778 630.286 685.651 630.21C684.912 629.764 684.364 628.987 683.905 628.287C683.74 628.019 683.612 627.739 683.485 627.459C683.013 625.434 682.873 623.511 685.358 622.709H685.37ZM563.043 737.906C567.056 728.61 571.757 719.619 575.643 710.285C578.063 704.465 580.038 698.76 583.249 693.284C586.357 687.999 590.217 683.16 594.09 678.436C599.301 672.068 607.25 665.879 611.798 658.519C612.18 658.073 612.588 657.64 612.958 657.182C618.907 649.846 624.704 642.6 632.564 637.201C640.501 631.751 650.502 628.401 659.611 625.472C666.605 623.218 674.898 621.588 682.708 621.601C681.548 622.518 681.077 623.791 681.128 625.116C680.873 627.561 682.873 631.419 685.103 632.158C686.886 633.521 690.415 633.075 692.696 632.285C689.664 637.163 683.994 639.404 678.695 641.454C673.191 643.594 667.891 646.001 662.706 648.853C650.565 655.513 642.004 665.217 633.634 675.94C626.755 683.224 619.238 692.291 610.053 696.035C609.989 696.06 610.002 696.149 610.066 696.149C617.187 695.984 623.175 689.451 627.901 684.828C635.685 677.2 642.972 668.897 651.623 662.224C661.19 654.851 672.172 653.361 683.88 652.559C690.008 652.139 696.084 650.878 702.187 650.139C705.958 649.681 709.678 649.681 713.41 649.375C718.366 649.515 723.246 650.101 727.246 651.884C725.271 652.215 723.22 652.954 722.468 655.004C722.367 655.271 722.328 655.59 722.252 655.883C722.188 656.099 722.137 656.316 722.099 656.545C722.099 656.608 722.099 656.659 722.073 656.723C721.806 658.595 722.15 660.76 723.016 662.415C723.513 665.192 728.545 667.038 730.724 667.216C730.813 667.216 730.915 667.216 731.004 667.216C730.686 667.497 730.367 667.777 730.01 668.031C727.883 669.521 725.106 670.209 722.634 670.922C715.627 672.934 708.582 674.806 701.499 676.576C692.275 678.894 681.752 680.715 673.968 686.611C666.63 689.833 660.324 694.825 654.158 699.868C646.094 706.464 638.131 713.418 630.64 720.651C630.589 720.702 630.653 720.804 630.73 720.753C645.711 712.284 656.859 698.34 672.197 690.291C687.511 682.256 706.149 683.555 722.519 678.397C723.08 678.283 723.628 678.194 724.188 678.079C729.246 676.997 733.374 676.997 737.68 678.092C736.941 678.232 736.215 678.397 735.527 678.639C731.845 679.913 732.253 683.402 733.654 686.369C734.062 687.783 734.75 689.094 735.629 689.986C737.043 692.202 740.508 692.431 743.323 692.087C737.463 698.098 728.584 700.976 720.825 703.459C711.308 706.503 701.448 708.324 692.339 712.552C683.357 716.716 675.866 724.064 668.299 730.265C659.254 737.69 649.266 742.083 639.201 747.725C639.112 747.775 639.176 747.877 639.265 747.865C644.106 746.986 648.514 745.33 652.667 743.216C655.457 743.853 658.591 742.898 661.318 742.21C662.082 742.019 662.795 741.765 663.522 741.523C656.961 745.279 650.285 748.782 643.164 751.367C642.947 751.443 643.036 751.749 643.253 751.698C650.412 750.463 657.177 746.54 663.522 743.14C671.306 738.963 678.924 734.366 686.874 730.507C695.46 726.343 705.193 723.363 714.188 720.129C717.895 718.804 721.666 717.696 725.526 716.894C727.029 716.588 730.138 715.875 733.093 715.608C729.73 718.04 731.093 722.319 733.501 725.172C733.539 725.223 733.578 725.286 733.616 725.35C734.75 727.018 736.661 727.54 738.572 727.477C739.998 727.426 741.349 727.12 742.495 726.598C736.393 736.556 721.564 740.708 711.716 745.394C705.384 748.412 699.282 751.812 693.065 755.072C689.816 756.779 686.581 758.511 683.357 760.268C681.65 761.211 679.255 763.91 677.217 763.834C677.026 763.834 676.873 763.872 676.72 763.923C657.152 754.741 633.316 753.901 612.028 754.385C598.918 754.69 585.771 754.958 572.687 755.862C567.018 756.257 561.374 756.792 555.756 757.607C555.157 757.696 554.559 757.785 553.947 757.874C553.718 757.874 553.501 757.887 553.272 757.9C557.654 752.067 560.241 744.414 563.056 737.906H563.043Z" fill="#D1D1D1"/>
<path d="M517.933 203.334C517.933 203.334 528.545 132.873 525.156 112.498C521.755 92.1225 503.919 87.8819 503.919 87.8819C501.791 67.0863 485.23 50.5313 485.23 50.5313C485.23 50.5313 472.49 36.9434 441.061 22.0949C409.632 7.23362 378.216 2.57275 378.216 2.57275L389.682 9.3603C389.682 9.3603 358.253 3.41324 321.741 15.3074C285.228 27.2015 269.928 49.2705 269.928 49.2705H281.814L236.805 79.4133C236.805 79.4133 276.718 70.4991 269.074 79.4133C261.431 88.3276 259.303 106.576 259.303 106.576V203.359C260.717 212.923 263.24 220.385 265.711 225.874C264.717 266.103 261.354 368.476 252.513 382.077L259.29 375.289C259.29 375.289 248.691 469.945 329.805 503.909L317.919 484.807C317.919 484.807 401.147 522.157 409.224 538.292L411.352 523.864L417.722 531.925C417.722 531.925 454.247 524.284 488.644 444.056L492.045 469.525C492.045 469.525 512.849 461.031 514.557 407.546L522.2 414.766L510.862 224.002L517.958 203.372L517.933 203.334ZM460.183 312.431C417.722 336.207 338.302 319.219 338.302 319.219C338.302 319.219 280.973 299.696 274.183 247.052L272.833 235.081C273.189 232.33 273.814 226.422 274.604 214.362C275.877 194.84 292.019 179.125 292.019 179.125C286.502 162.991 289.471 148.142 296.694 139.228C303.918 130.314 323.868 123.526 335.334 121.82C346.8 120.126 383.745 126.913 383.745 126.913C383.745 126.913 419.416 132.427 441.074 133.281C462.731 134.134 461.878 125.22 465.279 126.913C468.681 128.607 475.471 134.554 475.471 134.554C490.338 145.162 488.631 177.432 488.631 177.432C497.982 186.117 503.014 200.277 505.677 211.79C503.613 233.171 494.823 293.024 460.171 312.418L460.183 312.431Z" fill="#6133BC"/>
<path d="M409.223 540.8C408.267 540.8 407.376 540.266 406.942 539.387C401.273 528.04 351.117 502.94 324.555 490.601L331.982 502.52C332.568 503.463 332.479 504.672 331.752 505.513C331.026 506.353 329.854 506.634 328.835 506.213C285.979 488.27 268.665 453.492 261.684 427.475C256.486 408.106 256.066 390.927 256.346 381.809L254.333 383.821C253.416 384.751 251.938 384.827 250.932 383.999C249.912 383.184 249.683 381.72 250.396 380.637C256.231 371.672 260.996 313.997 263.174 226.332C260.168 219.481 258.028 211.866 256.817 203.69C256.805 203.563 256.792 203.435 256.792 203.321V106.538C256.792 106.436 256.792 106.347 256.805 106.245C256.894 105.481 259.059 87.5633 266.869 78.076C262.474 77.3501 248.906 79.2858 237.389 81.8582C236.192 82.1256 234.981 81.5016 234.497 80.3809C234.013 79.2603 234.395 77.9486 235.415 77.261L273.468 51.7918H269.965C269.022 51.7918 268.143 51.2696 267.71 50.4292C267.264 49.5887 267.328 48.5699 267.875 47.7931C268.525 46.8635 284.08 24.8708 320.987 12.8621C344.479 5.22133 365.717 4.78835 378.303 5.53969L376.966 4.75014C375.921 4.12615 375.45 2.85269 375.857 1.70658C376.265 0.560461 377.424 -0.139942 378.635 0.0383423C378.953 0.0892808 410.79 4.94116 442.193 19.777C473.699 34.6637 486.591 48.2133 487.126 48.7737C487.751 49.3977 503.433 65.2904 506.287 85.9205C511.166 87.6269 524.67 93.9178 527.703 112.065C531.129 132.606 520.925 200.812 520.492 203.703C520.466 203.856 520.428 204.008 520.377 204.149L513.447 224.295L524.76 414.562C524.823 415.607 524.237 416.574 523.295 417.02C522.352 417.466 521.231 417.288 520.466 416.562L516.861 413.162C513.905 462.737 493.904 471.473 493.025 471.83C492.299 472.135 491.471 472.072 490.783 471.677C490.095 471.282 489.636 470.595 489.534 469.805L487.33 453.288C453.927 526.117 419.759 534.051 418.268 534.357C417.325 534.56 416.344 534.204 415.746 533.44L413.032 530.014L411.771 538.61C411.605 539.705 410.752 540.584 409.656 540.75C409.516 540.775 409.388 540.788 409.248 540.788L409.223 540.8ZM317.917 482.221C318.274 482.221 318.618 482.298 318.962 482.451C326.759 485.953 389.744 514.516 407.554 532.09L408.828 523.456C408.981 522.45 409.707 521.622 410.688 521.367C411.669 521.113 412.714 521.457 413.351 522.246L418.638 528.945C425.632 526.449 456.806 511.804 486.298 443.024C486.744 441.967 487.827 441.331 488.986 441.509C490.12 441.662 491.012 442.566 491.165 443.699L494.019 465.068C499.484 460.305 510.784 445.877 511.994 407.444C512.033 406.438 512.644 405.546 513.574 405.164C514.504 404.782 515.562 404.973 516.3 405.661L519.269 408.462L508.313 224.116C508.287 223.785 508.338 223.454 508.44 223.136L515.46 202.735C516.122 198.316 525.855 132.096 522.658 112.918C519.587 94.5418 504.007 90.5177 503.344 90.3521C502.299 90.0974 501.522 89.206 501.408 88.1363C499.408 68.5123 483.61 52.4794 483.457 52.3266C483.279 52.1356 470.514 38.8152 440.002 24.3869C421.963 15.8547 403.783 10.6972 391.795 7.89559C392.266 8.57053 392.394 9.44921 392.088 10.2515C391.655 11.4103 390.457 12.0725 389.234 11.8561C388.928 11.7924 357.971 6.18915 322.554 17.714C296.654 26.1443 281.583 39.9358 275.392 46.7107H281.851C282.972 46.7107 283.966 47.4493 284.284 48.519C284.615 49.5887 284.195 50.7475 283.265 51.3715L248.689 74.523C249.785 74.3447 250.919 74.1665 252.04 74.0009C266.627 71.8488 270.614 73.0458 272.092 75.5163C272.666 76.4587 273.277 78.4453 271.035 81.0559C264.321 88.8749 262.092 105.061 261.875 106.729V203.168C263.06 211.025 265.136 218.309 268.054 224.83C268.207 225.173 268.283 225.555 268.27 225.937C267.162 271.247 264.436 344.267 258.18 372.997C258.868 372.665 259.684 372.64 260.397 372.997C261.378 373.468 261.951 374.499 261.824 375.569C261.799 375.798 259.314 399.217 266.64 426.367C275.608 459.643 294.616 483.724 323.166 498.05L315.751 486.144C315.165 485.188 315.255 483.966 315.993 483.125C316.49 482.552 317.191 482.26 317.917 482.26V482.221ZM396.954 327.712C366.43 327.712 339.664 322.109 337.766 321.714C337.664 321.689 337.575 321.663 337.473 321.638C336.887 321.434 278.564 300.982 271.646 247.395L270.296 235.387C270.27 235.183 270.27 234.979 270.296 234.763C270.678 231.91 271.29 226.014 272.054 214.209C273.188 196.788 285.291 182.551 289.113 178.476C284.386 163.321 286.475 147.798 294.705 137.636C302.464 128.059 323.306 121.043 334.95 119.311C346.709 117.579 382.673 124.137 384.189 124.417C384.47 124.455 419.899 129.906 441.161 130.746C454.742 131.281 458.602 127.868 460.679 126.034C461.902 124.952 463.762 123.322 466.412 124.646C469.877 126.378 475.992 131.65 477.049 132.567C491.267 142.844 491.381 170.262 491.216 176.387C500.694 185.76 505.65 200.417 508.16 211.216C508.223 211.484 508.236 211.764 508.211 212.031C505.867 236.316 496.605 294.934 461.418 314.647C443.378 324.745 419.173 327.712 396.954 327.712ZM338.989 316.761C342.938 317.576 418.676 332.743 458.933 310.202C492.706 291.291 501.255 230.789 503.102 211.968C500.656 201.576 495.866 187.644 486.897 179.303C486.349 178.794 486.044 178.055 486.082 177.304C486.094 176.998 487.534 146.308 473.979 136.642C473.915 136.591 473.839 136.541 473.775 136.49C472.043 134.974 467.214 130.937 464.539 129.435C464.386 129.562 464.195 129.728 464.042 129.868C461.43 132.173 456.538 136.477 440.958 135.84C419.402 135 383.692 129.498 383.336 129.447C382.903 129.371 346.62 122.723 335.689 124.354C324.402 126.022 305.254 132.682 298.655 140.845C291.253 149.976 289.635 164.34 294.412 178.323C294.731 179.252 294.489 180.284 293.775 180.972C293.622 181.124 278.322 196.253 277.124 214.54C276.373 226.078 275.761 232.076 275.379 235.106L276.691 246.771C283.036 295.914 335.893 315.653 338.963 316.761H338.989Z" fill="#9D70F9"/>
<path d="M374.826 205.027C374.826 205.027 329.817 194.419 317.918 196.966C306.019 199.513 298.808 199.933 294.133 211.827L374.814 205.04L374.826 205.027Z" fill="#111111"/>
<path d="M406.676 205.027C406.676 205.027 451.685 194.419 463.584 196.966C475.47 199.513 482.694 199.933 487.369 211.827L406.688 205.04L406.676 205.027Z" fill="#111111"/>
<path d="M372.328 323.346C372.328 323.346 395.425 331.127 407.885 323.346C407.885 323.346 394.534 351.222 372.328 323.346Z" fill="#9D70F9"/>
<path d="M379.182 299.683C377.687 302.284 377.688 302.285 377.689 302.285L377.691 302.287L377.697 302.29L377.71 302.297L377.744 302.317C377.771 302.332 377.806 302.351 377.849 302.374C377.934 302.42 378.049 302.48 378.193 302.552C378.48 302.696 378.883 302.887 379.388 303.097C380.393 303.517 381.82 304.023 383.548 304.389C387 305.119 391.78 305.314 396.764 303.004C400.624 301.214 403.348 300.877 404.964 300.907C405.778 300.921 406.337 301.029 406.646 301.109C406.788 301.146 406.879 301.177 406.919 301.192L406.988 301.226L407.133 301.281C436.548 312.367 457.717 310.926 471.689 306.47C478.65 304.251 483.754 301.305 487.147 298.88C487.555 298.588 487.938 298.304 488.297 298.029C488.419 298.713 488.539 299.457 488.648 300.253C489.235 304.516 489.505 310.125 488.35 315.737C487.202 321.321 484.668 326.809 479.709 331.074C474.749 335.34 467.07 338.634 455.164 339.285C430.858 340.616 415.15 335.921 405.619 331.067C400.843 328.635 397.584 326.145 395.548 324.307C394.53 323.388 393.816 322.63 393.371 322.122C393.148 321.868 392.992 321.676 392.9 321.558C392.853 321.499 392.823 321.458 392.807 321.437L392.798 321.424L392.797 321.424L392.795 321.421L390.852 318.67L388.343 320.941L388.343 320.941L388.342 320.942L388.341 320.943L388.326 320.956L388.257 321.018C388.193 321.074 388.094 321.161 387.961 321.276C387.696 321.506 387.295 321.848 386.769 322.283C385.716 323.151 384.163 324.387 382.19 325.832C378.237 328.727 372.625 332.442 365.982 335.736C352.594 342.375 335.588 347.03 319.54 340.7C303.404 334.335 297.079 322.864 294.692 312.926C293.487 307.908 293.289 303.269 293.397 299.878C293.402 299.711 293.408 299.547 293.415 299.387C315.593 314.373 334.802 315.21 348.832 311.854C356.229 310.085 362.093 307.175 366.116 304.701C368.129 303.463 369.689 302.33 370.758 301.495C371.293 301.077 371.706 300.733 371.992 300.487C372.134 300.365 372.246 300.267 372.325 300.195C372.95 299.759 373.739 299.742 374.958 300.338C375.558 300.631 376.101 301.008 376.506 301.329C376.704 301.485 376.857 301.618 376.954 301.706C377.003 301.75 377.037 301.782 377.055 301.799L377.064 301.808L377.067 301.811L377.067 301.811L377.069 301.813L377.34 302.085L377.687 302.284L379.182 299.683Z" fill="#6133BC" stroke="#9D70F9" stroke-width="6"/>
<path fill-rule="evenodd" clip-rule="evenodd" d="M462.907 220.334L453.059 218.92H431.937L430.535 231.591L433.351 234.406L443.198 235.806L454.46 234.406L461.493 231.591L465.722 224.549L462.907 220.334Z" fill="white"/>
<path fill-rule="evenodd" clip-rule="evenodd" d="M454.458 217.52L441.795 218.933H434.75L436.164 227.376L443.196 231.591L450.242 230.19L455.873 223.148L454.458 217.52Z" fill="#050010"/>
<path d="M434.092 220.704C434.27 226.944 437.952 231.948 444.577 231.859C450.118 231.783 455.762 228.243 457.023 222.652C457.367 221.162 455.061 220.513 454.717 222.015C453.736 226.371 449.545 229.096 445.239 229.44C439.697 229.885 436.627 225.938 436.461 220.704C436.41 219.175 434.028 219.163 434.079 220.704H434.092Z" fill="#111111"/>
<path d="M417.388 225.695C425.567 221.569 434.689 219.761 443.836 220.054C450.512 220.27 458.907 221.404 463.684 226.6C465.774 228.866 469.137 225.479 467.06 223.225C461.735 217.431 452.983 215.801 445.467 215.355C434.956 214.718 424.37 216.832 414.98 221.569C412.241 222.957 414.649 227.071 417.388 225.695Z" fill="#111111"/>
<path d="M430.994 233.323C429.886 229.261 430.421 224.97 433.198 221.684C435.173 219.354 431.81 215.953 429.822 218.309C425.924 222.919 424.803 228.79 426.383 234.597C427.198 237.551 431.797 236.303 430.982 233.323H430.994Z" fill="#111111"/>
<path d="M429.135 237.118C440.945 238.404 460.755 238.303 467.431 226.128C468.909 223.429 464.781 221.022 463.303 223.721C457.596 234.113 439.072 233.438 429.123 232.343C426.078 232.012 426.091 236.787 429.123 237.118H429.135Z" fill="#111111"/>
<path fill-rule="evenodd" clip-rule="evenodd" d="M349.854 220.856H327.496L317.075 222.346L314.094 226.816L318.565 234.266L326.018 237.246L337.93 238.736L348.364 237.246L351.345 234.266L349.854 220.856Z" fill="white"/>
<path fill-rule="evenodd" clip-rule="evenodd" d="M339.42 220.869L326.018 219.379L324.527 225.339L330.477 232.789L337.93 234.279L345.382 229.809L346.873 220.869H339.42Z" fill="#050010"/>
<path d="M346.311 222.741C346.132 228.713 342.145 232.496 336.132 231.961C331.838 231.579 326.105 228.662 326.997 223.543C327.278 221.951 324.844 221.276 324.564 222.868C323.405 229.452 329.545 233.705 335.456 234.406C343.151 235.323 348.629 230.369 348.846 222.728C348.897 221.098 346.362 221.098 346.323 222.728L346.311 222.741Z" fill="#111111"/>
<path d="M367.804 223.671C357.867 218.653 346.656 216.412 335.535 217.087C327.585 217.571 318.311 219.277 312.68 225.415C310.488 227.809 314.043 231.388 316.259 228.994C321.33 223.48 330.197 222.283 337.267 222.066C346.949 221.76 356.593 223.671 365.257 228.039C368.148 229.503 370.722 225.148 367.804 223.671Z" fill="#111111"/>
<path d="M355.728 237.437C357.409 231.298 356.224 225.084 352.097 220.207C349.995 217.723 346.428 221.315 348.517 223.785C351.46 227.262 352.033 231.808 350.848 236.099C349.982 239.245 354.861 240.582 355.728 237.437Z" fill="#111111"/>
<path d="M352.822 235.055C342.286 236.201 322.68 236.927 316.641 225.925C315.074 223.072 310.704 225.619 312.271 228.472C319.329 241.346 340.337 241.474 352.809 240.111C356.007 239.767 356.045 234.699 352.809 235.055H352.822Z" fill="#111111"/>
<path d="M394.394 425.386C394.56 426.762 395.49 427.666 396.433 428.494C409.478 439.878 419.759 453.479 428.027 468.582C431.365 474.669 434.231 481.037 436.091 487.926C415.912 457.274 389.311 434.848 354.009 423.425C374.202 438.185 391.4 455.567 402.879 478.031C400.242 476.834 399.172 474.198 397.465 472.173C390.483 463.896 383.374 455.784 374.788 449.086C371.781 446.742 368.609 444.692 365.144 443.1C363.704 442.438 362.239 441.776 360.214 443.113C366.787 447.901 372.864 452.868 378.011 458.878C383.056 464.762 387.846 470.798 391.617 477.929C379.234 475.777 367.654 472.492 356.621 467.818C336.696 459.388 321.243 446.335 315.306 424.406C315.026 423.374 315.038 421.655 313.471 422.101C312.146 422.47 313.14 423.807 313.255 424.762C315.497 442.642 324.071 456.968 337.728 468.455C338.416 469.028 338.925 469.83 339.46 470.569C340.085 471.422 340.059 472.326 339.32 473.078C338.48 473.943 337.906 473.014 337.244 472.657C317.077 461.616 303.827 444.896 296.107 423.362C292.757 414.002 291.33 404.285 288.998 394.645C286.922 405.202 287.915 416.027 286.399 426.749C275.876 400.146 278.31 353.232 283.431 341.274C289.189 361.854 297.572 381.006 304.987 400.567C306.668 385.884 303.968 370.972 308.452 356.161C308.477 373.149 310.414 389.398 316.007 405.088C318.007 410.703 320.453 416.116 323.319 421.35C329.434 432.518 338.569 440.846 348.62 448.296C349.257 448.767 349.996 449.124 350.71 449.48C351.27 449.76 351.754 450.55 352.506 449.824C353.449 448.895 352.468 448.385 352.009 447.85C348.213 443.546 344.34 439.305 340.594 434.976C330.173 422.929 323.701 408.844 320.376 393.435C319.255 388.214 318.198 382.738 318.784 376.855C320.848 378.37 322.02 380.281 323.294 382.089C332.517 395.167 345.015 403.661 360.264 408.157C364.074 409.277 368.099 409.647 371.947 410.703C386.305 414.626 399.618 420.917 412.243 428.736C413.007 429.207 413.657 429.933 414.676 429.894C414.854 430.302 415.198 430.862 415.568 430.595C416.205 430.136 415.823 429.653 415.236 429.372C409.516 423.273 403.783 417.185 398.063 411.086C388.292 400.694 378.954 389.895 371.947 377.453C368.38 371.124 365.093 364.26 366.698 355.843C369.794 362.439 373.183 368.144 378.584 372.525C382.776 375.925 387.706 377.772 392.381 380.166C405.72 386.992 417.479 395.549 424.511 409.277C425.912 412.028 426.957 414.97 428.065 417.86C429.072 420.496 429.518 423.336 431.225 425.679C434.423 420 431.097 385.604 421.186 370.488C433.773 379.962 441.327 393.142 447.978 407.787C450.997 396.899 452.946 386.329 458.679 376.562C460.603 380.879 460.985 385.043 461.1 389.182C461.278 395.014 461.864 400.885 460.564 406.692C460.412 407.354 460.475 408.08 460.552 408.755C460.628 409.494 460.322 410.551 461.431 410.703C462.195 410.805 462.565 410.041 462.858 409.417C466.539 401.445 469.138 393.168 470.68 384.508C472.018 377.008 472.272 369.405 473.419 361.892C473.635 360.465 474.132 359.268 475.011 358.161C478.273 354.047 481.509 349.921 484.936 345.553C487.726 361.344 488.808 376.817 488.146 392.391C487.05 418.179 479.738 441.992 465.202 463.45C463.316 466.239 462.475 469.779 459.341 471.702C458.819 472.021 458.679 473.141 457.813 472.67C456.87 472.161 457.316 471.256 457.622 470.531C459.749 465.564 461.966 460.636 464.042 455.657C468.285 445.494 471.992 435.128 475.075 424.559C477.279 417.007 478.375 409.201 479.993 401.522C480.438 399.408 480.438 397.179 479.814 394.212C478.031 398.147 476.617 401.522 474.999 404.795C469.368 416.192 461.227 425.909 453.876 436.16C447.697 444.769 441.799 453.479 439.569 464.151C439.149 466.137 439.544 468.187 438.716 470.492C437.378 468.595 436.206 466.939 435.034 465.284C428.83 456.561 421.976 448.474 414.192 441.05C409.045 436.134 403.694 431.563 398.051 427.284C396.942 426.443 395.872 425.577 394.42 425.425L394.331 425.297L394.445 425.412L394.394 425.386Z" fill="#9D70F9"/>
<path d="M406.343 25.049C418.827 30.5248 426.115 40.6998 431.351 52.7085C435.402 61.992 437.287 71.8995 439.249 81.7561C439.402 82.4947 439.02 83.5517 440.052 83.8064C441.173 84.0866 441.593 83.0933 442.039 82.3037C445.798 75.6563 446.409 68.4103 445.785 61.0497C445.352 55.854 444.32 50.7092 442.523 45.4625C456.881 60.8969 457.951 109.212 440.052 121.157C438.561 111.39 439.631 101.406 437.44 91.6254C436.166 100.692 435.593 109.849 432.637 119.132C430.357 112.306 428.395 105.825 426.038 99.4954C423.656 93.1154 421.197 86.7226 417.643 80.7628C420.738 96.0571 423.745 111.326 424.79 127.028C421.375 126.506 419.541 123.831 417.311 122.099C410.534 116.827 402.89 112.994 395.679 108.486C388.456 103.965 383.042 97.9036 378.557 90.8359C378.035 90.0209 377.729 88.5437 376.417 89.2823C375.423 89.8426 376.34 91.0014 376.608 91.7401C380.99 103.621 386.863 114.548 396.775 122.851C397.527 123.475 398.074 124.353 398.953 125.41C389.743 126.582 382.341 123.08 375.461 118.177C367.423 112.459 362.39 104.424 359.078 95.3567C355.052 84.3412 347.421 76.0128 339.548 67.8117C339.153 67.4042 338.694 67.0477 338.249 66.6784C337.497 66.0544 336.885 65.303 337.446 64.3225C338.057 63.2655 339.064 63.7239 339.917 63.9786C346.835 66.0289 352.364 70.2313 357.396 75.2105C358.951 76.7514 360.39 78.3942 361.919 79.9478C362.454 80.4954 363.04 81.476 363.881 80.8774C364.785 80.228 364.34 79.1965 363.868 78.3942C361.524 74.3955 358.556 70.9062 355.243 67.6844C347.791 60.4384 339.013 55.5356 329.101 52.4283C321.878 50.1616 314.502 49.2065 307.049 48.2132C300.195 47.309 293.354 47.6783 286.016 47.5255C298.908 43.1448 311.444 41.6421 324.553 44.3164C337.612 46.9907 350.058 51.1167 361.537 57.8278C370.429 63.0235 378.175 69.862 385.003 77.4646C388.94 81.8453 393.654 85.4619 397.144 90.2374C397.603 90.8614 398.125 91.549 399.922 91.4217C389.985 73.1857 378.99 56.4015 360.951 45.6153C343.294 35.0584 323.802 30.9069 302.781 30.2447C309.113 28.1689 327.738 27.736 333.458 28.2199C342.924 29.0222 351.791 31.8874 360.543 35.0456C369.588 38.3057 377.462 43.7688 384.558 50.2762C389.908 55.179 394.839 60.4766 399.208 66.2836C399.539 66.7166 400.049 67.0095 400.47 67.366C400.52 67.799 400.813 68.3721 401.132 68.181C401.718 67.8245 401.476 67.3278 400.903 67.0349C398.215 59.3305 393.628 52.7722 388.469 46.5832C378.302 34.4089 364.964 27.112 350.275 21.9035C349.243 21.5342 348.02 21.5342 347.039 20.3117C352.033 20.0825 356.747 20.4136 361.486 21.0758C371.474 22.4766 380.914 25.4055 389.666 30.4484C403.998 38.7132 413.884 51.0021 421.184 65.5577C422.93 69.047 424.42 72.6636 426.013 76.2293C426.242 76.7387 426.28 77.49 426.981 77.4518C427.936 77.4136 427.86 76.5604 427.885 75.8982C428.102 70.5624 426.484 65.5322 425.019 60.5275C421.375 48.1113 414.98 37.1214 407.171 26.8827C406.763 26.3479 406.546 25.6857 406.241 25.0744L406.279 25.0362L406.343 25.049ZM399.68 92.173C399.629 92.415 399.527 92.6315 399.565 92.797C399.654 93.1409 399.858 93.1536 400.024 92.8352C400.075 92.7461 400.113 92.5933 400.062 92.5169C399.973 92.3895 399.82 92.2876 399.68 92.1603V92.173Z" fill="#9D70F9"/>
<path d="M344.581 93.1918C343.791 95.3439 344.76 96.2226 345.218 97.2032C347.32 101.673 349.55 106.079 351.614 110.575C352.212 111.886 353.588 113.822 352.595 114.65C351.282 115.732 349.282 116.267 347.142 115.617C341.6 113.936 336.568 111.351 331.905 107.951C325.102 102.985 319.102 97.114 313.191 91.167C309.228 87.1811 304.349 85.2454 299.177 83.488C292.183 81.1194 284.997 80.5591 277.328 80.6864C281.762 77.8084 292.195 76.9424 300.578 78.3051C308.349 79.5658 315.509 82.5966 322.682 85.7803C323.28 84.0356 323.14 82.6348 322.363 81.2467C317.28 72.2052 310.184 66.0798 299.597 64.0168C295.266 63.1763 290.73 63.3037 286.017 61.2534C293.062 59.738 299.699 59.8526 306.298 60.3747C316.885 61.2152 326.223 65.4558 334.644 71.7467C340.25 75.9491 343.932 81.8962 347.804 87.5376C351.996 93.6248 356.174 99.852 357.716 107.391C353.41 102.743 349.155 98.1456 344.568 93.1918H344.581ZM344.046 93.2937C343.944 93.1281 343.868 92.8734 343.74 92.848C343.588 92.8098 343.384 92.9753 343.205 93.039C343.32 93.1918 343.396 93.421 343.549 93.472C343.677 93.5229 343.868 93.3701 344.046 93.2937Z" fill="#9D70F9"/>
<path d="M466.145 70.104C467.737 76.1529 467.992 81.9981 467.546 87.8306C466.986 95.0638 465.699 102.144 461.762 108.473C459.125 112.727 455.877 116.382 451.953 119.451C451.176 120.049 450.258 121.144 449.252 120.52C448.156 119.833 448.513 118.381 448.806 117.362C450.208 112.536 451.609 107.697 453.303 102.959C454.909 98.464 456.769 94.1215 459.469 90.0464C462.896 84.8761 464.909 78.9546 465.381 72.6509C465.432 71.9123 465.814 71.1864 466.145 70.1167V70.104Z" fill="#9D70F9"/>
</g>
<defs>
<clipPath id="clip0_1407_804">
<rect width="822" height="823" fill="white"/>
</clipPath>
</defs>
</svg>
