<svg id="Layer_1" data-name="Layer 1" xmlns="http://www.w3.org/2000/svg" viewBox="0 0 174.67 118.12"><defs><style>.cls-1{fill:#333;}.cls-1,.cls-10,.cls-11,.cls-12,.cls-13,.cls-14,.cls-15,.cls-2,.cls-3,.cls-4,.cls-5,.cls-6,.cls-7,.cls-8,.cls-9{fill-rule:evenodd;}.cls-2{fill:red;}.cls-3{fill:#de0d1a;}.cls-4{fill:#ffadad;}.cls-5{fill:#ff5757;}.cls-6{fill:#634a4a;}.cls-7{fill:#b00a12;}.cls-8{fill:#301717;}.cls-9{fill:#878787;}.cls-11{fill:#212121;}.cls-12{fill:#ccc;}.cls-13{fill:#ff6363;}.cls-14{fill:#ff8787;}.cls-15{fill:#ff4f4f;}</style></defs><path id="path306" class="cls-1" d="M165.72,118.1,95.59,65.28l-.83-.63,71-53.45ZM79.91,64.65h0l-.84.63L9,118.1V11.2l71,53.45h0"/><path id="path308" class="cls-2" d="M174.67,4.45V113.67l-8.93,4.45,0,0V11.2l-71,53.45V53.46L165.74,0ZM79.91,64.65,9,11.2V118.1l0,0L0,113.67V4.45L8.93,0l71,53.46V64.65h0"/><path id="path310" class="cls-3" d="M0,22.49,9,11.2,0,4.45Z"/><path id="path312" class="cls-4" d="M0,4.45,9,11.2,8.93,0Z"/><path id="path314" class="cls-2" d="M8.93,0,9,11.2l24.49,7.26Z"/><path id="path316" class="cls-3" d="M33.44,18.46,9,11.2,37.47,32.69Z"/><path id="path318" class="cls-5" d="M9,47.54V11.2L0,22.49,8.86,47.67,9,47.54"/><path id="path320" class="cls-6" d="M9,11.2V47.54l.14.31L37.66,33.28l-.19-.59L9,11.2"/><path id="path322" class="cls-2" d="M33.44,18.46l4,14.23,24.69,7.4Z"/><path id="path324" class="cls-1" d="M72.15,58.81,37.47,32.69l7.71,24.1Z"/><path id="path326" class="cls-3" d="M63.14,40.83l9,18,7.76-5.35Z"/><path id="path328" class="cls-7" d="M72.15,58.81l-9-18-1-.74-24.69-7.4.55.41L72.15,58.81"/><path id="path330" class="cls-7" d="M79.91,53.46l-7.76,5.35,7.76,5.84Z"/><path id="path332" class="cls-8" d="M79.91,64.65l-7.76-5.84L57.45,81.56,79.07,65.28l.84-.63"/><path id="path334" class="cls-9" d="M57.45,81.56l14.7-22.75L34.54,80.44Z"/><path id="path336" class="cls-10" d="M34.54,80.44,72.15,58.81l-27-2Z"/><path id="path338" class="cls-6" d="M34.54,80.44,45.18,56.79,18.77,70Z"/><path id="path340" class="cls-8" d="M18.77,70,45.18,56.79l-7.42-23.2Z"/><path id="path342" class="cls-11" d="M9,47.35V73.93L18.77,70Z"/><path id="path344" class="cls-7" d="M9,73.93V47.54L0,60.24Z"/><path id="path346" class="cls-2" d="M0,60.24,8.86,47.67,0,22.49Z"/><path id="path348" class="cls-12" d="M18.6,69.62v0ZM9.09,47.85,18.6,69.62v0l.16.36,19-36.41-.1-.31L9.09,47.85"/><path id="path350" class="cls-3" d="M9,73.93,0,60.24v30.1Z"/><path id="path352" class="cls-9" d="M18.77,70,9,73.93V105Z"/><path id="path354" class="cls-7" d="M9,105V73.93L0,90.34Z"/><path id="path356" class="cls-8" d="M18.77,70,9,105l21.65-3.21Z"/><path id="path358" class="cls-10" d="M18.77,70,30.6,101.79l3.94-21.35Z"/><path id="path360" class="cls-11" d="M34.54,80.44,30.6,101.79,57.45,81.56Z"/><path id="path362" class="cls-2" d="M9,105,0,90.34v23.33Z"/><path id="path364" class="cls-7" d="M9,105,0,113.67l9,4.43Z"/><path id="path366" class="cls-1" d="M9,105.62V118.1L30.6,101.79,9,105v.62"/><path id="path368" class="cls-3" d="M174.67,97l-8.95,21.15,8.95-4.43Z"/><path id="path370" class="cls-7" d="M174.67,4.45l-8.95,6.75,0-11.2Z"/><path id="path372" class="cls-2" d="M165.74,0l0,11.2L149,12.62Z"/><path id="path374" class="cls-3" d="M149,12.62l16.74-1.42L144.07,27.51Z"/><path id="path376" class="cls-5" d="M165.72,81.76V118.1L174.67,97,165.8,81.64l-.08.12"/><path id="path378" class="cls-10" d="M165.72,118.1V81.76l-.14-.31L137,96l.19.59,28.52,21.49"/><path id="path380" class="cls-13" d="M149,12.62l-4.91,14.89-18.38,2.65Z"/><path id="path382" class="cls-1" d="M102.51,70.49,137.2,96.61l-7.72-24.09Z"/><path id="path384" class="cls-2" d="M117.21,47.74l-14.7,11.07-7.75-5.35Z"/><path id="path386" class="cls-2" d="M117.21,47.74l8.48-17.58h0l18.38-2.65-.54.41L117.21,47.74"/><path id="path388" class="cls-14" d="M94.76,53.46l7.75,5.35-7.75,5.84Z"/><path id="path390" class="cls-8" d="M94.76,64.65l7.75,5.84,14.7-22.75L95.59,64l-.83.63"/><path id="path392" class="cls-1" d="M117.21,47.74l-14.7,22.75,37.62-21.63Z"/><path id="path394" class="cls-12" d="M140.13,48.86,102.51,70.49l27,2Z"/><path id="path396" class="cls-6" d="M140.13,48.86,129.48,72.52l26.41-13.21Z"/><path id="path398" class="cls-8" d="M155.89,59.31,129.48,72.52l7.43,23.2Z"/><path id="path400" class="cls-11" d="M165.72,82V55.37l-9.83,3.94Z"/><path id="path402" class="cls-2" d="M165.72,55.37V81.76l8.95-12.69Z"/><path id="path404" class="cls-7" d="M174.67,69.07,165.8,81.64,174.67,97Z"/><path id="path406" class="cls-1" d="M156.06,59.68h0Zm9.52,21.77-9.52-21.77h0l-.16-.36-19,36.41.1.3,28.57-14.57"/><path id="path408" class="cls-3" d="M165.72,55.37l8.95,13.7V39Z"/><path id="path410" class="cls-1" d="M155.89,59.31l9.83-3.94V24.3Z"/><path id="path412" class="cls-2" d="M165.72,24.3V55.37L174.67,39Z"/><path id="path414" class="cls-8" d="M155.89,59.31l9.83-35-21.65,3.21Z"/><path id="path416" class="cls-10" d="M155.89,59.31l-11.82-31.8-3.94,21.35Z"/><path id="path418" class="cls-9" d="M140.13,48.86l3.94-21.35L117.21,47.74Z"/><path id="path420" class="cls-3" d="M165.72,24.3,174.67,39V4.45Z"/><path id="path422" class="cls-15" d="M165.72,24.3l8.95-19.85-8.95,6.75Z"/><path id="path424" class="cls-1" d="M165.72,23.68V11.2L144.07,27.51l21.65-3.21v-.62"/><path id="path426" class="cls-3" d="M125.69,30.16,94.76,53.46l22.45-5.72Z"/></svg>