<svg width="182" height="30" viewBox="0 0 182 30" fill="none" xmlns="http://www.w3.org/2000/svg">
    <path
        d="M58.9739 23.1514L52.8779 6.35137H56.6939L61.3019 19.0234L65.9099 6.35137H69.7259L63.6299 23.1514H58.9739ZM74.3936 23.4634C73.2896 23.4634 72.2816 23.1794 71.3696 22.6114C70.4656 22.0434 69.7416 21.2834 69.1976 20.3314C68.6616 19.3714 68.3936 18.3114 68.3936 17.1514C68.3936 16.2714 68.5496 15.4514 68.8616 14.6914C69.1736 13.9234 69.6016 13.2514 70.1456 12.6754C70.6976 12.0914 71.3376 11.6354 72.0656 11.3074C72.7936 10.9794 73.5696 10.8154 74.3936 10.8154C75.4976 10.8154 76.5016 11.0994 77.4056 11.6674C78.3176 12.2354 79.0416 12.9994 79.5776 13.9594C80.1216 14.9194 80.3936 15.9834 80.3936 17.1514C80.3936 18.0234 80.2376 18.8394 79.9256 19.5994C79.6136 20.3594 79.1816 21.0314 78.6296 21.6154C78.0856 22.1914 77.4496 22.6434 76.7216 22.9714C76.0016 23.2994 75.2256 23.4634 74.3936 23.4634ZM74.3936 19.8634C74.8496 19.8634 75.2576 19.7394 75.6176 19.4914C75.9856 19.2434 76.2736 18.9154 76.4816 18.5074C76.6896 18.0914 76.7936 17.6394 76.7936 17.1514C76.7936 16.6474 76.6816 16.1874 76.4576 15.7714C76.2416 15.3554 75.9496 15.0274 75.5816 14.7874C75.2216 14.5394 74.8256 14.4154 74.3936 14.4154C73.9456 14.4154 73.5376 14.5434 73.1696 14.7994C72.8096 15.0474 72.5216 15.3794 72.3056 15.7954C72.0976 16.2114 71.9936 16.6634 71.9936 17.1514C71.9936 17.6634 72.1016 18.1234 72.3176 18.5314C72.5416 18.9394 72.8336 19.2634 73.1936 19.5034C73.5616 19.7434 73.9616 19.8634 74.3936 19.8634ZM81.5711 23.1514V5.15137H85.1711V23.1514H81.5711ZM99.0078 23.1514H94.8558L92.4558 19.0234L91.1598 20.5594V23.1514H87.5598V5.15137H91.1598V14.9674L94.3518 11.1514H99.0558L94.9278 16.0954L99.0078 23.1514ZM104.688 23.4634C103.584 23.4634 102.576 23.1794 101.664 22.6114C100.76 22.0434 100.036 21.2834 99.4919 20.3314C98.9559 19.3714 98.6879 18.3114 98.6879 17.1514C98.6879 16.2714 98.8439 15.4514 99.1559 14.6914C99.4679 13.9234 99.8959 13.2514 100.44 12.6754C100.992 12.0914 101.632 11.6354 102.36 11.3074C103.088 10.9794 103.864 10.8154 104.688 10.8154C105.792 10.8154 106.796 11.0994 107.7 11.6674C108.612 12.2354 109.336 12.9994 109.872 13.9594C110.416 14.9194 110.688 15.9834 110.688 17.1514C110.688 18.0234 110.532 18.8394 110.22 19.5994C109.908 20.3594 109.476 21.0314 108.924 21.6154C108.38 22.1914 107.744 22.6434 107.016 22.9714C106.296 23.2994 105.52 23.4634 104.688 23.4634ZM104.688 19.8634C105.144 19.8634 105.552 19.7394 105.912 19.4914C106.28 19.2434 106.568 18.9154 106.776 18.5074C106.984 18.0914 107.088 17.6394 107.088 17.1514C107.088 16.6474 106.976 16.1874 106.752 15.7714C106.536 15.3554 106.244 15.0274 105.876 14.7874C105.516 14.5394 105.12 14.4154 104.688 14.4154C104.24 14.4154 103.832 14.5434 103.464 14.7994C103.104 15.0474 102.816 15.3794 102.6 15.7954C102.392 16.2114 102.288 16.6634 102.288 17.1514C102.288 17.6634 102.396 18.1234 102.612 18.5314C102.836 18.9394 103.128 19.2634 103.488 19.5034C103.856 19.7434 104.256 19.8634 104.688 19.8634ZM119.935 23.1514H115.279L110.911 11.1514H114.751L117.607 19.0234L120.463 11.1514H124.303L119.935 23.1514ZM131.273 23.1514V6.35137H134.873V19.5514H141.473V23.1514H131.273ZM151.553 11.1514H155.153V23.1514H151.541L151.373 22.0714C151.077 22.4874 150.701 22.8234 150.245 23.0794C149.797 23.3354 149.273 23.4634 148.673 23.4634C147.777 23.4634 146.937 23.2954 146.153 22.9594C145.377 22.6234 144.693 22.1594 144.101 21.5674C143.509 20.9674 143.045 20.2794 142.709 19.5034C142.381 18.7194 142.217 17.8794 142.217 16.9834C142.217 16.1274 142.373 15.3274 142.685 14.5834C142.997 13.8394 143.433 13.1874 143.993 12.6274C144.561 12.0594 145.213 11.6154 145.949 11.2954C146.693 10.9754 147.489 10.8154 148.337 10.8154C149.025 10.8154 149.649 10.9594 150.209 11.2474C150.777 11.5274 151.281 11.8794 151.721 12.3034L151.553 11.1514ZM148.781 20.0074C149.301 20.0074 149.761 19.8714 150.161 19.5994C150.561 19.3194 150.861 18.9514 151.061 18.4954C151.269 18.0394 151.337 17.5354 151.265 16.9834C151.193 16.4874 151.013 16.0354 150.725 15.6274C150.437 15.2194 150.081 14.8954 149.657 14.6554C149.241 14.4154 148.797 14.2954 148.325 14.2954C147.813 14.2954 147.357 14.4314 146.957 14.7034C146.565 14.9754 146.269 15.3394 146.069 15.7954C145.869 16.2514 145.801 16.7594 145.865 17.3194C145.945 17.8074 146.125 18.2554 146.405 18.6634C146.693 19.0714 147.045 19.3994 147.461 19.6474C147.877 19.8874 148.317 20.0074 148.781 20.0074ZM164.171 10.8154C165.339 10.8154 166.403 11.0994 167.363 11.6674C168.323 12.2354 169.087 12.9994 169.655 13.9594C170.223 14.9114 170.507 15.9674 170.507 17.1274C170.507 17.9994 170.343 18.8194 170.015 19.5874C169.687 20.3554 169.231 21.0314 168.647 21.6154C168.071 22.1914 167.399 22.6434 166.631 22.9714C165.871 23.2994 165.051 23.4634 164.171 23.4634C163.539 23.4634 162.971 23.3274 162.467 23.0554C161.963 22.7834 161.523 22.4394 161.147 22.0234V23.1514H157.547V5.15137H161.147V12.2554C161.523 11.8314 161.963 11.4874 162.467 11.2234C162.971 10.9514 163.539 10.8154 164.171 10.8154ZM164.123 19.9834C164.619 19.9834 165.071 19.8554 165.479 19.5994C165.887 19.3434 166.211 18.9994 166.451 18.5674C166.691 18.1354 166.811 17.6554 166.811 17.1274C166.811 16.6074 166.691 16.1314 166.451 15.6994C166.211 15.2674 165.887 14.9234 165.479 14.6674C165.071 14.4034 164.619 14.2714 164.123 14.2714C163.635 14.2714 163.187 14.4034 162.779 14.6674C162.379 14.9234 162.059 15.2674 161.819 15.6994C161.579 16.1314 161.459 16.6074 161.459 17.1274C161.459 17.6554 161.579 18.1354 161.819 18.5674C162.059 18.9994 162.379 19.3434 162.779 19.5994C163.187 19.8554 163.635 19.9834 164.123 19.9834ZM175.76 23.3674C175.152 23.3114 174.568 23.1794 174.008 22.9714C173.448 22.7634 172.948 22.4794 172.508 22.1194C172.068 21.7594 171.72 21.3194 171.464 20.7994L174.488 19.5034C174.568 19.5914 174.68 19.7034 174.824 19.8394C174.968 19.9674 175.148 20.0834 175.364 20.1874C175.588 20.2914 175.856 20.3434 176.168 20.3434C176.376 20.3434 176.576 20.3234 176.768 20.2834C176.968 20.2354 177.128 20.1554 177.248 20.0434C177.376 19.9314 177.44 19.7754 177.44 19.5754C177.44 19.3514 177.356 19.1834 177.188 19.0714C177.028 18.9514 176.832 18.8674 176.6 18.8194C176.368 18.7634 176.152 18.7194 175.952 18.6874C175.24 18.5754 174.556 18.3514 173.9 18.0154C173.252 17.6714 172.72 17.2274 172.304 16.6834C171.888 16.1314 171.68 15.4874 171.68 14.7514C171.68 13.9274 171.888 13.2154 172.304 12.6154C172.728 12.0154 173.284 11.5554 173.972 11.2354C174.66 10.9074 175.4 10.7434 176.192 10.7434C177.128 10.7434 177.992 10.9354 178.784 11.3194C179.584 11.7034 180.24 12.2554 180.752 12.9754L177.92 14.6554C177.824 14.5354 177.704 14.4154 177.56 14.2954C177.424 14.1674 177.264 14.0594 177.08 13.9714C176.904 13.8754 176.712 13.8154 176.504 13.7914C176.224 13.7674 175.972 13.7794 175.748 13.8274C175.532 13.8674 175.36 13.9554 175.232 14.0914C175.104 14.2194 175.04 14.4074 175.04 14.6554C175.04 14.8874 175.152 15.0554 175.376 15.1594C175.6 15.2634 175.852 15.3394 176.132 15.3874C176.412 15.4354 176.64 15.4874 176.816 15.5434C177.504 15.7674 178.152 16.0594 178.76 16.4194C179.368 16.7794 179.856 17.2154 180.224 17.7274C180.6 18.2394 180.776 18.8394 180.752 19.5274C180.752 20.3274 180.512 21.0314 180.032 21.6394C179.552 22.2474 178.932 22.7074 178.172 23.0194C177.412 23.3314 176.608 23.4474 175.76 23.3674Z"
        fill="#dddddd" />
    <path fill-rule="evenodd" clip-rule="evenodd"
        d="M1.8362 28.1065L0 27.1908V2.11227L2.04949 1.08984L18.3481 13.3683V15.6681L2.18396 3.49174L1.84084 3.23439V3.6633L1.8362 28.1065ZM18.3481 17.5473L3.11887 27.4789L3.29971 6.3727L18.3481 17.5473Z"
        fill="white" />
    <path fill-rule="evenodd" clip-rule="evenodd"
        d="M37.8174 28.1065L39.6536 27.1908V2.11227L37.6041 1.08984L21.3055 13.3683V15.6681L37.4696 3.49174L37.8127 3.23439V3.6633L37.8174 28.1065ZM21.3055 17.5473L36.5347 27.4789L36.3539 6.3727L21.3055 17.5473Z"
        fill="white" />
</svg>