<svg id="Layer_1" data-name="Layer 1" xmlns="http://www.w3.org/2000/svg" viewBox="0 0 268.7 182.95">
    <defs>
        <style>
            .cls-1 {
                fill-rule: evenodd;
            }
        </style>
    </defs>
    <path id="path27838" class="cls-1"
        d="M268.7,8.62V139.47h0v0h0v35.51h0v0h0v0h0v0h0v.06h0v0h0v0h0v0h0v0h0v0h0v0h0v0h0v0h0v0h0v0h0v0h0v0h0v0h0l0,0h0v0h0l0,0h0v0h0v0h0l0,0h0l0,0h0v0h-.23l0,0H268l0,0-13.55,6.71h0a1.13,1.13,0,0,1-1.52-.51,1.15,1.15,0,0,1-.12-.5V21.17q-53.17,40.07-106.33,80.09l-.68-.9.68.9a1.12,1.12,0,0,1-1.58-.22,1.09,1.09,0,0,1-.24-.68V83.25h0v0h0v0h0v0h0v0h0v0h0v0h0V83h0v-.06h0v0h0l0,0h0v0h0v0h0v0h0v0h0v0h0v0h0v0h0v0h0l0,0,0,0h0l0,0h0v0h0v0h0v0h.07L253.24.94l0,0h0l0,0h0l0,0h1.15L268,7.58h.14l0,0h.16v0h0v0h0v0h.1V8h0v0h0v0h0v0h.07v0h0v0h0v0h0v0h0v0h0ZM0,7.94V138.78H0v35.51H0v0H0v0H0v0H0v0H0v.06H0v0H0v0H0v0H0v0H0v0H0v0h0v0h0v0h0v0h0v0h0v0h0v0h0l0,0h0v0h0v0h0v0h0v0h0l0,0h0l0,0h0v0h0l0,0h0l0,0h0l0,0h0v0h0v0h0v0h0l0,0h0v0H.49v0h0l0,0H.72l13.55,6.72h0a1.14,1.14,0,0,0,1.52-.51,1.16,1.16,0,0,0,.12-.51h0V20.5l94.47,71.14v0h.09l11.77,8.87.68-.91-.68.91a1.14,1.14,0,0,0,1.59-.22,1.19,1.19,0,0,0,.23-.69V82.57h0v0h0v0h0v0h0v0h0v0h0v0h0v-.07h0v-.06h0v-.05h0v0h0v-.05h0v0h0v0h0l0,0h0v0h-.06l0,0v0h0l0,0,0,0h0v0h0v0h0v0h0l0,0h0l0,0L15.46.26l0,0h-.05l0,0,0,0h-1l0,0h-.07L.66,6.89h0v0H.29l0,0H.08v0h0v0h0v0H0v0H0v0H0v0H0v0H0v0" />
    <path id="path27840"
        d="M111.78,89.86h.07l11.71,8.82a1.06,1.06,0,0,1,.27.25,1.14,1.14,0,0,1-.23,1.59l-.68-.91.68.91-1.19.9-.08.06h0l-32.9,24.78h-.09L48.52,157.13h0v0h0v0h0L15.5,182a1.08,1.08,0,0,1-.72.26,1.13,1.13,0,0,1-1.14-1.13h0v-19.9h0v0h0V113.83h0V18.21a1.07,1.07,0,0,1,.23-.67,1.14,1.14,0,0,1,1.59-.24l-.68.91.68-.9L58.88,50H59l52.76,39.74Zm45.14,20.32h-.07l-11.71-8.81a1.1,1.1,0,0,1-.27-.26,1.13,1.13,0,0,1,.23-1.59l.68.91-.68-.91,1.19-.89.08-.07h0l32.89-24.77h.1L220.18,42.9h0v0h.11L253.19,18a1.16,1.16,0,0,1,.73-.26,1.14,1.14,0,0,1,1.14,1.14h0V38.76h0v0h0v.06h0V86.21h0v95.6a1.14,1.14,0,0,1-1.82.91l.68-.91-.68.91L209.82,150h-.09L157,110.21Zm-141-89.69V72.32l41-20.92Zm236.88,159V127.72l-41,20.91ZM147.66,100.36l9.65,7.27,18.27-28.3-27.85,21-.68-.91.68.91Zm62.61,44.41,26.06-50-36.26,18.14h0Zm28.59-49.93-26.6,51,39.89-20.33Zm13.93-9.39V47.1L240.67,90.31ZM244,70l8.34-29.72-29.88,4.43L238.8,88.56Zm8.77-32.08V21.17L225.17,42ZM236.68,89.35,221.3,48l-5.13,27.76Zm0,2.73L215.41,78,201,109.91ZM214,75.12h0l5.3-28.71-36.11,27.2ZM212.46,79l-51.11,29.39L198,111.16ZM161.08,106,211,77.24l-30.42-1.49Zm91.71,15.31V87.89l-12.34,4.94Zm-54.93-7.85h0l-36.49-2.73L208.29,146ZM121,99.67l-9.65-7.26L93.11,120.7l27.85-21,.69.91-.69-.91ZM58.43,55.26l-26.07,50L68.62,87.11h0ZM29.84,105.19l26.59-51L16.54,74.54Zm-13.93,9.39v38.35L28,109.73Zm8.77,15.49L16.34,159.8l29.88-4.44L29.9,111.47ZM15.9,162.15v16.71l27.62-20.8ZM32,110.69,47.4,152l5.13-27.77ZM32,108l21.29,14.11L67.66,90.12Zm22.71,17h0l-5.3,28.7,36.11-27.2ZM56.24,121l51.1-29.39L70.7,88.87Zm51.37-26.93L57.68,122.8l30.42,1.48ZM15.91,78.77v33.37l12.33-4.94Zm54.93,7.84h0l36.49,2.74L60.41,54l10.43,32.6" />
</svg>