<svg xmlns="http://www.w3.org/2000/svg" xmlns:xlink="http://www.w3.org/1999/xlink" version="1.1" baseProfile="full" width="796" height="535" style="position:absolute;left:0;top:0;user-select:none"><rect width="796" height="535" x="0" y="0" id="0" fill="none" fill-opacity="1"></rect><g><path d="M398 154.3413A7 7 0 0 1 405.4322 147.3547A120.375 120.375 0 0 1 405.4322 387.6453A7 7 0 0 1 398 380.6587L398 267.5Z" fill="rgb(145,204,117)" stroke="white" stroke-width="2" stroke-linejoin="bevel"></path><path d="M398 33.8548A7 7 0 0 1 405.2096 26.858A240.75 240.75 0 0 1 588.4458 120.2215A7 7 0 0 1 587.0229 130.1668L500.8928 192.744A7 7 0 0 1 491.3499 191.5004A120.375 120.375 0 0 0 404.6153 147.3069A7 7 0 0 1 398 140.3175Z" fill="rgb(172,216,151)" stroke="white" stroke-width="2" stroke-linejoin="bevel"></path><path d="M587.0229 130.1668A7 7 0 0 1 596.9212 131.8869A240.75 240.75 0 0 1 638.642 260.2904A7 7 0 0 1 631.6452 267.5L525.1825 267.5A7 7 0 0 1 518.1931 260.8847A120.375 120.375 0 0 0 499.1266 202.2042A7 7 0 0 1 500.8928 192.744Z" fill="rgb(172,216,151)" stroke="white" stroke-width="2" stroke-linejoin="bevel"></path><path d="M631.6452 267.5A7 7 0 0 1 638.642 274.7096A240.75 240.75 0 0 1 596.9212 403.1131A7 7 0 0 1 587.0229 404.8332L500.8928 342.256A7 7 0 0 1 499.1266 332.7958A120.375 120.375 0 0 0 518.1931 274.1153A7 7 0 0 1 525.1825 267.5Z" fill="rgb(172,216,151)" stroke="white" stroke-width="2" stroke-linejoin="bevel"></path><path d="M587.0229 404.8332A7 7 0 0 1 588.4458 414.7785A240.75 240.75 0 0 1 545.2785 457.9458A7 7 0 0 1 535.3332 456.5229L472.756 370.3928A7 7 0 0 1 473.9996 360.8499A120.375 120.375 0 0 0 491.3499 343.4996A7 7 0 0 1 500.8928 342.256Z" fill="rgb(172,216,151)" stroke="white" stroke-width="2" stroke-linejoin="bevel"></path><path d="M535.3332 456.5229A7 7 0 0 1 533.6131 466.4212A240.75 240.75 0 0 1 479.2192 494.1363A7 7 0 0 1 470.2003 489.7098L437.3016 388.4578A7 7 0 0 1 441.4332 379.7662A120.375 120.375 0 0 0 463.2958 368.6266A7 7 0 0 1 472.756 370.3928Z" fill="rgb(172,216,151)" stroke="white" stroke-width="2" stroke-linejoin="bevel"></path><path d="M470.2003 489.7098A7 7 0 0 1 465.5057 498.5921A240.75 240.75 0 0 1 405.2096 508.142A7 7 0 0 1 398 501.1452L398 394.6825A7 7 0 0 1 404.6153 387.6931A120.375 120.375 0 0 0 428.8502 383.8547A7 7 0 0 1 437.3016 388.4578Z" fill="rgb(172,216,151)" stroke="white" stroke-width="2" stroke-linejoin="bevel"></path><path d="M398 380.6587A7 7 0 0 1 390.5678 387.6453A120.375 120.375 0 0 1 277.8547 274.9322A7 7 0 0 1 284.8413 267.5L398 267.5Z" fill="#fac858" stroke="white" stroke-width="2" stroke-linejoin="bevel"></path><path d="M398 501.1452A7 7 0 0 1 390.7904 508.142A240.75 240.75 0 0 1 171.3637 348.7192A7 7 0 0 1 175.7902 339.7003L277.0422 306.8016A7 7 0 0 1 285.7338 310.9332A120.375 120.375 0 0 0 391.3847 387.6931A7 7 0 0 1 398 394.6825Z" fill="rgb(251,213,129)" stroke="white" stroke-width="2" stroke-linejoin="bevel"></path><path d="M175.7902 339.7003A7 7 0 0 1 166.9079 335.0057A240.75 240.75 0 0 1 157.358 274.7096A7 7 0 0 1 164.3548 267.5L270.8175 267.5A7 7 0 0 1 277.8069 274.1153A120.375 120.375 0 0 0 281.6453 298.3502A7 7 0 0 1 277.0422 306.8016Z" fill="rgb(251,213,129)" stroke="white" stroke-width="2" stroke-linejoin="bevel"></path><path d="M284.8413 267.5A7 7 0 0 1 277.8547 260.0678A120.375 120.375 0 0 1 390.5678 147.3547A7 7 0 0 1 398 154.3413L398 267.5Z" fill="#ee6666" stroke="white" stroke-width="2" stroke-linejoin="bevel"></path><path d="M164.3548 267.5A7 7 0 0 1 157.358 260.2904A240.75 240.75 0 0 1 390.7904 26.858A7 7 0 0 1 398 33.8548L398 140.3175A7 7 0 0 1 391.3847 147.3069A120.375 120.375 0 0 0 277.8069 260.8847A7 7 0 0 1 270.8175 267.5Z" fill="rgb(242,140,140)" stroke="white" stroke-width="2" stroke-linejoin="bevel"></path><text dominant-baseline="central" text-anchor="middle" style="font-size:13px;font-family:sans-serif;" transform="translate(458.1875 267.5)" fill="#333">Visualize</text><text dominant-baseline="central" text-anchor="middle" style="font-size:13px;font-family:sans-serif;" xml:space="preserve" transform="matrix(0.454,-0.891,0.891,0.454,479.9737,106.6176)" fill="#333">Apache ECharts</text><text dominant-baseline="central" text-anchor="middle" style="font-size:13px;font-family:sans-serif;" transform="matrix(0.951,-0.309,0.309,0.951,569.7251,211.7031)" fill="#333">Calendar</text><text dominant-baseline="central" text-anchor="middle" style="font-size:13px;font-family:sans-serif;" xml:space="preserve" transform="matrix(0.951,0.309,-0.309,0.951,569.7251,323.2969)" fill="#333">Dynamic Text</text><text dominant-baseline="central" text-anchor="middle" style="font-size:13px;font-family:sans-serif;" xml:space="preserve" transform="matrix(0.707,0.707,-0.707,0.707,525.677,395.177)" fill="#333">Base64 Image/PDF</text><text dominant-baseline="central" text-anchor="middle" style="font-size:13px;font-family:sans-serif;" xml:space="preserve" transform="matrix(0.454,0.891,-0.891,0.454,479.9737,428.3824)" fill="#333">RSS/Atom DS</text><text dominant-baseline="central" text-anchor="middle" style="font-size:13px;font-family:sans-serif;" xml:space="preserve" transform="matrix(0.156,0.988,-0.988,0.156,426.2462,445.8395)" fill="#333">Static DS</text><text dominant-baseline="central" text-anchor="middle" style="font-size:13px;font-family:sans-serif;" transform="matrix(0.707,-0.707,0.707,0.707,355.441,310.059)" fill="#333">Operate</text><text dominant-baseline="central" text-anchor="middle" style="font-size:13px;font-family:sans-serif;" xml:space="preserve" transform="matrix(0.588,-0.809,0.809,0.588,291.868,413.5781)" fill="#333">Data Manipulation</text><text dominant-baseline="central" text-anchor="middle" style="font-size:13px;font-family:sans-serif;" xml:space="preserve" transform="matrix(0.988,-0.156,0.156,0.988,219.6605,295.7462)" fill="#333">Environment DS</text><text dominant-baseline="central" text-anchor="middle" style="font-size:13px;font-family:sans-serif;" transform="matrix(0.707,0.707,-0.707,0.707,355.441,224.941)" fill="#333">Manage</text><text dominant-baseline="central" text-anchor="middle" style="font-size:13px;font-family:sans-serif;" xml:space="preserve" transform="matrix(0.707,0.707,-0.707,0.707,270.323,139.823)" fill="#333">Balena App</text></g></svg>