<svg width="152" height="169" viewBox="0 0 152 169" fill="none"
    xmlns="http://www.w3.org/2000/svg">
    <path d="M16.6462 112.748L85.6277 162.059M16.6462 112.748L75.7363 54.5591L117.978 69.6614M16.6462 112.748L1.89844 70.1401L117.978 69.6614M16.6462 112.748L67.3119 91.2049M85.6277 162.059L146.236 104.059M85.6277 162.059L67.3119 91.2049M146.236 104.059L117.978 69.6614M146.236 104.059L67.3119 91.2049M117.978 69.6614L67.3119 91.2049" stroke="#111111" stroke-width="2"/>
    <circle cx="145.783" cy="149.623" r="4.5" stroke="#111111" stroke-width="2"/>
    <path d="M32.1289 139.818L27.2592 149.682" stroke="#111111" stroke-width="4"/>
    <path d="M41 144.123L36.1303 153.986" stroke="#111111" stroke-width="4"/>
    <path fill-rule="evenodd" clip-rule="evenodd" d="M107.735 34.3984H111.61C125.83 34.3984 137.358 45.926 137.358 60.1459C137.358 74.3659 125.83 85.8934 111.61 85.8934H47.2416C33.0217 85.8934 21.4941 74.3659 21.4941 60.1459C21.4941 45.926 33.0217 34.3984 47.2416 34.3984H51.1203C51.6078 19.1841 64.0949 7 79.4277 7C94.7605 7 107.248 19.1841 107.735 34.3984Z" fill="#9D70F9"/>
    <path d="M123.066 106.189H109.837V71.1235H91.7586V106.189H78.5293L100.798 134.92L123.066 106.189Z" fill="#111111"/>
    <path d="M64.291 54.5591L60.8395 65.0036" stroke="#111111" stroke-width="4"/>
    <path d="M74.0684 57.8188L70.6168 68.2633" stroke="#111111" stroke-width="4"/>
    <circle cx="18.2891" cy="19.9321" r="4.5" stroke="#111111" stroke-width="2"/>
    <path d="M33.3965 19.0806L29.945 29.525" stroke="#111111" stroke-width="4"/>
</svg>
