<svg width="64" height="64" viewBox="0 0 384 384" fill="none" xmlns="http://www.w3.org/2000/svg">
<circle cx="191" cy="191" r="165" fill="#6133BC"/>
<path d="M223.333 102C228.697 102 233.84 104.131 237.633 107.923C241.425 111.715 243.556 116.859 243.556 122.222V161.852C243.555 163.756 243.017 165.622 242.003 167.233C240.988 168.845 239.54 170.138 237.823 170.963C236.107 171.788 234.192 172.111 232.3 171.895C230.408 171.68 228.615 170.934 227.128 169.744L193 142.444L228.706 113.88C227.127 112.776 225.259 112.161 223.333 112.111H162.667C160.741 112.161 158.873 112.776 157.294 113.88L193 142.444L158.872 169.744C157.385 170.934 155.592 171.68 153.7 171.895C151.808 172.111 149.893 171.788 148.177 170.963C146.46 170.138 145.012 168.845 143.997 167.233C142.983 165.622 142.445 163.756 142.444 161.852V122.222C142.444 116.859 144.575 111.715 148.367 107.923C152.16 104.131 157.303 102 162.667 102H223.333ZM284 162.667V263.778C284 269.141 281.869 274.285 278.077 278.077C274.285 281.869 269.141 284 263.778 284H122.222C116.859 284 111.715 281.869 107.923 278.077C104.131 274.285 102 269.141 102 263.778V162.667C102 157.303 104.131 152.16 107.923 148.367C111.715 144.575 116.859 142.444 122.222 142.444H137.389V161.847C137.388 164.704 138.194 167.503 139.714 169.923C141.235 172.342 143.408 174.282 145.983 175.521C148.558 176.759 151.43 177.245 154.269 176.922C157.108 176.599 159.798 175.481 162.03 173.696L193 148.922L223.975 173.694C226.207 175.477 228.896 176.594 231.734 176.916C234.572 177.238 237.443 176.752 240.017 175.515C242.592 174.277 244.764 172.337 246.284 169.919C247.804 167.501 248.611 164.703 248.611 161.847V142.444H263.778C269.141 142.444 274.285 144.575 278.077 148.367C281.869 152.16 284 157.303 284 162.667ZM177.723 167.612L193 182.889L208.277 167.612L193 155.387L177.723 167.612ZM212.149 218.018L204.236 178.803L193 190.037L181.74 178.78L173.847 218.021C173.518 219.655 173.598 221.344 174.08 222.939C174.562 224.535 175.431 225.986 176.609 227.164L189.425 239.98C189.894 240.45 190.452 240.822 191.065 241.077C191.678 241.331 192.336 241.461 193 241.461C193.664 241.461 194.322 241.331 194.935 241.077C195.548 240.822 196.106 240.45 196.575 239.98L209.388 227.167C210.567 225.988 211.436 224.536 211.918 222.94C212.4 221.343 212.479 219.652 212.149 218.018Z" fill="#111111"/>
<path d="M384 192C384 298.039 298.039 384 192 384C85.9613 384 0 298.039 0 192C0 85.9613 85.9613 0 192 0C298.039 0 384 85.9613 384 192ZM37.6454 192C37.6454 277.248 106.752 346.355 192 346.355C277.248 346.355 346.355 277.248 346.355 192C346.355 106.752 277.248 37.6454 192 37.6454C106.752 37.6454 37.6454 106.752 37.6454 192Z" fill="#B08AFF"/>
<path d="M384 192C384 166.786 379.034 141.819 369.385 118.525C359.736 95.2303 345.593 74.0643 327.765 56.2355C309.936 38.4066 288.77 24.264 265.475 14.6151C242.181 4.96622 217.214 -1.10213e-06 192 0L218.5 19L192 38C212.171 38 232.145 42.373 250.78 50.0921C269.416 57.8112 286.349 69.1253 300.612 83.3884C314.875 97.6515 326.189 114.584 333.908 133.22C341.627 151.855 346 171.829 346 192L364.8 219L384 192Z" fill="#FF5656"/>
<path d="M1.52638e-06 192C-6.77876e-07 217.214 4.96624 242.181 14.6151 265.475C24.264 288.77 38.4066 309.936 56.2355 327.764C74.0643 345.593 95.2303 359.736 118.525 369.385C141.819 379.034 166.786 384 192 384L167 364.8L192 345.6C171.829 345.6 151.855 341.627 133.22 333.908C114.584 326.189 97.6515 314.875 83.3884 300.612C69.1253 286.349 57.8112 269.416 50.0921 250.78C42.373 232.145 38 212.171 38 192L19.2 166L1.52638e-06 192Z" fill="white"/>
</svg>
