<svg width="147" height="160" viewBox="0 0 147 160" fill="none"
    xmlns="http://www.w3.org/2000/svg">
    <path fill-rule="evenodd" clip-rule="evenodd" d="M113.817 157.224L105.5 150.024L108.118 147L116.435 154.2L113.817 157.224Z" fill="#111111"/>
    <path fill-rule="evenodd" clip-rule="evenodd" d="M120.817 149.224L112.5 142.024L115.118 139L123.435 146.2L120.817 149.224Z" fill="#111111"/>
    <path fill-rule="evenodd" clip-rule="evenodd" d="M127.817 141.224L119.5 134.024L122.118 131L130.435 138.2L127.817 141.224Z" fill="#111111"/>
    <path fill-rule="evenodd" clip-rule="evenodd" d="M121.817 10.2239L113.5 3.02419L116.118 0L124.435 7.19968L121.817 10.2239Z" fill="#111111"/>
    <circle cx="13" cy="34.5" r="4.5" stroke="#111111" stroke-width="2"/>
    <circle cx="110" cy="15.5" r="4.5" stroke="#111111" stroke-width="2"/>
    <path d="M115 36.5L56.5 24.5M115 36.5L145.5 113M115 36.5L107 106.5L145.5 113M115 36.5L50 66L56.5 24.5M56.5 24.5L2 93M2 93L47.5 158M2 93L50 106.5L47.5 158M47.5 158L145.5 113" stroke="black" stroke-width="2"/>
    <g clip-path="url(#clip0_121_575)">
        <path d="M89.5 81.2874C89.413 77.7385 88.5288 74.4626 86.6879 71.4023C85.7312 69.8075 84.6006 68.2414 83.3105 66.8764C83.0786 66.6322 82.4408 66.0575 82.4408 66.0575L82.1364 58.2989L73.4828 60.454C73.4828 60.454 71.6274 59.7644 70.6562 59.4914C69.801 59.2615 68.9603 59.0747 68.0906 58.931C67.8731 58.8879 66.9309 58.7874 66.9309 58.7874L64.0029 55.4828L60.7995 52.25L57.9874 55.2672L54.2621 59.5489C54.2621 59.5489 52.6676 59.9799 52.1603 60.1523C50.5223 60.6695 48.8554 61.4885 47.4059 62.3793C47.145 62.5374 46.4202 62.9397 46.4202 62.9397L32.6207 63.4425C32.6207 63.4425 36.0851 75.9713 36.1866 76.4023C36.288 76.8908 35.6792 77.9828 35.5343 78.4856C35.2444 79.4914 34.969 80.5115 34.7515 81.5316C34.6066 82.2213 34.1862 83.8879 34.1862 83.8879L25.75 93.4856L37.81 100.095C37.81 100.095 38.5638 101.273 38.8247 101.661C39.361 102.466 39.9118 103.256 40.5496 103.989C41.028 104.534 41.9702 105.914 41.9702 105.914L42.2021 115.741L53.9432 112.652C53.9432 112.652 55.7116 113.155 56.2914 113.299C58.1468 113.759 60.1327 114.003 62.046 114.032C62.5244 114.032 63.4956 114.032 63.4956 114.032L72.2362 118.514L75.3672 110.655C75.3672 110.655 75.8745 110.296 76.8457 109.578C78.4112 108.414 79.7882 107.078 80.9913 105.569C81.2522 105.253 82.1654 103.83 82.2234 103.802C82.4553 103.687 89.2971 101.374 89.2971 101.374L85.4993 94.8649C85.4993 94.8649 85.4703 94.7787 85.4413 94.2184C85.4123 93.5862 85.4413 92.954 85.4413 92.3362C85.4413 90.7845 85.4703 89.3477 85.021 87.8391C82.9337 80.8707 76.6572 75.569 68.9748 75.2529C66.612 75.1523 64.2928 75.3103 62.1185 76.273C58.7701 77.7529 55.987 80.4253 54.7839 83.7874C53.7838 86.5891 53.5808 89.8937 54.8999 92.6379C56.3639 95.6983 59.205 97.9109 62.7273 98.3563C64.7567 98.6149 66.641 98.4425 68.221 97.25C68.5979 96.977 69.3661 96.1581 69.3661 96.1581C69.3661 96.1581 68.5689 96.3017 67.9891 96.3879C67.0034 96.5316 66.1337 96.5316 65.148 96.5316C62.5389 96.5316 60.1327 95.1236 58.8281 92.954C57.2771 90.3822 57.683 87.4224 59.292 84.9655C60.9734 82.408 63.6115 80.9282 66.7425 80.9282C73.4393 80.9282 78.788 87.1925 77.9763 93.4569C77.0486 100.641 70.3808 106.158 62.9013 106.158C53.2329 106.158 43.3037 97.9971 43.2457 88.3563C43.1878 80.181 46.8261 70.9425 55.3493 67.796C58.2048 66.7615 61.1039 66.0431 63.9594 66.0431C67.9021 66.0431 71.4534 66.546 75.0773 68.1264C77.8748 69.3477 80.1071 71.1437 82.2089 73.2414C84.3397 75.3678 86.0356 77.9828 87.2967 80.6552C87.6156 81.3448 88.0795 82.2787 88.3259 82.8103C88.7463 83.7012 89.1231 85.1667 89.1231 85.1667C89.1231 85.1667 89.5725 82.6954 89.5 81.2874Z" fill="#FF4040"/>
    </g>
    <circle cx="60.75" cy="32.25" r="16.25" fill="#FF5656"/>
    <circle cx="30.75" cy="129.75" r="16.25" fill="#9D70F9"/>
    <circle cx="108.25" cy="107.25" r="16.25" fill="#111111"/>
    <defs>
        <clipPath id="clip0_121_575">
            <rect width="63.75" height="66.25" fill="white" transform="translate(25.75 52.25)"/>
        </clipPath>
    </defs>
</svg>
