<svg width="565" height="430" viewBox="0 0 565 430" fill="none" xmlns="http://www.w3.org/2000/svg">
    <path
        d="M362.221 139.426L393.909 263.186L456.419 151.964M362.221 139.426L456.419 151.964M362.221 139.426L268.459 -38.4775L456.419 151.964"
        stroke="white" stroke-width="2" />
    <path
        d="M326.901 274.302L228.88 105.679M228.88 105.679L361.184 139.412L230.681 300.618L228.88 105.679ZM228.88 105.679L372.937 67.4964"
        stroke="white" stroke-width="2" />
    <path
        d="M269.484 -37.4291L399.987 -198.635L415.482 -106.704M269.484 -37.4291C312.993 -31.2968 373.486 -22.7987 430.977 -14.7729M269.484 -37.4291L415.482 -106.704M430.977 -14.7729C520.507 -2.27429 602.759 9.0789 602.261 8.56779C601.441 7.72849 516.099 160.977 473.531 237.706L430.977 -14.7729ZM430.977 -14.7729L507.014 -89.0006L415.482 -106.704M430.977 -14.7729L415.482 -106.704"
        stroke="white" stroke-width="2" />
    <path d="M569.056 215.691L474.207 237.596L394.193 263.519L326.852 273.752L230.974 301.405" stroke="white"
        stroke-width="2" />
    <path
        d="M373.449 68.021L443.204 43.9777M584.983 122.049L570.226 215.024L691.401 96.7322L584.983 122.049ZM584.983 122.049L603.322 6.5071L443.204 43.9777M584.983 122.049L443.204 43.9777"
        stroke="white" stroke-width="2" />
    <path d="M372.937 67.4968L353.315 -25.0145L414.426 -106.186L324.213 -105.198L334.915 -262.144" stroke="white"
        stroke-width="2" />
    <path d="M330.309 77.3515L267.508 50.157" stroke="white" stroke-width="2" />
    <path d="M229.147 105.832L267.508 50.497L269.205 -39.125" stroke="white" stroke-width="2" />
    <rect x="544.603" y="253.686" width="13.4043" height="7.72472" transform="rotate(60 544.603 253.686)"
        fill="#dddddd" />
    <rect x="522.001" y="266.735" width="13.4043" height="7.72472" transform="rotate(60 522.001 266.735)"
        fill="#dddddd" />
    <rect x="548.465" y="260.375" width="33.8236" height="7.72472" transform="rotate(150 548.465 260.375)"
        fill="#dddddd" />
    <rect width="13.4043" height="7.72472" transform="matrix(-0.5 -0.866025 -0.866025 0.5 569.056 296.041)"
        fill="#dddddd" />
    <rect width="13.4043" height="7.72472" transform="matrix(-0.5 -0.866025 -0.866025 0.5 546.452 309.087)"
        fill="#dddddd" />
    <rect width="33.8237" height="7.72472" transform="matrix(-0.866025 0.5 0.5 0.866025 565.193 289.351)"
        fill="#dddddd" />
    <path
        d="M412.737 14.6552C410.087 16.185 406.699 15.2771 405.169 12.6275C403.64 9.97782 404.547 6.58972 407.197 5.05995C409.847 3.53017 413.235 4.43801 414.765 7.08766C416.294 9.73731 415.387 13.1254 412.737 14.6552ZM408.223 6.83677C406.555 7.79999 405.983 9.93329 406.946 11.6016C407.909 13.27 410.043 13.8416 411.711 12.8784C413.379 11.9152 413.951 9.78185 412.988 8.11351C412.025 6.44517 409.891 5.87355 408.223 6.83677Z"
        fill="#dddddd" />
    <rect x="425.764" y="26.1382" width="11.0796" height="3.45801" transform="rotate(150 425.764 26.1382)"
        fill="#dddddd" />
    <rect x="433.993" y="40.3914" width="11.0796" height="3.45801" transform="rotate(150 433.993 40.3914)"
        fill="#dddddd" />
    <path
        d="M441.235 64.0148C438.585 65.5446 435.197 64.6367 433.667 61.9871C432.137 59.3374 433.045 55.9493 435.695 54.4196C438.345 52.8898 441.733 53.7976 443.262 56.4473C444.792 59.0969 443.884 62.485 441.235 64.0148ZM436.721 56.1964C435.052 57.1596 434.481 59.2929 435.444 60.9612C436.407 62.6296 438.541 63.2012 440.209 62.238C441.877 61.2748 442.449 59.1415 441.486 57.4731C440.522 55.8048 438.389 55.2332 436.721 56.1964Z"
        fill="#dddddd" />
    <rect x="454.261" y="75.498" width="11.0796" height="3.45801" transform="rotate(150 454.261 75.498)"
        fill="#dddddd" />
    <rect x="313.059" y="111.128" width="11.0796" height="3.45801" transform="rotate(150 313.059 111.128)"
        fill="#dddddd" />
    <rect x="321.288" y="125.382" width="11.0796" height="3.45801" transform="rotate(150 321.288 125.382)"
        fill="#dddddd" />
    <path
        d="M328.53 149.005C325.88 150.535 322.492 149.627 320.962 146.977C319.433 144.328 320.34 140.94 322.99 139.41C325.64 137.88 329.028 138.788 330.558 141.438C332.087 144.087 331.18 147.475 328.53 149.005ZM324.016 141.187C322.348 142.15 321.776 144.283 322.739 145.951C323.702 147.62 325.836 148.191 327.504 147.228C329.172 146.265 329.744 144.132 328.781 142.463C327.818 140.795 325.684 140.223 324.016 141.187Z"
        fill="#dddddd" />
    <rect x="341.557" y="160.488" width="11.0796" height="3.45801" transform="rotate(150 341.557 160.488)"
        fill="#dddddd" />
    <g filter="url(#filter0_d_0_1)">
        <path d="M426.25 487.738L388.342 359.352L519.977 392.161L426.25 487.738Z" fill="white" />
    </g>
    <g filter="url(#filter1_d_0_1)">
        <path d="M305.089 188.018L249.091 194.092L272.54 142.048L305.089 188.018Z" fill="#9D70F9" />
    </g>
    <defs>
        <filter id="filter0_d_0_1" x="378.342" y="359.353" width="151.635" height="157.385" filterUnits="userSpaceOnUse"
            color-interpolation-filters="sRGB">
            <feFlood flood-opacity="0" result="BackgroundImageFix" />
            <feColorMatrix in="SourceAlpha" type="matrix" values="0 0 0 0 0 0 0 0 0 0 0 0 0 0 0 0 0 0 127 0"
                result="hardAlpha" />
            <feOffset dy="19" />
            <feGaussianBlur stdDeviation="5" />
            <feComposite in2="hardAlpha" operator="out" />
            <feColorMatrix type="matrix" values="0 0 0 0 0 0 0 0 0 0 0 0 0 0 0 0 0 0 0.12 0" />
            <feBlend mode="normal" in2="BackgroundImageFix" result="effect1_dropShadow_0_1" />
            <feBlend mode="normal" in="SourceGraphic" in2="effect1_dropShadow_0_1" result="shape" />
        </filter>
        <filter id="filter1_d_0_1" x="239.091" y="142.049" width="75.998" height="81.0437" filterUnits="userSpaceOnUse"
            color-interpolation-filters="sRGB">
            <feFlood flood-opacity="0" result="BackgroundImageFix" />
            <feColorMatrix in="SourceAlpha" type="matrix" values="0 0 0 0 0 0 0 0 0 0 0 0 0 0 0 0 0 0 127 0"
                result="hardAlpha" />
            <feOffset dy="19" />
            <feGaussianBlur stdDeviation="5" />
            <feComposite in2="hardAlpha" operator="out" />
            <feColorMatrix type="matrix" values="0 0 0 0 0 0 0 0 0 0 0 0 0 0 0 0 0 0 0.12 0" />
            <feBlend mode="normal" in2="BackgroundImageFix" result="effect1_dropShadow_0_1" />
            <feBlend mode="normal" in="SourceGraphic" in2="effect1_dropShadow_0_1" result="shape" />
        </filter>
    </defs>
</svg>