<svg width="359" height="430" viewBox="0 0 359 430" fill="none" xmlns="http://www.w3.org/2000/svg">
    <path
        d="M26.2213 340.35L57.9088 464.11L120.419 352.889M26.2213 340.35L120.419 352.889M26.2213 340.35L-67.5407 162.447L120.419 352.889"
        stroke="white" stroke-width="2" />
    <path
        d="M-9.09868 475.226L-107.12 306.603M-107.12 306.603L25.1845 340.337L-105.319 501.543L-107.12 306.603ZM-107.12 306.603L36.9367 268.421"
        stroke="white" stroke-width="2" />
    <path
        d="M-66.5165 163.495L63.9873 2.28912L79.4819 94.2203M-66.5165 163.495C-23.0069 169.628 37.4854 178.126 94.9765 186.151M-66.5165 163.495L79.4819 94.2203M94.9765 186.151C184.507 198.65 266.759 210.003 266.26 209.492C265.441 208.653 180.099 361.901 137.531 438.63L94.9765 186.151ZM94.9765 186.151L171.013 111.924L79.4819 94.2203M94.9765 186.151L79.4819 94.2203"
        stroke="white" stroke-width="2" />
    <path d="M233.056 416.616L138.207 438.52L58.1935 464.444L-9.14765 474.676L-105.026 502.329" stroke="white"
        stroke-width="2" />
    <path
        d="M37.4489 268.946L107.204 244.902M248.983 322.973L234.226 415.948L355.4 297.657L248.983 322.973ZM248.983 322.973L267.322 207.432L107.204 244.902M248.983 322.973L107.204 244.902"
        stroke="white" stroke-width="2" />
    <path d="M36.9366 268.422L17.3145 175.91L78.4261 94.739L-11.7873 95.7265L-1.08492 -61.2196" stroke="white"
        stroke-width="2" />
    <rect x="59.028" y="66.7844" width="6.09555" height="3.51278" transform="rotate(60 59.028 66.7844)"
        fill="#dddddd" />
    <rect x="48.7499" y="72.719" width="6.09555" height="3.51278" transform="rotate(60 48.7499 72.719)"
        fill="#dddddd" />
    <rect x="60.7843" y="69.8264" width="15.3812" height="3.51278" transform="rotate(150 60.7843 69.8264)"
        fill="#dddddd" />
    <rect width="6.09555" height="3.51278" transform="matrix(-0.5 -0.866025 -0.866025 0.5 70.1482 86.0439)"
        fill="#dddddd" />
    <rect width="6.09555" height="3.51278" transform="matrix(-0.5 -0.866025 -0.866025 0.5 59.8694 91.9766)"
        fill="#dddddd" />
    <rect width="15.3812" height="3.51278" transform="matrix(-0.866025 0.5 0.5 0.866025 68.3916 83.002)"
        fill="#dddddd" />
    <path
        d="M189.181 126.762C186.532 128.291 183.144 127.384 181.614 124.734C180.084 122.084 180.992 118.696 183.642 117.166C186.291 115.637 189.679 116.544 191.209 119.194C192.739 121.844 191.831 125.232 189.181 126.762ZM184.667 118.943C182.999 119.906 182.427 122.04 183.391 123.708C184.354 125.376 186.487 125.948 188.156 124.985C189.824 124.022 190.396 121.888 189.432 120.22C188.469 118.552 186.336 117.98 184.667 118.943Z"
        fill="#dddddd" />
    <rect x="202.208" y="138.245" width="11.0796" height="3.45801" transform="rotate(150 202.208 138.245)"
        fill="#dddddd" />
    <rect x="210.437" y="152.498" width="11.0796" height="3.45801" transform="rotate(150 210.437 152.498)"
        fill="#dddddd" />
    <path
        d="M217.679 176.121C215.03 177.651 211.641 176.743 210.112 174.094C208.582 171.444 209.49 168.056 212.139 166.526C214.789 164.996 218.177 165.904 219.707 168.554C221.237 171.203 220.329 174.591 217.679 176.121ZM213.165 168.303C211.497 169.266 210.925 171.399 211.888 173.068C212.852 174.736 214.985 175.308 216.653 174.344C218.322 173.381 218.893 171.248 217.93 169.58C216.967 167.911 214.834 167.34 213.165 168.303Z"
        fill="#dddddd" />
    <rect x="230.706" y="187.604" width="11.0796" height="3.45801" transform="rotate(150 230.706 187.604)"
        fill="#dddddd" />
    <rect x="89.5037" y="223.235" width="11.0796" height="3.45801" transform="rotate(150 89.5037 223.235)"
        fill="#dddddd" />
    <rect x="97.7327" y="237.488" width="11.0796" height="3.45801" transform="rotate(150 97.7327 237.488)"
        fill="#dddddd" />
    <path
        d="M104.975 261.111C102.325 262.641 98.9371 261.733 97.4073 259.084C95.8776 256.434 96.7854 253.046 99.435 251.516C102.085 249.986 105.473 250.894 107.003 253.544C108.532 256.194 107.625 259.582 104.975 261.111ZM100.461 253.293C98.7926 254.256 98.2209 256.39 99.1842 258.058C100.147 259.726 102.281 260.298 103.949 259.335C105.617 258.371 106.189 256.238 105.226 254.57C104.263 252.901 102.129 252.33 100.461 253.293Z"
        fill="#dddddd" />
    <rect x="118.001" y="272.595" width="11.0796" height="3.45801" transform="rotate(150 118.001 272.595)"
        fill="#dddddd" />
    <g filter="url(#filter0_d_0_1)">
        <path d="M241.472 288.937L205.434 292.846L220.524 259.353L241.472 288.937Z" fill="#FF5656" />
    </g>
    <g filter="url(#filter1_d_0_1)">
        <path d="M72.5697 279.319L16.5717 285.393L40.0206 233.349L72.5697 279.319Z" fill="#9D70F9" />
    </g>
    <defs>
        <filter id="filter0_d_0_1" x="195.434" y="259.353" width="56.038" height="62.4929" filterUnits="userSpaceOnUse"
            color-interpolation-filters="sRGB">
            <feFlood flood-opacity="0" result="BackgroundImageFix" />
            <feColorMatrix in="SourceAlpha" type="matrix" values="0 0 0 0 0 0 0 0 0 0 0 0 0 0 0 0 0 0 127 0"
                result="hardAlpha" />
            <feOffset dy="19" />
            <feGaussianBlur stdDeviation="5" />
            <feComposite in2="hardAlpha" operator="out" />
            <feColorMatrix type="matrix" values="0 0 0 0 0 0 0 0 0 0 0 0 0 0 0 0 0 0 0.12 0" />
            <feBlend mode="normal" in2="BackgroundImageFix" result="effect1_dropShadow_0_1" />
            <feBlend mode="normal" in="SourceGraphic" in2="effect1_dropShadow_0_1" result="shape" />
        </filter>
        <filter id="filter1_d_0_1" x="6.57178" y="233.349" width="75.9979" height="81.0437" filterUnits="userSpaceOnUse"
            color-interpolation-filters="sRGB">
            <feFlood flood-opacity="0" result="BackgroundImageFix" />
            <feColorMatrix in="SourceAlpha" type="matrix" values="0 0 0 0 0 0 0 0 0 0 0 0 0 0 0 0 0 0 127 0"
                result="hardAlpha" />
            <feOffset dy="19" />
            <feGaussianBlur stdDeviation="5" />
            <feComposite in2="hardAlpha" operator="out" />
            <feColorMatrix type="matrix" values="0 0 0 0 0 0 0 0 0 0 0 0 0 0 0 0 0 0 0.12 0" />
            <feBlend mode="normal" in2="BackgroundImageFix" result="effect1_dropShadow_0_1" />
            <feBlend mode="normal" in="SourceGraphic" in2="effect1_dropShadow_0_1" result="shape" />
        </filter>
    </defs>
</svg>