<svg width="73" height="76" viewBox="0 0 73 76" fill="none" xmlns="http://www.w3.org/2000/svg">
    <path d="M37 0.260254L65.5788 50.5103L8.42116 50.5103L37 0.260254Z" fill="#FF5656" />
    <path d="M28.2728 39.5103L36.5 25.2603L44.7272 39.5103H28.2728Z" fill="black" stroke="white"
        stroke-width="2" />
    <path
        d="M1 63.7603C1 57.9613 5.70101 53.2603 11.5 53.2603C17.299 53.2603 22 57.9613 22 63.7603V74.2603H1V63.7603Z"
        fill="black" stroke="white" stroke-width="2" />
    <path
        d="M51 63.7603C51 57.9613 55.701 53.2603 61.5 53.2603C67.299 53.2603 72 57.9613 72 63.7603V74.2603H51V63.7603Z"
        fill="black" stroke="white" stroke-width="2" />
    <path
        d="M26 54.7603C26 48.9613 30.701 44.2603 36.5 44.2603C42.299 44.2603 47 48.9613 47 54.7603V65.2603H26V54.7603Z"
        fill="black" stroke="white" stroke-width="2" />
    <circle cx="11" cy="42.2603" r="7" fill="black" stroke="white" stroke-width="2" />
    <circle cx="61" cy="42.2603" r="7" fill="black" stroke="white" stroke-width="2" />
</svg>