<svg width="32" height="32" viewBox="0 0 136 148" fill="none" xmlns="http://www.w3.org/2000/svg">
<path d="M1 58.6557L114 89M1 58.6557L52.7917 2M1 58.6557V114.131M114 89L115.5 35M114 89L66.9167 146L1 114.131M52.7917 2L1 114.131M52.7917 2L115.5 35M1 114.131L115.5 35" stroke="black" stroke-width="2"/>
<circle cx="88.5" cy="69.5" r="47.5" fill="#9D70F9"/>
<path d="M76.3045 98C74.6905 98 73.218 97.6063 71.8869 96.8188C70.5724 96.0313 69.5241 94.9757 68.7421 93.6521C67.9601 92.3117 67.5691 90.8289 67.5691 89.2037V83.0714C67.5524 82.619 67.3611 82.2504 66.995 81.9656C66.6456 81.664 66.2296 81.3959 65.7471 81.1614C65.2812 80.9101 64.8735 80.6168 64.5241 80.2817C64.1747 79.9467 64 79.5194 64 79C64 78.4974 64.1747 78.0785 64.5241 77.7434C64.8735 77.4083 65.2812 77.1151 65.7471 76.8638C66.2296 76.5957 66.6456 76.3192 66.995 76.0344C67.3611 75.7328 67.5524 75.381 67.5691 74.9788V68.7963C67.5691 67.1878 67.9601 65.7218 68.7421 64.3982C69.5241 63.0578 70.5724 61.9938 71.8869 61.2063C73.218 60.4021 74.6905 60 76.3045 60H79V66.1323H76.3045C75.822 66.1323 75.381 66.2496 74.9817 66.4841C74.5824 66.7187 74.2579 67.0454 74.0083 67.4643C73.7754 67.8664 73.6589 68.3104 73.6589 68.7963V75.1799C73.6256 75.7496 73.4509 76.2355 73.1348 76.6376C72.8353 77.0229 72.5025 77.3999 72.1364 77.7685C71.7704 78.1204 71.4792 78.5309 71.2629 79C71.4958 79.5194 71.787 79.955 72.1364 80.3069C72.5025 80.6587 72.8353 81.0273 73.1348 81.4127C73.4509 81.7813 73.6256 82.2504 73.6589 82.8201V89.2037C73.6589 89.7064 73.7754 90.1587 74.0083 90.5608C74.2413 90.963 74.5574 91.2813 74.9567 91.5159C75.3561 91.7504 75.8053 91.8677 76.3045 91.8677H79V98H76.3045Z" fill="white"/>
<path d="M100 98V91.8677H102.696C103.178 91.8677 103.619 91.7504 104.018 91.5159C104.418 91.2813 104.734 90.963 104.967 90.5608C105.216 90.1587 105.341 89.7064 105.341 89.2037V82.8201C105.374 82.2504 105.541 81.7813 105.84 81.4127C106.14 81.0273 106.473 80.6587 106.839 80.3069C107.205 79.955 107.496 79.5194 107.712 79C107.496 78.5309 107.205 78.1204 106.839 77.7685C106.489 77.3999 106.156 77.0229 105.84 76.6376C105.541 76.2355 105.374 75.7496 105.341 75.1799V68.7963C105.341 68.3104 105.216 67.8664 104.967 67.4643C104.734 67.0454 104.418 66.7187 104.018 66.4841C103.619 66.2496 103.178 66.1323 102.696 66.1323H100V60H102.696C104.309 60 105.774 60.4021 107.088 61.2063C108.419 61.9938 109.476 63.0578 110.258 64.3982C111.04 65.7218 111.431 67.1878 111.431 68.7963V74.9788C111.448 75.381 111.631 75.7328 111.98 76.0344C112.329 76.3192 112.737 76.5957 113.203 76.8638C113.686 77.1151 114.101 77.4083 114.451 77.7434C114.817 78.0785 115 78.4974 115 79C115 79.5194 114.817 79.9467 114.451 80.2817C114.101 80.6168 113.686 80.9101 113.203 81.1614C112.737 81.3959 112.329 81.664 111.98 81.9656C111.631 82.2504 111.448 82.619 111.431 83.0714V89.2037C111.431 90.8289 111.04 92.3117 110.258 93.6521C109.476 94.9757 108.419 96.0313 107.088 96.8188C105.774 97.6063 104.309 98 102.696 98H100Z" fill="white"/>
<path d="M67.8232 53.7046V44.353H111.411V53.7046H95.1631V98.0001H84.0717V53.7046H67.8232Z" fill="white"/>
<circle cx="61.4461" cy="127.446" r="3.44608" stroke="#111111" stroke-width="2"/>
<circle cx="129.446" cy="112.446" r="3.44608" stroke="#111111" stroke-width="2"/>
<path fill-rule="evenodd" clip-rule="evenodd" d="M10.9999 35.1748L14.499 27L17.4717 28.2725L13.9725 36.4472L10.9999 35.1748Z" fill="#111111"/>
<path fill-rule="evenodd" clip-rule="evenodd" d="M24.7314 40.9731L28.2305 32.7984L31.2031 34.0708L27.704 42.2455L24.7314 40.9731Z" fill="#111111"/>
<path fill-rule="evenodd" clip-rule="evenodd" d="M70.9999 136.175L74.499 128L77.4717 129.272L73.9725 137.447L70.9999 136.175Z" fill="#111111"/>
<path fill-rule="evenodd" clip-rule="evenodd" d="M81.9999 141.175L85.499 133L88.4717 134.272L84.9725 142.447L81.9999 141.175Z" fill="#111111"/>
<path fill-rule="evenodd" clip-rule="evenodd" d="M38.7099 47.5415L42.209 39.3667L45.1816 40.6392L41.6825 48.8139L38.7099 47.5415Z" fill="#111111"/>
</svg>
