<svg width="24" height="24" viewBox="0 0 96 96" fill="none" xmlns="http://www.w3.org/2000/svg">
<path d="M47.9504 95.9C74.4327 95.9 95.9008 74.4321 95.9008 47.95C95.9008 21.4679 74.4327 0 47.9504 0C21.4682 0 0 21.4679 0 47.95C0 74.4321 21.4682 95.9 47.9504 95.9Z" fill="#9D70F9"/>
<path d="M34.6281 74.3572C32.9991 74.3572 31.512 73.9692 30.168 73.1942C28.841 72.4192 27.783 71.3802 26.994 70.0772C26.204 68.7572 25.8101 67.2973 25.8101 65.6973V59.6613C25.7931 59.2153 25.6 58.8523 25.23 58.5723C24.877 58.2753 24.458 58.0112 23.97 57.7802C23.5 57.5332 23.089 57.2442 22.736 56.9142C22.383 56.5842 22.207 56.1643 22.207 55.6533C22.207 55.1583 22.383 54.7453 22.736 54.4163C23.089 54.0863 23.5 53.7972 23.97 53.5502C24.458 53.2862 24.877 53.0142 25.23 52.7332C25.6 52.4362 25.7931 52.0902 25.8101 51.6942V45.6082C25.8101 44.0242 26.204 42.5813 26.994 41.2783C27.783 39.9583 28.841 38.9112 30.168 38.1362C31.512 37.3442 32.9991 36.9482 34.6281 36.9482H37.3491V42.9852H34.6281C34.1411 42.9852 33.696 43.1012 33.293 43.3312C32.889 43.5622 32.5621 43.8843 32.3101 44.2963C32.0751 44.6923 31.957 45.1292 31.957 45.6082V51.8922C31.924 52.4532 31.747 52.9312 31.428 53.3272C31.126 53.7062 30.79 54.0772 30.42 54.4402C30.051 54.7872 29.7571 55.1913 29.5391 55.6533C29.7741 56.1643 30.068 56.5932 30.42 56.9392C30.79 57.2852 31.126 57.6483 31.428 58.0283C31.747 58.3913 31.924 58.8522 31.957 59.4132V65.6973C31.957 66.1923 32.0751 66.6382 32.3101 67.0342C32.5451 67.4292 32.864 67.7432 33.267 67.9742C33.671 68.2052 34.1241 68.3203 34.6281 68.3203H37.3491V74.3572H34.6281Z" fill="white"/>
<path d="M58.5498 74.3572V68.3203H61.2718C61.7588 68.3203 62.2038 68.2052 62.6068 67.9742C63.0098 67.7432 63.3288 67.4292 63.5638 67.0342C63.8158 66.6382 63.9418 66.1923 63.9418 65.6973V59.4132C63.9758 58.8522 64.1438 58.3913 64.4458 58.0283C64.7478 57.6483 65.0838 57.2852 65.4538 56.9392C65.8228 56.5932 66.1168 56.1643 66.3358 55.6533C66.1168 55.1913 65.8228 54.7872 65.4538 54.4402C65.1008 54.0772 64.7648 53.7062 64.4458 53.3272C64.1438 52.9312 63.9758 52.4532 63.9418 51.8922V45.6082C63.9418 45.1292 63.8158 44.6923 63.5638 44.2963C63.3288 43.8843 63.0098 43.5622 62.6068 43.3312C62.2038 43.1012 61.7588 42.9852 61.2718 42.9852H58.5498V36.9482H61.2718C62.9008 36.9482 64.3788 37.3442 65.7058 38.1362C67.0498 38.9112 68.1158 39.9583 68.9058 41.2783C69.6948 42.5813 70.0898 44.0242 70.0898 45.6082V51.6942C70.1068 52.0902 70.2908 52.4362 70.6438 52.7332C70.9968 53.0142 71.4078 53.2862 71.8788 53.5502C72.3658 53.7972 72.7858 54.0863 73.1378 54.4163C73.5078 54.7453 73.6928 55.1583 73.6928 55.6533C73.6928 56.1643 73.5078 56.5842 73.1378 56.9142C72.7858 57.2442 72.3658 57.5332 71.8788 57.7802C71.4078 58.0112 70.9968 58.2753 70.6438 58.5723C70.2908 58.8523 70.1068 59.2153 70.0898 59.6613V65.6973C70.0898 67.2973 69.6948 68.7572 68.9058 70.0772C68.1158 71.3802 67.0498 72.4192 65.7058 73.1942C64.3788 73.9692 62.9008 74.3572 61.2718 74.3572H58.5498Z" fill="white"/>
<path d="M26.0664 30.7485V21.5425H70.0684V30.7485H53.6654V74.3545H42.4694V30.7485H26.0664Z" fill="white"/>
</svg>
