<svg width="734" height="656" viewBox="0 0 734 656" fill="none" xmlns="http://www.w3.org/2000/svg">
<g filter="url(#filter0_d_3968_754)">
<path d="M247.976 484.139V371.488H290.622C296.791 371.488 302.37 372.776 307.359 375.351C312.348 377.872 316.291 381.466 319.187 386.133C322.138 390.8 323.613 396.271 323.613 402.548C323.613 404.908 323.318 407.402 322.728 410.031C322.138 412.606 321.092 415.02 319.59 417.273C318.088 419.526 315.942 421.296 313.152 422.583C316.746 423.442 319.59 425.051 321.682 427.411C323.774 429.771 325.329 432.507 326.349 435.619C327.421 438.676 328.119 441.787 328.441 444.952C328.763 448.064 328.923 450.88 328.923 453.401C328.923 459.087 327.395 464.264 324.337 468.931C321.279 473.544 317.176 477.246 312.026 480.035C306.876 482.771 301.19 484.139 294.967 484.139H247.976ZM272.115 463.701H292.393C295.182 463.701 297.703 463.057 299.956 461.77C302.263 460.428 304.087 458.605 305.428 456.298C306.823 453.991 307.52 451.363 307.52 448.412C307.52 445.945 306.823 443.611 305.428 441.412C304.087 439.159 302.263 437.335 299.956 435.94C297.703 434.546 295.182 433.848 292.393 433.848H272.115V463.701ZM272.115 413.732H287.726C290.944 413.732 293.707 412.659 296.013 410.514C298.32 408.368 299.473 405.659 299.473 402.387C299.473 399.061 298.32 396.513 296.013 394.742C293.707 392.972 290.944 392.087 287.726 392.087H272.115V413.732ZM340.051 484.139V371.488H364.191V484.139H340.051Z" fill="white"/>
<path d="M434.807 486.231C426.922 486.231 419.6 484.702 412.84 481.644C406.135 478.587 400.288 474.376 395.299 469.011C390.31 463.593 386.421 457.344 383.632 450.263C380.842 443.182 379.448 435.645 379.448 427.653C379.448 419.016 380.977 411.157 384.034 404.076C387.145 396.995 391.33 390.88 396.587 385.73C401.897 380.527 407.879 376.531 414.53 373.741C421.236 370.952 428.156 369.557 435.29 369.557C443.122 369.557 450.847 371.381 458.464 375.029C466.081 378.676 472.948 384.577 479.063 392.731L457.498 404.318C454.226 400.616 450.632 397.907 446.716 396.191C442.854 394.421 438.938 393.536 434.968 393.536C430.945 393.536 427.056 394.367 423.301 396.03C419.546 397.693 416.193 400.053 413.243 403.111C410.292 406.168 407.932 409.816 406.162 414.054C404.445 418.292 403.587 422.986 403.587 428.135C403.587 432.856 404.392 437.281 406.001 441.412C407.664 445.542 409.944 449.163 412.84 452.275C415.737 455.332 419.09 457.746 422.899 459.517C426.707 461.233 430.784 462.091 435.129 462.091C437.597 462.091 440.038 461.77 442.451 461.126C444.919 460.428 447.306 459.409 449.613 458.068C451.919 456.727 454.092 455.01 456.13 452.918C458.169 450.826 460.02 448.359 461.683 445.516H446.555V424.595H490.167C490.596 433.017 489.443 440.956 486.707 448.412C484.025 455.815 480.136 462.36 475.04 468.046C469.944 473.732 463.962 478.184 457.096 481.403C450.23 484.621 442.8 486.231 434.807 486.231Z" fill="#FF5656"/>
<line x1="170.13" y1="368.9" x2="170.13" y2="511.85" stroke="white" stroke-width="18.9328"/>
<line x1="100.047" y1="502.418" x2="174.828" y2="502.418" stroke="white" stroke-width="18.9328"/>
<line x1="223.052" y1="368.9" x2="223.052" y2="603.678" stroke="white" stroke-width="18.9328"/>
<ellipse cx="90.8106" cy="502.373" rx="38.8106" ry="38.8141" fill="white"/>
<ellipse cx="223.154" cy="582.91" rx="38.8106" ry="38.8141" fill="white"/>
<line x1="562.826" y1="368.9" x2="562.826" y2="481.556" stroke="white" stroke-width="18.9328"/>
<line x1="633.781" y1="473.025" x2="553.32" y2="473.025" stroke="white" stroke-width="18.9328"/>
<line y1="-9.46642" x2="162.841" y2="-9.46642" transform="matrix(-0.0116261 0.999932 -0.999932 -0.0116282 500.289 369.885)" stroke="white" stroke-width="18.9328"/>
<ellipse cx="38.8106" cy="38.8141" rx="38.8106" ry="38.8141" transform="matrix(-1 0 0 1 682 434.242)" fill="white"/>
<ellipse cx="38.8106" cy="38.8141" rx="38.8106" ry="38.8141" transform="matrix(-1 0 0 1 547.633 526.082)" fill="white"/>
<path d="M651.929 368.924C651.929 329.579 643.836 290.655 628.152 254.572C612.469 218.488 589.53 186.018 560.764 159.179L511.85 211.615C533.425 231.744 550.629 256.097 562.392 283.16C574.154 310.222 580.224 339.415 580.224 368.924H651.929Z" fill="#FA5252"/>
<path d="M86.8676 368.924C86.8676 318.573 100.12 269.11 125.292 225.505C150.464 181.899 186.67 145.689 230.27 120.512C273.871 95.3358 323.329 82.0803 373.675 82.0781C424.021 82.0759 473.481 95.327 517.083 120.5L481.234 182.606C448.532 163.726 411.438 153.788 373.678 153.79C335.919 153.791 298.825 163.733 266.125 182.615C233.425 201.498 206.27 228.656 187.391 261.359C168.512 294.063 158.573 331.161 158.573 368.924H86.8676Z" fill="white"/>
<rect x="330.727" y="142.25" width="69.1501" height="188.146" fill="#C5A8FF"/>
<rect x="244.047" y="66" width="68.1331" height="264.421" fill="#FF5656"/>
<rect x="418.078" y="203.258" width="68.1331" height="127.125" fill="#9D70F9"/>
</g>
<defs>
<filter id="filter0_d_3968_754" x="34.9378" y="66" width="664.124" height="589.849" filterUnits="userSpaceOnUse" color-interpolation-filters="sRGB">
<feFlood flood-opacity="0" result="BackgroundImageFix"/>
<feColorMatrix in="SourceAlpha" type="matrix" values="0 0 0 0 0 0 0 0 0 0 0 0 0 0 0 0 0 0 127 0" result="hardAlpha"/>
<feOffset dy="17.0622"/>
<feGaussianBlur stdDeviation="8.5311"/>
<feComposite in2="hardAlpha" operator="out"/>
<feColorMatrix type="matrix" values="0 0 0 0 0 0 0 0 0 0 0 0 0 0 0 0 0 0 0.25 0"/>
<feBlend mode="normal" in2="BackgroundImageFix" result="effect1_dropShadow_3968_754"/>
<feBlend mode="normal" in="SourceGraphic" in2="effect1_dropShadow_3968_754" result="shape"/>
</filter>
</defs>
</svg>
