<svg width="734" height="678" viewBox="0 0 734 678" fill="none" xmlns="http://www.w3.org/2000/svg">
<g filter="url(#filter0_d_3968_753)">
<path d="M247.976 506.139V393.488H290.622C296.791 393.488 302.37 394.776 307.359 397.351C312.348 399.872 316.291 403.466 319.187 408.133C322.138 412.8 323.613 418.271 323.613 424.548C323.613 426.908 323.318 429.402 322.728 432.031C322.138 434.606 321.092 437.02 319.59 439.273C318.088 441.526 315.942 443.296 313.152 444.583C316.746 445.442 319.59 447.051 321.682 449.411C323.774 451.771 325.329 454.507 326.349 457.619C327.421 460.676 328.119 463.787 328.441 466.952C328.763 470.064 328.923 472.88 328.923 475.401C328.923 481.087 327.395 486.264 324.337 490.931C321.279 495.544 317.176 499.246 312.026 502.035C306.876 504.771 301.19 506.139 294.967 506.139H247.976ZM272.115 485.701H292.393C295.182 485.701 297.703 485.057 299.956 483.77C302.263 482.428 304.087 480.605 305.428 478.298C306.823 475.991 307.52 473.363 307.52 470.412C307.52 467.945 306.823 465.611 305.428 463.412C304.087 461.159 302.263 459.335 299.956 457.94C297.703 456.546 295.182 455.848 292.393 455.848H272.115V485.701ZM272.115 435.732H287.726C290.944 435.732 293.707 434.659 296.013 432.514C298.32 430.368 299.473 427.659 299.473 424.387C299.473 421.061 298.32 418.513 296.013 416.742C293.707 414.972 290.944 414.087 287.726 414.087H272.115V435.732ZM340.051 506.139V393.488H364.191V506.139H340.051Z" fill="#6133BC"/>
<path d="M434.807 508.231C426.922 508.231 419.6 506.702 412.84 503.644C406.135 500.587 400.288 496.376 395.299 491.011C390.31 485.593 386.421 479.344 383.632 472.263C380.842 465.182 379.448 457.645 379.448 449.653C379.448 441.016 380.977 433.157 384.034 426.076C387.145 418.995 391.33 412.88 396.587 407.73C401.897 402.527 407.879 398.531 414.53 395.741C421.236 392.952 428.156 391.557 435.29 391.557C443.122 391.557 450.847 393.381 458.464 397.029C466.081 400.676 472.948 406.577 479.063 414.731L457.498 426.318C454.226 422.616 450.632 419.907 446.716 418.191C442.854 416.421 438.938 415.536 434.968 415.536C430.945 415.536 427.056 416.367 423.301 418.03C419.546 419.693 416.193 422.053 413.243 425.111C410.292 428.168 407.932 431.816 406.162 436.054C404.445 440.292 403.587 444.986 403.587 450.135C403.587 454.856 404.392 459.281 406.001 463.412C407.664 467.542 409.944 471.163 412.84 474.275C415.737 477.332 419.09 479.746 422.899 481.517C426.707 483.233 430.784 484.091 435.129 484.091C437.597 484.091 440.038 483.77 442.451 483.126C444.919 482.428 447.306 481.409 449.613 480.068C451.919 478.727 454.092 477.01 456.13 474.918C458.169 472.826 460.02 470.359 461.683 467.516H446.555V446.595H490.167C490.596 455.017 489.443 462.956 486.707 470.412C484.025 477.815 480.136 484.36 475.04 490.046C469.944 495.732 463.962 500.184 457.096 503.403C450.23 506.621 442.8 508.231 434.807 508.231Z" fill="#FF5656"/>
<line x1="170.13" y1="390.9" x2="170.13" y2="533.85" stroke="#6133BC" stroke-width="18.9328"/>
<line x1="100.047" y1="524.418" x2="174.828" y2="524.418" stroke="#6133BC" stroke-width="18.9328"/>
<line x1="223.052" y1="390.9" x2="223.052" y2="625.678" stroke="#6133BC" stroke-width="18.9328"/>
<ellipse cx="90.8106" cy="524.373" rx="38.8106" ry="38.8141" fill="#6133BC"/>
<ellipse cx="223.154" cy="604.91" rx="38.8106" ry="38.8141" fill="#6133BC"/>
<line x1="562.826" y1="390.9" x2="562.826" y2="503.556" stroke="#6133BC" stroke-width="18.9328"/>
<line x1="633.781" y1="495.025" x2="553.32" y2="495.025" stroke="#6133BC" stroke-width="18.9328"/>
<line y1="-9.46642" x2="162.841" y2="-9.46642" transform="matrix(-0.0116261 0.999932 -0.999932 -0.0116282 500.289 391.885)" stroke="#6133BC" stroke-width="18.9328"/>
<ellipse cx="38.8106" cy="38.8141" rx="38.8106" ry="38.8141" transform="matrix(-1 0 0 1 682 456.242)" fill="#6133BC"/>
<ellipse cx="38.8106" cy="38.8141" rx="38.8106" ry="38.8141" transform="matrix(-1 0 0 1 547.633 548.082)" fill="#6133BC"/>
<path d="M651.929 390.924C651.929 351.579 643.836 312.655 628.152 276.572C612.469 240.488 589.53 208.018 560.764 181.179L511.85 233.615C533.425 253.744 550.629 278.097 562.392 305.16C574.154 332.222 580.224 361.415 580.224 390.924H651.929Z" fill="#FA5252"/>
<path d="M86.8676 390.924C86.8676 340.573 100.12 291.11 125.292 247.505C150.464 203.899 186.67 167.689 230.27 142.512C273.871 117.336 323.329 104.08 373.675 104.078C424.021 104.076 473.481 117.327 517.083 142.5L481.234 204.606C448.532 185.726 411.438 175.788 373.678 175.79C335.919 175.791 298.825 185.733 266.125 204.615C233.425 223.498 206.27 250.656 187.391 283.359C168.512 316.063 158.573 353.161 158.573 390.924H86.8676Z" fill="#6133BC"/>
<rect x="330.727" y="164.25" width="69.1501" height="188.146" fill="#C5A8FF"/>
<rect x="244.047" y="88" width="68.1331" height="264.421" fill="#FF5656"/>
<rect x="418.078" y="225.258" width="68.1331" height="127.125" fill="#9D70F9"/>
</g>
<defs>
<filter id="filter0_d_3968_753" x="34.9378" y="88" width="664.124" height="589.849" filterUnits="userSpaceOnUse" color-interpolation-filters="sRGB">
<feFlood flood-opacity="0" result="BackgroundImageFix"/>
<feColorMatrix in="SourceAlpha" type="matrix" values="0 0 0 0 0 0 0 0 0 0 0 0 0 0 0 0 0 0 127 0" result="hardAlpha"/>
<feOffset dy="17.0622"/>
<feGaussianBlur stdDeviation="8.5311"/>
<feComposite in2="hardAlpha" operator="out"/>
<feColorMatrix type="matrix" values="0 0 0 0 0 0 0 0 0 0 0 0 0 0 0 0 0 0 0.25 0"/>
<feBlend mode="normal" in2="BackgroundImageFix" result="effect1_dropShadow_3968_753"/>
<feBlend mode="normal" in="SourceGraphic" in2="effect1_dropShadow_3968_753" result="shape"/>
</filter>
</defs>
</svg>
