<svg width="423" height="375" viewBox="0 0 423 375" fill="none" xmlns="http://www.w3.org/2000/svg">
<g filter="url(#filter0_d_3952_731)">
<path d="M135.818 265.645V194.121H162.895C166.812 194.121 170.354 194.938 173.521 196.573C176.689 198.174 179.192 200.456 181.031 203.419C182.905 206.382 183.841 209.856 183.841 213.841C183.841 215.339 183.654 216.923 183.279 218.592C182.905 220.227 182.241 221.759 181.287 223.19C180.333 224.62 178.971 225.744 177.2 226.562C179.482 227.107 181.287 228.129 182.615 229.627C183.944 231.126 184.931 232.863 185.578 234.838C186.26 236.779 186.702 238.755 186.907 240.764C187.111 242.74 187.213 244.528 187.213 246.129C187.213 249.739 186.243 253.026 184.301 255.989C182.36 258.918 179.754 261.268 176.485 263.039C173.215 264.776 169.605 265.645 165.654 265.645H135.818ZM151.145 252.668H164.019C165.79 252.668 167.391 252.259 168.821 251.442C170.286 250.59 171.444 249.432 172.295 247.968C173.181 246.503 173.624 244.834 173.624 242.961C173.624 241.394 173.181 239.913 172.295 238.517C171.444 237.086 170.286 235.928 168.821 235.042C167.391 234.157 165.79 233.714 164.019 233.714H151.145V252.668ZM151.145 220.942H161.056C163.099 220.942 164.853 220.261 166.318 218.899C167.783 217.536 168.515 215.816 168.515 213.739C168.515 211.627 167.783 210.009 166.318 208.885C164.853 207.761 163.099 207.199 161.056 207.199H151.145V220.942ZM194.279 265.645V194.121H209.605V265.645H194.279Z" fill="#6133BC"/>
<path d="M254.441 266.973C249.434 266.973 244.785 266.002 240.494 264.061C236.236 262.119 232.524 259.446 229.356 256.04C226.189 252.6 223.72 248.632 221.949 244.136C220.178 239.64 219.292 234.855 219.292 229.78C219.292 224.297 220.263 219.307 222.204 214.811C224.179 210.316 226.836 206.433 230.174 203.163C233.546 199.86 237.343 197.322 241.567 195.551C245.824 193.78 250.218 192.894 254.747 192.894C259.72 192.894 264.625 194.052 269.461 196.368C274.297 198.684 278.657 202.431 282.54 207.608L268.848 214.965C266.77 212.615 264.488 210.895 262.002 209.805C259.55 208.681 257.063 208.119 254.543 208.119C251.989 208.119 249.519 208.647 247.135 209.703C244.751 210.758 242.622 212.257 240.749 214.198C238.876 216.14 237.377 218.456 236.253 221.146C235.164 223.837 234.619 226.817 234.619 230.087C234.619 233.084 235.129 235.894 236.151 238.517C237.207 241.139 238.655 243.438 240.494 245.413C242.333 247.355 244.462 248.887 246.88 250.011C249.298 251.101 251.887 251.646 254.645 251.646C256.212 251.646 257.762 251.442 259.294 251.033C260.861 250.59 262.377 249.943 263.841 249.092C265.306 248.24 266.685 247.15 267.979 245.822C269.274 244.494 270.449 242.927 271.505 241.122H261.9V227.839H289.59C289.862 233.186 289.13 238.227 287.393 242.961C285.69 247.661 283.221 251.817 279.985 255.427C276.75 259.037 272.952 261.864 268.592 263.908C264.233 265.951 259.516 266.973 254.441 266.973Z" fill="#FF5656"/>
<line x1="86.3932" y1="192.621" x2="86.3932" y2="283.382" stroke="#6133BC" stroke-width="12.0208"/>
<line x1="41.8984" y1="277.394" x2="89.3787" y2="277.394" stroke="#6133BC" stroke-width="12.0208"/>
<line x1="119.995" y1="192.621" x2="119.995" y2="341.686" stroke="#6133BC" stroke-width="12.0208"/>
<ellipse cx="36.0323" cy="277.365" rx="24.6417" ry="24.6438" fill="#6133BC"/>
<ellipse cx="120.056" cy="328.499" rx="24.6417" ry="24.6438" fill="#6133BC"/>
<line x1="335.729" y1="192.621" x2="335.729" y2="264.148" stroke="#6133BC" stroke-width="12.0208"/>
<line x1="380.773" y1="258.731" x2="329.687" y2="258.731" stroke="#6133BC" stroke-width="12.0208"/>
<line y1="-6.01042" x2="103.391" y2="-6.01042" transform="matrix(-0.0116261 0.999932 -0.999932 -0.0116281 296.016 193.246)" stroke="#6133BC" stroke-width="12.0208"/>
<ellipse cx="24.6417" cy="24.6438" rx="24.6417" ry="24.6438" transform="matrix(-1 0 0 1 411.391 234.105)" fill="#6133BC"/>
<ellipse cx="24.6417" cy="24.6438" rx="24.6417" ry="24.6438" transform="matrix(-1 0 0 1 326.078 292.418)" fill="#6133BC"/>
<path d="M392.302 192.635C392.302 167.655 387.163 142.941 377.205 120.031C367.248 97.1211 352.684 76.5049 334.419 59.4643L303.363 92.7571C317.061 105.538 327.984 121 335.453 138.182C342.921 155.364 346.775 173.9 346.775 192.635H392.302Z" fill="#FA5252"/>
<path d="M33.5262 192.635C33.5262 160.667 41.9402 129.262 57.9227 101.576C73.9051 73.8901 96.8929 50.8994 124.576 34.9143C152.258 18.9293 183.66 10.5131 215.626 10.5117C247.592 10.5103 278.995 18.9237 306.679 34.9063L283.918 74.3385C263.155 62.3516 239.602 56.0415 215.628 56.0426C191.654 56.0437 168.102 62.3558 147.34 74.3446C126.578 86.3333 109.337 103.576 97.3505 124.341C85.3637 145.105 79.0532 168.659 79.0532 192.635H33.5262Z" fill="#6133BC"/>
<rect x="188.359" y="48.7168" width="43.9048" height="119.457" fill="#C5A8FF"/>
<rect x="133.328" y="0.302734" width="43.2591" height="167.886" fill="#FF5656"/>
<rect x="243.82" y="87.4512" width="43.2591" height="80.7142" fill="#9D70F9"/>
</g>
<defs>
<filter id="filter0_d_3952_731" x="0.557496" y="0.302734" width="421.666" height="374.506" filterUnits="userSpaceOnUse" color-interpolation-filters="sRGB">
<feFlood flood-opacity="0" result="BackgroundImageFix"/>
<feColorMatrix in="SourceAlpha" type="matrix" values="0 0 0 0 0 0 0 0 0 0 0 0 0 0 0 0 0 0 127 0" result="hardAlpha"/>
<feOffset dy="10.8331"/>
<feGaussianBlur stdDeviation="5.41656"/>
<feComposite in2="hardAlpha" operator="out"/>
<feColorMatrix type="matrix" values="0 0 0 0 0 0 0 0 0 0 0 0 0 0 0 0 0 0 0.25 0"/>
<feBlend mode="normal" in2="BackgroundImageFix" result="effect1_dropShadow_3952_731"/>
<feBlend mode="normal" in="SourceGraphic" in2="effect1_dropShadow_3952_731" result="shape"/>
</filter>
</defs>
</svg>
