<svg width="24" height="24" viewBox="0 0 124 111" fill="none" xmlns="http://www.w3.org/2000/svg">
<path d="M0.750879 0.257812L123.407 0.550547L123.143 110.39L0.493164 110.098L0.750879 0.257812Z" fill="#9D70F9"/>
<path d="M0.750989 0.257812L123.407 0.492667L123.337 23.9922L0.680664 23.7573L0.750989 0.257812Z" fill="white"/>
<path d="M101.013 37.1021L23.0967 36.8877L23.0967 82.7196L68.3034 82.8268L84.6763 92.5609L84.6763 82.8804L101.013 82.934L101.013 37.1021Z" fill="white"/>
<circle cx="14.0344" cy="12.7209" r="3.36445" fill="#111111"/>
<circle cx="24.7629" cy="12.7209" r="3.36445" fill="#111111"/>
<circle cx="35.4924" cy="12.7209" r="3.36445" fill="#111111"/>
<path d="M90.2307 49.7908L29.7979 49.6475L29.7782 57.9314L90.211 58.0748L90.2307 49.7908Z" fill="#111111"/>
<path d="M74.9075 63.4781L29.7979 63.3711L29.7782 71.655L74.8879 71.7621L74.9075 63.4781Z" fill="#111111"/>
</svg>
