<svg width="24" height="24" viewBox="0 0 102 122" fill="none" xmlns="http://www.w3.org/2000/svg">
<rect x="14" y="61" width="49" height="54" fill="#FA5252"/>
<path d="M98.9444 72.6185C95.1609 68.5518 88.7591 68.5518 84.6849 72.6185L75.6621 81.6234V15.9752C75.6621 11.9086 72.4625 8.71351 68.3884 8.71351C64.3143 8.71351 61.1134 11.9086 61.1134 15.9752V52.2851C61.1134 54.027 59.9509 55.1901 58.2031 55.1901C56.4553 55.1901 55.2914 54.0284 55.2914 52.2851V7.26036C55.2914 3.19369 52.0919 0 48.0177 0C43.9436 0 40.7427 3.19369 40.7427 7.26036V52.2851C40.7427 54.027 39.5802 55.1901 37.8324 55.1901C36.0846 55.1901 34.9208 54.0284 34.9208 52.2851V13.0716C34.9208 9.00496 31.7212 5.80991 27.6471 5.80991C23.5729 5.80991 20.372 9.00496 20.372 13.0716V52.2865C20.372 54.0284 19.2095 55.1914 17.4617 55.1914C15.7139 55.1914 14.5501 54.0297 14.5501 52.2865V30.5C14.5501 26.4333 11.3505 23.2383 7.2764 23.2383C3.20227 23.2383 0 26.4333 0 30.5V98.7617C0 111.542 10.476 122 23.2823 122H55.8754C61.3578 122 66.3853 119.735 70.0018 116.059L70.1348 116.19L98.9444 86.8518C103.019 83.0752 103.019 76.6851 98.9444 72.6185ZM52.4355 106.244L40.5797 94.4104L28.7036 106.265L21.5019 99.0776L33.378 87.2219L21.5739 75.4407L28.7756 68.2522L40.5797 80.0347L52.3648 68.2712L59.5652 75.4597L47.7814 87.2219L59.6372 99.0559L52.4355 106.244Z" fill="#6133BC"/>
</svg>
