<svg width="24" height="24" viewBox="0 0 846 1013" fill="none" xmlns="http://www.w3.org/2000/svg">
<rect x="85" y="264" width="314" height="684" fill="white"/>
<rect x="438" y="267" width="314" height="684" fill="white"/>
<path fill-rule="evenodd" clip-rule="evenodd" d="M422.791 139.963V0.0160024C423.212 0.0127481 423.632 0 424.055 0C512.711 0 584.581 71.8714 584.581 160.529V212.121C584.549 213.919 584.547 215.684 584.581 217.41C584.581 217.41 435.497 177.09 422.791 139.963ZM261 217.41C261.034 215.684 261.032 213.919 261 212.121V160.529C261 71.8714 332.87 0 421.527 0C421.949 0 422.369 0.0127481 422.791 0.0160024V139.963C410.085 177.09 261 217.41 261 217.41Z" fill="#FA5252"/>
<path fill-rule="evenodd" clip-rule="evenodd" d="M0 190L411.402 244.702L411.402 1012.8L6.83777 938.729L99.1468 560.376L0 190ZM94.5938 275.471L337.332 315.357V390.572L94.5938 342.708L94.5938 275.471ZM353.285 615.08L251.859 596.846V670.921L353.285 690.294V615.08ZM110.551 404.246L353.289 444.133V472.623L110.551 429.318V404.246ZM364.687 526.19L254.145 511.375V534.167L364.687 554.68V526.19ZM141.312 491.996L221.086 501.113V529.603L141.312 514.788V491.996ZM215.387 613.933L135.613 604.816V627.609L215.387 642.424V613.933ZM126.5 871.492L206.273 880.609V909.1L126.5 894.285V871.492ZM353.289 911.379L242.746 896.564V919.357L353.289 939.87V911.379ZM110.551 700.551L353.289 740.437V768.928L110.551 725.622V700.551ZM357.844 829.322L115.105 789.436V814.507L357.844 857.813V829.322Z" fill="#6133BC"/>
<path fill-rule="evenodd" clip-rule="evenodd" d="M845.601 190L434.199 244.702L434.199 1012.8L838.764 938.729L746.455 560.376L845.601 190ZM731.64 285.73L630.214 303.964V379.179L731.64 359.806V285.73ZM520.812 342.709L600.586 333.592V356.384L520.812 371.199V342.709ZM709.98 490.859L630.207 499.976V528.467L709.98 513.652V490.859ZM639.336 882.886L719.109 873.77V896.562L639.336 911.377V882.886ZM590.324 511.375L479.781 526.19V554.681L590.324 534.167V511.375ZM493.465 906.819L604.008 892.004V914.796L493.465 935.309V906.819ZM731.64 404.246L488.902 444.133V472.623L731.64 429.318V404.246ZM484.339 740.437L727.078 700.551V725.622L484.339 768.928V740.437ZM731.64 784.879L488.902 824.766V853.256L731.64 809.951V784.879ZM479.777 610.523L722.515 570.637V637.874L479.777 685.738V610.523Z" fill="#6133BC"/>
<path d="M61.2031 573H128.403" stroke="#FF5656" stroke-width="29" stroke-linecap="round"/>
<path d="M51.6016 601.801H118.802" stroke="#FF5656" stroke-width="29" stroke-linecap="round"/>
<path d="M70.8008 630.6H138.001" stroke="#FF5656" stroke-width="29" stroke-linecap="round"/>
<path d="M776.402 573H709.202" stroke="#FF5656" stroke-width="29" stroke-linecap="round"/>
<path d="M786 601.801H718.8" stroke="#FF5656" stroke-width="29" stroke-linecap="round"/>
<path d="M766.801 630.6H699.601" stroke="#FF5656" stroke-width="29" stroke-linecap="round"/>
</svg>
