<svg width="846" height="1013" viewBox="0 0 846 1013" fill="none" xmlns="http://www.w3.org/2000/svg">
<path d="M785.5 275H489L473 608.5V950.5H620L785.5 882L746.5 700.5L721 608.5L785.5 275Z" fill="black"/>
<path d="M785.5 275H489L473 608.5V950.5H620L785.5 882L746.5 700.5L721 608.5L785.5 275Z" fill="black"/>
<path d="M68.5 275H365L381 608.5V950.5H234L68.5 882L107.5 700.5L125 608.5L68.5 275Z" fill="black"/>
<path d="M68.5 275H365L381 608.5V950.5H234L68.5 882L107.5 700.5L125 608.5L68.5 275Z" fill="black"/>
<path d="M415.591 138.61C414.373 141.362 411.794 144.711 407.436 148.545C402.641 152.762 396.227 157.108 388.58 161.475C373.294 170.203 353.869 178.569 334.58 185.876C315.339 193.165 296.461 199.315 282.376 203.647C276.799 205.363 271.982 206.79 268.2 207.888V160.529C268.2 77.8355 333.662 10.4312 415.591 7.3125V138.61ZM429.99 7.3125C511.919 10.4312 577.381 77.8355 577.381 160.529V207.888C573.599 206.79 568.782 205.363 563.205 203.647C549.12 199.315 530.242 193.165 511.001 185.876C491.712 178.569 472.287 170.203 457.001 161.475C449.354 157.108 442.94 152.762 438.146 148.545C433.786 144.71 431.208 141.36 429.99 138.608V7.3125Z" fill="#9D70F9" stroke="#9D70F9" stroke-width="14.3999"/>
<path d="M411.002 245.052V1012.32L7.32617 938.412L99.5352 560.471L99.5596 560.371L99.5332 560.272L0.541016 190.475L411.002 245.052ZM746.068 560.272L746.042 560.371L746.066 560.471L838.274 938.412L434.599 1012.32L434.6 245.052L845.06 190.475L746.068 560.272ZM603.954 891.607L493.411 906.423L493.064 906.469V935.79L493.537 935.703L604.08 915.189L604.407 915.129V891.547L603.954 891.607ZM719.063 873.372L639.29 882.489L638.936 882.529V911.858L639.409 911.771L719.182 896.955L719.509 896.895V873.321L719.063 873.372ZM731.575 784.484L488.837 824.371L488.502 824.426V853.733L488.972 853.649L731.711 810.345L732.04 810.285V784.408L731.575 784.484ZM727.013 700.156L484.274 740.043L483.939 740.098V769.405L484.409 769.321L727.148 726.017L727.478 725.957V700.08L727.013 700.156ZM722.45 570.242L479.712 610.129L479.377 610.184V686.225L479.854 686.131L722.593 638.267L722.915 638.203V570.166L722.45 570.242ZM590.271 510.979L479.728 525.794L479.381 525.84V555.161L479.854 555.074L590.396 534.561L590.724 534.5V510.918L590.271 510.979ZM709.935 490.462L630.161 499.579L629.807 499.619V528.948L630.28 528.86L710.053 514.045L710.38 513.984V490.411L709.935 490.462ZM731.575 403.852L488.837 443.738L488.502 443.793V473.101L488.972 473.017L731.711 429.712L732.04 429.652V403.775L731.575 403.852ZM731.569 285.337L630.144 303.57L629.814 303.63V379.663L630.289 379.572L731.716 360.198L732.04 360.137V285.252L731.569 285.337ZM600.54 333.194L520.767 342.312L520.412 342.352V371.681L520.886 371.593L600.658 356.777L600.985 356.717V333.144L600.54 333.194ZM353.689 911.029L353.342 910.983L242.799 896.168L242.346 896.107V919.689L242.673 919.75L353.216 940.264L353.689 940.351V911.029ZM206.673 880.252L206.318 880.212L126.546 871.095L126.1 871.044V894.617L126.427 894.678L206.2 909.493L206.673 909.581V880.252ZM358.244 828.982L357.909 828.928L115.17 789.041L114.705 788.965V814.842L115.035 814.901L357.773 858.206L358.244 858.29V828.982ZM353.689 740.098L353.354 740.043L110.615 700.156L110.15 700.08V725.957L110.48 726.017L353.219 769.321L353.689 769.405V740.098ZM353.686 614.745L353.356 614.686L251.93 596.452L251.459 596.367V671.252L251.784 671.313L353.21 690.688L353.686 690.778V614.745ZM215.786 613.576L215.432 613.536L135.659 604.419L135.213 604.368V627.941L135.54 628.002L215.313 642.817L215.786 642.905V613.576ZM365.088 525.84L364.74 525.794L254.197 510.979L253.744 510.918V534.5L254.071 534.561L364.614 555.074L365.088 555.161V525.84ZM221.485 500.756L221.131 500.716L141.358 491.599L140.912 491.548V515.121L141.239 515.182L221.013 529.997L221.485 530.085V500.756ZM353.689 443.793L353.354 443.738L110.615 403.852L110.15 403.775V429.652L110.48 429.712L353.219 473.017L353.689 473.101V443.793ZM337.732 315.018L337.397 314.963L94.6582 275.076L94.1934 275V343.037L94.5166 343.101L337.255 390.965L337.732 391.059V315.018Z" fill="white" stroke="#9D70F9" stroke-width="0.8"/>
<path d="M61.2031 573H128.403" stroke="#9D70F9" stroke-width="29" stroke-linecap="round"/>
<path d="M51.6016 601.801H118.802" stroke="#9D70F9" stroke-width="29" stroke-linecap="round"/>
<path d="M70.8008 630.6H138.001" stroke="#9D70F9" stroke-width="29" stroke-linecap="round"/>
<path d="M776.402 573H709.202" stroke="#9D70F9" stroke-width="29" stroke-linecap="round"/>
<path d="M786 601.801H718.8" stroke="#9D70F9" stroke-width="29" stroke-linecap="round"/>
<path d="M766.801 630.6H699.601" stroke="#9D70F9" stroke-width="29" stroke-linecap="round"/>
</svg>
