<svg width="24" height="24" viewBox="0 0 157 131" fill="none" xmlns="http://www.w3.org/2000/svg">
<path d="M155.146 2.92228C156.434 5.5328 155.39 8.70691 152.815 10.0122L124.856 24.1851C124.987 24.5183 125.1 24.8628 125.194 25.2177L129.014 39.672C129.118 39.6596 129.223 39.65 129.329 39.6437L151.481 38.3226C154.355 38.1511 156.822 40.374 156.991 43.2876C157.16 46.2012 154.967 48.7018 152.094 48.8733L129.941 50.1944C128.837 50.2602 127.793 49.9727 126.916 49.4284C126.321 50.0396 125.638 50.5712 124.879 51L116 18.3695C116.269 18.3576 116.537 18.3582 116.803 18.3706C117.19 16.9948 118.123 15.7815 119.485 15.0913L148.153 0.559065C150.728 -0.746196 153.859 0.312018 155.146 2.92228Z" fill="#FF5656"/>
<path fill-rule="evenodd" clip-rule="evenodd" d="M98.9296 83.9175C98.9296 83.3245 98.8304 82.7546 98.648 82.2233C99.5187 81.5718 100.306 80.8279 101 80.0099L82.0811 11.648C79.564 10.867 76.8024 10.7634 74.0679 11.4937L24.2683 24.7948L34.1357 60.0132C34.9153 62.7961 33.2841 65.682 30.4924 66.4591C27.7009 67.2362 24.8057 65.6103 24.0261 62.8275L14.129 27.5028L10.7007 28.4185C3.00145 30.475 -1.56765 38.3634 0.495358 46.0381L12.6194 91.1408C14.7358 99.014 22.9854 103.564 30.8015 101.168L36.5141 99.4176L38.9661 65.2017C39.6888 55.1138 48.11 47.2978 58.2561 47.2978C68.4022 47.2978 76.8234 55.1138 77.5464 65.2017L79.198 88.2502L88.4332 85.9347V92.5961C88.4332 95.0324 86.7462 97.1459 84.3651 97.6936L75.4445 99.7456C75.2138 99.7987 74.9902 99.8662 74.7745 99.947L72.3113 65.5745C71.7846 58.2241 65.6487 52.5292 58.2561 52.5292C50.8635 52.5292 44.7276 58.2241 44.2009 65.5745L40.2624 120.537H25.4549C22.5563 120.537 20.2067 122.879 20.2067 125.769C20.2067 128.658 22.5563 131 25.4549 131H89.7453C92.6438 131 94.9934 128.658 94.9934 125.769C94.9934 122.879 92.6438 120.537 89.7453 120.537H76.2498L75.4914 109.952C76.2309 110.116 77.0176 110.122 77.8048 109.941L86.7252 107.889C93.869 106.245 98.9296 99.9044 98.9296 92.5961V83.9175ZM63.5043 70.8391C63.5043 73.7284 61.1547 76.0704 58.2561 76.0704C55.3575 76.0704 53.0079 73.7284 53.0079 70.8391C53.0079 67.9498 55.3575 65.6077 58.2561 65.6077C61.1547 65.6077 63.5043 67.9498 63.5043 70.8391Z" fill="white"/>
<path d="M94.1204 14.4894C97.9511 13.4351 101.837 14.134 104.971 16.1076L118 64.6214C116.334 68.0857 113.313 70.8412 109.437 72L94 14.5223L94.1204 14.4894Z" fill="white"/>
</svg>
