<svg width="24" height="24" viewBox="0 0 95 119" fill="none" xmlns="http://www.w3.org/2000/svg">
<path d="M83.125 66.6844V47.7169C83.1165 39.2658 80.131 31.0904 74.6974 24.6385C69.2638 18.1866 61.7325 13.8746 53.4375 12.466V5.96461C53.4375 4.3827 52.8119 2.86558 51.6984 1.74699C50.5849 0.628412 49.0747 0 47.5 0C45.9253 0 44.4151 0.628412 43.3016 1.74699C42.1881 2.86558 41.5625 4.3827 41.5625 5.96461V12.466C33.2675 13.8746 25.7362 18.1866 20.3026 24.6385C14.869 31.0904 11.8835 39.2658 11.875 47.7169V66.6844C8.41018 67.915 5.40905 70.192 3.28307 73.2033C1.15709 76.2146 0.0103283 79.8128 0 83.5046V95.4338C0 97.0157 0.625557 98.5329 1.73905 99.6514C2.85255 100.77 4.36278 101.398 5.9375 101.398H24.5813C25.9486 106.453 28.9334 110.914 33.0754 114.095C37.2174 117.277 42.2863 119 47.5 119C52.7137 119 57.7826 117.277 61.9246 114.095C66.0666 110.914 69.0514 106.453 70.4187 101.398H89.0625C90.6372 101.398 92.1475 100.77 93.2609 99.6514C94.3744 98.5329 95 97.0157 95 95.4338V83.5046C94.9897 79.8128 93.8429 76.2146 91.7169 73.2033C89.591 70.192 86.5898 67.915 83.125 66.6844ZM23.75 47.7169C23.75 41.3892 26.2522 35.3208 30.7062 30.8464C35.1602 26.3721 41.2011 23.8585 47.5 23.8585C53.7989 23.8585 59.8398 26.3721 64.2938 30.8464C68.7478 35.3208 71.25 41.3892 71.25 47.7169V65.6107H23.75V47.7169ZM47.5 107.363C45.4277 107.35 43.3947 106.793 41.6031 105.747C39.8115 104.701 38.3237 103.201 37.2875 101.398H57.7125C56.6763 103.201 55.1885 104.701 53.3969 105.747C51.6053 106.793 49.5723 107.35 47.5 107.363ZM83.125 89.4692H11.875V83.5046C11.875 81.9227 12.5006 80.4055 13.6141 79.287C14.7276 78.1684 16.2378 77.54 17.8125 77.54H77.1875C78.7622 77.54 80.2725 78.1684 81.3859 79.287C82.4994 80.4055 83.125 81.9227 83.125 83.5046V89.4692Z" fill="#5F3DC4"/>
</svg>
