<svg width="866" height="610" viewBox="0 0 866 610" fill="none" xmlns="http://www.w3.org/2000/svg">
<path d="M14.9287 156.767L98.5774 11.8832H265.875L349.524 156.767L265.875 301.651H98.5774L14.9287 156.767Z" stroke="#D1D1D1" stroke-width="3"/>
<path d="M172.557 137.651L154.526 119.62C154.526 119.62 155.407 118.298 156.99 116.073L142.505 101.588L166.547 89.5676L172.878 95.8987C175.602 92.78 175.521 92.6146 178.567 89.5676C180.636 87.4994 182.875 85.7158 185.198 84.1778C199.756 74.5416 217.635 74.5416 217.635 74.5416C217.635 74.5416 217.635 92.4204 207.999 106.978C206.461 109.302 204.677 111.541 202.609 113.609C199.562 116.656 199.397 116.574 196.278 119.299L202.609 125.63L190.588 149.672L176.104 135.187C173.878 136.77 172.557 137.651 172.557 137.651Z" fill="#FF5656"/>
<path d="M161.1 144.875C164.9 140.875 164.8 134.575 160.9 130.775C157 127.075 150.9 127.075 147 130.775C143 134.575 138 153.775 138 153.775C138 153.775 157.2 148.775 161.1 144.875Z" fill="#9D70F9"/>
<path d="M161 137.776C162.7 135.576 162.2 132.476 160 130.776C158.2 129.476 155.8 129.476 154 130.776C152 132.776 149 142.776 149 142.776C149 142.776 159.1 139.776 161 137.776Z" fill="#FF5656"/>
<path d="M124.154 209V186.6H132.314C133.498 186.6 134.565 186.845 135.514 187.336C136.474 187.816 137.232 188.509 137.786 189.416C138.352 190.312 138.634 191.373 138.634 192.6C138.634 193.144 138.554 193.693 138.394 194.248C138.234 194.803 137.989 195.304 137.658 195.752C137.328 196.189 136.901 196.515 136.378 196.728C137.072 196.899 137.637 197.208 138.074 197.656C138.512 198.104 138.853 198.632 139.098 199.24C139.344 199.837 139.509 200.451 139.594 201.08C139.69 201.699 139.738 202.275 139.738 202.808C139.738 203.992 139.445 205.048 138.858 205.976C138.272 206.904 137.482 207.64 136.49 208.184C135.509 208.728 134.421 209 133.226 209H124.154ZM128.058 205.656H132.826C133.466 205.656 134.042 205.501 134.554 205.192C135.066 204.883 135.477 204.456 135.786 203.912C136.096 203.368 136.25 202.749 136.25 202.056C136.25 201.459 136.096 200.893 135.786 200.36C135.477 199.827 135.066 199.395 134.554 199.064C134.042 198.733 133.466 198.568 132.826 198.568H128.058V205.656ZM128.058 195.272H131.866C132.656 195.272 133.328 195.027 133.882 194.536C134.448 194.045 134.73 193.395 134.73 192.584C134.73 191.72 134.448 191.069 133.882 190.632C133.328 190.184 132.656 189.96 131.866 189.96H128.058V195.272ZM141.671 203.08V193H145.575V202.056C145.575 202.685 145.729 203.261 146.039 203.784C146.348 204.296 146.759 204.707 147.271 205.016C147.793 205.315 148.364 205.464 148.983 205.464C149.623 205.464 150.199 205.315 150.711 205.016C151.223 204.707 151.633 204.296 151.943 203.784C152.252 203.261 152.407 202.685 152.407 202.056V193H156.311L156.327 209H152.423L152.407 207.544C151.852 208.12 151.196 208.579 150.439 208.92C149.681 209.251 148.871 209.416 148.007 209.416C146.844 209.416 145.783 209.133 144.823 208.568C143.863 207.992 143.095 207.229 142.519 206.28C141.953 205.32 141.671 204.253 141.671 203.08ZM164.249 209.288C163.417 209.235 162.612 209.069 161.833 208.792C161.065 208.504 160.383 208.115 159.785 207.624C159.188 207.133 158.729 206.547 158.409 205.864L161.705 204.456C161.833 204.669 162.041 204.899 162.329 205.144C162.617 205.379 162.959 205.576 163.353 205.736C163.759 205.896 164.201 205.976 164.681 205.976C165.087 205.976 165.471 205.923 165.833 205.816C166.207 205.699 166.505 205.523 166.729 205.288C166.964 205.053 167.081 204.749 167.081 204.376C167.081 203.981 166.943 203.677 166.665 203.464C166.399 203.24 166.057 203.075 165.641 202.968C165.236 202.851 164.841 202.744 164.457 202.648C163.444 202.445 162.5 202.131 161.625 201.704C160.761 201.277 160.063 200.728 159.529 200.056C159.007 199.373 158.745 198.552 158.745 197.592C158.745 196.536 159.023 195.624 159.577 194.856C160.143 194.088 160.873 193.496 161.769 193.08C162.676 192.664 163.652 192.456 164.697 192.456C165.967 192.456 167.129 192.723 168.185 193.256C169.252 193.779 170.095 194.52 170.713 195.48L167.625 197.304C167.476 197.048 167.268 196.813 167.001 196.6C166.735 196.376 166.431 196.195 166.089 196.056C165.748 195.907 165.391 195.821 165.017 195.8C164.537 195.779 164.1 195.821 163.705 195.928C163.311 196.035 162.991 196.216 162.745 196.472C162.511 196.728 162.393 197.069 162.393 197.496C162.393 197.901 162.553 198.205 162.873 198.408C163.193 198.6 163.577 198.749 164.025 198.856C164.484 198.963 164.921 199.08 165.337 199.208C166.276 199.517 167.156 199.896 167.977 200.344C168.809 200.792 169.476 201.341 169.977 201.992C170.479 202.643 170.719 203.421 170.697 204.328C170.697 205.363 170.388 206.269 169.769 207.048C169.151 207.816 168.351 208.403 167.369 208.808C166.399 209.213 165.359 209.373 164.249 209.288ZM173.061 193H176.965V209H173.061V193ZM175.045 190.936C174.469 190.936 173.983 190.749 173.589 190.376C173.194 189.992 172.997 189.512 172.997 188.936C172.997 188.371 173.194 187.896 173.589 187.512C173.983 187.128 174.463 186.936 175.029 186.936C175.594 186.936 176.069 187.128 176.453 187.512C176.847 187.896 177.045 188.371 177.045 188.936C177.045 189.512 176.853 189.992 176.469 190.376C176.085 190.749 175.61 190.936 175.045 190.936ZM195.342 198.888V209H191.438V199.912C191.438 199.283 191.283 198.712 190.974 198.2C190.664 197.677 190.248 197.267 189.726 196.968C189.214 196.659 188.643 196.504 188.014 196.504C187.384 196.504 186.808 196.659 186.286 196.968C185.774 197.267 185.363 197.677 185.054 198.2C184.755 198.712 184.606 199.283 184.606 199.912V209H180.702L180.686 193H184.59L184.606 194.424C185.15 193.848 185.8 193.395 186.558 193.064C187.315 192.723 188.131 192.552 189.006 192.552C190.168 192.552 191.23 192.84 192.19 193.416C193.15 193.981 193.912 194.744 194.478 195.704C195.054 196.653 195.342 197.715 195.342 198.888ZM205.257 209.416C203.785 209.416 202.441 209.037 201.225 208.28C200.02 207.523 199.054 206.504 198.329 205.224C197.614 203.944 197.257 202.531 197.257 200.984C197.257 199.821 197.465 198.733 197.881 197.72C198.297 196.696 198.868 195.8 199.593 195.032C200.329 194.253 201.182 193.645 202.153 193.208C203.124 192.771 204.158 192.552 205.257 192.552C206.505 192.552 207.646 192.819 208.681 193.352C209.726 193.875 210.612 194.595 211.337 195.512C212.062 196.429 212.59 197.475 212.921 198.648C213.252 199.821 213.326 201.048 213.145 202.328H201.449C201.598 202.925 201.844 203.464 202.185 203.944C202.526 204.413 202.958 204.792 203.481 205.08C204.004 205.357 204.596 205.501 205.257 205.512C205.94 205.523 206.558 205.363 207.113 205.032C207.678 204.691 208.148 204.232 208.521 203.656L212.505 204.584C211.854 206.003 210.884 207.165 209.593 208.072C208.302 208.968 206.857 209.416 205.257 209.416ZM201.321 199.4H209.193C209.076 198.76 208.825 198.184 208.441 197.672C208.068 197.149 207.604 196.733 207.049 196.424C206.494 196.115 205.897 195.96 205.257 195.96C204.617 195.96 204.025 196.115 203.481 196.424C202.937 196.723 202.473 197.133 202.089 197.656C201.716 198.168 201.46 198.749 201.321 199.4ZM220.593 209.288C219.761 209.235 218.956 209.069 218.177 208.792C217.409 208.504 216.726 208.115 216.129 207.624C215.532 207.133 215.073 206.547 214.753 205.864L218.049 204.456C218.177 204.669 218.385 204.899 218.673 205.144C218.961 205.379 219.302 205.576 219.697 205.736C220.102 205.896 220.545 205.976 221.025 205.976C221.43 205.976 221.814 205.923 222.177 205.816C222.55 205.699 222.849 205.523 223.073 205.288C223.308 205.053 223.425 204.749 223.425 204.376C223.425 203.981 223.286 203.677 223.009 203.464C222.742 203.24 222.401 203.075 221.985 202.968C221.58 202.851 221.185 202.744 220.801 202.648C219.788 202.445 218.844 202.131 217.969 201.704C217.105 201.277 216.406 200.728 215.873 200.056C215.35 199.373 215.089 198.552 215.089 197.592C215.089 196.536 215.366 195.624 215.921 194.856C216.486 194.088 217.217 193.496 218.113 193.08C219.02 192.664 219.996 192.456 221.041 192.456C222.31 192.456 223.473 192.723 224.529 193.256C225.596 193.779 226.438 194.52 227.057 195.48L223.969 197.304C223.82 197.048 223.612 196.813 223.345 196.6C223.078 196.376 222.774 196.195 222.433 196.056C222.092 195.907 221.734 195.821 221.361 195.8C220.881 195.779 220.444 195.821 220.049 195.928C219.654 196.035 219.334 196.216 219.089 196.472C218.854 196.728 218.737 197.069 218.737 197.496C218.737 197.901 218.897 198.205 219.217 198.408C219.537 198.6 219.921 198.749 220.369 198.856C220.828 198.963 221.265 199.08 221.681 199.208C222.62 199.517 223.5 199.896 224.321 200.344C225.153 200.792 225.82 201.341 226.321 201.992C226.822 202.643 227.062 203.421 227.041 204.328C227.041 205.363 226.732 206.269 226.113 207.048C225.494 207.816 224.694 208.403 223.713 208.808C222.742 209.213 221.702 209.373 220.593 209.288ZM234.499 209.288C233.667 209.235 232.862 209.069 232.083 208.792C231.315 208.504 230.633 208.115 230.035 207.624C229.438 207.133 228.979 206.547 228.659 205.864L231.955 204.456C232.083 204.669 232.291 204.899 232.579 205.144C232.867 205.379 233.209 205.576 233.603 205.736C234.009 205.896 234.451 205.976 234.931 205.976C235.337 205.976 235.721 205.923 236.083 205.816C236.457 205.699 236.755 205.523 236.979 205.288C237.214 205.053 237.331 204.749 237.331 204.376C237.331 203.981 237.193 203.677 236.915 203.464C236.649 203.24 236.307 203.075 235.891 202.968C235.486 202.851 235.091 202.744 234.707 202.648C233.694 202.445 232.75 202.131 231.875 201.704C231.011 201.277 230.313 200.728 229.779 200.056C229.257 199.373 228.995 198.552 228.995 197.592C228.995 196.536 229.273 195.624 229.827 194.856C230.393 194.088 231.123 193.496 232.019 193.08C232.926 192.664 233.902 192.456 234.947 192.456C236.217 192.456 237.379 192.723 238.435 193.256C239.502 193.779 240.345 194.52 240.963 195.48L237.875 197.304C237.726 197.048 237.518 196.813 237.251 196.6C236.985 196.376 236.681 196.195 236.339 196.056C235.998 195.907 235.641 195.821 235.267 195.8C234.787 195.779 234.35 195.821 233.955 195.928C233.561 196.035 233.241 196.216 232.995 196.472C232.761 196.728 232.643 197.069 232.643 197.496C232.643 197.901 232.803 198.205 233.123 198.408C233.443 198.6 233.827 198.749 234.275 198.856C234.734 198.963 235.171 199.08 235.587 199.208C236.526 199.517 237.406 199.896 238.227 200.344C239.059 200.792 239.726 201.341 240.227 201.992C240.729 202.643 240.969 203.421 240.947 204.328C240.947 205.363 240.638 206.269 240.019 207.048C239.401 207.816 238.601 208.403 237.619 208.808C236.649 209.213 235.609 209.373 234.499 209.288ZM135.217 247V224.6H149.265V228.504H139.121V233.048H147.169V236.952H139.121V243.096H149.265V247H135.217ZM167.435 236.888V247H163.531V237.912C163.531 237.283 163.377 236.712 163.067 236.2C162.758 235.677 162.342 235.267 161.819 234.968C161.307 234.659 160.737 234.504 160.107 234.504C159.478 234.504 158.902 234.659 158.379 234.968C157.867 235.267 157.457 235.677 157.147 236.2C156.849 236.712 156.699 237.283 156.699 237.912V247H152.795L152.779 231H156.683L156.699 232.424C157.243 231.848 157.894 231.395 158.651 231.064C159.409 230.723 160.225 230.552 161.099 230.552C162.262 230.552 163.323 230.84 164.283 231.416C165.243 231.981 166.006 232.744 166.571 233.704C167.147 234.653 167.435 235.715 167.435 236.888ZM182.183 231H186.087V247.304C186.087 248.456 185.852 249.501 185.383 250.44C184.913 251.389 184.273 252.2 183.463 252.872C182.652 253.555 181.724 254.077 180.679 254.44C179.633 254.813 178.535 255 177.383 255C176.263 255 175.185 254.771 174.151 254.312C173.116 253.853 172.199 253.224 171.399 252.424C170.609 251.635 170.007 250.733 169.591 249.72L173.159 248.104C173.372 248.691 173.692 249.203 174.119 249.64C174.556 250.088 175.057 250.435 175.623 250.68C176.188 250.936 176.775 251.064 177.383 251.064C178.001 251.064 178.593 250.979 179.159 250.808C179.735 250.637 180.252 250.387 180.711 250.056C181.169 249.736 181.527 249.341 181.783 248.872C182.049 248.413 182.183 247.891 182.183 247.304V245.048C181.681 245.752 181.052 246.323 180.295 246.76C179.537 247.197 178.663 247.416 177.671 247.416C176.519 247.416 175.441 247.197 174.439 246.76C173.436 246.323 172.551 245.72 171.783 244.952C171.025 244.173 170.428 243.277 169.991 242.264C169.564 241.251 169.351 240.163 169.351 239C169.351 237.837 169.564 236.749 169.991 235.736C170.428 234.723 171.025 233.832 171.783 233.064C172.551 232.285 173.436 231.677 174.439 231.24C175.441 230.803 176.519 230.584 177.671 230.584C178.663 230.584 179.537 230.803 180.295 231.24C181.052 231.667 181.681 232.232 182.183 232.936V231ZM177.719 243.656C178.54 243.656 179.265 243.448 179.895 243.032C180.535 242.605 181.036 242.04 181.399 241.336C181.761 240.621 181.943 239.843 181.943 239C181.943 238.147 181.756 237.368 181.383 236.664C181.02 235.96 180.519 235.395 179.879 234.968C179.249 234.541 178.529 234.328 177.719 234.328C176.919 234.328 176.188 234.541 175.527 234.968C174.865 235.384 174.337 235.944 173.943 236.648C173.548 237.352 173.351 238.136 173.351 239C173.351 239.864 173.548 240.648 173.943 241.352C174.337 242.056 174.865 242.616 175.527 243.032C176.188 243.448 176.919 243.656 177.719 243.656ZM189.561 231H193.465V247H189.561V231ZM191.545 228.936C190.969 228.936 190.483 228.749 190.089 228.376C189.694 227.992 189.497 227.512 189.497 226.936C189.497 226.371 189.694 225.896 190.089 225.512C190.483 225.128 190.963 224.936 191.529 224.936C192.094 224.936 192.569 225.128 192.953 225.512C193.347 225.896 193.545 226.371 193.545 226.936C193.545 227.512 193.353 227.992 192.969 228.376C192.585 228.749 192.11 228.936 191.545 228.936ZM211.842 236.888V247H207.938V237.912C207.938 237.283 207.783 236.712 207.474 236.2C207.164 235.677 206.748 235.267 206.226 234.968C205.714 234.659 205.143 234.504 204.514 234.504C203.884 234.504 203.308 234.659 202.786 234.968C202.274 235.267 201.863 235.677 201.554 236.2C201.255 236.712 201.106 237.283 201.106 237.912V247H197.202L197.186 231H201.09L201.106 232.424C201.65 231.848 202.3 231.395 203.058 231.064C203.815 230.723 204.631 230.552 205.506 230.552C206.668 230.552 207.73 230.84 208.69 231.416C209.65 231.981 210.412 232.744 210.978 233.704C211.554 234.653 211.842 235.715 211.842 236.888ZM221.757 247.416C220.285 247.416 218.941 247.037 217.725 246.28C216.52 245.523 215.554 244.504 214.829 243.224C214.114 241.944 213.757 240.531 213.757 238.984C213.757 237.821 213.965 236.733 214.381 235.72C214.797 234.696 215.368 233.8 216.093 233.032C216.829 232.253 217.682 231.645 218.653 231.208C219.624 230.771 220.658 230.552 221.757 230.552C223.005 230.552 224.146 230.819 225.181 231.352C226.226 231.875 227.112 232.595 227.837 233.512C228.562 234.429 229.09 235.475 229.421 236.648C229.752 237.821 229.826 239.048 229.645 240.328H217.949C218.098 240.925 218.344 241.464 218.685 241.944C219.026 242.413 219.458 242.792 219.981 243.08C220.504 243.357 221.096 243.501 221.757 243.512C222.44 243.523 223.058 243.363 223.613 243.032C224.178 242.691 224.648 242.232 225.021 241.656L229.005 242.584C228.354 244.003 227.384 245.165 226.093 246.072C224.802 246.968 223.357 247.416 221.757 247.416ZM217.821 237.4H225.693C225.576 236.76 225.325 236.184 224.941 235.672C224.568 235.149 224.104 234.733 223.549 234.424C222.994 234.115 222.397 233.96 221.757 233.96C221.117 233.96 220.525 234.115 219.981 234.424C219.437 234.723 218.973 235.133 218.589 235.656C218.216 236.168 217.96 236.749 217.821 237.4Z" fill="white"/>
<path d="M516.694 156.768L600.343 11.8837H767.64L851.289 156.768L767.64 301.651H600.343L516.694 156.768Z" stroke="#D1D1D1" stroke-width="3"/>
<path d="M516 445.884L599.649 301H766.946L850.595 445.884L766.946 590.768H599.649L516 445.884Z" stroke="#D1D1D1" stroke-width="3"/>
<path d="M14.9287 446.535L98.5774 301.651H265.875L349.524 446.535L265.875 591.418H98.5774L14.9287 446.535Z" stroke="#D1D1D1" stroke-width="3"/>
<path d="M527.951 301.651C527.951 354.67 484.971 397.651 431.951 397.651C378.932 397.651 335.951 354.67 335.951 301.651C335.951 248.632 378.932 205.651 431.951 205.651C484.971 205.651 527.951 248.632 527.951 301.651ZM354.774 301.651C354.774 344.275 389.327 378.828 431.951 378.828C474.575 378.828 509.128 344.275 509.128 301.651C509.128 259.027 474.575 224.474 431.951 224.474C389.327 224.474 354.774 259.027 354.774 301.651Z" fill="white"/>
<path d="M527.951 301.651C527.951 289.044 525.468 276.561 520.644 264.913C515.819 253.266 508.748 242.683 499.833 233.769C490.919 224.854 480.336 217.783 468.689 212.958C457.042 208.134 444.558 205.651 431.951 205.651L445.201 215.151L431.951 224.651C442.037 224.651 452.023 226.837 461.341 230.697C470.659 234.556 479.125 240.214 486.257 247.345C493.389 254.477 499.046 262.943 502.905 272.261C506.765 281.579 508.951 291.565 508.951 301.651L518.351 315.151L527.951 301.651Z" fill="#FF5656"/>
<path d="M335.951 301.651C335.951 314.258 338.434 326.741 343.259 338.388C348.083 350.036 355.154 360.619 364.069 369.533C372.983 378.448 383.566 385.519 395.214 390.343C406.861 395.168 419.344 397.651 431.951 397.651L419.451 388.051L431.951 378.451C421.866 378.451 411.879 376.464 402.561 372.605C393.243 368.745 384.777 363.088 377.645 355.957C370.514 348.825 364.857 340.359 360.997 331.041C357.138 321.723 354.951 311.736 354.951 301.651L345.551 288.651L335.951 301.651Z" fill="#111111"/>
<path d="M527.951 301.651C527.951 354.67 484.971 397.651 431.951 397.651C378.932 397.651 335.951 354.67 335.951 301.651C335.951 248.632 378.932 205.651 431.951 205.651C484.971 205.651 527.951 248.632 527.951 301.651ZM354.774 301.651C354.774 344.275 389.327 378.828 431.951 378.828C474.575 378.828 509.128 344.275 509.128 301.651C509.128 259.027 474.575 224.474 431.951 224.474C389.327 224.474 354.774 259.027 354.774 301.651Z" fill="white"/>
<path d="M527.951 301.651C527.951 289.044 525.468 276.561 520.644 264.913C515.819 253.266 508.748 242.683 499.833 233.769C490.919 224.854 480.336 217.783 468.689 212.958C457.042 208.134 444.558 205.651 431.951 205.651L445.201 215.151L431.951 224.651C442.037 224.651 452.023 226.837 461.341 230.697C470.659 234.556 479.125 240.214 486.257 247.345C493.389 254.477 499.046 262.943 502.905 272.261C506.765 281.579 508.951 291.565 508.951 301.651L518.351 315.151L527.951 301.651Z" fill="#FF5656"/>
<path d="M335.951 301.651C335.951 314.258 338.434 326.741 343.259 338.388C348.083 350.036 355.154 360.619 364.069 369.533C372.983 378.448 383.566 385.519 395.214 390.343C406.861 395.168 419.344 397.651 431.951 397.651L419.451 388.051L431.951 378.451C421.866 378.451 411.879 376.464 402.561 372.605C393.243 368.745 384.777 363.088 377.645 355.957C370.514 348.825 364.857 340.359 360.997 331.041C357.138 321.723 354.951 311.736 354.951 301.651L345.551 288.651L335.951 301.651Z" fill="#111111"/>
<path d="M265.824 301.651L349.473 156.767H516.77L600.419 301.651L516.77 446.535H349.473L265.824 301.651Z" fill="#9D70F9"/>
<path d="M388.2 353V269H420C424.6 269 428.76 269.96 432.48 271.88C436.2 273.76 439.14 276.44 441.3 279.92C443.5 283.4 444.6 287.48 444.6 292.16C444.6 293.92 444.38 295.78 443.94 297.74C443.5 299.66 442.72 301.46 441.6 303.14C440.48 304.82 438.88 306.14 436.8 307.1C439.48 307.74 441.6 308.94 443.16 310.7C444.72 312.46 445.88 314.5 446.64 316.82C447.44 319.1 447.96 321.42 448.2 323.78C448.44 326.1 448.56 328.2 448.56 330.08C448.56 334.32 447.42 338.18 445.14 341.66C442.86 345.1 439.8 347.86 435.96 349.94C432.12 351.98 427.88 353 423.24 353H388.2ZM406.2 337.76H421.32C423.4 337.76 425.28 337.28 426.96 336.32C428.68 335.32 430.04 333.96 431.04 332.24C432.08 330.52 432.6 328.56 432.6 326.36C432.6 324.52 432.08 322.78 431.04 321.14C430.04 319.46 428.68 318.1 426.96 317.06C425.28 316.02 423.4 315.5 421.32 315.5H406.2V337.76ZM406.2 300.5H417.84C420.24 300.5 422.3 299.7 424.02 298.1C425.74 296.5 426.6 294.48 426.6 292.04C426.6 289.56 425.74 287.66 424.02 286.34C422.3 285.02 420.24 284.36 417.84 284.36H406.2V300.5ZM456.858 353V269H474.858V353H456.858Z" fill="white"/>
<path d="M528 309C528 362.019 485.019 405 432 405C378.981 405 336 362.019 336 309C336 255.981 378.981 213 432 213C485.019 213 528 255.981 528 309ZM354.823 309C354.823 351.624 389.376 386.177 432 386.177C474.624 386.177 509.177 351.624 509.177 309C509.177 266.376 474.624 231.823 432 231.823C389.376 231.823 354.823 266.376 354.823 309Z" fill="white"/>
<path d="M528 309C528 296.393 525.517 283.91 520.692 272.262C515.868 260.615 508.797 250.032 499.882 241.118C490.968 232.203 480.385 225.132 468.738 220.308C457.09 215.483 444.607 213 432 213L445.25 222.5L432 232C442.086 232 452.072 234.186 461.39 238.046C470.708 241.906 479.174 247.563 486.306 254.694C493.437 261.826 499.094 270.292 502.954 279.61C506.814 288.928 509 298.914 509 309L518.4 322.5L528 309Z" fill="#111111"/>
<path d="M336 309C336 321.607 338.483 334.09 343.308 345.738C348.132 357.385 355.203 367.968 364.118 376.882C373.032 385.797 383.615 392.868 395.262 397.692C406.91 402.517 419.393 405 432 405L419.5 395.4L432 385.8C421.914 385.8 411.928 383.814 402.61 379.954C393.292 376.094 384.826 370.437 377.694 363.306C370.563 356.174 364.906 347.708 361.046 338.39C357.186 329.072 355 319.086 355 309L345.6 296L336 309Z" fill="#FA5252"/>
<rect x="647.676" y="354.465" width="70" height="95" fill="#FF5656"/>
<rect x="660.676" y="378.465" width="44" height="6" fill="#111111"/>
<rect x="660.676" y="394.465" width="44" height="6" fill="#111111"/>
<rect x="660.676" y="410.465" width="44" height="6" fill="#111111"/>
<rect x="660.676" y="426.465" width="44" height="6" fill="#111111"/>
<rect x="664.676" y="347.465" width="37" height="11" fill="white"/>
<path d="M624.83 497.465V475.065H632.99C634.174 475.065 635.241 475.31 636.19 475.801C637.15 476.281 637.907 476.974 638.462 477.881C639.027 478.777 639.31 479.838 639.31 481.065C639.31 481.609 639.23 482.158 639.07 482.713C638.91 483.268 638.665 483.769 638.334 484.217C638.003 484.654 637.577 484.98 637.054 485.193C637.747 485.364 638.313 485.673 638.75 486.121C639.187 486.569 639.529 487.097 639.774 487.705C640.019 488.302 640.185 488.916 640.27 489.545C640.366 490.164 640.414 490.74 640.414 491.273C640.414 492.457 640.121 493.513 639.534 494.441C638.947 495.369 638.158 496.105 637.166 496.649C636.185 497.193 635.097 497.465 633.902 497.465H624.83ZM628.734 494.121H633.502C634.142 494.121 634.718 493.966 635.23 493.657C635.742 493.348 636.153 492.921 636.462 492.377C636.771 491.833 636.926 491.214 636.926 490.521C636.926 489.924 636.771 489.358 636.462 488.825C636.153 488.292 635.742 487.86 635.23 487.529C634.718 487.198 634.142 487.033 633.502 487.033H628.734V494.121ZM628.734 483.737H632.542C633.331 483.737 634.003 483.492 634.558 483.001C635.123 482.51 635.406 481.86 635.406 481.049C635.406 480.185 635.123 479.534 634.558 479.097C634.003 478.649 633.331 478.425 632.542 478.425H628.734V483.737ZM642.346 491.545V481.465H646.25V490.521C646.25 491.15 646.405 491.726 646.714 492.249C647.024 492.761 647.434 493.172 647.946 493.481C648.469 493.78 649.04 493.929 649.658 493.929C650.298 493.929 650.874 493.78 651.386 493.481C651.898 493.172 652.309 492.761 652.618 492.249C652.928 491.726 653.082 491.15 653.082 490.521V481.465H656.986L657.002 497.465H653.098L653.082 496.009C652.528 496.585 651.872 497.044 651.114 497.385C650.357 497.716 649.546 497.881 648.682 497.881C647.52 497.881 646.458 497.598 645.498 497.033C644.538 496.457 643.77 495.694 643.194 494.745C642.629 493.785 642.346 492.718 642.346 491.545ZM664.925 497.753C664.093 497.7 663.288 497.534 662.509 497.257C661.741 496.969 661.058 496.58 660.461 496.089C659.864 495.598 659.405 495.012 659.085 494.329L662.381 492.921C662.509 493.134 662.717 493.364 663.005 493.609C663.293 493.844 663.634 494.041 664.029 494.201C664.434 494.361 664.877 494.441 665.357 494.441C665.762 494.441 666.146 494.388 666.509 494.281C666.882 494.164 667.181 493.988 667.405 493.753C667.64 493.518 667.757 493.214 667.757 492.841C667.757 492.446 667.618 492.142 667.341 491.929C667.074 491.705 666.733 491.54 666.317 491.433C665.912 491.316 665.517 491.209 665.133 491.113C664.12 490.91 663.176 490.596 662.301 490.169C661.437 489.742 660.738 489.193 660.205 488.521C659.682 487.838 659.421 487.017 659.421 486.057C659.421 485.001 659.698 484.089 660.253 483.321C660.818 482.553 661.549 481.961 662.445 481.545C663.352 481.129 664.328 480.921 665.373 480.921C666.642 480.921 667.805 481.188 668.861 481.721C669.928 482.244 670.77 482.985 671.389 483.945L668.301 485.769C668.152 485.513 667.944 485.278 667.677 485.065C667.41 484.841 667.106 484.66 666.765 484.521C666.424 484.372 666.066 484.286 665.693 484.265C665.213 484.244 664.776 484.286 664.381 484.393C663.986 484.5 663.666 484.681 663.421 484.937C663.186 485.193 663.069 485.534 663.069 485.961C663.069 486.366 663.229 486.67 663.549 486.873C663.869 487.065 664.253 487.214 664.701 487.321C665.16 487.428 665.597 487.545 666.013 487.673C666.952 487.982 667.832 488.361 668.653 488.809C669.485 489.257 670.152 489.806 670.653 490.457C671.154 491.108 671.394 491.886 671.373 492.793C671.373 493.828 671.064 494.734 670.445 495.513C669.826 496.281 669.026 496.868 668.045 497.273C667.074 497.678 666.034 497.838 664.925 497.753ZM673.736 481.465H677.64V497.465H673.736V481.465ZM675.72 479.401C675.144 479.401 674.659 479.214 674.264 478.841C673.87 478.457 673.672 477.977 673.672 477.401C673.672 476.836 673.87 476.361 674.264 475.977C674.659 475.593 675.139 475.401 675.704 475.401C676.27 475.401 676.744 475.593 677.128 475.977C677.523 476.361 677.72 476.836 677.72 477.401C677.72 477.977 677.528 478.457 677.144 478.841C676.76 479.214 676.286 479.401 675.72 479.401ZM696.017 487.353V497.465H692.113V488.377C692.113 487.748 691.959 487.177 691.649 486.665C691.34 486.142 690.924 485.732 690.401 485.433C689.889 485.124 689.319 484.969 688.689 484.969C688.06 484.969 687.484 485.124 686.961 485.433C686.449 485.732 686.039 486.142 685.729 486.665C685.431 487.177 685.281 487.748 685.281 488.377V497.465H681.377L681.361 481.465H685.265L685.281 482.889C685.825 482.313 686.476 481.86 687.233 481.529C687.991 481.188 688.807 481.017 689.681 481.017C690.844 481.017 691.905 481.305 692.865 481.881C693.825 482.446 694.588 483.209 695.153 484.169C695.729 485.118 696.017 486.18 696.017 487.353ZM705.933 497.881C704.461 497.881 703.117 497.502 701.901 496.745C700.695 495.988 699.73 494.969 699.005 493.689C698.29 492.409 697.933 490.996 697.933 489.449C697.933 488.286 698.141 487.198 698.557 486.185C698.973 485.161 699.543 484.265 700.269 483.497C701.005 482.718 701.858 482.11 702.829 481.673C703.799 481.236 704.834 481.017 705.933 481.017C707.181 481.017 708.322 481.284 709.357 481.817C710.402 482.34 711.287 483.06 712.013 483.977C712.738 484.894 713.266 485.94 713.597 487.113C713.927 488.286 714.002 489.513 713.821 490.793H702.125C702.274 491.39 702.519 491.929 702.861 492.409C703.202 492.878 703.634 493.257 704.157 493.545C704.679 493.822 705.271 493.966 705.933 493.977C706.615 493.988 707.234 493.828 707.789 493.497C708.354 493.156 708.823 492.697 709.197 492.121L713.181 493.049C712.53 494.468 711.559 495.63 710.269 496.537C708.978 497.433 707.533 497.881 705.933 497.881ZM701.997 487.865H709.869C709.751 487.225 709.501 486.649 709.117 486.137C708.743 485.614 708.279 485.198 707.725 484.889C707.17 484.58 706.573 484.425 705.933 484.425C705.293 484.425 704.701 484.58 704.157 484.889C703.613 485.188 703.149 485.598 702.765 486.121C702.391 486.633 702.135 487.214 701.997 487.865ZM721.269 497.753C720.437 497.7 719.632 497.534 718.853 497.257C718.085 496.969 717.402 496.58 716.805 496.089C716.208 495.598 715.749 495.012 715.429 494.329L718.725 492.921C718.853 493.134 719.061 493.364 719.349 493.609C719.637 493.844 719.978 494.041 720.373 494.201C720.778 494.361 721.221 494.441 721.701 494.441C722.106 494.441 722.49 494.388 722.853 494.281C723.226 494.164 723.525 493.988 723.749 493.753C723.984 493.518 724.101 493.214 724.101 492.841C724.101 492.446 723.962 492.142 723.685 491.929C723.418 491.705 723.077 491.54 722.661 491.433C722.256 491.316 721.861 491.209 721.477 491.113C720.464 490.91 719.52 490.596 718.645 490.169C717.781 489.742 717.082 489.193 716.549 488.521C716.026 487.838 715.765 487.017 715.765 486.057C715.765 485.001 716.042 484.089 716.597 483.321C717.162 482.553 717.893 481.961 718.789 481.545C719.696 481.129 720.672 480.921 721.717 480.921C722.986 480.921 724.149 481.188 725.205 481.721C726.272 482.244 727.114 482.985 727.733 483.945L724.645 485.769C724.496 485.513 724.288 485.278 724.021 485.065C723.754 484.841 723.45 484.66 723.109 484.521C722.768 484.372 722.41 484.286 722.037 484.265C721.557 484.244 721.12 484.286 720.725 484.393C720.33 484.5 720.01 484.681 719.765 484.937C719.53 485.193 719.413 485.534 719.413 485.961C719.413 486.366 719.573 486.67 719.893 486.873C720.213 487.065 720.597 487.214 721.045 487.321C721.504 487.428 721.941 487.545 722.357 487.673C723.296 487.982 724.176 488.361 724.997 488.809C725.829 489.257 726.496 489.806 726.997 490.457C727.498 491.108 727.738 491.886 727.717 492.793C727.717 493.828 727.408 494.734 726.789 495.513C726.17 496.281 725.37 496.868 724.389 497.273C723.418 497.678 722.378 497.838 721.269 497.753ZM735.175 497.753C734.343 497.7 733.538 497.534 732.759 497.257C731.991 496.969 731.308 496.58 730.711 496.089C730.114 495.598 729.655 495.012 729.335 494.329L732.631 492.921C732.759 493.134 732.967 493.364 733.255 493.609C733.543 493.844 733.884 494.041 734.279 494.201C734.684 494.361 735.127 494.441 735.607 494.441C736.012 494.441 736.396 494.388 736.759 494.281C737.132 494.164 737.431 493.988 737.655 493.753C737.89 493.518 738.007 493.214 738.007 492.841C738.007 492.446 737.868 492.142 737.591 491.929C737.324 491.705 736.983 491.54 736.567 491.433C736.162 491.316 735.767 491.209 735.383 491.113C734.37 490.91 733.426 490.596 732.551 490.169C731.687 489.742 730.988 489.193 730.455 488.521C729.932 487.838 729.671 487.017 729.671 486.057C729.671 485.001 729.948 484.089 730.503 483.321C731.068 482.553 731.799 481.961 732.695 481.545C733.602 481.129 734.578 480.921 735.623 480.921C736.892 480.921 738.055 481.188 739.111 481.721C740.178 482.244 741.02 482.985 741.639 483.945L738.551 485.769C738.402 485.513 738.194 485.278 737.927 485.065C737.66 484.841 737.356 484.66 737.015 484.521C736.674 484.372 736.316 484.286 735.943 484.265C735.463 484.244 735.026 484.286 734.631 484.393C734.236 484.5 733.916 484.681 733.671 484.937C733.436 485.193 733.319 485.534 733.319 485.961C733.319 486.366 733.479 486.67 733.799 486.873C734.119 487.065 734.503 487.214 734.951 487.321C735.41 487.428 735.847 487.545 736.263 487.673C737.202 487.982 738.082 488.361 738.903 488.809C739.735 489.257 740.402 489.806 740.903 490.457C741.404 491.108 741.644 491.886 741.623 492.793C741.623 493.828 741.314 494.734 740.695 495.513C740.076 496.281 739.276 496.868 738.295 497.273C737.324 497.678 736.284 497.838 735.175 497.753ZM614.127 535.465V513.065H622.719C623.935 513.065 625.034 513.369 626.015 513.977C626.996 514.585 627.775 515.401 628.351 516.425C628.927 517.438 629.215 518.564 629.215 519.801C629.215 520.814 629.028 521.748 628.655 522.601C628.292 523.444 627.78 524.174 627.119 524.793C626.468 525.412 625.716 525.881 624.863 526.201L630.223 535.465H625.727L620.543 526.553H618.031V535.465H614.127ZM618.031 522.649H622.271C622.826 522.649 623.332 522.51 623.791 522.233C624.25 521.956 624.618 521.582 624.895 521.113C625.172 520.644 625.311 520.121 625.311 519.545C625.311 518.958 625.172 518.43 624.895 517.961C624.618 517.492 624.25 517.118 623.791 516.841C623.332 516.564 622.826 516.425 622.271 516.425H618.031V522.649ZM639.23 535.881C637.758 535.881 636.414 535.502 635.198 534.745C633.992 533.988 633.027 532.969 632.302 531.689C631.587 530.409 631.23 528.996 631.23 527.449C631.23 526.286 631.438 525.198 631.854 524.185C632.27 523.161 632.84 522.265 633.566 521.497C634.302 520.718 635.155 520.11 636.126 519.673C637.096 519.236 638.131 519.017 639.23 519.017C640.478 519.017 641.619 519.284 642.654 519.817C643.699 520.34 644.584 521.06 645.31 521.977C646.035 522.894 646.563 523.94 646.894 525.113C647.224 526.286 647.299 527.513 647.118 528.793H635.422C635.571 529.39 635.816 529.929 636.158 530.409C636.499 530.878 636.931 531.257 637.454 531.545C637.976 531.822 638.568 531.966 639.23 531.977C639.912 531.988 640.531 531.828 641.086 531.497C641.651 531.156 642.12 530.697 642.494 530.121L646.478 531.049C645.827 532.468 644.856 533.63 643.566 534.537C642.275 535.433 640.83 535.881 639.23 535.881ZM635.294 525.865H643.166C643.048 525.225 642.798 524.649 642.414 524.137C642.04 523.614 641.576 523.198 641.022 522.889C640.467 522.58 639.87 522.425 639.23 522.425C638.59 522.425 637.998 522.58 637.454 522.889C636.91 523.188 636.446 523.598 636.062 524.121C635.688 524.633 635.432 525.214 635.294 525.865ZM653.625 543.465H649.721V519.465H653.625V521.497C654.147 520.772 654.787 520.185 655.545 519.737C656.313 519.278 657.209 519.049 658.233 519.049C659.406 519.049 660.499 519.268 661.513 519.705C662.526 520.142 663.417 520.75 664.185 521.529C664.963 522.297 665.566 523.188 665.993 524.201C666.43 525.214 666.649 526.302 666.649 527.465C666.649 528.628 666.43 529.721 665.993 530.745C665.566 531.769 664.963 532.67 664.185 533.449C663.417 534.217 662.526 534.82 661.513 535.257C660.499 535.694 659.406 535.913 658.233 535.913C657.209 535.913 656.313 535.689 655.545 535.241C654.787 534.782 654.147 534.19 653.625 533.465V543.465ZM658.185 522.809C657.374 522.809 656.649 523.022 656.009 523.449C655.369 523.865 654.867 524.425 654.505 525.129C654.142 525.833 653.961 526.612 653.961 527.465C653.961 528.318 654.142 529.102 654.505 529.817C654.867 530.521 655.369 531.086 656.009 531.513C656.649 531.929 657.374 532.137 658.185 532.137C659.006 532.137 659.758 531.929 660.441 531.513C661.123 531.097 661.667 530.537 662.073 529.833C662.478 529.118 662.681 528.329 662.681 527.465C662.681 526.612 662.478 525.833 662.073 525.129C661.667 524.425 661.123 523.865 660.441 523.449C659.769 523.022 659.017 522.809 658.185 522.809ZM676.261 535.881C674.789 535.881 673.445 535.502 672.229 534.745C671.023 533.988 670.058 532.974 669.333 531.705C668.618 530.425 668.261 529.012 668.261 527.465C668.261 526.292 668.469 525.198 668.885 524.185C669.301 523.161 669.871 522.265 670.597 521.497C671.333 520.718 672.186 520.11 673.157 519.673C674.127 519.236 675.162 519.017 676.261 519.017C677.733 519.017 679.071 519.396 680.277 520.153C681.493 520.91 682.458 521.929 683.173 523.209C683.898 524.489 684.261 525.908 684.261 527.465C684.261 528.628 684.053 529.716 683.637 530.729C683.221 531.742 682.645 532.638 681.909 533.417C681.183 534.185 680.335 534.788 679.365 535.225C678.405 535.662 677.37 535.881 676.261 535.881ZM676.261 531.977C677.039 531.977 677.738 531.769 678.357 531.353C678.975 530.937 679.461 530.388 679.813 529.705C680.175 529.022 680.357 528.276 680.357 527.465C680.357 526.633 680.17 525.876 679.797 525.193C679.434 524.5 678.938 523.95 678.309 523.545C677.69 523.129 677.007 522.921 676.261 522.921C675.493 522.921 674.799 523.129 674.181 523.545C673.562 523.961 673.071 524.516 672.709 525.209C672.346 525.902 672.165 526.654 672.165 527.465C672.165 528.308 672.351 529.07 672.725 529.753C673.098 530.436 673.594 530.98 674.213 531.385C674.842 531.78 675.525 531.977 676.261 531.977ZM686.768 535.465L686.752 519.465H690.656L690.672 520.889C691.216 520.313 691.867 519.86 692.624 519.529C693.381 519.188 694.197 519.017 695.072 519.017C695.659 519.017 696.245 519.102 696.832 519.273L695.296 523.209C694.891 523.049 694.485 522.969 694.08 522.969C693.451 522.969 692.875 523.124 692.352 523.433C691.84 523.732 691.429 524.142 691.12 524.665C690.821 525.177 690.672 525.748 690.672 526.377V535.465H686.768ZM707.641 523.369H704.537V535.465H700.633V523.369H698.265V519.465H700.633V514.441H704.537V519.465H707.641V523.369ZM710.283 519.465H714.187V535.465H710.283V519.465ZM712.267 517.401C711.691 517.401 711.206 517.214 710.811 516.841C710.417 516.457 710.219 515.977 710.219 515.401C710.219 514.836 710.417 514.361 710.811 513.977C711.206 513.593 711.686 513.401 712.251 513.401C712.817 513.401 713.291 513.593 713.675 513.977C714.07 514.361 714.267 514.836 714.267 515.401C714.267 515.977 714.075 516.457 713.691 516.841C713.307 517.214 712.833 517.401 712.267 517.401ZM732.564 525.353V535.465H728.66V526.377C728.66 525.748 728.506 525.177 728.196 524.665C727.887 524.142 727.471 523.732 726.948 523.433C726.436 523.124 725.866 522.969 725.236 522.969C724.607 522.969 724.031 523.124 723.508 523.433C722.996 523.732 722.586 524.142 722.276 524.665C721.978 525.177 721.828 525.748 721.828 526.377V535.465H717.924L717.908 519.465H721.812L721.828 520.889C722.372 520.313 723.023 519.86 723.78 519.529C724.538 519.188 725.354 519.017 726.228 519.017C727.391 519.017 728.452 519.305 729.412 519.881C730.372 520.446 731.135 521.209 731.7 522.169C732.276 523.118 732.564 524.18 732.564 525.353ZM747.312 519.465H751.216V535.769C751.216 536.921 750.981 537.966 750.512 538.905C750.042 539.854 749.402 540.665 748.592 541.337C747.781 542.02 746.853 542.542 745.808 542.905C744.762 543.278 743.664 543.465 742.512 543.465C741.392 543.465 740.314 543.236 739.28 542.777C738.245 542.318 737.328 541.689 736.528 540.889C735.738 540.1 735.136 539.198 734.72 538.185L738.288 536.569C738.501 537.156 738.821 537.668 739.248 538.105C739.685 538.553 740.186 538.9 740.752 539.145C741.317 539.401 741.904 539.529 742.512 539.529C743.13 539.529 743.722 539.444 744.288 539.273C744.864 539.102 745.381 538.852 745.84 538.521C746.298 538.201 746.656 537.806 746.912 537.337C747.178 536.878 747.312 536.356 747.312 535.769V533.513C746.81 534.217 746.181 534.788 745.424 535.225C744.666 535.662 743.792 535.881 742.8 535.881C741.648 535.881 740.57 535.662 739.568 535.225C738.565 534.788 737.68 534.185 736.912 533.417C736.154 532.638 735.557 531.742 735.12 530.729C734.693 529.716 734.48 528.628 734.48 527.465C734.48 526.302 734.693 525.214 735.12 524.201C735.557 523.188 736.154 522.297 736.912 521.529C737.68 520.75 738.565 520.142 739.568 519.705C740.57 519.268 741.648 519.049 742.8 519.049C743.792 519.049 744.666 519.268 745.424 519.705C746.181 520.132 746.81 520.697 747.312 521.401V519.465ZM742.848 532.121C743.669 532.121 744.394 531.913 745.024 531.497C745.664 531.07 746.165 530.505 746.528 529.801C746.89 529.086 747.072 528.308 747.072 527.465C747.072 526.612 746.885 525.833 746.512 525.129C746.149 524.425 745.648 523.86 745.008 523.433C744.378 523.006 743.658 522.793 742.848 522.793C742.048 522.793 741.317 523.006 740.656 523.433C739.994 523.849 739.466 524.409 739.072 525.113C738.677 525.817 738.48 526.601 738.48 527.465C738.48 528.329 738.677 529.113 739.072 529.817C739.466 530.521 739.994 531.081 740.656 531.497C741.317 531.913 742.048 532.121 742.848 532.121Z" fill="white"/>
<path fill-rule="evenodd" clip-rule="evenodd" d="M679 76C695.569 76 709 89.4312 709 106C709 115.566 709 125.171 709 131C709 146 719 151 719 151H639C639 151 649 146 649 131C649 125.171 649 115.566 649 106C649 89.4312 662.431 76 679 76V76Z" fill="#9D70F9"/>
<path fill-rule="evenodd" clip-rule="evenodd" d="M669 151C669 156.523 673.477 161 679 161C684.523 161 689 156.523 689 151" fill="#9D70F9"/>
<rect x="677" y="68" width="52" height="27" fill="white"/>
<rect x="685" y="73" width="37" height="3" fill="#111111"/>
<rect x="685" y="80" width="16" height="3" fill="#111111"/>
<rect x="685" y="87" width="30" height="3" fill="#111111"/>
<path d="M626.154 213V190.6H634.314C635.498 190.6 636.565 190.845 637.514 191.336C638.474 191.816 639.232 192.509 639.786 193.416C640.352 194.312 640.634 195.373 640.634 196.6C640.634 197.144 640.554 197.693 640.394 198.248C640.234 198.803 639.989 199.304 639.658 199.752C639.328 200.189 638.901 200.515 638.378 200.728C639.072 200.899 639.637 201.208 640.074 201.656C640.512 202.104 640.853 202.632 641.098 203.24C641.344 203.837 641.509 204.451 641.594 205.08C641.69 205.699 641.738 206.275 641.738 206.808C641.738 207.992 641.445 209.048 640.858 209.976C640.272 210.904 639.482 211.64 638.49 212.184C637.509 212.728 636.421 213 635.226 213H626.154ZM630.058 209.656H634.826C635.466 209.656 636.042 209.501 636.554 209.192C637.066 208.883 637.477 208.456 637.786 207.912C638.096 207.368 638.25 206.749 638.25 206.056C638.25 205.459 638.096 204.893 637.786 204.36C637.477 203.827 637.066 203.395 636.554 203.064C636.042 202.733 635.466 202.568 634.826 202.568H630.058V209.656ZM630.058 199.272H633.866C634.656 199.272 635.328 199.027 635.882 198.536C636.448 198.045 636.73 197.395 636.73 196.584C636.73 195.72 636.448 195.069 635.882 194.632C635.328 194.184 634.656 193.96 633.866 193.96H630.058V199.272ZM643.671 207.08V197H647.575V206.056C647.575 206.685 647.729 207.261 648.039 207.784C648.348 208.296 648.759 208.707 649.271 209.016C649.793 209.315 650.364 209.464 650.983 209.464C651.623 209.464 652.199 209.315 652.711 209.016C653.223 208.707 653.633 208.296 653.943 207.784C654.252 207.261 654.407 206.685 654.407 206.056V197H658.311L658.327 213H654.423L654.407 211.544C653.852 212.12 653.196 212.579 652.439 212.92C651.681 213.251 650.871 213.416 650.007 213.416C648.844 213.416 647.783 213.133 646.823 212.568C645.863 211.992 645.095 211.229 644.519 210.28C643.953 209.32 643.671 208.253 643.671 207.08ZM666.249 213.288C665.417 213.235 664.612 213.069 663.833 212.792C663.065 212.504 662.383 212.115 661.785 211.624C661.188 211.133 660.729 210.547 660.409 209.864L663.705 208.456C663.833 208.669 664.041 208.899 664.329 209.144C664.617 209.379 664.959 209.576 665.353 209.736C665.759 209.896 666.201 209.976 666.681 209.976C667.087 209.976 667.471 209.923 667.833 209.816C668.207 209.699 668.505 209.523 668.729 209.288C668.964 209.053 669.081 208.749 669.081 208.376C669.081 207.981 668.943 207.677 668.665 207.464C668.399 207.24 668.057 207.075 667.641 206.968C667.236 206.851 666.841 206.744 666.457 206.648C665.444 206.445 664.5 206.131 663.625 205.704C662.761 205.277 662.063 204.728 661.529 204.056C661.007 203.373 660.745 202.552 660.745 201.592C660.745 200.536 661.023 199.624 661.577 198.856C662.143 198.088 662.873 197.496 663.769 197.08C664.676 196.664 665.652 196.456 666.697 196.456C667.967 196.456 669.129 196.723 670.185 197.256C671.252 197.779 672.095 198.52 672.713 199.48L669.625 201.304C669.476 201.048 669.268 200.813 669.001 200.6C668.735 200.376 668.431 200.195 668.089 200.056C667.748 199.907 667.391 199.821 667.017 199.8C666.537 199.779 666.1 199.821 665.705 199.928C665.311 200.035 664.991 200.216 664.745 200.472C664.511 200.728 664.393 201.069 664.393 201.496C664.393 201.901 664.553 202.205 664.873 202.408C665.193 202.6 665.577 202.749 666.025 202.856C666.484 202.963 666.921 203.08 667.337 203.208C668.276 203.517 669.156 203.896 669.977 204.344C670.809 204.792 671.476 205.341 671.977 205.992C672.479 206.643 672.719 207.421 672.697 208.328C672.697 209.363 672.388 210.269 671.769 211.048C671.151 211.816 670.351 212.403 669.369 212.808C668.399 213.213 667.359 213.373 666.249 213.288ZM675.061 197H678.965V213H675.061V197ZM677.045 194.936C676.469 194.936 675.983 194.749 675.589 194.376C675.194 193.992 674.997 193.512 674.997 192.936C674.997 192.371 675.194 191.896 675.589 191.512C675.983 191.128 676.463 190.936 677.029 190.936C677.594 190.936 678.069 191.128 678.453 191.512C678.847 191.896 679.045 192.371 679.045 192.936C679.045 193.512 678.853 193.992 678.469 194.376C678.085 194.749 677.61 194.936 677.045 194.936ZM697.342 202.888V213H693.438V203.912C693.438 203.283 693.283 202.712 692.974 202.2C692.664 201.677 692.248 201.267 691.726 200.968C691.214 200.659 690.643 200.504 690.014 200.504C689.384 200.504 688.808 200.659 688.286 200.968C687.774 201.267 687.363 201.677 687.054 202.2C686.755 202.712 686.606 203.283 686.606 203.912V213H682.702L682.686 197H686.59L686.606 198.424C687.15 197.848 687.8 197.395 688.558 197.064C689.315 196.723 690.131 196.552 691.006 196.552C692.168 196.552 693.23 196.84 694.19 197.416C695.15 197.981 695.912 198.744 696.478 199.704C697.054 200.653 697.342 201.715 697.342 202.888ZM707.257 213.416C705.785 213.416 704.441 213.037 703.225 212.28C702.02 211.523 701.054 210.504 700.329 209.224C699.614 207.944 699.257 206.531 699.257 204.984C699.257 203.821 699.465 202.733 699.881 201.72C700.297 200.696 700.868 199.8 701.593 199.032C702.329 198.253 703.182 197.645 704.153 197.208C705.124 196.771 706.158 196.552 707.257 196.552C708.505 196.552 709.646 196.819 710.681 197.352C711.726 197.875 712.612 198.595 713.337 199.512C714.062 200.429 714.59 201.475 714.921 202.648C715.252 203.821 715.326 205.048 715.145 206.328H703.449C703.598 206.925 703.844 207.464 704.185 207.944C704.526 208.413 704.958 208.792 705.481 209.08C706.004 209.357 706.596 209.501 707.257 209.512C707.94 209.523 708.558 209.363 709.113 209.032C709.678 208.691 710.148 208.232 710.521 207.656L714.505 208.584C713.854 210.003 712.884 211.165 711.593 212.072C710.302 212.968 708.857 213.416 707.257 213.416ZM703.321 203.4H711.193C711.076 202.76 710.825 202.184 710.441 201.672C710.068 201.149 709.604 200.733 709.049 200.424C708.494 200.115 707.897 199.96 707.257 199.96C706.617 199.96 706.025 200.115 705.481 200.424C704.937 200.723 704.473 201.133 704.089 201.656C703.716 202.168 703.46 202.749 703.321 203.4ZM722.593 213.288C721.761 213.235 720.956 213.069 720.177 212.792C719.409 212.504 718.726 212.115 718.129 211.624C717.532 211.133 717.073 210.547 716.753 209.864L720.049 208.456C720.177 208.669 720.385 208.899 720.673 209.144C720.961 209.379 721.302 209.576 721.697 209.736C722.102 209.896 722.545 209.976 723.025 209.976C723.43 209.976 723.814 209.923 724.177 209.816C724.55 209.699 724.849 209.523 725.073 209.288C725.308 209.053 725.425 208.749 725.425 208.376C725.425 207.981 725.286 207.677 725.009 207.464C724.742 207.24 724.401 207.075 723.985 206.968C723.58 206.851 723.185 206.744 722.801 206.648C721.788 206.445 720.844 206.131 719.969 205.704C719.105 205.277 718.406 204.728 717.873 204.056C717.35 203.373 717.089 202.552 717.089 201.592C717.089 200.536 717.366 199.624 717.921 198.856C718.486 198.088 719.217 197.496 720.113 197.08C721.02 196.664 721.996 196.456 723.041 196.456C724.31 196.456 725.473 196.723 726.529 197.256C727.596 197.779 728.438 198.52 729.057 199.48L725.969 201.304C725.82 201.048 725.612 200.813 725.345 200.6C725.078 200.376 724.774 200.195 724.433 200.056C724.092 199.907 723.734 199.821 723.361 199.8C722.881 199.779 722.444 199.821 722.049 199.928C721.654 200.035 721.334 200.216 721.089 200.472C720.854 200.728 720.737 201.069 720.737 201.496C720.737 201.901 720.897 202.205 721.217 202.408C721.537 202.6 721.921 202.749 722.369 202.856C722.828 202.963 723.265 203.08 723.681 203.208C724.62 203.517 725.5 203.896 726.321 204.344C727.153 204.792 727.82 205.341 728.321 205.992C728.822 206.643 729.062 207.421 729.041 208.328C729.041 209.363 728.732 210.269 728.113 211.048C727.494 211.816 726.694 212.403 725.713 212.808C724.742 213.213 723.702 213.373 722.593 213.288ZM736.499 213.288C735.667 213.235 734.862 213.069 734.083 212.792C733.315 212.504 732.633 212.115 732.035 211.624C731.438 211.133 730.979 210.547 730.659 209.864L733.955 208.456C734.083 208.669 734.291 208.899 734.579 209.144C734.867 209.379 735.209 209.576 735.603 209.736C736.009 209.896 736.451 209.976 736.931 209.976C737.337 209.976 737.721 209.923 738.083 209.816C738.457 209.699 738.755 209.523 738.979 209.288C739.214 209.053 739.331 208.749 739.331 208.376C739.331 207.981 739.193 207.677 738.915 207.464C738.649 207.24 738.307 207.075 737.891 206.968C737.486 206.851 737.091 206.744 736.707 206.648C735.694 206.445 734.75 206.131 733.875 205.704C733.011 205.277 732.313 204.728 731.779 204.056C731.257 203.373 730.995 202.552 730.995 201.592C730.995 200.536 731.273 199.624 731.827 198.856C732.393 198.088 733.123 197.496 734.019 197.08C734.926 196.664 735.902 196.456 736.947 196.456C738.217 196.456 739.379 196.723 740.435 197.256C741.502 197.779 742.345 198.52 742.963 199.48L739.875 201.304C739.726 201.048 739.518 200.813 739.251 200.6C738.985 200.376 738.681 200.195 738.339 200.056C737.998 199.907 737.641 199.821 737.267 199.8C736.787 199.779 736.35 199.821 735.955 199.928C735.561 200.035 735.241 200.216 734.995 200.472C734.761 200.728 734.643 201.069 734.643 201.496C734.643 201.901 734.803 202.205 735.123 202.408C735.443 202.6 735.827 202.749 736.275 202.856C736.734 202.963 737.171 203.08 737.587 203.208C738.526 203.517 739.406 203.896 740.227 204.344C741.059 204.792 741.726 205.341 742.227 205.992C742.729 206.643 742.969 207.421 742.947 208.328C742.947 209.363 742.638 210.269 742.019 211.048C741.401 211.816 740.601 212.403 739.619 212.808C738.649 213.213 737.609 213.373 736.499 213.288ZM635.33 228.6H639.826L647.97 251H643.826L642.386 247.032H632.786L631.346 251H627.202L635.33 228.6ZM634.21 243.128H640.946L637.57 233.896L634.21 243.128ZM650.654 251V227H654.558V251H650.654ZM665.194 251.416C663.722 251.416 662.378 251.037 661.162 250.28C659.957 249.523 658.992 248.504 658.266 247.224C657.552 245.944 657.194 244.531 657.194 242.984C657.194 241.821 657.402 240.733 657.818 239.72C658.234 238.696 658.805 237.8 659.53 237.032C660.266 236.253 661.12 235.645 662.09 235.208C663.061 234.771 664.096 234.552 665.194 234.552C666.442 234.552 667.584 234.819 668.618 235.352C669.664 235.875 670.549 236.595 671.274 237.512C672 238.429 672.528 239.475 672.858 240.648C673.189 241.821 673.264 243.048 673.082 244.328H661.386C661.536 244.925 661.781 245.464 662.122 245.944C662.464 246.413 662.896 246.792 663.418 247.08C663.941 247.357 664.533 247.501 665.194 247.512C665.877 247.523 666.496 247.363 667.05 247.032C667.616 246.691 668.085 246.232 668.458 245.656L672.442 246.584C671.792 248.003 670.821 249.165 669.53 250.072C668.24 250.968 666.794 251.416 665.194 251.416ZM661.258 241.4H669.13C669.013 240.76 668.762 240.184 668.378 239.672C668.005 239.149 667.541 238.733 666.986 238.424C666.432 238.115 665.834 237.96 665.194 237.96C664.554 237.96 663.962 238.115 663.418 238.424C662.874 238.723 662.41 239.133 662.026 239.656C661.653 240.168 661.397 240.749 661.258 241.4ZM675.702 251L675.686 235H679.59L679.606 236.424C680.15 235.848 680.8 235.395 681.558 235.064C682.315 234.723 683.131 234.552 684.006 234.552C684.592 234.552 685.179 234.637 685.766 234.808L684.23 238.744C683.824 238.584 683.419 238.504 683.014 238.504C682.384 238.504 681.808 238.659 681.286 238.968C680.774 239.267 680.363 239.677 680.054 240.2C679.755 240.712 679.606 241.283 679.606 241.912V251H675.702ZM696.574 238.904H693.47V251H689.566V238.904H687.198V235H689.566V229.976H693.47V235H696.574V238.904ZM699.217 235H703.121V251H699.217V235ZM701.201 232.936C700.625 232.936 700.14 232.749 699.745 232.376C699.35 231.992 699.153 231.512 699.153 230.936C699.153 230.371 699.35 229.896 699.745 229.512C700.14 229.128 700.62 228.936 701.185 228.936C701.75 228.936 702.225 229.128 702.609 229.512C703.004 229.896 703.201 230.371 703.201 230.936C703.201 231.512 703.009 231.992 702.625 232.376C702.241 232.749 701.766 232.936 701.201 232.936ZM721.498 240.888V251H717.594V241.912C717.594 241.283 717.439 240.712 717.13 240.2C716.821 239.677 716.405 239.267 715.882 238.968C715.37 238.659 714.799 238.504 714.17 238.504C713.541 238.504 712.965 238.659 712.442 238.968C711.93 239.267 711.519 239.677 711.21 240.2C710.911 240.712 710.762 241.283 710.762 241.912V251H706.858L706.842 235H710.746L710.762 236.424C711.306 235.848 711.957 235.395 712.714 235.064C713.471 234.723 714.287 234.552 715.162 234.552C716.325 234.552 717.386 234.84 718.346 235.416C719.306 235.981 720.069 236.744 720.634 237.704C721.21 238.653 721.498 239.715 721.498 240.888ZM736.245 235H740.149V251.304C740.149 252.456 739.914 253.501 739.445 254.44C738.976 255.389 738.336 256.2 737.525 256.872C736.714 257.555 735.786 258.077 734.741 258.44C733.696 258.813 732.597 259 731.445 259C730.325 259 729.248 258.771 728.213 258.312C727.178 257.853 726.261 257.224 725.461 256.424C724.672 255.635 724.069 254.733 723.653 253.72L727.221 252.104C727.434 252.691 727.754 253.203 728.181 253.64C728.618 254.088 729.12 254.435 729.685 254.68C730.25 254.936 730.837 255.064 731.445 255.064C732.064 255.064 732.656 254.979 733.221 254.808C733.797 254.637 734.314 254.387 734.773 254.056C735.232 253.736 735.589 253.341 735.845 252.872C736.112 252.413 736.245 251.891 736.245 251.304V249.048C735.744 249.752 735.114 250.323 734.357 250.76C733.6 251.197 732.725 251.416 731.733 251.416C730.581 251.416 729.504 251.197 728.501 250.76C727.498 250.323 726.613 249.72 725.845 248.952C725.088 248.173 724.49 247.277 724.053 246.264C723.626 245.251 723.413 244.163 723.413 243C723.413 241.837 723.626 240.749 724.053 239.736C724.49 238.723 725.088 237.832 725.845 237.064C726.613 236.285 727.498 235.677 728.501 235.24C729.504 234.803 730.581 234.584 731.733 234.584C732.725 234.584 733.6 234.803 734.357 235.24C735.114 235.667 735.744 236.232 736.245 236.936V235ZM731.781 247.656C732.602 247.656 733.328 247.448 733.957 247.032C734.597 246.605 735.098 246.04 735.461 245.336C735.824 244.621 736.005 243.843 736.005 243C736.005 242.147 735.818 241.368 735.445 240.664C735.082 239.96 734.581 239.395 733.941 238.968C733.312 238.541 732.592 238.328 731.781 238.328C730.981 238.328 730.25 238.541 729.589 238.968C728.928 239.384 728.4 239.944 728.005 240.648C727.61 241.352 727.413 242.136 727.413 243C727.413 243.864 727.61 244.648 728.005 245.352C728.4 246.056 728.928 246.616 729.589 247.032C730.25 247.448 730.981 247.656 731.781 247.656Z" fill="white"/>
<path d="M140 367.184H225.113V422.237L215.717 424.939L213.783 437.435H140V367.184Z" fill="#9D70F9"/>
<rect x="140" y="359.078" width="85.1126" height="8.78146" fill="white"/>
<path fill-rule="evenodd" clip-rule="evenodd" d="M167.697 394.28L145.484 416.494L144.055 415.065L166.268 392.852L167.697 394.28Z" fill="white"/>
<path fill-rule="evenodd" clip-rule="evenodd" d="M170.059 394.879C172.484 394.879 174.449 392.913 174.449 390.488C174.449 388.063 172.484 386.098 170.059 386.098C167.634 386.098 165.668 388.063 165.668 390.488C165.668 392.913 167.634 394.879 170.059 394.879Z" fill="white"/>
<path fill-rule="evenodd" clip-rule="evenodd" d="M189.987 415.145C192.225 415.145 194.04 413.33 194.04 411.092C194.04 408.854 192.225 407.039 189.987 407.039C187.748 407.039 185.934 408.854 185.934 411.092C185.934 413.33 187.748 415.145 189.987 415.145Z" fill="white"/>
<path fill-rule="evenodd" clip-rule="evenodd" d="M173.816 392.852L187.287 406.322L185.896 407.712L172.426 394.242L173.816 392.852Z" fill="white"/>
<path fill-rule="evenodd" clip-rule="evenodd" d="M220.383 382.09L194.758 407.715L193.363 406.321L218.989 380.695L220.383 382.09Z" fill="white"/>
<path d="M241.87 432.522C241.949 431.806 241.999 431.08 241.999 430.342C241.999 429.604 241.949 428.878 241.869 428.161L236.372 426.206C236.098 425.307 235.739 424.448 235.305 423.632L237.806 418.369C236.896 417.227 235.86 416.191 234.72 415.28L229.456 417.786C228.636 417.346 227.774 416.988 226.882 416.719L224.929 411.222C224.212 411.141 223.486 411.09 222.748 411.09C222.009 411.09 221.284 411.14 220.567 411.222L218.613 416.719C217.714 416.991 216.855 417.349 216.039 417.786L210.775 415.28C209.632 416.19 208.597 417.226 207.686 418.369L210.192 423.63C209.755 424.446 209.397 425.306 209.125 426.204L203.628 428.162C203.548 428.878 203.496 429.606 203.496 430.343C203.496 431.08 203.546 431.806 203.628 432.523L209.125 434.479C209.397 435.377 209.755 436.237 210.192 437.053L207.687 442.317C208.597 443.459 209.633 444.493 210.776 445.403L216.035 442.898C216.852 443.335 217.712 443.694 218.609 443.968L220.566 449.464C221.281 449.543 222.007 449.593 222.746 449.593C223.485 449.593 224.209 449.543 224.926 449.463L226.882 443.966C227.78 443.692 228.64 443.333 229.456 442.898L234.72 445.399C235.862 444.489 236.896 443.453 237.806 442.313L235.303 437.051C235.74 436.238 236.099 435.376 236.373 434.477L241.87 432.522ZM222.748 436.457C221.945 436.457 221.149 436.299 220.407 435.992C219.665 435.685 218.991 435.234 218.423 434.666C217.276 433.52 216.631 431.964 216.631 430.342C216.63 428.72 217.274 427.164 218.421 426.017C219.568 424.87 221.123 424.225 222.745 424.225C224.367 424.224 225.923 424.869 227.07 426.015C228.217 427.162 228.862 428.718 228.862 430.34C228.863 431.962 228.219 433.517 227.072 434.665C225.925 435.812 224.37 436.457 222.748 436.457Z" fill="white"/>
<path d="M133.154 500V477.6H141.314C142.498 477.6 143.565 477.845 144.514 478.336C145.474 478.816 146.232 479.509 146.786 480.416C147.352 481.312 147.634 482.373 147.634 483.6C147.634 484.144 147.554 484.693 147.394 485.248C147.234 485.803 146.989 486.304 146.658 486.752C146.328 487.189 145.901 487.515 145.378 487.728C146.072 487.899 146.637 488.208 147.074 488.656C147.512 489.104 147.853 489.632 148.098 490.24C148.344 490.837 148.509 491.451 148.594 492.08C148.69 492.699 148.738 493.275 148.738 493.808C148.738 494.992 148.445 496.048 147.858 496.976C147.272 497.904 146.482 498.64 145.49 499.184C144.509 499.728 143.421 500 142.226 500H133.154ZM137.058 496.656H141.826C142.466 496.656 143.042 496.501 143.554 496.192C144.066 495.883 144.477 495.456 144.786 494.912C145.096 494.368 145.25 493.749 145.25 493.056C145.25 492.459 145.096 491.893 144.786 491.36C144.477 490.827 144.066 490.395 143.554 490.064C143.042 489.733 142.466 489.568 141.826 489.568H137.058V496.656ZM137.058 486.272H140.866C141.656 486.272 142.328 486.027 142.882 485.536C143.448 485.045 143.73 484.395 143.73 483.584C143.73 482.72 143.448 482.069 142.882 481.632C142.328 481.184 141.656 480.96 140.866 480.96H137.058V486.272ZM150.671 494.08V484H154.575V493.056C154.575 493.685 154.729 494.261 155.039 494.784C155.348 495.296 155.759 495.707 156.271 496.016C156.793 496.315 157.364 496.464 157.983 496.464C158.623 496.464 159.199 496.315 159.711 496.016C160.223 495.707 160.633 495.296 160.943 494.784C161.252 494.261 161.407 493.685 161.407 493.056V484H165.311L165.327 500H161.423L161.407 498.544C160.852 499.12 160.196 499.579 159.439 499.92C158.681 500.251 157.871 500.416 157.007 500.416C155.844 500.416 154.783 500.133 153.823 499.568C152.863 498.992 152.095 498.229 151.519 497.28C150.953 496.32 150.671 495.253 150.671 494.08ZM173.249 500.288C172.417 500.235 171.612 500.069 170.833 499.792C170.065 499.504 169.383 499.115 168.785 498.624C168.188 498.133 167.729 497.547 167.409 496.864L170.705 495.456C170.833 495.669 171.041 495.899 171.329 496.144C171.617 496.379 171.959 496.576 172.353 496.736C172.759 496.896 173.201 496.976 173.681 496.976C174.087 496.976 174.471 496.923 174.833 496.816C175.207 496.699 175.505 496.523 175.729 496.288C175.964 496.053 176.081 495.749 176.081 495.376C176.081 494.981 175.943 494.677 175.665 494.464C175.399 494.24 175.057 494.075 174.641 493.968C174.236 493.851 173.841 493.744 173.457 493.648C172.444 493.445 171.5 493.131 170.625 492.704C169.761 492.277 169.063 491.728 168.529 491.056C168.007 490.373 167.745 489.552 167.745 488.592C167.745 487.536 168.023 486.624 168.577 485.856C169.143 485.088 169.873 484.496 170.769 484.08C171.676 483.664 172.652 483.456 173.697 483.456C174.967 483.456 176.129 483.723 177.185 484.256C178.252 484.779 179.095 485.52 179.713 486.48L176.625 488.304C176.476 488.048 176.268 487.813 176.001 487.6C175.735 487.376 175.431 487.195 175.089 487.056C174.748 486.907 174.391 486.821 174.017 486.8C173.537 486.779 173.1 486.821 172.705 486.928C172.311 487.035 171.991 487.216 171.745 487.472C171.511 487.728 171.393 488.069 171.393 488.496C171.393 488.901 171.553 489.205 171.873 489.408C172.193 489.6 172.577 489.749 173.025 489.856C173.484 489.963 173.921 490.08 174.337 490.208C175.276 490.517 176.156 490.896 176.977 491.344C177.809 491.792 178.476 492.341 178.977 492.992C179.479 493.643 179.719 494.421 179.697 495.328C179.697 496.363 179.388 497.269 178.769 498.048C178.151 498.816 177.351 499.403 176.369 499.808C175.399 500.213 174.359 500.373 173.249 500.288ZM182.061 484H185.965V500H182.061V484ZM184.045 481.936C183.469 481.936 182.983 481.749 182.589 481.376C182.194 480.992 181.997 480.512 181.997 479.936C181.997 479.371 182.194 478.896 182.589 478.512C182.983 478.128 183.463 477.936 184.029 477.936C184.594 477.936 185.069 478.128 185.453 478.512C185.847 478.896 186.045 479.371 186.045 479.936C186.045 480.512 185.853 480.992 185.469 481.376C185.085 481.749 184.61 481.936 184.045 481.936ZM204.342 489.888V500H200.438V490.912C200.438 490.283 200.283 489.712 199.974 489.2C199.664 488.677 199.248 488.267 198.726 487.968C198.214 487.659 197.643 487.504 197.014 487.504C196.384 487.504 195.808 487.659 195.286 487.968C194.774 488.267 194.363 488.677 194.054 489.2C193.755 489.712 193.606 490.283 193.606 490.912V500H189.702L189.686 484H193.59L193.606 485.424C194.15 484.848 194.8 484.395 195.558 484.064C196.315 483.723 197.131 483.552 198.006 483.552C199.168 483.552 200.23 483.84 201.19 484.416C202.15 484.981 202.912 485.744 203.478 486.704C204.054 487.653 204.342 488.715 204.342 489.888ZM214.257 500.416C212.785 500.416 211.441 500.037 210.225 499.28C209.02 498.523 208.054 497.504 207.329 496.224C206.614 494.944 206.257 493.531 206.257 491.984C206.257 490.821 206.465 489.733 206.881 488.72C207.297 487.696 207.868 486.8 208.593 486.032C209.329 485.253 210.182 484.645 211.153 484.208C212.124 483.771 213.158 483.552 214.257 483.552C215.505 483.552 216.646 483.819 217.681 484.352C218.726 484.875 219.612 485.595 220.337 486.512C221.062 487.429 221.59 488.475 221.921 489.648C222.252 490.821 222.326 492.048 222.145 493.328H210.449C210.598 493.925 210.844 494.464 211.185 494.944C211.526 495.413 211.958 495.792 212.481 496.08C213.004 496.357 213.596 496.501 214.257 496.512C214.94 496.523 215.558 496.363 216.113 496.032C216.678 495.691 217.148 495.232 217.521 494.656L221.505 495.584C220.854 497.003 219.884 498.165 218.593 499.072C217.302 499.968 215.857 500.416 214.257 500.416ZM210.321 490.4H218.193C218.076 489.76 217.825 489.184 217.441 488.672C217.068 488.149 216.604 487.733 216.049 487.424C215.494 487.115 214.897 486.96 214.257 486.96C213.617 486.96 213.025 487.115 212.481 487.424C211.937 487.723 211.473 488.133 211.089 488.656C210.716 489.168 210.46 489.749 210.321 490.4ZM229.593 500.288C228.761 500.235 227.956 500.069 227.177 499.792C226.409 499.504 225.726 499.115 225.129 498.624C224.532 498.133 224.073 497.547 223.753 496.864L227.049 495.456C227.177 495.669 227.385 495.899 227.673 496.144C227.961 496.379 228.302 496.576 228.697 496.736C229.102 496.896 229.545 496.976 230.025 496.976C230.43 496.976 230.814 496.923 231.177 496.816C231.55 496.699 231.849 496.523 232.073 496.288C232.308 496.053 232.425 495.749 232.425 495.376C232.425 494.981 232.286 494.677 232.009 494.464C231.742 494.24 231.401 494.075 230.985 493.968C230.58 493.851 230.185 493.744 229.801 493.648C228.788 493.445 227.844 493.131 226.969 492.704C226.105 492.277 225.406 491.728 224.873 491.056C224.35 490.373 224.089 489.552 224.089 488.592C224.089 487.536 224.366 486.624 224.921 485.856C225.486 485.088 226.217 484.496 227.113 484.08C228.02 483.664 228.996 483.456 230.041 483.456C231.31 483.456 232.473 483.723 233.529 484.256C234.596 484.779 235.438 485.52 236.057 486.48L232.969 488.304C232.82 488.048 232.612 487.813 232.345 487.6C232.078 487.376 231.774 487.195 231.433 487.056C231.092 486.907 230.734 486.821 230.361 486.8C229.881 486.779 229.444 486.821 229.049 486.928C228.654 487.035 228.334 487.216 228.089 487.472C227.854 487.728 227.737 488.069 227.737 488.496C227.737 488.901 227.897 489.205 228.217 489.408C228.537 489.6 228.921 489.749 229.369 489.856C229.828 489.963 230.265 490.08 230.681 490.208C231.62 490.517 232.5 490.896 233.321 491.344C234.153 491.792 234.82 492.341 235.321 492.992C235.822 493.643 236.062 494.421 236.041 495.328C236.041 496.363 235.732 497.269 235.113 498.048C234.494 498.816 233.694 499.403 232.713 499.808C231.742 500.213 230.702 500.373 229.593 500.288ZM243.499 500.288C242.667 500.235 241.862 500.069 241.083 499.792C240.315 499.504 239.633 499.115 239.035 498.624C238.438 498.133 237.979 497.547 237.659 496.864L240.955 495.456C241.083 495.669 241.291 495.899 241.579 496.144C241.867 496.379 242.209 496.576 242.603 496.736C243.009 496.896 243.451 496.976 243.931 496.976C244.337 496.976 244.721 496.923 245.083 496.816C245.457 496.699 245.755 496.523 245.979 496.288C246.214 496.053 246.331 495.749 246.331 495.376C246.331 494.981 246.193 494.677 245.915 494.464C245.649 494.24 245.307 494.075 244.891 493.968C244.486 493.851 244.091 493.744 243.707 493.648C242.694 493.445 241.75 493.131 240.875 492.704C240.011 492.277 239.313 491.728 238.779 491.056C238.257 490.373 237.995 489.552 237.995 488.592C237.995 487.536 238.273 486.624 238.827 485.856C239.393 485.088 240.123 484.496 241.019 484.08C241.926 483.664 242.902 483.456 243.947 483.456C245.217 483.456 246.379 483.723 247.435 484.256C248.502 484.779 249.345 485.52 249.963 486.48L246.875 488.304C246.726 488.048 246.518 487.813 246.251 487.6C245.985 487.376 245.681 487.195 245.339 487.056C244.998 486.907 244.641 486.821 244.267 486.8C243.787 486.779 243.35 486.821 242.955 486.928C242.561 487.035 242.241 487.216 241.995 487.472C241.761 487.728 241.643 488.069 241.643 488.496C241.643 488.901 241.803 489.205 242.123 489.408C242.443 489.6 242.827 489.749 243.275 489.856C243.734 489.963 244.171 490.08 244.587 490.208C245.526 490.517 246.406 490.896 247.227 491.344C248.059 491.792 248.726 492.341 249.227 492.992C249.729 493.643 249.969 494.421 249.947 495.328C249.947 496.363 249.638 497.269 249.019 498.048C248.401 498.816 247.601 499.403 246.619 499.808C245.649 500.213 244.609 500.373 243.499 500.288ZM154.406 538.416C153.169 538.416 151.979 538.224 150.838 537.84C149.707 537.445 148.715 536.885 147.862 536.16C147.009 535.424 146.395 534.544 146.022 533.52L149.686 532.176C149.835 532.603 150.139 532.992 150.598 533.344C151.057 533.696 151.617 533.979 152.278 534.192C152.939 534.405 153.649 534.512 154.406 534.512C155.185 534.512 155.91 534.395 156.582 534.16C157.265 533.915 157.814 533.579 158.23 533.152C158.646 532.715 158.854 532.208 158.854 531.632C158.854 531.045 158.635 530.565 158.198 530.192C157.761 529.808 157.201 529.504 156.518 529.28C155.835 529.056 155.131 528.885 154.406 528.768C152.817 528.523 151.393 528.144 150.134 527.632C148.875 527.12 147.878 526.411 147.142 525.504C146.417 524.597 146.054 523.424 146.054 521.984C146.054 520.629 146.443 519.445 147.222 518.432C148.001 517.419 149.025 516.629 150.294 516.064C151.563 515.499 152.934 515.216 154.406 515.216C155.633 515.216 156.817 515.408 157.958 515.792C159.099 516.176 160.097 516.736 160.95 517.472C161.814 518.208 162.433 519.093 162.806 520.128L159.126 521.456C158.977 521.029 158.673 520.64 158.214 520.288C157.755 519.936 157.195 519.659 156.534 519.456C155.873 519.243 155.163 519.136 154.406 519.136C153.649 519.125 152.929 519.248 152.246 519.504C151.574 519.749 151.025 520.085 150.598 520.512C150.171 520.939 149.958 521.429 149.958 521.984C149.958 522.699 150.155 523.237 150.55 523.6C150.955 523.963 151.494 524.229 152.166 524.4C152.838 524.56 153.585 524.709 154.406 524.848C155.899 525.083 157.281 525.477 158.55 526.032C159.819 526.587 160.838 527.328 161.606 528.256C162.374 529.173 162.758 530.299 162.758 531.632C162.758 532.987 162.374 534.176 161.606 535.2C160.838 536.213 159.819 537.003 158.55 537.568C157.281 538.133 155.899 538.416 154.406 538.416ZM174.512 525.904H171.408V538H167.504V525.904H165.136V522H167.504V516.976H171.408V522H174.512V525.904ZM176.764 532.08V522H180.668V531.056C180.668 531.685 180.823 532.261 181.132 532.784C181.442 533.296 181.852 533.707 182.364 534.016C182.887 534.315 183.458 534.464 184.076 534.464C184.716 534.464 185.292 534.315 185.804 534.016C186.316 533.707 186.727 533.296 187.036 532.784C187.346 532.261 187.5 531.685 187.5 531.056V522H191.404L191.42 538H187.516L187.5 536.544C186.946 537.12 186.29 537.579 185.532 537.92C184.775 538.251 183.964 538.416 183.1 538.416C181.938 538.416 180.876 538.133 179.916 537.568C178.956 536.992 178.188 536.229 177.612 535.28C177.047 534.32 176.764 533.253 176.764 532.08ZM206.469 514H210.373V538H206.469V536C205.957 536.715 205.312 537.296 204.533 537.744C203.754 538.192 202.853 538.416 201.829 538.416C200.666 538.416 199.578 538.197 198.565 537.76C197.552 537.323 196.656 536.72 195.877 535.952C195.109 535.173 194.506 534.277 194.069 533.264C193.632 532.251 193.413 531.163 193.413 530C193.413 528.837 193.632 527.749 194.069 526.736C194.506 525.723 195.109 524.832 195.877 524.064C196.656 523.285 197.552 522.677 198.565 522.24C199.578 521.803 200.666 521.584 201.829 521.584C202.853 521.584 203.754 521.808 204.533 522.256C205.312 522.693 205.957 523.275 206.469 524V514ZM201.877 534.656C202.709 534.656 203.445 534.448 204.085 534.032C204.725 533.616 205.226 533.056 205.589 532.352C205.952 531.637 206.133 530.853 206.133 530C206.133 529.136 205.952 528.352 205.589 527.648C205.226 526.933 204.72 526.368 204.069 525.952C203.429 525.536 202.698 525.328 201.877 525.328C201.056 525.328 200.304 525.541 199.621 525.968C198.949 526.384 198.41 526.944 198.005 527.648C197.61 528.352 197.413 529.136 197.413 530C197.413 530.864 197.616 531.648 198.021 532.352C198.426 533.056 198.965 533.616 199.637 534.032C200.32 534.448 201.066 534.656 201.877 534.656ZM214.217 522H218.121V538H214.217V522ZM216.201 519.936C215.625 519.936 215.14 519.749 214.745 519.376C214.35 518.992 214.153 518.512 214.153 517.936C214.153 517.371 214.35 516.896 214.745 516.512C215.14 516.128 215.62 515.936 216.185 515.936C216.75 515.936 217.225 516.128 217.609 516.512C218.004 516.896 218.201 517.371 218.201 517.936C218.201 518.512 218.009 518.992 217.625 519.376C217.241 519.749 216.766 519.936 216.201 519.936ZM228.632 538.416C227.16 538.416 225.816 538.037 224.6 537.28C223.395 536.523 222.429 535.509 221.704 534.24C220.989 532.96 220.632 531.547 220.632 530C220.632 528.827 220.84 527.733 221.256 526.72C221.672 525.696 222.243 524.8 222.968 524.032C223.704 523.253 224.557 522.645 225.528 522.208C226.499 521.771 227.533 521.552 228.632 521.552C230.104 521.552 231.443 521.931 232.648 522.688C233.864 523.445 234.829 524.464 235.544 525.744C236.269 527.024 236.632 528.443 236.632 530C236.632 531.163 236.424 532.251 236.008 533.264C235.592 534.277 235.016 535.173 234.28 535.952C233.555 536.72 232.707 537.323 231.736 537.76C230.776 538.197 229.741 538.416 228.632 538.416ZM228.632 534.512C229.411 534.512 230.109 534.304 230.728 533.888C231.347 533.472 231.832 532.923 232.184 532.24C232.547 531.557 232.728 530.811 232.728 530C232.728 529.168 232.541 528.411 232.168 527.728C231.805 527.035 231.309 526.485 230.68 526.08C230.061 525.664 229.379 525.456 228.632 525.456C227.864 525.456 227.171 525.664 226.552 526.08C225.933 526.496 225.443 527.051 225.08 527.744C224.717 528.437 224.536 529.189 224.536 530C224.536 530.843 224.723 531.605 225.096 532.288C225.469 532.971 225.965 533.515 226.584 533.92C227.213 534.315 227.896 534.512 228.632 534.512Z" fill="white"/>
</svg>
