<svg width="866" height="610" viewBox="0 0 866 610" fill="none" xmlns="http://www.w3.org/2000/svg">
<path d="M14.9287 156.767L98.5774 11.8832H265.875L349.524 156.767L265.875 301.651H98.5774L14.9287 156.767Z" stroke="#D1D1D1" stroke-width="3"/>
<path d="M164.719 146.151L146.687 128.12C146.687 128.12 147.568 126.798 149.151 124.573L134.667 110.088L158.708 98.0676L165.039 104.399C167.764 101.28 167.682 101.115 170.729 98.0676C172.797 95.9994 175.036 94.2158 177.36 92.6778C191.918 83.0416 209.797 83.0416 209.797 83.0416C209.797 83.0416 209.797 100.92 200.161 115.478C198.623 117.802 196.839 120.041 194.771 122.109C191.724 125.156 191.558 125.074 188.44 127.799L194.771 134.13L182.75 158.172L168.265 143.687C166.04 145.27 164.719 146.151 164.719 146.151Z" fill="#FF5656"/>
<path d="M153.262 153.375C157.062 149.375 156.962 143.075 153.062 139.275C149.162 135.575 143.062 135.575 139.162 139.275C135.162 143.075 130.162 162.275 130.162 162.275C130.162 162.275 149.362 157.275 153.262 153.375Z" fill="#9D70F9"/>
<path d="M153.162 146.276C154.862 144.076 154.362 140.976 152.162 139.276C150.362 137.976 147.962 137.976 146.162 139.276C144.162 141.276 141.162 151.276 141.162 151.276C141.162 151.276 151.262 148.276 153.162 146.276Z" fill="#FF5656"/>
<path d="M153.864 123.946L167.809 110.526L172.889 115.805C173.624 116.569 174.129 117.412 174.405 118.337C174.687 119.255 174.712 120.171 174.479 121.086C174.253 122.007 173.751 122.841 172.974 123.589C172.682 123.87 172.338 124.131 171.943 124.371C171.554 124.604 171.13 124.763 170.672 124.845C170.214 124.927 169.74 124.873 169.248 124.681C169.57 125.228 169.709 125.772 169.666 126.312C169.624 126.852 169.47 127.37 169.206 127.867C168.956 128.364 168.654 128.821 168.3 129.238C167.953 129.649 167.624 130.004 167.312 130.304C166.608 130.982 165.785 131.409 164.843 131.587C163.908 131.758 162.961 131.691 162.002 131.386C161.05 131.074 160.203 130.533 159.462 129.763L153.864 123.946ZM159.269 124.499L161.685 127.009C162.017 127.355 162.397 127.59 162.825 127.716C163.266 127.841 163.709 127.85 164.154 127.741C164.606 127.639 165.014 127.412 165.38 127.061C165.685 126.767 165.891 126.402 165.997 125.968C166.116 125.533 166.125 125.09 166.022 124.639C165.927 124.193 165.713 123.798 165.38 123.453L162.965 120.943L159.269 124.499ZM165.455 118.546L167.315 120.479C167.698 120.877 168.16 121.091 168.7 121.121C169.241 121.151 169.714 120.971 170.119 120.581C170.53 120.185 170.708 119.739 170.653 119.243C170.597 118.746 170.377 118.299 169.994 117.9L168.134 115.968L165.455 118.546ZM164.833 135.344L178.778 121.924L181.653 124.912L167.708 138.332L164.833 135.344Z" fill="white"/>
<path d="M124.154 210.275V187.875H132.314C133.498 187.875 134.565 188.12 135.514 188.611C136.474 189.091 137.232 189.784 137.786 190.691C138.352 191.587 138.634 192.648 138.634 193.875C138.634 194.419 138.554 194.968 138.394 195.523C138.234 196.078 137.989 196.579 137.658 197.027C137.328 197.464 136.901 197.79 136.378 198.003C137.072 198.174 137.637 198.483 138.074 198.931C138.512 199.379 138.853 199.907 139.098 200.515C139.344 201.112 139.509 201.726 139.594 202.355C139.69 202.974 139.738 203.55 139.738 204.083C139.738 205.267 139.445 206.323 138.858 207.251C138.272 208.179 137.482 208.915 136.49 209.459C135.509 210.003 134.421 210.275 133.226 210.275H124.154ZM128.058 206.931H132.826C133.466 206.931 134.042 206.776 134.554 206.467C135.066 206.158 135.477 205.731 135.786 205.187C136.096 204.643 136.25 204.024 136.25 203.331C136.25 202.734 136.096 202.168 135.786 201.635C135.477 201.102 135.066 200.67 134.554 200.339C134.042 200.008 133.466 199.843 132.826 199.843H128.058V206.931ZM128.058 196.547H131.866C132.656 196.547 133.328 196.302 133.882 195.811C134.448 195.32 134.73 194.67 134.73 193.859C134.73 192.995 134.448 192.344 133.882 191.907C133.328 191.459 132.656 191.235 131.866 191.235H128.058V196.547ZM141.671 204.355V194.275H145.575V203.331C145.575 203.96 145.729 204.536 146.039 205.059C146.348 205.571 146.759 205.982 147.271 206.291C147.793 206.59 148.364 206.739 148.983 206.739C149.623 206.739 150.199 206.59 150.711 206.291C151.223 205.982 151.633 205.571 151.943 205.059C152.252 204.536 152.407 203.96 152.407 203.331V194.275H156.311L156.327 210.275H152.423L152.407 208.819C151.852 209.395 151.196 209.854 150.439 210.195C149.681 210.526 148.871 210.691 148.007 210.691C146.844 210.691 145.783 210.408 144.823 209.843C143.863 209.267 143.095 208.504 142.519 207.555C141.953 206.595 141.671 205.528 141.671 204.355ZM164.249 210.563C163.417 210.51 162.612 210.344 161.833 210.067C161.065 209.779 160.383 209.39 159.785 208.899C159.188 208.408 158.729 207.822 158.409 207.139L161.705 205.731C161.833 205.944 162.041 206.174 162.329 206.419C162.617 206.654 162.959 206.851 163.353 207.011C163.759 207.171 164.201 207.251 164.681 207.251C165.087 207.251 165.471 207.198 165.833 207.091C166.207 206.974 166.505 206.798 166.729 206.563C166.964 206.328 167.081 206.024 167.081 205.651C167.081 205.256 166.943 204.952 166.665 204.739C166.399 204.515 166.057 204.35 165.641 204.243C165.236 204.126 164.841 204.019 164.457 203.923C163.444 203.72 162.5 203.406 161.625 202.979C160.761 202.552 160.063 202.003 159.529 201.331C159.007 200.648 158.745 199.827 158.745 198.867C158.745 197.811 159.023 196.899 159.577 196.131C160.143 195.363 160.873 194.771 161.769 194.355C162.676 193.939 163.652 193.731 164.697 193.731C165.967 193.731 167.129 193.998 168.185 194.531C169.252 195.054 170.095 195.795 170.713 196.755L167.625 198.579C167.476 198.323 167.268 198.088 167.001 197.875C166.735 197.651 166.431 197.47 166.089 197.331C165.748 197.182 165.391 197.096 165.017 197.075C164.537 197.054 164.1 197.096 163.705 197.203C163.311 197.31 162.991 197.491 162.745 197.747C162.511 198.003 162.393 198.344 162.393 198.771C162.393 199.176 162.553 199.48 162.873 199.683C163.193 199.875 163.577 200.024 164.025 200.131C164.484 200.238 164.921 200.355 165.337 200.483C166.276 200.792 167.156 201.171 167.977 201.619C168.809 202.067 169.476 202.616 169.977 203.267C170.479 203.918 170.719 204.696 170.697 205.603C170.697 206.638 170.388 207.544 169.769 208.323C169.151 209.091 168.351 209.678 167.369 210.083C166.399 210.488 165.359 210.648 164.249 210.563ZM173.061 194.275H176.965V210.275H173.061V194.275ZM175.045 192.211C174.469 192.211 173.983 192.024 173.589 191.651C173.194 191.267 172.997 190.787 172.997 190.211C172.997 189.646 173.194 189.171 173.589 188.787C173.983 188.403 174.463 188.211 175.029 188.211C175.594 188.211 176.069 188.403 176.453 188.787C176.847 189.171 177.045 189.646 177.045 190.211C177.045 190.787 176.853 191.267 176.469 191.651C176.085 192.024 175.61 192.211 175.045 192.211ZM195.342 200.163V210.275H191.438V201.187C191.438 200.558 191.283 199.987 190.974 199.475C190.664 198.952 190.248 198.542 189.726 198.243C189.214 197.934 188.643 197.779 188.014 197.779C187.384 197.779 186.808 197.934 186.286 198.243C185.774 198.542 185.363 198.952 185.054 199.475C184.755 199.987 184.606 200.558 184.606 201.187V210.275H180.702L180.686 194.275H184.59L184.606 195.699C185.15 195.123 185.8 194.67 186.558 194.339C187.315 193.998 188.131 193.827 189.006 193.827C190.168 193.827 191.23 194.115 192.19 194.691C193.15 195.256 193.912 196.019 194.478 196.979C195.054 197.928 195.342 198.99 195.342 200.163ZM205.257 210.691C203.785 210.691 202.441 210.312 201.225 209.555C200.02 208.798 199.054 207.779 198.329 206.499C197.614 205.219 197.257 203.806 197.257 202.259C197.257 201.096 197.465 200.008 197.881 198.995C198.297 197.971 198.868 197.075 199.593 196.307C200.329 195.528 201.182 194.92 202.153 194.483C203.124 194.046 204.158 193.827 205.257 193.827C206.505 193.827 207.646 194.094 208.681 194.627C209.726 195.15 210.612 195.87 211.337 196.787C212.062 197.704 212.59 198.75 212.921 199.923C213.252 201.096 213.326 202.323 213.145 203.603H201.449C201.598 204.2 201.844 204.739 202.185 205.219C202.526 205.688 202.958 206.067 203.481 206.355C204.004 206.632 204.596 206.776 205.257 206.787C205.94 206.798 206.558 206.638 207.113 206.307C207.678 205.966 208.148 205.507 208.521 204.931L212.505 205.859C211.854 207.278 210.884 208.44 209.593 209.347C208.302 210.243 206.857 210.691 205.257 210.691ZM201.321 200.675H209.193C209.076 200.035 208.825 199.459 208.441 198.947C208.068 198.424 207.604 198.008 207.049 197.699C206.494 197.39 205.897 197.235 205.257 197.235C204.617 197.235 204.025 197.39 203.481 197.699C202.937 197.998 202.473 198.408 202.089 198.931C201.716 199.443 201.46 200.024 201.321 200.675ZM220.593 210.563C219.761 210.51 218.956 210.344 218.177 210.067C217.409 209.779 216.726 209.39 216.129 208.899C215.532 208.408 215.073 207.822 214.753 207.139L218.049 205.731C218.177 205.944 218.385 206.174 218.673 206.419C218.961 206.654 219.302 206.851 219.697 207.011C220.102 207.171 220.545 207.251 221.025 207.251C221.43 207.251 221.814 207.198 222.177 207.091C222.55 206.974 222.849 206.798 223.073 206.563C223.308 206.328 223.425 206.024 223.425 205.651C223.425 205.256 223.286 204.952 223.009 204.739C222.742 204.515 222.401 204.35 221.985 204.243C221.58 204.126 221.185 204.019 220.801 203.923C219.788 203.72 218.844 203.406 217.969 202.979C217.105 202.552 216.406 202.003 215.873 201.331C215.35 200.648 215.089 199.827 215.089 198.867C215.089 197.811 215.366 196.899 215.921 196.131C216.486 195.363 217.217 194.771 218.113 194.355C219.02 193.939 219.996 193.731 221.041 193.731C222.31 193.731 223.473 193.998 224.529 194.531C225.596 195.054 226.438 195.795 227.057 196.755L223.969 198.579C223.82 198.323 223.612 198.088 223.345 197.875C223.078 197.651 222.774 197.47 222.433 197.331C222.092 197.182 221.734 197.096 221.361 197.075C220.881 197.054 220.444 197.096 220.049 197.203C219.654 197.31 219.334 197.491 219.089 197.747C218.854 198.003 218.737 198.344 218.737 198.771C218.737 199.176 218.897 199.48 219.217 199.683C219.537 199.875 219.921 200.024 220.369 200.131C220.828 200.238 221.265 200.355 221.681 200.483C222.62 200.792 223.5 201.171 224.321 201.619C225.153 202.067 225.82 202.616 226.321 203.267C226.822 203.918 227.062 204.696 227.041 205.603C227.041 206.638 226.732 207.544 226.113 208.323C225.494 209.091 224.694 209.678 223.713 210.083C222.742 210.488 221.702 210.648 220.593 210.563ZM234.499 210.563C233.667 210.51 232.862 210.344 232.083 210.067C231.315 209.779 230.633 209.39 230.035 208.899C229.438 208.408 228.979 207.822 228.659 207.139L231.955 205.731C232.083 205.944 232.291 206.174 232.579 206.419C232.867 206.654 233.209 206.851 233.603 207.011C234.009 207.171 234.451 207.251 234.931 207.251C235.337 207.251 235.721 207.198 236.083 207.091C236.457 206.974 236.755 206.798 236.979 206.563C237.214 206.328 237.331 206.024 237.331 205.651C237.331 205.256 237.193 204.952 236.915 204.739C236.649 204.515 236.307 204.35 235.891 204.243C235.486 204.126 235.091 204.019 234.707 203.923C233.694 203.72 232.75 203.406 231.875 202.979C231.011 202.552 230.313 202.003 229.779 201.331C229.257 200.648 228.995 199.827 228.995 198.867C228.995 197.811 229.273 196.899 229.827 196.131C230.393 195.363 231.123 194.771 232.019 194.355C232.926 193.939 233.902 193.731 234.947 193.731C236.217 193.731 237.379 193.998 238.435 194.531C239.502 195.054 240.345 195.795 240.963 196.755L237.875 198.579C237.726 198.323 237.518 198.088 237.251 197.875C236.985 197.651 236.681 197.47 236.339 197.331C235.998 197.182 235.641 197.096 235.267 197.075C234.787 197.054 234.35 197.096 233.955 197.203C233.561 197.31 233.241 197.491 232.995 197.747C232.761 198.003 232.643 198.344 232.643 198.771C232.643 199.176 232.803 199.48 233.123 199.683C233.443 199.875 233.827 200.024 234.275 200.131C234.734 200.238 235.171 200.355 235.587 200.483C236.526 200.792 237.406 201.171 238.227 201.619C239.059 202.067 239.726 202.616 240.227 203.267C240.729 203.918 240.969 204.696 240.947 205.603C240.947 206.638 240.638 207.544 240.019 208.323C239.401 209.091 238.601 209.678 237.619 210.083C236.649 210.488 235.609 210.648 234.499 210.563ZM135.217 248.275V225.875H149.265V229.779H139.121V234.323H147.169V238.227H139.121V244.371H149.265V248.275H135.217ZM167.435 238.163V248.275H163.531V239.187C163.531 238.558 163.377 237.987 163.067 237.475C162.758 236.952 162.342 236.542 161.819 236.243C161.307 235.934 160.737 235.779 160.107 235.779C159.478 235.779 158.902 235.934 158.379 236.243C157.867 236.542 157.457 236.952 157.147 237.475C156.849 237.987 156.699 238.558 156.699 239.187V248.275H152.795L152.779 232.275H156.683L156.699 233.699C157.243 233.123 157.894 232.67 158.651 232.339C159.409 231.998 160.225 231.827 161.099 231.827C162.262 231.827 163.323 232.115 164.283 232.691C165.243 233.256 166.006 234.019 166.571 234.979C167.147 235.928 167.435 236.99 167.435 238.163ZM182.183 232.275H186.087V248.579C186.087 249.731 185.852 250.776 185.383 251.715C184.913 252.664 184.273 253.475 183.463 254.147C182.652 254.83 181.724 255.352 180.679 255.715C179.633 256.088 178.535 256.275 177.383 256.275C176.263 256.275 175.185 256.046 174.151 255.587C173.116 255.128 172.199 254.499 171.399 253.699C170.609 252.91 170.007 252.008 169.591 250.995L173.159 249.379C173.372 249.966 173.692 250.478 174.119 250.915C174.556 251.363 175.057 251.71 175.623 251.955C176.188 252.211 176.775 252.339 177.383 252.339C178.001 252.339 178.593 252.254 179.159 252.083C179.735 251.912 180.252 251.662 180.711 251.331C181.169 251.011 181.527 250.616 181.783 250.147C182.049 249.688 182.183 249.166 182.183 248.579V246.323C181.681 247.027 181.052 247.598 180.295 248.035C179.537 248.472 178.663 248.691 177.671 248.691C176.519 248.691 175.441 248.472 174.439 248.035C173.436 247.598 172.551 246.995 171.783 246.227C171.025 245.448 170.428 244.552 169.991 243.539C169.564 242.526 169.351 241.438 169.351 240.275C169.351 239.112 169.564 238.024 169.991 237.011C170.428 235.998 171.025 235.107 171.783 234.339C172.551 233.56 173.436 232.952 174.439 232.515C175.441 232.078 176.519 231.859 177.671 231.859C178.663 231.859 179.537 232.078 180.295 232.515C181.052 232.942 181.681 233.507 182.183 234.211V232.275ZM177.719 244.931C178.54 244.931 179.265 244.723 179.895 244.307C180.535 243.88 181.036 243.315 181.399 242.611C181.761 241.896 181.943 241.118 181.943 240.275C181.943 239.422 181.756 238.643 181.383 237.939C181.02 237.235 180.519 236.67 179.879 236.243C179.249 235.816 178.529 235.603 177.719 235.603C176.919 235.603 176.188 235.816 175.527 236.243C174.865 236.659 174.337 237.219 173.943 237.923C173.548 238.627 173.351 239.411 173.351 240.275C173.351 241.139 173.548 241.923 173.943 242.627C174.337 243.331 174.865 243.891 175.527 244.307C176.188 244.723 176.919 244.931 177.719 244.931ZM189.561 232.275H193.465V248.275H189.561V232.275ZM191.545 230.211C190.969 230.211 190.483 230.024 190.089 229.651C189.694 229.267 189.497 228.787 189.497 228.211C189.497 227.646 189.694 227.171 190.089 226.787C190.483 226.403 190.963 226.211 191.529 226.211C192.094 226.211 192.569 226.403 192.953 226.787C193.347 227.171 193.545 227.646 193.545 228.211C193.545 228.787 193.353 229.267 192.969 229.651C192.585 230.024 192.11 230.211 191.545 230.211ZM211.842 238.163V248.275H207.938V239.187C207.938 238.558 207.783 237.987 207.474 237.475C207.164 236.952 206.748 236.542 206.226 236.243C205.714 235.934 205.143 235.779 204.514 235.779C203.884 235.779 203.308 235.934 202.786 236.243C202.274 236.542 201.863 236.952 201.554 237.475C201.255 237.987 201.106 238.558 201.106 239.187V248.275H197.202L197.186 232.275H201.09L201.106 233.699C201.65 233.123 202.3 232.67 203.058 232.339C203.815 231.998 204.631 231.827 205.506 231.827C206.668 231.827 207.73 232.115 208.69 232.691C209.65 233.256 210.412 234.019 210.978 234.979C211.554 235.928 211.842 236.99 211.842 238.163ZM221.757 248.691C220.285 248.691 218.941 248.312 217.725 247.555C216.52 246.798 215.554 245.779 214.829 244.499C214.114 243.219 213.757 241.806 213.757 240.259C213.757 239.096 213.965 238.008 214.381 236.995C214.797 235.971 215.368 235.075 216.093 234.307C216.829 233.528 217.682 232.92 218.653 232.483C219.624 232.046 220.658 231.827 221.757 231.827C223.005 231.827 224.146 232.094 225.181 232.627C226.226 233.15 227.112 233.87 227.837 234.787C228.562 235.704 229.09 236.75 229.421 237.923C229.752 239.096 229.826 240.323 229.645 241.603H217.949C218.098 242.2 218.344 242.739 218.685 243.219C219.026 243.688 219.458 244.067 219.981 244.355C220.504 244.632 221.096 244.776 221.757 244.787C222.44 244.798 223.058 244.638 223.613 244.307C224.178 243.966 224.648 243.507 225.021 242.931L229.005 243.859C228.354 245.278 227.384 246.44 226.093 247.347C224.802 248.243 223.357 248.691 221.757 248.691ZM217.821 238.675H225.693C225.576 238.035 225.325 237.459 224.941 236.947C224.568 236.424 224.104 236.008 223.549 235.699C222.994 235.39 222.397 235.235 221.757 235.235C221.117 235.235 220.525 235.39 219.981 235.699C219.437 235.998 218.973 236.408 218.589 236.931C218.216 237.443 217.96 238.024 217.821 238.675Z" fill="white"/>
<path d="M516.694 156.768L600.343 11.8837H767.64L851.289 156.768L767.64 301.651H600.343L516.694 156.768Z" stroke="#D1D1D1" stroke-width="3"/>
<path d="M516 445.884L599.649 301H766.946L850.595 445.884L766.946 590.768H599.649L516 445.884Z" stroke="#D1D1D1" stroke-width="3"/>
<path d="M14.9287 446.535L98.5774 301.651H265.875L349.524 446.535L265.875 591.418H98.5774L14.9287 446.535Z" stroke="#D1D1D1" stroke-width="3"/>
<path d="M527.951 301.651C527.951 354.67 484.971 397.651 431.951 397.651C378.932 397.651 335.951 354.67 335.951 301.651C335.951 248.632 378.932 205.651 431.951 205.651C484.971 205.651 527.951 248.632 527.951 301.651ZM354.774 301.651C354.774 344.275 389.327 378.828 431.951 378.828C474.575 378.828 509.128 344.275 509.128 301.651C509.128 259.027 474.575 224.474 431.951 224.474C389.327 224.474 354.774 259.027 354.774 301.651Z" fill="white"/>
<path d="M527.951 301.651C527.951 289.044 525.468 276.561 520.644 264.913C515.819 253.266 508.748 242.683 499.833 233.769C490.919 224.854 480.336 217.783 468.689 212.958C457.042 208.134 444.558 205.651 431.951 205.651L445.201 215.151L431.951 224.651C442.037 224.651 452.023 226.837 461.341 230.697C470.659 234.556 479.125 240.214 486.257 247.345C493.389 254.477 499.046 262.943 502.905 272.261C506.765 281.579 508.951 291.565 508.951 301.651L518.351 315.151L527.951 301.651Z" fill="#FF5656"/>
<path d="M335.951 301.651C335.951 314.258 338.434 326.741 343.259 338.388C348.083 350.036 355.154 360.619 364.069 369.533C372.983 378.448 383.566 385.519 395.214 390.343C406.861 395.168 419.344 397.651 431.951 397.651L419.451 388.051L431.951 378.451C421.866 378.451 411.879 376.464 402.561 372.605C393.243 368.745 384.777 363.088 377.645 355.957C370.514 348.825 364.857 340.359 360.997 331.041C357.138 321.723 354.951 311.736 354.951 301.651L345.551 288.651L335.951 301.651Z" fill="#111111"/>
<path d="M527.951 301.651C527.951 354.67 484.971 397.651 431.951 397.651C378.932 397.651 335.951 354.67 335.951 301.651C335.951 248.632 378.932 205.651 431.951 205.651C484.971 205.651 527.951 248.632 527.951 301.651ZM354.774 301.651C354.774 344.275 389.327 378.828 431.951 378.828C474.575 378.828 509.128 344.275 509.128 301.651C509.128 259.027 474.575 224.474 431.951 224.474C389.327 224.474 354.774 259.027 354.774 301.651Z" fill="white"/>
<path d="M527.951 301.651C527.951 289.044 525.468 276.561 520.644 264.913C515.819 253.266 508.748 242.683 499.833 233.769C490.919 224.854 480.336 217.783 468.689 212.958C457.042 208.134 444.558 205.651 431.951 205.651L445.201 215.151L431.951 224.651C442.037 224.651 452.023 226.837 461.341 230.697C470.659 234.556 479.125 240.214 486.257 247.345C493.389 254.477 499.046 262.943 502.905 272.261C506.765 281.579 508.951 291.565 508.951 301.651L518.351 315.151L527.951 301.651Z" fill="#FF5656"/>
<path d="M335.951 301.651C335.951 314.258 338.434 326.741 343.259 338.388C348.083 350.036 355.154 360.619 364.069 369.533C372.983 378.448 383.566 385.519 395.214 390.343C406.861 395.168 419.344 397.651 431.951 397.651L419.451 388.051L431.951 378.451C421.866 378.451 411.879 376.464 402.561 372.605C393.243 368.745 384.777 363.088 377.645 355.957C370.514 348.825 364.857 340.359 360.997 331.041C357.138 321.723 354.951 311.736 354.951 301.651L345.551 288.651L335.951 301.651Z" fill="#111111"/>
<path d="M265.824 301.651L349.473 156.767H516.77L600.419 301.651L516.77 446.535H349.473L265.824 301.651Z" fill="#9D70F9"/>
<path d="M388.2 353V269H420C424.6 269 428.76 269.96 432.48 271.88C436.2 273.76 439.14 276.44 441.3 279.92C443.5 283.4 444.6 287.48 444.6 292.16C444.6 293.92 444.38 295.78 443.94 297.74C443.5 299.66 442.72 301.46 441.6 303.14C440.48 304.82 438.88 306.14 436.8 307.1C439.48 307.74 441.6 308.94 443.16 310.7C444.72 312.46 445.88 314.5 446.64 316.82C447.44 319.1 447.96 321.42 448.2 323.78C448.44 326.1 448.56 328.2 448.56 330.08C448.56 334.32 447.42 338.18 445.14 341.66C442.86 345.1 439.8 347.86 435.96 349.94C432.12 351.98 427.88 353 423.24 353H388.2ZM406.2 337.76H421.32C423.4 337.76 425.28 337.28 426.96 336.32C428.68 335.32 430.04 333.96 431.04 332.24C432.08 330.52 432.6 328.56 432.6 326.36C432.6 324.52 432.08 322.78 431.04 321.14C430.04 319.46 428.68 318.1 426.96 317.06C425.28 316.02 423.4 315.5 421.32 315.5H406.2V337.76ZM406.2 300.5H417.84C420.24 300.5 422.3 299.7 424.02 298.1C425.74 296.5 426.6 294.48 426.6 292.04C426.6 289.56 425.74 287.66 424.02 286.34C422.3 285.02 420.24 284.36 417.84 284.36H406.2V300.5ZM456.858 353V269H474.858V353H456.858Z" fill="white"/>
<path d="M528 309C528 362.019 485.019 405 432 405C378.981 405 336 362.019 336 309C336 255.981 378.981 213 432 213C485.019 213 528 255.981 528 309ZM354.823 309C354.823 351.624 389.376 386.177 432 386.177C474.624 386.177 509.177 351.624 509.177 309C509.177 266.376 474.624 231.823 432 231.823C389.376 231.823 354.823 266.376 354.823 309Z" fill="white"/>
<path d="M528 309C528 296.393 525.517 283.91 520.692 272.262C515.868 260.615 508.797 250.032 499.882 241.118C490.968 232.203 480.385 225.132 468.738 220.308C457.09 215.483 444.607 213 432 213L445.25 222.5L432 232C442.086 232 452.072 234.186 461.39 238.046C470.708 241.906 479.174 247.563 486.306 254.694C493.437 261.826 499.094 270.292 502.954 279.61C506.814 288.928 509 298.914 509 309L518.4 322.5L528 309Z" fill="#111111"/>
<path d="M336 309C336 321.607 338.483 334.09 343.308 345.738C348.132 357.385 355.203 367.968 364.118 376.882C373.032 385.797 383.615 392.868 395.262 397.692C406.91 402.517 419.393 405 432 405L419.5 395.4L432 385.8C421.914 385.8 411.928 383.814 402.61 379.954C393.292 376.094 384.826 370.437 377.694 363.306C370.563 356.174 364.906 347.708 361.046 338.39C357.186 329.072 355 319.086 355 309L345.6 296L336 309Z" fill="#FA5252"/>
<rect x="647.676" y="354.465" width="70" height="95" fill="#FF5656"/>
<rect x="660.676" y="378.465" width="44" height="6" fill="#111111"/>
<rect x="660.676" y="394.465" width="44" height="6" fill="#111111"/>
<rect x="660.676" y="410.465" width="44" height="6" fill="#111111"/>
<rect x="660.676" y="426.465" width="44" height="6" fill="#111111"/>
<rect x="664.676" y="347.465" width="37" height="11" fill="white"/>
<path d="M624.83 497.465V475.065H632.99C634.174 475.065 635.241 475.31 636.19 475.801C637.15 476.281 637.907 476.974 638.462 477.881C639.027 478.777 639.31 479.838 639.31 481.065C639.31 481.609 639.23 482.158 639.07 482.713C638.91 483.268 638.665 483.769 638.334 484.217C638.003 484.654 637.577 484.98 637.054 485.193C637.747 485.364 638.313 485.673 638.75 486.121C639.187 486.569 639.529 487.097 639.774 487.705C640.019 488.302 640.185 488.916 640.27 489.545C640.366 490.164 640.414 490.74 640.414 491.273C640.414 492.457 640.121 493.513 639.534 494.441C638.947 495.369 638.158 496.105 637.166 496.649C636.185 497.193 635.097 497.465 633.902 497.465H624.83ZM628.734 494.121H633.502C634.142 494.121 634.718 493.966 635.23 493.657C635.742 493.348 636.153 492.921 636.462 492.377C636.771 491.833 636.926 491.214 636.926 490.521C636.926 489.924 636.771 489.358 636.462 488.825C636.153 488.292 635.742 487.86 635.23 487.529C634.718 487.198 634.142 487.033 633.502 487.033H628.734V494.121ZM628.734 483.737H632.542C633.331 483.737 634.003 483.492 634.558 483.001C635.123 482.51 635.406 481.86 635.406 481.049C635.406 480.185 635.123 479.534 634.558 479.097C634.003 478.649 633.331 478.425 632.542 478.425H628.734V483.737ZM642.346 491.545V481.465H646.25V490.521C646.25 491.15 646.405 491.726 646.714 492.249C647.024 492.761 647.434 493.172 647.946 493.481C648.469 493.78 649.04 493.929 649.658 493.929C650.298 493.929 650.874 493.78 651.386 493.481C651.898 493.172 652.309 492.761 652.618 492.249C652.928 491.726 653.082 491.15 653.082 490.521V481.465H656.986L657.002 497.465H653.098L653.082 496.009C652.528 496.585 651.872 497.044 651.114 497.385C650.357 497.716 649.546 497.881 648.682 497.881C647.52 497.881 646.458 497.598 645.498 497.033C644.538 496.457 643.77 495.694 643.194 494.745C642.629 493.785 642.346 492.718 642.346 491.545ZM664.925 497.753C664.093 497.7 663.288 497.534 662.509 497.257C661.741 496.969 661.058 496.58 660.461 496.089C659.864 495.598 659.405 495.012 659.085 494.329L662.381 492.921C662.509 493.134 662.717 493.364 663.005 493.609C663.293 493.844 663.634 494.041 664.029 494.201C664.434 494.361 664.877 494.441 665.357 494.441C665.762 494.441 666.146 494.388 666.509 494.281C666.882 494.164 667.181 493.988 667.405 493.753C667.64 493.518 667.757 493.214 667.757 492.841C667.757 492.446 667.618 492.142 667.341 491.929C667.074 491.705 666.733 491.54 666.317 491.433C665.912 491.316 665.517 491.209 665.133 491.113C664.12 490.91 663.176 490.596 662.301 490.169C661.437 489.742 660.738 489.193 660.205 488.521C659.682 487.838 659.421 487.017 659.421 486.057C659.421 485.001 659.698 484.089 660.253 483.321C660.818 482.553 661.549 481.961 662.445 481.545C663.352 481.129 664.328 480.921 665.373 480.921C666.642 480.921 667.805 481.188 668.861 481.721C669.928 482.244 670.77 482.985 671.389 483.945L668.301 485.769C668.152 485.513 667.944 485.278 667.677 485.065C667.41 484.841 667.106 484.66 666.765 484.521C666.424 484.372 666.066 484.286 665.693 484.265C665.213 484.244 664.776 484.286 664.381 484.393C663.986 484.5 663.666 484.681 663.421 484.937C663.186 485.193 663.069 485.534 663.069 485.961C663.069 486.366 663.229 486.67 663.549 486.873C663.869 487.065 664.253 487.214 664.701 487.321C665.16 487.428 665.597 487.545 666.013 487.673C666.952 487.982 667.832 488.361 668.653 488.809C669.485 489.257 670.152 489.806 670.653 490.457C671.154 491.108 671.394 491.886 671.373 492.793C671.373 493.828 671.064 494.734 670.445 495.513C669.826 496.281 669.026 496.868 668.045 497.273C667.074 497.678 666.034 497.838 664.925 497.753ZM673.736 481.465H677.64V497.465H673.736V481.465ZM675.72 479.401C675.144 479.401 674.659 479.214 674.264 478.841C673.87 478.457 673.672 477.977 673.672 477.401C673.672 476.836 673.87 476.361 674.264 475.977C674.659 475.593 675.139 475.401 675.704 475.401C676.27 475.401 676.744 475.593 677.128 475.977C677.523 476.361 677.72 476.836 677.72 477.401C677.72 477.977 677.528 478.457 677.144 478.841C676.76 479.214 676.286 479.401 675.72 479.401ZM696.017 487.353V497.465H692.113V488.377C692.113 487.748 691.959 487.177 691.649 486.665C691.34 486.142 690.924 485.732 690.401 485.433C689.889 485.124 689.319 484.969 688.689 484.969C688.06 484.969 687.484 485.124 686.961 485.433C686.449 485.732 686.039 486.142 685.729 486.665C685.431 487.177 685.281 487.748 685.281 488.377V497.465H681.377L681.361 481.465H685.265L685.281 482.889C685.825 482.313 686.476 481.86 687.233 481.529C687.991 481.188 688.807 481.017 689.681 481.017C690.844 481.017 691.905 481.305 692.865 481.881C693.825 482.446 694.588 483.209 695.153 484.169C695.729 485.118 696.017 486.18 696.017 487.353ZM705.933 497.881C704.461 497.881 703.117 497.502 701.901 496.745C700.695 495.988 699.73 494.969 699.005 493.689C698.29 492.409 697.933 490.996 697.933 489.449C697.933 488.286 698.141 487.198 698.557 486.185C698.973 485.161 699.543 484.265 700.269 483.497C701.005 482.718 701.858 482.11 702.829 481.673C703.799 481.236 704.834 481.017 705.933 481.017C707.181 481.017 708.322 481.284 709.357 481.817C710.402 482.34 711.287 483.06 712.013 483.977C712.738 484.894 713.266 485.94 713.597 487.113C713.927 488.286 714.002 489.513 713.821 490.793H702.125C702.274 491.39 702.519 491.929 702.861 492.409C703.202 492.878 703.634 493.257 704.157 493.545C704.679 493.822 705.271 493.966 705.933 493.977C706.615 493.988 707.234 493.828 707.789 493.497C708.354 493.156 708.823 492.697 709.197 492.121L713.181 493.049C712.53 494.468 711.559 495.63 710.269 496.537C708.978 497.433 707.533 497.881 705.933 497.881ZM701.997 487.865H709.869C709.751 487.225 709.501 486.649 709.117 486.137C708.743 485.614 708.279 485.198 707.725 484.889C707.17 484.58 706.573 484.425 705.933 484.425C705.293 484.425 704.701 484.58 704.157 484.889C703.613 485.188 703.149 485.598 702.765 486.121C702.391 486.633 702.135 487.214 701.997 487.865ZM721.269 497.753C720.437 497.7 719.632 497.534 718.853 497.257C718.085 496.969 717.402 496.58 716.805 496.089C716.208 495.598 715.749 495.012 715.429 494.329L718.725 492.921C718.853 493.134 719.061 493.364 719.349 493.609C719.637 493.844 719.978 494.041 720.373 494.201C720.778 494.361 721.221 494.441 721.701 494.441C722.106 494.441 722.49 494.388 722.853 494.281C723.226 494.164 723.525 493.988 723.749 493.753C723.984 493.518 724.101 493.214 724.101 492.841C724.101 492.446 723.962 492.142 723.685 491.929C723.418 491.705 723.077 491.54 722.661 491.433C722.256 491.316 721.861 491.209 721.477 491.113C720.464 490.91 719.52 490.596 718.645 490.169C717.781 489.742 717.082 489.193 716.549 488.521C716.026 487.838 715.765 487.017 715.765 486.057C715.765 485.001 716.042 484.089 716.597 483.321C717.162 482.553 717.893 481.961 718.789 481.545C719.696 481.129 720.672 480.921 721.717 480.921C722.986 480.921 724.149 481.188 725.205 481.721C726.272 482.244 727.114 482.985 727.733 483.945L724.645 485.769C724.496 485.513 724.288 485.278 724.021 485.065C723.754 484.841 723.45 484.66 723.109 484.521C722.768 484.372 722.41 484.286 722.037 484.265C721.557 484.244 721.12 484.286 720.725 484.393C720.33 484.5 720.01 484.681 719.765 484.937C719.53 485.193 719.413 485.534 719.413 485.961C719.413 486.366 719.573 486.67 719.893 486.873C720.213 487.065 720.597 487.214 721.045 487.321C721.504 487.428 721.941 487.545 722.357 487.673C723.296 487.982 724.176 488.361 724.997 488.809C725.829 489.257 726.496 489.806 726.997 490.457C727.498 491.108 727.738 491.886 727.717 492.793C727.717 493.828 727.408 494.734 726.789 495.513C726.17 496.281 725.37 496.868 724.389 497.273C723.418 497.678 722.378 497.838 721.269 497.753ZM735.175 497.753C734.343 497.7 733.538 497.534 732.759 497.257C731.991 496.969 731.308 496.58 730.711 496.089C730.114 495.598 729.655 495.012 729.335 494.329L732.631 492.921C732.759 493.134 732.967 493.364 733.255 493.609C733.543 493.844 733.884 494.041 734.279 494.201C734.684 494.361 735.127 494.441 735.607 494.441C736.012 494.441 736.396 494.388 736.759 494.281C737.132 494.164 737.431 493.988 737.655 493.753C737.89 493.518 738.007 493.214 738.007 492.841C738.007 492.446 737.868 492.142 737.591 491.929C737.324 491.705 736.983 491.54 736.567 491.433C736.162 491.316 735.767 491.209 735.383 491.113C734.37 490.91 733.426 490.596 732.551 490.169C731.687 489.742 730.988 489.193 730.455 488.521C729.932 487.838 729.671 487.017 729.671 486.057C729.671 485.001 729.948 484.089 730.503 483.321C731.068 482.553 731.799 481.961 732.695 481.545C733.602 481.129 734.578 480.921 735.623 480.921C736.892 480.921 738.055 481.188 739.111 481.721C740.178 482.244 741.02 482.985 741.639 483.945L738.551 485.769C738.402 485.513 738.194 485.278 737.927 485.065C737.66 484.841 737.356 484.66 737.015 484.521C736.674 484.372 736.316 484.286 735.943 484.265C735.463 484.244 735.026 484.286 734.631 484.393C734.236 484.5 733.916 484.681 733.671 484.937C733.436 485.193 733.319 485.534 733.319 485.961C733.319 486.366 733.479 486.67 733.799 486.873C734.119 487.065 734.503 487.214 734.951 487.321C735.41 487.428 735.847 487.545 736.263 487.673C737.202 487.982 738.082 488.361 738.903 488.809C739.735 489.257 740.402 489.806 740.903 490.457C741.404 491.108 741.644 491.886 741.623 492.793C741.623 493.828 741.314 494.734 740.695 495.513C740.076 496.281 739.276 496.868 738.295 497.273C737.324 497.678 736.284 497.838 735.175 497.753ZM614.127 535.465V513.065H622.719C623.935 513.065 625.034 513.369 626.015 513.977C626.996 514.585 627.775 515.401 628.351 516.425C628.927 517.438 629.215 518.564 629.215 519.801C629.215 520.814 629.028 521.748 628.655 522.601C628.292 523.444 627.78 524.174 627.119 524.793C626.468 525.412 625.716 525.881 624.863 526.201L630.223 535.465H625.727L620.543 526.553H618.031V535.465H614.127ZM618.031 522.649H622.271C622.826 522.649 623.332 522.51 623.791 522.233C624.25 521.956 624.618 521.582 624.895 521.113C625.172 520.644 625.311 520.121 625.311 519.545C625.311 518.958 625.172 518.43 624.895 517.961C624.618 517.492 624.25 517.118 623.791 516.841C623.332 516.564 622.826 516.425 622.271 516.425H618.031V522.649ZM639.23 535.881C637.758 535.881 636.414 535.502 635.198 534.745C633.992 533.988 633.027 532.969 632.302 531.689C631.587 530.409 631.23 528.996 631.23 527.449C631.23 526.286 631.438 525.198 631.854 524.185C632.27 523.161 632.84 522.265 633.566 521.497C634.302 520.718 635.155 520.11 636.126 519.673C637.096 519.236 638.131 519.017 639.23 519.017C640.478 519.017 641.619 519.284 642.654 519.817C643.699 520.34 644.584 521.06 645.31 521.977C646.035 522.894 646.563 523.94 646.894 525.113C647.224 526.286 647.299 527.513 647.118 528.793H635.422C635.571 529.39 635.816 529.929 636.158 530.409C636.499 530.878 636.931 531.257 637.454 531.545C637.976 531.822 638.568 531.966 639.23 531.977C639.912 531.988 640.531 531.828 641.086 531.497C641.651 531.156 642.12 530.697 642.494 530.121L646.478 531.049C645.827 532.468 644.856 533.63 643.566 534.537C642.275 535.433 640.83 535.881 639.23 535.881ZM635.294 525.865H643.166C643.048 525.225 642.798 524.649 642.414 524.137C642.04 523.614 641.576 523.198 641.022 522.889C640.467 522.58 639.87 522.425 639.23 522.425C638.59 522.425 637.998 522.58 637.454 522.889C636.91 523.188 636.446 523.598 636.062 524.121C635.688 524.633 635.432 525.214 635.294 525.865ZM653.625 543.465H649.721V519.465H653.625V521.497C654.147 520.772 654.787 520.185 655.545 519.737C656.313 519.278 657.209 519.049 658.233 519.049C659.406 519.049 660.499 519.268 661.513 519.705C662.526 520.142 663.417 520.75 664.185 521.529C664.963 522.297 665.566 523.188 665.993 524.201C666.43 525.214 666.649 526.302 666.649 527.465C666.649 528.628 666.43 529.721 665.993 530.745C665.566 531.769 664.963 532.67 664.185 533.449C663.417 534.217 662.526 534.82 661.513 535.257C660.499 535.694 659.406 535.913 658.233 535.913C657.209 535.913 656.313 535.689 655.545 535.241C654.787 534.782 654.147 534.19 653.625 533.465V543.465ZM658.185 522.809C657.374 522.809 656.649 523.022 656.009 523.449C655.369 523.865 654.867 524.425 654.505 525.129C654.142 525.833 653.961 526.612 653.961 527.465C653.961 528.318 654.142 529.102 654.505 529.817C654.867 530.521 655.369 531.086 656.009 531.513C656.649 531.929 657.374 532.137 658.185 532.137C659.006 532.137 659.758 531.929 660.441 531.513C661.123 531.097 661.667 530.537 662.073 529.833C662.478 529.118 662.681 528.329 662.681 527.465C662.681 526.612 662.478 525.833 662.073 525.129C661.667 524.425 661.123 523.865 660.441 523.449C659.769 523.022 659.017 522.809 658.185 522.809ZM676.261 535.881C674.789 535.881 673.445 535.502 672.229 534.745C671.023 533.988 670.058 532.974 669.333 531.705C668.618 530.425 668.261 529.012 668.261 527.465C668.261 526.292 668.469 525.198 668.885 524.185C669.301 523.161 669.871 522.265 670.597 521.497C671.333 520.718 672.186 520.11 673.157 519.673C674.127 519.236 675.162 519.017 676.261 519.017C677.733 519.017 679.071 519.396 680.277 520.153C681.493 520.91 682.458 521.929 683.173 523.209C683.898 524.489 684.261 525.908 684.261 527.465C684.261 528.628 684.053 529.716 683.637 530.729C683.221 531.742 682.645 532.638 681.909 533.417C681.183 534.185 680.335 534.788 679.365 535.225C678.405 535.662 677.37 535.881 676.261 535.881ZM676.261 531.977C677.039 531.977 677.738 531.769 678.357 531.353C678.975 530.937 679.461 530.388 679.813 529.705C680.175 529.022 680.357 528.276 680.357 527.465C680.357 526.633 680.17 525.876 679.797 525.193C679.434 524.5 678.938 523.95 678.309 523.545C677.69 523.129 677.007 522.921 676.261 522.921C675.493 522.921 674.799 523.129 674.181 523.545C673.562 523.961 673.071 524.516 672.709 525.209C672.346 525.902 672.165 526.654 672.165 527.465C672.165 528.308 672.351 529.07 672.725 529.753C673.098 530.436 673.594 530.98 674.213 531.385C674.842 531.78 675.525 531.977 676.261 531.977ZM686.768 535.465L686.752 519.465H690.656L690.672 520.889C691.216 520.313 691.867 519.86 692.624 519.529C693.381 519.188 694.197 519.017 695.072 519.017C695.659 519.017 696.245 519.102 696.832 519.273L695.296 523.209C694.891 523.049 694.485 522.969 694.08 522.969C693.451 522.969 692.875 523.124 692.352 523.433C691.84 523.732 691.429 524.142 691.12 524.665C690.821 525.177 690.672 525.748 690.672 526.377V535.465H686.768ZM707.641 523.369H704.537V535.465H700.633V523.369H698.265V519.465H700.633V514.441H704.537V519.465H707.641V523.369ZM710.283 519.465H714.187V535.465H710.283V519.465ZM712.267 517.401C711.691 517.401 711.206 517.214 710.811 516.841C710.417 516.457 710.219 515.977 710.219 515.401C710.219 514.836 710.417 514.361 710.811 513.977C711.206 513.593 711.686 513.401 712.251 513.401C712.817 513.401 713.291 513.593 713.675 513.977C714.07 514.361 714.267 514.836 714.267 515.401C714.267 515.977 714.075 516.457 713.691 516.841C713.307 517.214 712.833 517.401 712.267 517.401ZM732.564 525.353V535.465H728.66V526.377C728.66 525.748 728.506 525.177 728.196 524.665C727.887 524.142 727.471 523.732 726.948 523.433C726.436 523.124 725.866 522.969 725.236 522.969C724.607 522.969 724.031 523.124 723.508 523.433C722.996 523.732 722.586 524.142 722.276 524.665C721.978 525.177 721.828 525.748 721.828 526.377V535.465H717.924L717.908 519.465H721.812L721.828 520.889C722.372 520.313 723.023 519.86 723.78 519.529C724.538 519.188 725.354 519.017 726.228 519.017C727.391 519.017 728.452 519.305 729.412 519.881C730.372 520.446 731.135 521.209 731.7 522.169C732.276 523.118 732.564 524.18 732.564 525.353ZM747.312 519.465H751.216V535.769C751.216 536.921 750.981 537.966 750.512 538.905C750.042 539.854 749.402 540.665 748.592 541.337C747.781 542.02 746.853 542.542 745.808 542.905C744.762 543.278 743.664 543.465 742.512 543.465C741.392 543.465 740.314 543.236 739.28 542.777C738.245 542.318 737.328 541.689 736.528 540.889C735.738 540.1 735.136 539.198 734.72 538.185L738.288 536.569C738.501 537.156 738.821 537.668 739.248 538.105C739.685 538.553 740.186 538.9 740.752 539.145C741.317 539.401 741.904 539.529 742.512 539.529C743.13 539.529 743.722 539.444 744.288 539.273C744.864 539.102 745.381 538.852 745.84 538.521C746.298 538.201 746.656 537.806 746.912 537.337C747.178 536.878 747.312 536.356 747.312 535.769V533.513C746.81 534.217 746.181 534.788 745.424 535.225C744.666 535.662 743.792 535.881 742.8 535.881C741.648 535.881 740.57 535.662 739.568 535.225C738.565 534.788 737.68 534.185 736.912 533.417C736.154 532.638 735.557 531.742 735.12 530.729C734.693 529.716 734.48 528.628 734.48 527.465C734.48 526.302 734.693 525.214 735.12 524.201C735.557 523.188 736.154 522.297 736.912 521.529C737.68 520.75 738.565 520.142 739.568 519.705C740.57 519.268 741.648 519.049 742.8 519.049C743.792 519.049 744.666 519.268 745.424 519.705C746.181 520.132 746.81 520.697 747.312 521.401V519.465ZM742.848 532.121C743.669 532.121 744.394 531.913 745.024 531.497C745.664 531.07 746.165 530.505 746.528 529.801C746.89 529.086 747.072 528.308 747.072 527.465C747.072 526.612 746.885 525.833 746.512 525.129C746.149 524.425 745.648 523.86 745.008 523.433C744.378 523.006 743.658 522.793 742.848 522.793C742.048 522.793 741.317 523.006 740.656 523.433C739.994 523.849 739.466 524.409 739.072 525.113C738.677 525.817 738.48 526.601 738.48 527.465C738.48 528.329 738.677 529.113 739.072 529.817C739.466 530.521 739.994 531.081 740.656 531.497C741.317 531.913 742.048 532.121 742.848 532.121Z" fill="white"/>
<path fill-rule="evenodd" clip-rule="evenodd" d="M674 138C674 143.523 678.477 148 684 148C689.523 148 694 143.523 694 138" fill="#9D70F9"/>
<path fill-rule="evenodd" clip-rule="evenodd" d="M684 63C700.569 63 714 76.4312 714 92.9998C714 102.566 714 112.171 714 118C714 133 724 138 724 138H644C644 138 654 133 654 118C654 112.171 654 102.566 654 92.9998C654 76.4312 667.431 63 684 63Z" fill="#9D70F9"/>
<rect x="658" y="87" width="52" height="27" fill="white"/>
<rect x="666" y="92" width="37" height="3" fill="#111111"/>
<rect x="666" y="99" width="16" height="3" fill="#111111"/>
<rect x="666" y="106" width="30" height="3" fill="#111111"/>
<path d="M626.154 196V173.6H634.314C635.498 173.6 636.565 173.845 637.514 174.336C638.474 174.816 639.232 175.509 639.786 176.416C640.352 177.312 640.634 178.373 640.634 179.6C640.634 180.144 640.554 180.693 640.394 181.248C640.234 181.803 639.989 182.304 639.658 182.752C639.328 183.189 638.901 183.515 638.378 183.728C639.072 183.899 639.637 184.208 640.074 184.656C640.512 185.104 640.853 185.632 641.098 186.24C641.344 186.837 641.509 187.451 641.594 188.08C641.69 188.699 641.738 189.275 641.738 189.808C641.738 190.992 641.445 192.048 640.858 192.976C640.272 193.904 639.482 194.64 638.49 195.184C637.509 195.728 636.421 196 635.226 196H626.154ZM630.058 192.656H634.826C635.466 192.656 636.042 192.501 636.554 192.192C637.066 191.883 637.477 191.456 637.786 190.912C638.096 190.368 638.25 189.749 638.25 189.056C638.25 188.459 638.096 187.893 637.786 187.36C637.477 186.827 637.066 186.395 636.554 186.064C636.042 185.733 635.466 185.568 634.826 185.568H630.058V192.656ZM630.058 182.272H633.866C634.656 182.272 635.328 182.027 635.882 181.536C636.448 181.045 636.73 180.395 636.73 179.584C636.73 178.72 636.448 178.069 635.882 177.632C635.328 177.184 634.656 176.96 633.866 176.96H630.058V182.272ZM643.671 190.08V180H647.575V189.056C647.575 189.685 647.729 190.261 648.039 190.784C648.348 191.296 648.759 191.707 649.271 192.016C649.793 192.315 650.364 192.464 650.983 192.464C651.623 192.464 652.199 192.315 652.711 192.016C653.223 191.707 653.633 191.296 653.943 190.784C654.252 190.261 654.407 189.685 654.407 189.056V180H658.311L658.327 196H654.423L654.407 194.544C653.852 195.12 653.196 195.579 652.439 195.92C651.681 196.251 650.871 196.416 650.007 196.416C648.844 196.416 647.783 196.133 646.823 195.568C645.863 194.992 645.095 194.229 644.519 193.28C643.953 192.32 643.671 191.253 643.671 190.08ZM666.249 196.288C665.417 196.235 664.612 196.069 663.833 195.792C663.065 195.504 662.383 195.115 661.785 194.624C661.188 194.133 660.729 193.547 660.409 192.864L663.705 191.456C663.833 191.669 664.041 191.899 664.329 192.144C664.617 192.379 664.959 192.576 665.353 192.736C665.759 192.896 666.201 192.976 666.681 192.976C667.087 192.976 667.471 192.923 667.833 192.816C668.207 192.699 668.505 192.523 668.729 192.288C668.964 192.053 669.081 191.749 669.081 191.376C669.081 190.981 668.943 190.677 668.665 190.464C668.399 190.24 668.057 190.075 667.641 189.968C667.236 189.851 666.841 189.744 666.457 189.648C665.444 189.445 664.5 189.131 663.625 188.704C662.761 188.277 662.063 187.728 661.529 187.056C661.007 186.373 660.745 185.552 660.745 184.592C660.745 183.536 661.023 182.624 661.577 181.856C662.143 181.088 662.873 180.496 663.769 180.08C664.676 179.664 665.652 179.456 666.697 179.456C667.967 179.456 669.129 179.723 670.185 180.256C671.252 180.779 672.095 181.52 672.713 182.48L669.625 184.304C669.476 184.048 669.268 183.813 669.001 183.6C668.735 183.376 668.431 183.195 668.089 183.056C667.748 182.907 667.391 182.821 667.017 182.8C666.537 182.779 666.1 182.821 665.705 182.928C665.311 183.035 664.991 183.216 664.745 183.472C664.511 183.728 664.393 184.069 664.393 184.496C664.393 184.901 664.553 185.205 664.873 185.408C665.193 185.6 665.577 185.749 666.025 185.856C666.484 185.963 666.921 186.08 667.337 186.208C668.276 186.517 669.156 186.896 669.977 187.344C670.809 187.792 671.476 188.341 671.977 188.992C672.479 189.643 672.719 190.421 672.697 191.328C672.697 192.363 672.388 193.269 671.769 194.048C671.151 194.816 670.351 195.403 669.369 195.808C668.399 196.213 667.359 196.373 666.249 196.288ZM675.061 180H678.965V196H675.061V180ZM677.045 177.936C676.469 177.936 675.983 177.749 675.589 177.376C675.194 176.992 674.997 176.512 674.997 175.936C674.997 175.371 675.194 174.896 675.589 174.512C675.983 174.128 676.463 173.936 677.029 173.936C677.594 173.936 678.069 174.128 678.453 174.512C678.847 174.896 679.045 175.371 679.045 175.936C679.045 176.512 678.853 176.992 678.469 177.376C678.085 177.749 677.61 177.936 677.045 177.936ZM697.342 185.888V196H693.438V186.912C693.438 186.283 693.283 185.712 692.974 185.2C692.664 184.677 692.248 184.267 691.726 183.968C691.214 183.659 690.643 183.504 690.014 183.504C689.384 183.504 688.808 183.659 688.286 183.968C687.774 184.267 687.363 184.677 687.054 185.2C686.755 185.712 686.606 186.283 686.606 186.912V196H682.702L682.686 180H686.59L686.606 181.424C687.15 180.848 687.8 180.395 688.558 180.064C689.315 179.723 690.131 179.552 691.006 179.552C692.168 179.552 693.23 179.84 694.19 180.416C695.15 180.981 695.912 181.744 696.478 182.704C697.054 183.653 697.342 184.715 697.342 185.888ZM707.257 196.416C705.785 196.416 704.441 196.037 703.225 195.28C702.02 194.523 701.054 193.504 700.329 192.224C699.614 190.944 699.257 189.531 699.257 187.984C699.257 186.821 699.465 185.733 699.881 184.72C700.297 183.696 700.868 182.8 701.593 182.032C702.329 181.253 703.182 180.645 704.153 180.208C705.124 179.771 706.158 179.552 707.257 179.552C708.505 179.552 709.646 179.819 710.681 180.352C711.726 180.875 712.612 181.595 713.337 182.512C714.062 183.429 714.59 184.475 714.921 185.648C715.252 186.821 715.326 188.048 715.145 189.328H703.449C703.598 189.925 703.844 190.464 704.185 190.944C704.526 191.413 704.958 191.792 705.481 192.08C706.004 192.357 706.596 192.501 707.257 192.512C707.94 192.523 708.558 192.363 709.113 192.032C709.678 191.691 710.148 191.232 710.521 190.656L714.505 191.584C713.854 193.003 712.884 194.165 711.593 195.072C710.302 195.968 708.857 196.416 707.257 196.416ZM703.321 186.4H711.193C711.076 185.76 710.825 185.184 710.441 184.672C710.068 184.149 709.604 183.733 709.049 183.424C708.494 183.115 707.897 182.96 707.257 182.96C706.617 182.96 706.025 183.115 705.481 183.424C704.937 183.723 704.473 184.133 704.089 184.656C703.716 185.168 703.46 185.749 703.321 186.4ZM722.593 196.288C721.761 196.235 720.956 196.069 720.177 195.792C719.409 195.504 718.726 195.115 718.129 194.624C717.532 194.133 717.073 193.547 716.753 192.864L720.049 191.456C720.177 191.669 720.385 191.899 720.673 192.144C720.961 192.379 721.302 192.576 721.697 192.736C722.102 192.896 722.545 192.976 723.025 192.976C723.43 192.976 723.814 192.923 724.177 192.816C724.55 192.699 724.849 192.523 725.073 192.288C725.308 192.053 725.425 191.749 725.425 191.376C725.425 190.981 725.286 190.677 725.009 190.464C724.742 190.24 724.401 190.075 723.985 189.968C723.58 189.851 723.185 189.744 722.801 189.648C721.788 189.445 720.844 189.131 719.969 188.704C719.105 188.277 718.406 187.728 717.873 187.056C717.35 186.373 717.089 185.552 717.089 184.592C717.089 183.536 717.366 182.624 717.921 181.856C718.486 181.088 719.217 180.496 720.113 180.08C721.02 179.664 721.996 179.456 723.041 179.456C724.31 179.456 725.473 179.723 726.529 180.256C727.596 180.779 728.438 181.52 729.057 182.48L725.969 184.304C725.82 184.048 725.612 183.813 725.345 183.6C725.078 183.376 724.774 183.195 724.433 183.056C724.092 182.907 723.734 182.821 723.361 182.8C722.881 182.779 722.444 182.821 722.049 182.928C721.654 183.035 721.334 183.216 721.089 183.472C720.854 183.728 720.737 184.069 720.737 184.496C720.737 184.901 720.897 185.205 721.217 185.408C721.537 185.6 721.921 185.749 722.369 185.856C722.828 185.963 723.265 186.08 723.681 186.208C724.62 186.517 725.5 186.896 726.321 187.344C727.153 187.792 727.82 188.341 728.321 188.992C728.822 189.643 729.062 190.421 729.041 191.328C729.041 192.363 728.732 193.269 728.113 194.048C727.494 194.816 726.694 195.403 725.713 195.808C724.742 196.213 723.702 196.373 722.593 196.288ZM736.499 196.288C735.667 196.235 734.862 196.069 734.083 195.792C733.315 195.504 732.633 195.115 732.035 194.624C731.438 194.133 730.979 193.547 730.659 192.864L733.955 191.456C734.083 191.669 734.291 191.899 734.579 192.144C734.867 192.379 735.209 192.576 735.603 192.736C736.009 192.896 736.451 192.976 736.931 192.976C737.337 192.976 737.721 192.923 738.083 192.816C738.457 192.699 738.755 192.523 738.979 192.288C739.214 192.053 739.331 191.749 739.331 191.376C739.331 190.981 739.193 190.677 738.915 190.464C738.649 190.24 738.307 190.075 737.891 189.968C737.486 189.851 737.091 189.744 736.707 189.648C735.694 189.445 734.75 189.131 733.875 188.704C733.011 188.277 732.313 187.728 731.779 187.056C731.257 186.373 730.995 185.552 730.995 184.592C730.995 183.536 731.273 182.624 731.827 181.856C732.393 181.088 733.123 180.496 734.019 180.08C734.926 179.664 735.902 179.456 736.947 179.456C738.217 179.456 739.379 179.723 740.435 180.256C741.502 180.779 742.345 181.52 742.963 182.48L739.875 184.304C739.726 184.048 739.518 183.813 739.251 183.6C738.985 183.376 738.681 183.195 738.339 183.056C737.998 182.907 737.641 182.821 737.267 182.8C736.787 182.779 736.35 182.821 735.955 182.928C735.561 183.035 735.241 183.216 734.995 183.472C734.761 183.728 734.643 184.069 734.643 184.496C734.643 184.901 734.803 185.205 735.123 185.408C735.443 185.6 735.827 185.749 736.275 185.856C736.734 185.963 737.171 186.08 737.587 186.208C738.526 186.517 739.406 186.896 740.227 187.344C741.059 187.792 741.726 188.341 742.227 188.992C742.729 189.643 742.969 190.421 742.947 191.328C742.947 192.363 742.638 193.269 742.019 194.048C741.401 194.816 740.601 195.403 739.619 195.808C738.649 196.213 737.609 196.373 736.499 196.288ZM635.33 211.6H639.826L647.97 234H643.826L642.386 230.032H632.786L631.346 234H627.202L635.33 211.6ZM634.21 226.128H640.946L637.57 216.896L634.21 226.128ZM650.654 234V210H654.558V234H650.654ZM665.194 234.416C663.722 234.416 662.378 234.037 661.162 233.28C659.957 232.523 658.992 231.504 658.266 230.224C657.552 228.944 657.194 227.531 657.194 225.984C657.194 224.821 657.402 223.733 657.818 222.72C658.234 221.696 658.805 220.8 659.53 220.032C660.266 219.253 661.12 218.645 662.09 218.208C663.061 217.771 664.096 217.552 665.194 217.552C666.442 217.552 667.584 217.819 668.618 218.352C669.664 218.875 670.549 219.595 671.274 220.512C672 221.429 672.528 222.475 672.858 223.648C673.189 224.821 673.264 226.048 673.082 227.328H661.386C661.536 227.925 661.781 228.464 662.122 228.944C662.464 229.413 662.896 229.792 663.418 230.08C663.941 230.357 664.533 230.501 665.194 230.512C665.877 230.523 666.496 230.363 667.05 230.032C667.616 229.691 668.085 229.232 668.458 228.656L672.442 229.584C671.792 231.003 670.821 232.165 669.53 233.072C668.24 233.968 666.794 234.416 665.194 234.416ZM661.258 224.4H669.13C669.013 223.76 668.762 223.184 668.378 222.672C668.005 222.149 667.541 221.733 666.986 221.424C666.432 221.115 665.834 220.96 665.194 220.96C664.554 220.96 663.962 221.115 663.418 221.424C662.874 221.723 662.41 222.133 662.026 222.656C661.653 223.168 661.397 223.749 661.258 224.4ZM675.702 234L675.686 218H679.59L679.606 219.424C680.15 218.848 680.8 218.395 681.558 218.064C682.315 217.723 683.131 217.552 684.006 217.552C684.592 217.552 685.179 217.637 685.766 217.808L684.23 221.744C683.824 221.584 683.419 221.504 683.014 221.504C682.384 221.504 681.808 221.659 681.286 221.968C680.774 222.267 680.363 222.677 680.054 223.2C679.755 223.712 679.606 224.283 679.606 224.912V234H675.702ZM696.574 221.904H693.47V234H689.566V221.904H687.198V218H689.566V212.976H693.47V218H696.574V221.904ZM699.217 218H703.121V234H699.217V218ZM701.201 215.936C700.625 215.936 700.14 215.749 699.745 215.376C699.35 214.992 699.153 214.512 699.153 213.936C699.153 213.371 699.35 212.896 699.745 212.512C700.14 212.128 700.62 211.936 701.185 211.936C701.75 211.936 702.225 212.128 702.609 212.512C703.004 212.896 703.201 213.371 703.201 213.936C703.201 214.512 703.009 214.992 702.625 215.376C702.241 215.749 701.766 215.936 701.201 215.936ZM721.498 223.888V234H717.594V224.912C717.594 224.283 717.439 223.712 717.13 223.2C716.821 222.677 716.405 222.267 715.882 221.968C715.37 221.659 714.799 221.504 714.17 221.504C713.541 221.504 712.965 221.659 712.442 221.968C711.93 222.267 711.519 222.677 711.21 223.2C710.911 223.712 710.762 224.283 710.762 224.912V234H706.858L706.842 218H710.746L710.762 219.424C711.306 218.848 711.957 218.395 712.714 218.064C713.471 217.723 714.287 217.552 715.162 217.552C716.325 217.552 717.386 217.84 718.346 218.416C719.306 218.981 720.069 219.744 720.634 220.704C721.21 221.653 721.498 222.715 721.498 223.888ZM736.245 218H740.149V234.304C740.149 235.456 739.914 236.501 739.445 237.44C738.976 238.389 738.336 239.2 737.525 239.872C736.714 240.555 735.786 241.077 734.741 241.44C733.696 241.813 732.597 242 731.445 242C730.325 242 729.248 241.771 728.213 241.312C727.178 240.853 726.261 240.224 725.461 239.424C724.672 238.635 724.069 237.733 723.653 236.72L727.221 235.104C727.434 235.691 727.754 236.203 728.181 236.64C728.618 237.088 729.12 237.435 729.685 237.68C730.25 237.936 730.837 238.064 731.445 238.064C732.064 238.064 732.656 237.979 733.221 237.808C733.797 237.637 734.314 237.387 734.773 237.056C735.232 236.736 735.589 236.341 735.845 235.872C736.112 235.413 736.245 234.891 736.245 234.304V232.048C735.744 232.752 735.114 233.323 734.357 233.76C733.6 234.197 732.725 234.416 731.733 234.416C730.581 234.416 729.504 234.197 728.501 233.76C727.498 233.323 726.613 232.72 725.845 231.952C725.088 231.173 724.49 230.277 724.053 229.264C723.626 228.251 723.413 227.163 723.413 226C723.413 224.837 723.626 223.749 724.053 222.736C724.49 221.723 725.088 220.832 725.845 220.064C726.613 219.285 727.498 218.677 728.501 218.24C729.504 217.803 730.581 217.584 731.733 217.584C732.725 217.584 733.6 217.803 734.357 218.24C735.114 218.667 735.744 219.232 736.245 219.936V218ZM731.781 230.656C732.602 230.656 733.328 230.448 733.957 230.032C734.597 229.605 735.098 229.04 735.461 228.336C735.824 227.621 736.005 226.843 736.005 226C736.005 225.147 735.818 224.368 735.445 223.664C735.082 222.96 734.581 222.395 733.941 221.968C733.312 221.541 732.592 221.328 731.781 221.328C730.981 221.328 730.25 221.541 729.589 221.968C728.928 222.384 728.4 222.944 728.005 223.648C727.61 224.352 727.413 225.136 727.413 226C727.413 226.864 727.61 227.648 728.005 228.352C728.4 229.056 728.928 229.616 729.589 230.032C730.25 230.448 730.981 230.656 731.781 230.656Z" fill="white"/>
<path d="M140 367.184H225.113V422.237L215.717 424.939L213.783 437.435H140V367.184Z" fill="#9D70F9"/>
<rect x="140" y="359.078" width="85.1126" height="8.78146" fill="white"/>
<path fill-rule="evenodd" clip-rule="evenodd" d="M167.697 394.28L145.484 416.494L144.055 415.065L166.268 392.852L167.697 394.28Z" fill="white"/>
<path fill-rule="evenodd" clip-rule="evenodd" d="M170.059 394.879C172.484 394.879 174.449 392.913 174.449 390.488C174.449 388.063 172.484 386.098 170.059 386.098C167.634 386.098 165.668 388.063 165.668 390.488C165.668 392.913 167.634 394.879 170.059 394.879Z" fill="white"/>
<path fill-rule="evenodd" clip-rule="evenodd" d="M189.987 415.145C192.225 415.145 194.04 413.33 194.04 411.092C194.04 408.854 192.225 407.039 189.987 407.039C187.748 407.039 185.934 408.854 185.934 411.092C185.934 413.33 187.748 415.145 189.987 415.145Z" fill="white"/>
<path fill-rule="evenodd" clip-rule="evenodd" d="M173.816 392.852L187.287 406.322L185.896 407.712L172.426 394.242L173.816 392.852Z" fill="white"/>
<path fill-rule="evenodd" clip-rule="evenodd" d="M220.383 382.09L194.758 407.715L193.363 406.321L218.989 380.695L220.383 382.09Z" fill="white"/>
<path d="M241.87 432.522C241.949 431.806 241.999 431.08 241.999 430.342C241.999 429.604 241.949 428.878 241.869 428.161L236.372 426.206C236.098 425.307 235.739 424.448 235.305 423.632L237.806 418.369C236.896 417.227 235.86 416.191 234.72 415.28L229.456 417.786C228.636 417.346 227.774 416.988 226.882 416.719L224.929 411.222C224.212 411.141 223.486 411.09 222.748 411.09C222.009 411.09 221.284 411.14 220.567 411.222L218.613 416.719C217.714 416.991 216.855 417.349 216.039 417.786L210.775 415.28C209.632 416.19 208.597 417.226 207.686 418.369L210.192 423.63C209.755 424.446 209.397 425.306 209.125 426.204L203.628 428.162C203.548 428.878 203.496 429.606 203.496 430.343C203.496 431.08 203.546 431.806 203.628 432.523L209.125 434.479C209.397 435.377 209.755 436.237 210.192 437.053L207.687 442.317C208.597 443.459 209.633 444.493 210.776 445.403L216.035 442.898C216.852 443.335 217.712 443.694 218.609 443.968L220.566 449.464C221.281 449.543 222.007 449.593 222.746 449.593C223.485 449.593 224.209 449.543 224.926 449.463L226.882 443.966C227.78 443.692 228.64 443.333 229.456 442.898L234.72 445.399C235.862 444.489 236.896 443.453 237.806 442.313L235.303 437.051C235.74 436.238 236.099 435.376 236.373 434.477L241.87 432.522ZM222.748 436.457C221.945 436.457 221.149 436.299 220.407 435.992C219.665 435.685 218.991 435.234 218.423 434.666C217.276 433.52 216.631 431.964 216.631 430.342C216.63 428.72 217.274 427.164 218.421 426.017C219.568 424.87 221.123 424.225 222.745 424.225C224.367 424.224 225.923 424.869 227.07 426.015C228.217 427.162 228.862 428.718 228.862 430.34C228.863 431.962 228.219 433.517 227.072 434.665C225.925 435.812 224.37 436.457 222.748 436.457Z" fill="white"/>
<path d="M133.154 500V477.6H141.314C142.498 477.6 143.565 477.845 144.514 478.336C145.474 478.816 146.232 479.509 146.786 480.416C147.352 481.312 147.634 482.373 147.634 483.6C147.634 484.144 147.554 484.693 147.394 485.248C147.234 485.803 146.989 486.304 146.658 486.752C146.328 487.189 145.901 487.515 145.378 487.728C146.072 487.899 146.637 488.208 147.074 488.656C147.512 489.104 147.853 489.632 148.098 490.24C148.344 490.837 148.509 491.451 148.594 492.08C148.69 492.699 148.738 493.275 148.738 493.808C148.738 494.992 148.445 496.048 147.858 496.976C147.272 497.904 146.482 498.64 145.49 499.184C144.509 499.728 143.421 500 142.226 500H133.154ZM137.058 496.656H141.826C142.466 496.656 143.042 496.501 143.554 496.192C144.066 495.883 144.477 495.456 144.786 494.912C145.096 494.368 145.25 493.749 145.25 493.056C145.25 492.459 145.096 491.893 144.786 491.36C144.477 490.827 144.066 490.395 143.554 490.064C143.042 489.733 142.466 489.568 141.826 489.568H137.058V496.656ZM137.058 486.272H140.866C141.656 486.272 142.328 486.027 142.882 485.536C143.448 485.045 143.73 484.395 143.73 483.584C143.73 482.72 143.448 482.069 142.882 481.632C142.328 481.184 141.656 480.96 140.866 480.96H137.058V486.272ZM150.671 494.08V484H154.575V493.056C154.575 493.685 154.729 494.261 155.039 494.784C155.348 495.296 155.759 495.707 156.271 496.016C156.793 496.315 157.364 496.464 157.983 496.464C158.623 496.464 159.199 496.315 159.711 496.016C160.223 495.707 160.633 495.296 160.943 494.784C161.252 494.261 161.407 493.685 161.407 493.056V484H165.311L165.327 500H161.423L161.407 498.544C160.852 499.12 160.196 499.579 159.439 499.92C158.681 500.251 157.871 500.416 157.007 500.416C155.844 500.416 154.783 500.133 153.823 499.568C152.863 498.992 152.095 498.229 151.519 497.28C150.953 496.32 150.671 495.253 150.671 494.08ZM173.249 500.288C172.417 500.235 171.612 500.069 170.833 499.792C170.065 499.504 169.383 499.115 168.785 498.624C168.188 498.133 167.729 497.547 167.409 496.864L170.705 495.456C170.833 495.669 171.041 495.899 171.329 496.144C171.617 496.379 171.959 496.576 172.353 496.736C172.759 496.896 173.201 496.976 173.681 496.976C174.087 496.976 174.471 496.923 174.833 496.816C175.207 496.699 175.505 496.523 175.729 496.288C175.964 496.053 176.081 495.749 176.081 495.376C176.081 494.981 175.943 494.677 175.665 494.464C175.399 494.24 175.057 494.075 174.641 493.968C174.236 493.851 173.841 493.744 173.457 493.648C172.444 493.445 171.5 493.131 170.625 492.704C169.761 492.277 169.063 491.728 168.529 491.056C168.007 490.373 167.745 489.552 167.745 488.592C167.745 487.536 168.023 486.624 168.577 485.856C169.143 485.088 169.873 484.496 170.769 484.08C171.676 483.664 172.652 483.456 173.697 483.456C174.967 483.456 176.129 483.723 177.185 484.256C178.252 484.779 179.095 485.52 179.713 486.48L176.625 488.304C176.476 488.048 176.268 487.813 176.001 487.6C175.735 487.376 175.431 487.195 175.089 487.056C174.748 486.907 174.391 486.821 174.017 486.8C173.537 486.779 173.1 486.821 172.705 486.928C172.311 487.035 171.991 487.216 171.745 487.472C171.511 487.728 171.393 488.069 171.393 488.496C171.393 488.901 171.553 489.205 171.873 489.408C172.193 489.6 172.577 489.749 173.025 489.856C173.484 489.963 173.921 490.08 174.337 490.208C175.276 490.517 176.156 490.896 176.977 491.344C177.809 491.792 178.476 492.341 178.977 492.992C179.479 493.643 179.719 494.421 179.697 495.328C179.697 496.363 179.388 497.269 178.769 498.048C178.151 498.816 177.351 499.403 176.369 499.808C175.399 500.213 174.359 500.373 173.249 500.288ZM182.061 484H185.965V500H182.061V484ZM184.045 481.936C183.469 481.936 182.983 481.749 182.589 481.376C182.194 480.992 181.997 480.512 181.997 479.936C181.997 479.371 182.194 478.896 182.589 478.512C182.983 478.128 183.463 477.936 184.029 477.936C184.594 477.936 185.069 478.128 185.453 478.512C185.847 478.896 186.045 479.371 186.045 479.936C186.045 480.512 185.853 480.992 185.469 481.376C185.085 481.749 184.61 481.936 184.045 481.936ZM204.342 489.888V500H200.438V490.912C200.438 490.283 200.283 489.712 199.974 489.2C199.664 488.677 199.248 488.267 198.726 487.968C198.214 487.659 197.643 487.504 197.014 487.504C196.384 487.504 195.808 487.659 195.286 487.968C194.774 488.267 194.363 488.677 194.054 489.2C193.755 489.712 193.606 490.283 193.606 490.912V500H189.702L189.686 484H193.59L193.606 485.424C194.15 484.848 194.8 484.395 195.558 484.064C196.315 483.723 197.131 483.552 198.006 483.552C199.168 483.552 200.23 483.84 201.19 484.416C202.15 484.981 202.912 485.744 203.478 486.704C204.054 487.653 204.342 488.715 204.342 489.888ZM214.257 500.416C212.785 500.416 211.441 500.037 210.225 499.28C209.02 498.523 208.054 497.504 207.329 496.224C206.614 494.944 206.257 493.531 206.257 491.984C206.257 490.821 206.465 489.733 206.881 488.72C207.297 487.696 207.868 486.8 208.593 486.032C209.329 485.253 210.182 484.645 211.153 484.208C212.124 483.771 213.158 483.552 214.257 483.552C215.505 483.552 216.646 483.819 217.681 484.352C218.726 484.875 219.612 485.595 220.337 486.512C221.062 487.429 221.59 488.475 221.921 489.648C222.252 490.821 222.326 492.048 222.145 493.328H210.449C210.598 493.925 210.844 494.464 211.185 494.944C211.526 495.413 211.958 495.792 212.481 496.08C213.004 496.357 213.596 496.501 214.257 496.512C214.94 496.523 215.558 496.363 216.113 496.032C216.678 495.691 217.148 495.232 217.521 494.656L221.505 495.584C220.854 497.003 219.884 498.165 218.593 499.072C217.302 499.968 215.857 500.416 214.257 500.416ZM210.321 490.4H218.193C218.076 489.76 217.825 489.184 217.441 488.672C217.068 488.149 216.604 487.733 216.049 487.424C215.494 487.115 214.897 486.96 214.257 486.96C213.617 486.96 213.025 487.115 212.481 487.424C211.937 487.723 211.473 488.133 211.089 488.656C210.716 489.168 210.46 489.749 210.321 490.4ZM229.593 500.288C228.761 500.235 227.956 500.069 227.177 499.792C226.409 499.504 225.726 499.115 225.129 498.624C224.532 498.133 224.073 497.547 223.753 496.864L227.049 495.456C227.177 495.669 227.385 495.899 227.673 496.144C227.961 496.379 228.302 496.576 228.697 496.736C229.102 496.896 229.545 496.976 230.025 496.976C230.43 496.976 230.814 496.923 231.177 496.816C231.55 496.699 231.849 496.523 232.073 496.288C232.308 496.053 232.425 495.749 232.425 495.376C232.425 494.981 232.286 494.677 232.009 494.464C231.742 494.24 231.401 494.075 230.985 493.968C230.58 493.851 230.185 493.744 229.801 493.648C228.788 493.445 227.844 493.131 226.969 492.704C226.105 492.277 225.406 491.728 224.873 491.056C224.35 490.373 224.089 489.552 224.089 488.592C224.089 487.536 224.366 486.624 224.921 485.856C225.486 485.088 226.217 484.496 227.113 484.08C228.02 483.664 228.996 483.456 230.041 483.456C231.31 483.456 232.473 483.723 233.529 484.256C234.596 484.779 235.438 485.52 236.057 486.48L232.969 488.304C232.82 488.048 232.612 487.813 232.345 487.6C232.078 487.376 231.774 487.195 231.433 487.056C231.092 486.907 230.734 486.821 230.361 486.8C229.881 486.779 229.444 486.821 229.049 486.928C228.654 487.035 228.334 487.216 228.089 487.472C227.854 487.728 227.737 488.069 227.737 488.496C227.737 488.901 227.897 489.205 228.217 489.408C228.537 489.6 228.921 489.749 229.369 489.856C229.828 489.963 230.265 490.08 230.681 490.208C231.62 490.517 232.5 490.896 233.321 491.344C234.153 491.792 234.82 492.341 235.321 492.992C235.822 493.643 236.062 494.421 236.041 495.328C236.041 496.363 235.732 497.269 235.113 498.048C234.494 498.816 233.694 499.403 232.713 499.808C231.742 500.213 230.702 500.373 229.593 500.288ZM243.499 500.288C242.667 500.235 241.862 500.069 241.083 499.792C240.315 499.504 239.633 499.115 239.035 498.624C238.438 498.133 237.979 497.547 237.659 496.864L240.955 495.456C241.083 495.669 241.291 495.899 241.579 496.144C241.867 496.379 242.209 496.576 242.603 496.736C243.009 496.896 243.451 496.976 243.931 496.976C244.337 496.976 244.721 496.923 245.083 496.816C245.457 496.699 245.755 496.523 245.979 496.288C246.214 496.053 246.331 495.749 246.331 495.376C246.331 494.981 246.193 494.677 245.915 494.464C245.649 494.24 245.307 494.075 244.891 493.968C244.486 493.851 244.091 493.744 243.707 493.648C242.694 493.445 241.75 493.131 240.875 492.704C240.011 492.277 239.313 491.728 238.779 491.056C238.257 490.373 237.995 489.552 237.995 488.592C237.995 487.536 238.273 486.624 238.827 485.856C239.393 485.088 240.123 484.496 241.019 484.08C241.926 483.664 242.902 483.456 243.947 483.456C245.217 483.456 246.379 483.723 247.435 484.256C248.502 484.779 249.345 485.52 249.963 486.48L246.875 488.304C246.726 488.048 246.518 487.813 246.251 487.6C245.985 487.376 245.681 487.195 245.339 487.056C244.998 486.907 244.641 486.821 244.267 486.8C243.787 486.779 243.35 486.821 242.955 486.928C242.561 487.035 242.241 487.216 241.995 487.472C241.761 487.728 241.643 488.069 241.643 488.496C241.643 488.901 241.803 489.205 242.123 489.408C242.443 489.6 242.827 489.749 243.275 489.856C243.734 489.963 244.171 490.08 244.587 490.208C245.526 490.517 246.406 490.896 247.227 491.344C248.059 491.792 248.726 492.341 249.227 492.992C249.729 493.643 249.969 494.421 249.947 495.328C249.947 496.363 249.638 497.269 249.019 498.048C248.401 498.816 247.601 499.403 246.619 499.808C245.649 500.213 244.609 500.373 243.499 500.288ZM154.406 538.416C153.169 538.416 151.979 538.224 150.838 537.84C149.707 537.445 148.715 536.885 147.862 536.16C147.009 535.424 146.395 534.544 146.022 533.52L149.686 532.176C149.835 532.603 150.139 532.992 150.598 533.344C151.057 533.696 151.617 533.979 152.278 534.192C152.939 534.405 153.649 534.512 154.406 534.512C155.185 534.512 155.91 534.395 156.582 534.16C157.265 533.915 157.814 533.579 158.23 533.152C158.646 532.715 158.854 532.208 158.854 531.632C158.854 531.045 158.635 530.565 158.198 530.192C157.761 529.808 157.201 529.504 156.518 529.28C155.835 529.056 155.131 528.885 154.406 528.768C152.817 528.523 151.393 528.144 150.134 527.632C148.875 527.12 147.878 526.411 147.142 525.504C146.417 524.597 146.054 523.424 146.054 521.984C146.054 520.629 146.443 519.445 147.222 518.432C148.001 517.419 149.025 516.629 150.294 516.064C151.563 515.499 152.934 515.216 154.406 515.216C155.633 515.216 156.817 515.408 157.958 515.792C159.099 516.176 160.097 516.736 160.95 517.472C161.814 518.208 162.433 519.093 162.806 520.128L159.126 521.456C158.977 521.029 158.673 520.64 158.214 520.288C157.755 519.936 157.195 519.659 156.534 519.456C155.873 519.243 155.163 519.136 154.406 519.136C153.649 519.125 152.929 519.248 152.246 519.504C151.574 519.749 151.025 520.085 150.598 520.512C150.171 520.939 149.958 521.429 149.958 521.984C149.958 522.699 150.155 523.237 150.55 523.6C150.955 523.963 151.494 524.229 152.166 524.4C152.838 524.56 153.585 524.709 154.406 524.848C155.899 525.083 157.281 525.477 158.55 526.032C159.819 526.587 160.838 527.328 161.606 528.256C162.374 529.173 162.758 530.299 162.758 531.632C162.758 532.987 162.374 534.176 161.606 535.2C160.838 536.213 159.819 537.003 158.55 537.568C157.281 538.133 155.899 538.416 154.406 538.416ZM174.512 525.904H171.408V538H167.504V525.904H165.136V522H167.504V516.976H171.408V522H174.512V525.904ZM176.764 532.08V522H180.668V531.056C180.668 531.685 180.823 532.261 181.132 532.784C181.442 533.296 181.852 533.707 182.364 534.016C182.887 534.315 183.458 534.464 184.076 534.464C184.716 534.464 185.292 534.315 185.804 534.016C186.316 533.707 186.727 533.296 187.036 532.784C187.346 532.261 187.5 531.685 187.5 531.056V522H191.404L191.42 538H187.516L187.5 536.544C186.946 537.12 186.29 537.579 185.532 537.92C184.775 538.251 183.964 538.416 183.1 538.416C181.938 538.416 180.876 538.133 179.916 537.568C178.956 536.992 178.188 536.229 177.612 535.28C177.047 534.32 176.764 533.253 176.764 532.08ZM206.469 514H210.373V538H206.469V536C205.957 536.715 205.312 537.296 204.533 537.744C203.754 538.192 202.853 538.416 201.829 538.416C200.666 538.416 199.578 538.197 198.565 537.76C197.552 537.323 196.656 536.72 195.877 535.952C195.109 535.173 194.506 534.277 194.069 533.264C193.632 532.251 193.413 531.163 193.413 530C193.413 528.837 193.632 527.749 194.069 526.736C194.506 525.723 195.109 524.832 195.877 524.064C196.656 523.285 197.552 522.677 198.565 522.24C199.578 521.803 200.666 521.584 201.829 521.584C202.853 521.584 203.754 521.808 204.533 522.256C205.312 522.693 205.957 523.275 206.469 524V514ZM201.877 534.656C202.709 534.656 203.445 534.448 204.085 534.032C204.725 533.616 205.226 533.056 205.589 532.352C205.952 531.637 206.133 530.853 206.133 530C206.133 529.136 205.952 528.352 205.589 527.648C205.226 526.933 204.72 526.368 204.069 525.952C203.429 525.536 202.698 525.328 201.877 525.328C201.056 525.328 200.304 525.541 199.621 525.968C198.949 526.384 198.41 526.944 198.005 527.648C197.61 528.352 197.413 529.136 197.413 530C197.413 530.864 197.616 531.648 198.021 532.352C198.426 533.056 198.965 533.616 199.637 534.032C200.32 534.448 201.066 534.656 201.877 534.656ZM214.217 522H218.121V538H214.217V522ZM216.201 519.936C215.625 519.936 215.14 519.749 214.745 519.376C214.35 518.992 214.153 518.512 214.153 517.936C214.153 517.371 214.35 516.896 214.745 516.512C215.14 516.128 215.62 515.936 216.185 515.936C216.75 515.936 217.225 516.128 217.609 516.512C218.004 516.896 218.201 517.371 218.201 517.936C218.201 518.512 218.009 518.992 217.625 519.376C217.241 519.749 216.766 519.936 216.201 519.936ZM228.632 538.416C227.16 538.416 225.816 538.037 224.6 537.28C223.395 536.523 222.429 535.509 221.704 534.24C220.989 532.96 220.632 531.547 220.632 530C220.632 528.827 220.84 527.733 221.256 526.72C221.672 525.696 222.243 524.8 222.968 524.032C223.704 523.253 224.557 522.645 225.528 522.208C226.499 521.771 227.533 521.552 228.632 521.552C230.104 521.552 231.443 521.931 232.648 522.688C233.864 523.445 234.829 524.464 235.544 525.744C236.269 527.024 236.632 528.443 236.632 530C236.632 531.163 236.424 532.251 236.008 533.264C235.592 534.277 235.016 535.173 234.28 535.952C233.555 536.72 232.707 537.323 231.736 537.76C230.776 538.197 229.741 538.416 228.632 538.416ZM228.632 534.512C229.411 534.512 230.109 534.304 230.728 533.888C231.347 533.472 231.832 532.923 232.184 532.24C232.547 531.557 232.728 530.811 232.728 530C232.728 529.168 232.541 528.411 232.168 527.728C231.805 527.035 231.309 526.485 230.68 526.08C230.061 525.664 229.379 525.456 228.632 525.456C227.864 525.456 227.171 525.664 226.552 526.08C225.933 526.496 225.443 527.051 225.08 527.744C224.717 528.437 224.536 529.189 224.536 530C224.536 530.843 224.723 531.605 225.096 532.288C225.469 532.971 225.965 533.515 226.584 533.92C227.213 534.315 227.896 534.512 228.632 534.512Z" fill="white"/>
</svg>
