<svg width="638" height="611" viewBox="0 0 638 611" fill="none" xmlns="http://www.w3.org/2000/svg">
    <g filter="url(#filter0_d_138_51)">
        <rect width="268.095" height="172.627" transform="matrix(-1 0 0 1 483.397 192.494)"
            fill="#9D70F9" />
        <rect width="268.095" height="1.56766" transform="matrix(-1 0 0 1 483.397 216.982)"
            fill="white" />
    </g>
    <circle r="3.13376" transform="matrix(-1 0 0 1 227.097 204.114)" fill="white" />
    <circle r="3.13376" transform="matrix(-1 0 0 1 236.151 204.114)" fill="white" />
    <circle r="3.13376" transform="matrix(-1 0 0 1 245.204 204.114)" fill="white" />
    <path
        d="M290.762 250.527L328.734 102.227L403.64 235.501M290.762 250.527L403.64 235.501M290.762 250.527L178.407 463.709L403.64 235.501M248.438 88.9062L210.918 153.449M210.918 153.449L130.979 290.965M210.918 153.449L289.52 250.542L130.979 290.965M210.918 153.449L133.137 57.3708L130.979 290.965M130.979 290.965L303.603 336.719L280.089 447.577L354.585 545.465M179.634 462.452L262.537 537.987L354.585 545.465M179.634 462.452C231.772 455.104 304.26 444.921 373.152 435.303M179.634 462.452L354.585 545.465M578.35 407.315C575.545 404.972 474.686 223.858 424.145 132.758L373.152 435.303M578.35 407.315C578.376 407.337 578.393 407.343 578.402 407.334M578.35 407.315C578.395 407.317 578.412 407.324 578.402 407.334M578.35 407.315C575.705 407.176 478.645 420.576 373.152 435.303M578.402 407.334L557.699 271.349M578.402 407.334L387.804 364.902M373.152 435.303L354.585 545.465M133.488 56.4286L248.38 89.5658L329.075 101.827L424.955 132.89L540.015 159.938L557.699 271.349M557.699 271.349L387.804 364.902M387.804 364.902L304.216 336.091M252.523 324.91L177.267 357.497M131.299 290.783L177.267 357.091L179.301 464.486"
        stroke="black" stroke-width="2" />
    <rect x="64.1936" y="92.4626" width="15.3812" height="3.51278"
        transform="rotate(18.1706 64.1936 92.4626)"
        fill="#111111" />
    <rect x="75.0201" y="89.7712" width="15.3812" height="3.51278"
        transform="rotate(108.171 75.0201 89.7712)"
        fill="#111111" />
    <rect x="124.335" y="24.0002" width="6.09555" height="3.51278"
        transform="rotate(60 124.335 24.0002)"
        fill="#111111" />
    <rect x="114.057" y="29.9348" width="6.09555" height="3.51278"
        transform="rotate(60 114.057 29.9348)"
        fill="#111111" />
    <rect x="126.092" y="27.0422" width="15.3812" height="3.51278"
        transform="rotate(150 126.092 27.0422)"
        fill="#111111" />
    <rect width="6.09555" height="3.51278"
        transform="matrix(-0.5 -0.866025 -0.866025 0.5 135.455 43.2595)"
        fill="#111111" />
    <rect width="6.09555" height="3.51278"
        transform="matrix(-0.5 -0.866025 -0.866025 0.5 125.176 49.1921)"
        fill="#111111" />
    <rect width="15.3812" height="3.51278"
        transform="matrix(-0.866025 0.5 0.5 0.866025 133.699 40.2175)"
        fill="#111111" />
    <rect x="384.814" y="286.236" width="13.4043" height="7.72472"
        transform="rotate(60 384.814 286.236)"
        fill="#111111" />
    <rect x="362.212" y="299.286" width="13.4043" height="7.72472"
        transform="rotate(60 362.212 299.286)"
        fill="#111111" />
    <rect x="388.676" y="292.926" width="33.8236" height="7.72472"
        transform="rotate(150 388.676 292.926)"
        fill="#111111" />
    <rect width="13.4043" height="7.72472"
        transform="matrix(-0.5 -0.866025 -0.866025 0.5 409.267 328.591)"
        fill="#111111" />
    <rect width="13.4043" height="7.72472"
        transform="matrix(-0.5 -0.866025 -0.866025 0.5 386.664 341.638)"
        fill="#111111" />
    <rect width="33.8237" height="7.72472"
        transform="matrix(-0.866025 0.5 0.5 0.866025 405.404 321.901)"
        fill="#111111" />
    <rect x="214.459" y="288.74" width="6.09555" height="3.51278"
        transform="rotate(60 214.459 288.74)"
        fill="#111111" />
    <rect x="204.181" y="294.675" width="6.09555" height="3.51278"
        transform="rotate(60 204.181 294.675)"
        fill="#111111" />
    <rect x="216.215" y="291.782" width="15.3812" height="3.51278"
        transform="rotate(150 216.215 291.782)"
        fill="#111111" />
    <rect width="6.09555" height="3.51278"
        transform="matrix(-0.5 -0.866025 -0.866025 0.5 225.578 308)"
        fill="#111111" />
    <rect width="6.09555" height="3.51278"
        transform="matrix(-0.5 -0.866025 -0.866025 0.5 215.3 313.932)"
        fill="#111111" />
    <rect width="15.3812" height="3.51278"
        transform="matrix(-0.866025 0.5 0.5 0.866025 223.822 304.958)"
        fill="#111111" />
    <rect x="607.899" y="148.968" width="15.3812" height="3.51278"
        transform="rotate(18.1706 607.899 148.968)"
        fill="#111111" />
    <rect x="618.725" y="146.276" width="15.3812" height="3.51278"
        transform="rotate(108.171 618.725 146.276)"
        fill="#111111" />
    <path
        d="M128.442 358.693C125.792 360.223 122.404 359.315 120.874 356.666C119.345 354.016 120.252 350.628 122.902 349.098C125.552 347.568 128.94 348.476 130.47 351.126C131.999 353.775 131.092 357.163 128.442 358.693ZM123.928 350.875C122.26 351.838 121.688 353.971 122.651 355.64C123.614 357.308 125.748 357.88 127.416 356.916C129.084 355.953 129.656 353.82 128.693 352.152C127.73 350.483 125.596 349.912 123.928 350.875Z"
        fill="#111111" />
    <rect x="141.469" y="370.176" width="11.0796" height="3.45801"
        transform="rotate(150 141.469 370.176)"
        fill="#111111" />
    <rect x="149.698" y="384.429" width="11.0796" height="3.45801"
        transform="rotate(150 149.698 384.429)"
        fill="#111111" />
    <rect x="157.927" y="398.682" width="11.0796" height="3.45801"
        transform="rotate(150 157.927 398.682)"
        fill="#111111" />
    <path
        d="M252.948 47.205C250.298 48.7348 246.91 47.8269 245.381 45.1773C243.851 42.5276 244.759 39.1395 247.408 37.6098C250.058 36.08 253.446 36.9878 254.976 39.6375C256.506 42.2871 255.598 45.6752 252.948 47.205ZM248.434 39.3866C246.766 40.3498 246.194 42.4831 247.157 44.1514C248.121 45.8198 250.254 46.3914 251.922 45.4282C253.591 44.465 254.162 42.3317 253.199 40.6633C252.236 38.995 250.102 38.4234 248.434 39.3866Z"
        fill="#111111" />
    <rect x="265.975" y="58.688" width="11.0796" height="3.45801"
        transform="rotate(150 265.975 58.688)"
        fill="#111111" />
    <rect x="274.204" y="72.9412" width="11.0796" height="3.45801"
        transform="rotate(150 274.204 72.9412)"
        fill="#111111" />
    <path
        d="M281.446 96.5646C278.796 98.0944 275.408 97.1866 273.878 94.5369C272.349 91.8872 273.256 88.4991 275.906 86.9694C278.556 85.4396 281.944 86.3474 283.474 88.9971C285.003 91.6467 284.096 95.0348 281.446 96.5646ZM276.932 88.7462C275.264 89.7094 274.692 91.8427 275.655 93.5111C276.618 95.1794 278.752 95.751 280.42 94.7878C282.088 93.8246 282.66 91.6913 281.697 90.0229C280.734 88.3546 278.6 87.783 276.932 88.7462Z"
        fill="#111111" />
    <rect x="294.472" y="108.048" width="11.0796" height="3.45801"
        transform="rotate(150 294.472 108.048)"
        fill="#111111" />
    <rect x="153.27" y="143.678" width="11.0796" height="3.45801"
        transform="rotate(150 153.27 143.678)"
        fill="#111111" />
    <rect x="161.499" y="157.931" width="11.0796" height="3.45801"
        transform="rotate(150 161.499 157.931)"
        fill="#111111" />
    <path
        d="M168.741 181.555C166.092 183.085 162.703 182.177 161.174 179.527C159.644 176.877 160.552 173.489 163.201 171.96C165.851 170.43 169.239 171.338 170.769 173.987C172.299 176.637 171.391 180.025 168.741 181.555ZM164.227 173.736C162.559 174.7 161.987 176.833 162.95 178.501C163.914 180.17 166.047 180.741 167.715 179.778C169.384 178.815 169.955 176.682 168.992 175.013C168.029 173.345 165.896 172.773 164.227 173.736Z"
        fill="#111111" />
    <rect x="181.768" y="193.038" width="11.0796" height="3.45801"
        transform="rotate(150 181.768 193.038)"
        fill="#111111" />
    <path
        d="M430.362 107.27C426.677 109.398 421.965 108.135 419.837 104.45C417.71 100.765 418.972 96.053 422.657 93.9255C426.342 91.798 431.054 93.0605 433.182 96.7456C435.309 100.431 434.047 105.143 430.362 107.27ZM424.084 96.3966C421.764 97.7362 420.969 100.703 422.308 103.023C423.648 105.344 426.615 106.139 428.935 104.799C431.255 103.459 432.05 100.493 430.711 98.1723C429.371 95.852 426.404 95.057 424.084 96.3966Z"
        fill="#111111" />
    <g filter="url(#filter1_d_138_51)">
        <circle cx="200.927" cy="565.895" r="14.1373" transform="rotate(60 200.927 565.895)"
            stroke="black"
            stroke-width="3" shape-rendering="crispEdges" />
    </g>
    <g filter="url(#filter2_d_138_51)">
        <path d="M266.461 520.288L228.554 391.902L360.188 424.71L266.461 520.288Z" fill="black" />
    </g>
    <rect x="456.856" y="497.589" width="11.0796" height="3.45801"
        transform="rotate(150 456.856 497.589)"
        fill="#111111" />
    <rect x="465.085" y="511.843" width="11.0796" height="3.45801"
        transform="rotate(150 465.085 511.843)"
        fill="#111111" />
    <path
        d="M472.327 535.466C469.678 536.996 466.289 536.088 464.76 533.438C463.23 530.789 464.138 527.401 466.787 525.871C469.437 524.341 472.825 525.249 474.355 527.898C475.885 530.548 474.977 533.936 472.327 535.466ZM467.813 527.648C466.145 528.611 465.573 530.744 466.536 532.412C467.5 534.081 469.633 534.652 471.301 533.689C472.97 532.726 473.541 530.593 472.578 528.924C471.615 527.256 469.482 526.684 467.813 527.648Z"
        fill="#111111" />
    <rect x="485.354" y="546.949" width="11.0796" height="3.45801"
        transform="rotate(150 485.354 546.949)"
        fill="#111111" />
    <g filter="url(#filter3_d_138_51)">
        <path d="M553.488 164.477L517.45 168.386L532.54 134.893L553.488 164.477Z" fill="#FF5656" />
    </g>
    <g filter="url(#filter4_d_138_51)">
        <path d="M145.3 220.568L89.3021 226.642L112.751 174.598L145.3 220.568Z" fill="#9D70F9" />
    </g>
    <path
        d="M427.668 214.838C425.018 216.368 421.63 215.46 420.1 212.81C418.57 210.16 419.478 206.772 422.128 205.243C424.777 203.713 428.165 204.621 429.695 207.27C431.225 209.92 430.317 213.308 427.668 214.838ZM423.154 207.019C421.485 207.983 420.914 210.116 421.877 211.784C422.84 213.453 424.973 214.024 426.642 213.061C428.31 212.098 428.882 209.964 427.918 208.296C426.955 206.628 424.822 206.056 423.154 207.019Z"
        fill="#111111" />
    <path
        d="M439.707 235.691C437.058 237.221 433.67 236.313 432.14 233.664C430.61 231.014 431.518 227.626 434.168 226.096C436.817 224.566 440.205 225.474 441.735 228.124C443.265 230.773 442.357 234.162 439.707 235.691ZM435.193 227.873C433.525 228.836 432.953 230.969 433.917 232.638C434.88 234.306 437.013 234.878 438.681 233.915C440.35 232.951 440.921 230.818 439.958 229.15C438.995 227.481 436.862 226.91 435.193 227.873Z"
        fill="#111111" />
    <rect x="452.734" y="247.174" width="11.0796" height="3.45801"
        transform="rotate(150 452.734 247.174)"
        fill="#111111" />
    <path
        d="M459.976 270.798C457.326 272.328 453.938 271.42 452.409 268.77C450.879 266.121 451.787 262.733 454.436 261.203C457.086 259.673 460.474 260.581 462.004 263.23C463.534 265.88 462.626 269.268 459.976 270.798ZM455.462 262.98C453.794 263.943 453.222 266.076 454.185 267.744C455.149 269.413 457.282 269.984 458.95 269.021C460.619 268.058 461.19 265.925 460.227 264.256C459.264 262.588 457.131 262.016 455.462 262.98Z"
        fill="#111111" />
    <rect x="473.003" y="282.281" width="11.0796" height="3.45801"
        transform="rotate(150 473.003 282.281)"
        fill="#111111" />
    <rect x="344.886" y="191.724" width="11.0796" height="3.45801"
        transform="rotate(150 344.886 191.724)"
        fill="#111111" />
    <rect x="353.115" y="205.977" width="11.0796" height="3.45801"
        transform="rotate(150 353.115 205.977)"
        fill="#111111" />
    <g filter="url(#filter5_d_138_51)">
        <path d="M22.7629 380.185L89.8486 364.005L71.3489 430.488L22.7629 380.185Z" stroke="black"
            stroke-width="3"
            shape-rendering="crispEdges" />
    </g>
    <g filter="url(#filter6_d_138_51)">
        <path d="M392.904 23.4102L368.405 48.3935L358.496 14.8344L392.904 23.4102Z" stroke="black"
            stroke-width="3"
            shape-rendering="crispEdges" />
    </g>
    <g filter="url(#filter7_d_138_51)">
        <path
            d="M598.085 366.465C619.708 378.949 627.117 406.599 614.633 428.222C602.149 449.845 574.499 457.254 552.876 444.77C531.253 432.285 523.844 404.636 536.329 383.013C548.813 361.39 576.462 353.981 598.085 366.465ZM561.248 430.269C574.863 438.13 592.272 433.465 600.133 419.85C607.993 406.235 603.328 388.826 589.713 380.965C576.099 373.105 558.689 377.77 550.829 391.385C542.968 405 547.633 422.409 561.248 430.269Z"
            fill="#9D70F9" />
        <path
            d="M620.546 409.218C619.834 418.131 616.495 426.633 610.951 433.648C605.407 440.663 597.907 445.877 589.4 448.63C580.893 451.383 571.76 451.552 563.158 449.114C554.555 446.677 546.868 441.743 541.069 434.937C535.27 428.131 531.619 419.759 530.579 410.878C529.538 401.997 531.155 393.007 535.224 385.045C539.292 377.083 545.631 370.506 553.437 366.147C561.244 361.787 570.168 359.84 579.081 360.552L577.748 377.242C572.136 376.794 566.517 378.02 561.601 380.765C556.686 383.51 552.695 387.651 550.133 392.664C547.571 397.678 546.553 403.338 547.208 408.93C547.864 414.521 550.162 419.793 553.813 424.079C557.465 428.364 562.305 431.47 567.721 433.005C573.138 434.54 578.888 434.434 584.245 432.7C589.601 430.967 594.324 427.684 597.814 423.267C601.305 418.85 603.407 413.497 603.856 407.884L620.546 409.218Z"
            fill="#111111" />
    </g>
    <defs>
        <filter id="filter0_d_138_51" x="205.302" y="192.494" width="288.095" height="201.627"
            filterUnits="userSpaceOnUse" color-interpolation-filters="sRGB">
            <feFlood flood-opacity="0" result="BackgroundImageFix" />
            <feColorMatrix in="SourceAlpha" type="matrix"
                values="0 0 0 0 0 0 0 0 0 0 0 0 0 0 0 0 0 0 127 0"
                result="hardAlpha" />
            <feOffset dy="19" />
            <feGaussianBlur stdDeviation="5" />
            <feComposite in2="hardAlpha" operator="out" />
            <feColorMatrix type="matrix" values="0 0 0 0 0 0 0 0 0 0 0 0 0 0 0 0 0 0 0.12 0" />
            <feBlend mode="normal" in2="BackgroundImageFix" result="effect1_dropShadow_138_51" />
            <feBlend mode="normal" in="SourceGraphic" in2="effect1_dropShadow_138_51" result="shape" />
        </filter>
        <filter id="filter1_d_138_51" x="175.287" y="550.255" width="51.2798" height="60.2798"
            filterUnits="userSpaceOnUse" color-interpolation-filters="sRGB">
            <feFlood flood-opacity="0" result="BackgroundImageFix" />
            <feColorMatrix in="SourceAlpha" type="matrix"
                values="0 0 0 0 0 0 0 0 0 0 0 0 0 0 0 0 0 0 127 0"
                result="hardAlpha" />
            <feOffset dy="19" />
            <feGaussianBlur stdDeviation="5" />
            <feComposite in2="hardAlpha" operator="out" />
            <feColorMatrix type="matrix" values="0 0 0 0 0 0 0 0 0 0 0 0 0 0 0 0 0 0 0.12 0" />
            <feBlend mode="normal" in2="BackgroundImageFix" result="effect1_dropShadow_138_51" />
            <feBlend mode="normal" in="SourceGraphic" in2="effect1_dropShadow_138_51" result="shape" />
        </filter>
        <filter id="filter2_d_138_51" x="218.554" y="391.902" width="151.635" height="157.385"
            filterUnits="userSpaceOnUse" color-interpolation-filters="sRGB">
            <feFlood flood-opacity="0" result="BackgroundImageFix" />
            <feColorMatrix in="SourceAlpha" type="matrix"
                values="0 0 0 0 0 0 0 0 0 0 0 0 0 0 0 0 0 0 127 0"
                result="hardAlpha" />
            <feOffset dy="19" />
            <feGaussianBlur stdDeviation="5" />
            <feComposite in2="hardAlpha" operator="out" />
            <feColorMatrix type="matrix" values="0 0 0 0 0 0 0 0 0 0 0 0 0 0 0 0 0 0 0.12 0" />
            <feBlend mode="normal" in2="BackgroundImageFix" result="effect1_dropShadow_138_51" />
            <feBlend mode="normal" in="SourceGraphic" in2="effect1_dropShadow_138_51" result="shape" />
        </filter>
        <filter id="filter3_d_138_51" x="507.45" y="134.893" width="56.0379" height="62.4932"
            filterUnits="userSpaceOnUse" color-interpolation-filters="sRGB">
            <feFlood flood-opacity="0" result="BackgroundImageFix" />
            <feColorMatrix in="SourceAlpha" type="matrix"
                values="0 0 0 0 0 0 0 0 0 0 0 0 0 0 0 0 0 0 127 0"
                result="hardAlpha" />
            <feOffset dy="19" />
            <feGaussianBlur stdDeviation="5" />
            <feComposite in2="hardAlpha" operator="out" />
            <feColorMatrix type="matrix" values="0 0 0 0 0 0 0 0 0 0 0 0 0 0 0 0 0 0 0.12 0" />
            <feBlend mode="normal" in2="BackgroundImageFix" result="effect1_dropShadow_138_51" />
            <feBlend mode="normal" in="SourceGraphic" in2="effect1_dropShadow_138_51" result="shape" />
        </filter>
        <filter id="filter4_d_138_51" x="79.3022" y="174.598" width="75.998" height="81.0437"
            filterUnits="userSpaceOnUse" color-interpolation-filters="sRGB">
            <feFlood flood-opacity="0" result="BackgroundImageFix" />
            <feColorMatrix in="SourceAlpha" type="matrix"
                values="0 0 0 0 0 0 0 0 0 0 0 0 0 0 0 0 0 0 127 0"
                result="hardAlpha" />
            <feOffset dy="19" />
            <feGaussianBlur stdDeviation="5" />
            <feComposite in2="hardAlpha" operator="out" />
            <feColorMatrix type="matrix" values="0 0 0 0 0 0 0 0 0 0 0 0 0 0 0 0 0 0 0.12 0" />
            <feBlend mode="normal" in2="BackgroundImageFix" result="effect1_dropShadow_138_51" />
            <feBlend mode="normal" in="SourceGraphic" in2="effect1_dropShadow_138_51" result="shape" />
        </filter>
        <filter id="filter5_d_138_51" x="9.86276" y="361.948" width="92.1151" height="100.468"
            filterUnits="userSpaceOnUse" color-interpolation-filters="sRGB">
            <feFlood flood-opacity="0" result="BackgroundImageFix" />
            <feColorMatrix in="SourceAlpha" type="matrix"
                values="0 0 0 0 0 0 0 0 0 0 0 0 0 0 0 0 0 0 127 0"
                result="hardAlpha" />
            <feOffset dy="19" />
            <feGaussianBlur stdDeviation="5" />
            <feComposite in2="hardAlpha" operator="out" />
            <feColorMatrix type="matrix" values="0 0 0 0 0 0 0 0 0 0 0 0 0 0 0 0 0 0 0.12 0" />
            <feBlend mode="normal" in2="BackgroundImageFix" result="effect1_dropShadow_138_51" />
            <feBlend mode="normal" in="SourceGraphic" in2="effect1_dropShadow_138_51" result="shape" />
        </filter>
        <filter id="filter6_d_138_51" x="346.315" y="12.7449" width="59.4959" height="67.521"
            filterUnits="userSpaceOnUse" color-interpolation-filters="sRGB">
            <feFlood flood-opacity="0" result="BackgroundImageFix" />
            <feColorMatrix in="SourceAlpha" type="matrix"
                values="0 0 0 0 0 0 0 0 0 0 0 0 0 0 0 0 0 0 127 0"
                result="hardAlpha" />
            <feOffset dy="19" />
            <feGaussianBlur stdDeviation="5" />
            <feComposite in2="hardAlpha" operator="out" />
            <feColorMatrix type="matrix" values="0 0 0 0 0 0 0 0 0 0 0 0 0 0 0 0 0 0 0.12 0" />
            <feBlend mode="normal" in2="BackgroundImageFix" result="effect1_dropShadow_138_51" />
            <feBlend mode="normal" in="SourceGraphic" in2="effect1_dropShadow_138_51" result="shape" />
        </filter>
        <filter id="filter7_d_138_51" x="520.264" y="360.401" width="110.433" height="119.433"
            filterUnits="userSpaceOnUse" color-interpolation-filters="sRGB">
            <feFlood flood-opacity="0" result="BackgroundImageFix" />
            <feColorMatrix in="SourceAlpha" type="matrix"
                values="0 0 0 0 0 0 0 0 0 0 0 0 0 0 0 0 0 0 127 0"
                result="hardAlpha" />
            <feOffset dy="19" />
            <feGaussianBlur stdDeviation="5" />
            <feComposite in2="hardAlpha" operator="out" />
            <feColorMatrix type="matrix" values="0 0 0 0 0 0 0 0 0 0 0 0 0 0 0 0 0 0 0.12 0" />
            <feBlend mode="normal" in2="BackgroundImageFix" result="effect1_dropShadow_138_51" />
            <feBlend mode="normal" in="SourceGraphic" in2="effect1_dropShadow_138_51" result="shape" />
        </filter>
    </defs>
</svg>