<svg width="24" height="24" viewBox="0 0 169 170" fill="none" xmlns="http://www.w3.org/2000/svg">
<path d="M86.3219 156.317C78.1574 145.453 73.7662 132.218 73.8165 118.627V93.3562C73.7995 90.7882 74.298 88.2429 75.2825 85.8711C76.2671 83.4993 77.7176 81.3492 79.5481 79.5481L88.2324 70.8638C91.904 67.2144 96.8638 65.1556 102.04 65.1322H134.607V15.1975C134.584 11.1739 132.975 7.3216 130.13 4.47644C127.285 1.63128 123.433 0.0227971 119.409 0H15.1975C11.1739 0.0227971 7.3216 1.63128 4.47644 4.47644C1.63128 7.3216 0.0227971 11.1739 0 15.1975V154.146C0.0227971 158.17 1.63128 162.022 4.47644 164.867C7.3216 167.712 11.1739 169.321 15.1975 169.344H99.6089C94.5203 165.73 90.0358 161.333 86.3219 156.317ZM67.3033 82.5008H32.5661C30.8387 82.5008 29.182 81.8146 27.9606 80.5931C26.7391 79.3717 26.0529 77.715 26.0529 75.9876C26.0529 74.2602 26.7391 72.6035 27.9606 71.382C29.182 70.1606 30.8387 69.4744 32.5661 69.4744H67.3033C69.0307 69.4744 70.6874 70.1606 71.9088 71.382C73.1303 72.6035 73.8165 74.2602 73.8165 75.9876C73.8165 77.715 73.1303 79.3717 71.9088 80.5931C70.6874 81.8146 69.0307 82.5008 67.3033 82.5008ZM102.04 56.4479H32.5661C30.8387 56.4479 29.182 55.7617 27.9606 54.5402C26.7391 53.3188 26.0529 51.6621 26.0529 49.9347C26.0529 48.2073 26.7391 46.5506 27.9606 45.3292C29.182 44.1077 30.8387 43.4215 32.5661 43.4215H102.04C103.768 43.4215 105.425 44.1077 106.646 45.3292C107.867 46.5506 108.554 48.2073 108.554 49.9347C108.554 51.6621 107.867 53.3188 106.646 54.5402C105.425 55.7617 103.768 56.4479 102.04 56.4479ZM102.04 30.395H32.5661C30.8387 30.395 29.182 29.7088 27.9606 28.4874C26.7391 27.2659 26.0529 25.6092 26.0529 23.8818C26.0529 22.1544 26.7391 20.4977 27.9606 19.2763C29.182 18.0548 30.8387 17.3686 32.5661 17.3686H102.04C103.768 17.3686 105.425 18.0548 106.646 19.2763C107.867 20.4977 108.554 22.1544 108.554 23.8818C108.554 25.6092 107.867 27.2659 106.646 28.4874C105.425 29.7088 103.768 30.395 102.04 30.395Z" fill="white"/>
<path d="M167.433 88.753L158.749 80.0688C157.529 78.8469 155.873 78.1597 154.146 78.1582H102.041C100.314 78.1597 98.6581 78.8469 97.4378 80.0688L88.7535 88.753C87.5317 89.9733 86.8445 91.6289 86.843 93.3557V118.627C86.7542 120.16 86.7542 121.697 86.843 123.23C87.1583 127.168 87.9754 131.049 89.2746 134.78C89.7049 136.173 90.2271 137.537 90.8378 138.861C91.5325 140.425 92.3141 141.901 93.0957 143.377C93.8814 144.817 94.7513 146.209 95.701 147.546C96.6563 148.762 97.5247 149.977 98.5668 151.106C99.7864 152.572 101.122 153.937 102.562 155.188C106.001 158.337 109.859 160.996 114.025 163.091L120.885 166.564C122.151 167.179 123.495 167.618 124.88 167.867C125.688 167.957 126.504 167.957 127.312 167.867C129.66 167.876 131.979 167.341 134.086 166.304L140.946 162.83C149.258 158.711 156.251 152.346 161.131 144.457C166.012 136.568 168.586 127.47 168.562 118.193V93.3557C168.777 91.7342 168.374 90.0911 167.433 88.753ZM128.093 132.696C126.872 133.915 125.217 134.6 123.491 134.6C121.765 134.6 120.109 133.915 118.888 132.696L114.72 128.527L110.725 124.011C109.505 122.79 108.82 121.135 108.82 119.409C108.82 117.683 109.505 116.027 110.725 114.806C111.423 114.128 112.25 113.596 113.156 113.243C114.319 112.847 115.569 112.784 116.766 113.06C117.962 113.336 119.058 113.941 119.93 114.806L124.012 118.888L136.778 106.122C137.379 105.513 138.096 105.03 138.886 104.702C139.677 104.374 140.525 104.207 141.38 104.211C142.099 104.086 142.833 104.086 143.551 104.211C144.458 104.565 145.285 105.096 145.983 105.774C147.203 106.995 147.888 108.651 147.888 110.377C147.888 112.103 147.203 113.758 145.983 114.98L143.551 117.411L128.093 132.696Z" fill="#FF5656"/>
</svg>
