<svg width="24" height="24" viewBox="0 0 140 140" fill="none" xmlns="http://www.w3.org/2000/svg">
<path d="M133 56C128.8 56 126 53.2 126 49V14H91C86.8 14 84 11.2 84 7C84 2.8 86.8 0 91 0H133C137.2 0 140 2.8 140 7V49C140 53.2 137.2 56 133 56ZM7 56C2.8 56 0 53.2 0 49V7C0 2.8 2.8 0 7 0H49C53.2 0 56 2.8 56 7C56 11.2 53.2 14 49 14H14V49C14 53.2 11.2 56 7 56ZM49 140H7C2.8 140 0 137.2 0 133V91C0 86.8 2.8 84 7 84C11.2 84 14 86.8 14 91V126H49C53.2 126 56 128.8 56 133C56 137.2 53.2 140 49 140ZM133 140H91C86.8 140 84 137.2 84 133C84 128.8 86.8 126 91 126H126V91C126 86.8 128.8 84 133 84C137.2 84 140 86.8 140 91V133C140 137.2 137.2 140 133 140Z" fill="white"/>
<path d="M49 56H91C98.7 56 105 62.3 105 70V98C105 105.7 98.7 112 91 112H49C41.3 112 35 105.7 35 98V70C35 62.3 41.3 56 49 56ZM63 49C63 44.8 65.8 42 70 42C74.2 42 77 44.8 77 49V56H91V49C91 37.1 81.9 28 70 28C58.1 28 49 37.1 49 49V56H63V49Z" fill="#FF5656"/>
</svg>
