<svg width="24" height="24" viewBox="0 0 328 278" fill="none" xmlns="http://www.w3.org/2000/svg">
<path d="M328 139C328 215.628 265.965 278 189.67 278C161.504 278 134.409 269.446 111.235 253.764C104.817 249.131 103.035 240.577 107.67 233.805C112.304 227.39 120.861 225.608 127.635 230.241C145.817 242.715 167.565 249.487 189.67 249.487C250.278 249.487 299.478 199.946 299.478 139C299.478 78.0538 250.278 28.5128 189.67 28.5128C130.487 28.5128 82 75.9154 79.8609 135.079L113.017 101.577C118.722 95.8744 127.635 95.8744 133.339 101.577C139.043 107.279 139.043 116.19 133.339 121.892L78.7913 176.423C75.9391 179.274 72.3739 180.7 68.8087 180.7C64.887 180.7 61.3217 179.274 58.8261 176.423L4.27826 121.536C-1.42609 115.833 -1.42609 106.923 4.27826 101.221C9.98261 95.5179 18.8957 95.5179 24.6 101.221L51.6957 128.664C56.687 57.0256 116.583 0 189.67 0C265.965 0 328 62.3718 328 139ZM188.957 58.0949C181.113 58.0949 174.696 64.5102 174.696 72.3513V139C174.696 142.921 176.478 146.485 179.33 148.979L209.991 179.631C212.843 182.482 216.409 183.908 220.33 183.908C223.896 183.908 227.817 182.482 230.313 179.631C236.017 173.928 235.661 165.018 229.957 159.315L203.217 132.941V72.3513C203.217 64.5102 196.8 58.0949 188.957 58.0949Z" fill="#5F3DC4"/>
</svg>
