<svg width="24" height="24" viewBox="0 0 82 128" fill="none" xmlns="http://www.w3.org/2000/svg">
<path d="M82 40.2571C82 18.0286 63.1799 0 41 0C18.8201 0 0 18.0286 0 40.2857C0 49.1429 3.75833 57.1429 8.59861 64H8.51319C11.6167 68.2857 14.6062 71.9143 17.4819 76.8571C23.7458 87.6572 22.7778 98.0857 22.8063 100.171V100.571H31.9174V64L22.8063 45.7143H27.5326L36.4729 64V100.571H45.584V64L54.5243 45.7143H59.2222L50.1111 64V100.571H59.2222V100.171C59.2222 97.6286 58.1972 87.6572 64.4611 76.8571C67.3368 71.9143 70.3264 68.2857 73.4299 64H73.4014C78.2417 57.1429 82 49.1429 82 40.2571ZM31.8889 123.429H50.1111V128H31.8889V123.429ZM27.3333 114.286H54.6667V118.857H27.3333V114.286ZM27.3333 105.143H54.6667V109.714H27.3333V105.143Z" fill="white"/>
</svg>
