<svg width="24" height="24" viewBox="0 0 388 498" fill="none" xmlns="http://www.w3.org/2000/svg">
<path d="M326.51 60.9434H30.5098C13.9412 60.9434 0.509766 74.3748 0.509766 90.9434V467.943C0.509766 484.512 13.9412 497.943 30.5098 497.943H326.51C343.078 497.943 356.51 484.512 356.51 467.943V90.9434C356.51 74.3748 343.078 60.9434 326.51 60.9434Z" fill="white"/>
<path d="M307 105.943H50C47.7909 105.943 46 107.734 46 109.943V448.943C46 451.152 47.7909 452.943 50 452.943H307C309.209 452.943 311 451.152 311 448.943V109.943C311 107.734 309.209 105.943 307 105.943Z" fill="#6133BC"/>
<path d="M217.77 51.1231C219.252 45.1605 219.357 38.9386 218.076 32.9295C216.796 26.9204 214.163 21.2818 210.379 16.4415C206.595 11.6013 201.758 7.68645 196.235 4.99404C190.712 2.30162 184.649 0.902344 178.505 0.902344C172.361 0.902344 166.297 2.30162 160.775 4.99404C155.252 7.68645 150.415 11.6013 146.631 16.4415C142.846 21.2818 140.214 26.9204 138.933 32.9295C137.653 38.9386 137.758 45.1605 139.24 51.1231H121.5C116.287 51.1231 111.288 53.193 107.602 56.8778C103.915 60.5626 101.842 65.5606 101.84 70.773V99.6031C101.84 104.817 103.911 109.818 107.598 113.505C111.285 117.192 116.286 119.263 121.5 119.263H235.5C238.082 119.263 240.638 118.755 243.023 117.767C245.409 116.779 247.576 115.33 249.402 113.505C251.227 111.679 252.675 109.512 253.663 107.127C254.651 104.741 255.16 102.185 255.16 99.6031V70.773C255.157 65.5606 253.085 60.5626 249.398 56.8778C245.711 53.193 240.712 51.1231 235.5 51.1231H217.77Z" fill="#8A5CE9"/>
<path d="M91.0098 174.443C99.294 174.443 106.01 167.728 106.01 159.443C106.01 151.159 99.294 144.443 91.0098 144.443C82.7255 144.443 76.0098 151.159 76.0098 159.443C76.0098 167.728 82.7255 174.443 91.0098 174.443Z" fill="white"/>
<path d="M91.0098 234.443C99.294 234.443 106.01 227.728 106.01 219.443C106.01 211.159 99.294 204.443 91.0098 204.443C82.7255 204.443 76.0098 211.159 76.0098 219.443C76.0098 227.728 82.7255 234.443 91.0098 234.443Z" fill="white"/>
<path d="M91.0098 294.443C99.294 294.443 106.01 287.728 106.01 279.443C106.01 271.159 99.294 264.443 91.0098 264.443C82.7255 264.443 76.0098 271.159 76.0098 279.443C76.0098 287.728 82.7255 294.443 91.0098 294.443Z" fill="white"/>
<path d="M91.0098 354.443C99.294 354.443 106.01 347.728 106.01 339.443C106.01 331.159 99.294 324.443 91.0098 324.443C82.7255 324.443 76.0098 331.159 76.0098 339.443C76.0098 347.728 82.7255 354.443 91.0098 354.443Z" fill="white"/>
<path d="M91.0098 414.443C99.294 414.443 106.01 407.728 106.01 399.443C106.01 391.159 99.294 384.443 91.0098 384.443C82.7255 384.443 76.0098 391.159 76.0098 399.443C76.0098 407.728 82.7255 414.443 91.0098 414.443Z" fill="white"/>
<path d="M238.638 344.731L154 423L174.612 309.734L238.638 344.731Z" fill="white"/>
<path d="M381.776 83.824L238.971 344.584L175.159 309.548L318.297 48.3506L381.776 83.824Z" fill="#FF5656"/>
<path d="M388 63.348C388.006 69.436 386.457 75.426 383.499 80.7571L363.62 116.808L299.628 81.9419L319.41 46.0114C323.308 38.9524 329.459 33.3832 336.894 30.1816C344.329 26.98 352.624 26.3281 360.473 28.3286C368.322 30.3291 375.278 34.8682 380.244 41.2306C385.21 47.5929 387.905 55.4168 387.903 63.4689L388 63.348Z" fill="#8A5CE9"/>
</svg>
