<svg width="24" height="24" viewBox="0 0 396 486" fill="none" xmlns="http://www.w3.org/2000/svg">
<path d="M326 48.041H30C13.4315 48.041 0 61.4725 0 78.041V455.041C0 471.61 13.4315 485.041 30 485.041H326C342.569 485.041 356 471.61 356 455.041V78.041C356 61.4725 342.569 48.041 326 48.041Z" fill="white"/>
<path d="M306.49 93.041H49.4902C47.2811 93.041 45.4902 94.8319 45.4902 97.041V436.041C45.4902 438.25 47.2811 440.041 49.4902 440.041H306.49C308.699 440.041 310.49 438.25 310.49 436.041V97.041C310.49 94.8319 308.699 93.041 306.49 93.041Z" fill="#6133BC"/>
<path d="M90.4902 187C105.954 187 118.49 174.464 118.49 159C118.49 143.536 105.954 131 90.4902 131C75.0263 131 62.4902 143.536 62.4902 159C62.4902 174.464 75.0263 187 90.4902 187Z" fill="white"/>
<path d="M90.4902 299C105.954 299 118.49 286.464 118.49 271C118.49 255.536 105.954 243 90.4902 243C75.0263 243 62.4902 255.536 62.4902 271C62.4902 286.464 75.0263 299 90.4902 299Z" fill="white"/>
<path d="M90.4902 410C105.954 410 118.49 397.688 118.49 382.5C118.49 367.312 105.954 355 90.4902 355C75.0263 355 62.4902 367.312 62.4902 382.5C62.4902 397.688 75.0263 410 90.4902 410Z" fill="white"/>
<path d="M241.184 329.003L153.49 410.098L174.846 292.743L241.184 329.003Z" fill="#FF5656"/>
<path d="M389.489 58.6769L241.529 328.851L175.413 292.55L323.719 21.9229L389.489 58.6769Z" fill="#FF5656"/>
<path d="M395.938 37.4619C395.944 43.7697 394.339 49.9759 391.274 55.4995L370.677 92.8523L304.375 56.727L324.871 19.4995C328.91 12.1856 335.283 6.41534 342.986 3.09816C350.69 -0.219013 359.284 -0.89449 367.417 1.17821C375.549 3.25092 382.756 7.95392 387.901 14.546C393.047 21.1381 395.839 29.2443 395.837 37.5872L395.938 37.4619Z" fill="#FF5656"/>
</svg>
