<svg width="24" height="24" viewBox="0 0 397 486" fill="none" xmlns="http://www.w3.org/2000/svg">
<path d="M326.51 48.041H30.5098C13.9412 48.041 0.509766 61.4725 0.509766 78.041V455.041C0.509766 471.61 13.9412 485.041 30.5098 485.041H326.51C343.078 485.041 356.51 471.61 356.51 455.041V78.041C356.51 61.4725 343.078 48.041 326.51 48.041Z" fill="#6133BC"/>
<path d="M307 93.041H50C47.7909 93.041 46 94.8319 46 97.041V436.041C46 438.25 47.7909 440.041 50 440.041H307C309.209 440.041 311 438.25 311 436.041V97.041C311 94.8319 309.209 93.041 307 93.041Z" fill="white"/>
<path d="M91 187C106.464 187 119 174.464 119 159C119 143.536 106.464 131 91 131C75.536 131 63 143.536 63 159C63 174.464 75.536 187 91 187Z" fill="#9364F4"/>
<path d="M91 299C106.464 299 119 286.464 119 271C119 255.536 106.464 243 91 243C75.536 243 63 255.536 63 271C63 286.464 75.536 299 91 299Z" fill="#9364F4"/>
<path d="M91 410C106.464 410 119 397.688 119 382.5C119 367.312 106.464 355 91 355C75.536 355 63 367.312 63 382.5C63 397.688 75.536 410 91 410Z" fill="#9364F4"/>
<path d="M241.694 329.003L154 410.098L175.356 292.743L241.694 329.003Z" fill="#FF5656"/>
<path d="M389.999 58.6769L242.038 328.851L175.923 292.55L324.229 21.9229L389.999 58.6769Z" fill="#FF5656"/>
<path d="M396.447 37.4619C396.454 43.7697 394.849 49.9759 391.784 55.4995L371.187 92.8523L304.885 56.727L325.38 19.4995C329.419 12.1856 335.793 6.41534 343.496 3.09816C351.199 -0.219013 359.794 -0.89449 367.926 1.17821C376.059 3.25092 383.265 7.95392 388.411 14.546C393.557 21.1381 396.349 29.2443 396.347 37.5872L396.447 37.4619Z" fill="#FF5656"/>
</svg>
