<svg width="24" height="24" viewBox="0 0 79 110" fill="none" xmlns="http://www.w3.org/2000/svg">
<path d="M29.8211 89.6469L14.5029 80.8055L47.2678 24.0557L62.5859 32.8971L29.8211 89.6469Z" fill="white"/>
<path fill-rule="evenodd" clip-rule="evenodd" d="M18.2066 109.751C24.4692 109.803 30.5719 106.576 33.9308 100.768C38.8892 92.1767 35.9486 81.1907 27.3483 76.231C18.7602 71.2714 7.77301 74.2144 2.8146 82.8061C-0.538166 88.6135 -0.279784 95.5147 2.89458 100.91L11.2181 86.4849H21.4302L26.5362 95.3277L18.2066 109.751Z" fill="#6133BC"/>
<path fill-rule="evenodd" clip-rule="evenodd" d="M76.4645 8.84212C79.6389 14.2373 79.8972 21.1385 76.5506 26.9458C71.5922 35.5375 60.605 38.4806 52.0047 33.5209C43.4167 28.5613 40.4761 17.5753 45.4345 8.9836C48.7935 3.17624 54.8962 -0.0510646 61.1588 0.000611137L52.8291 14.4243L57.9352 23.267H68.1349L76.4645 8.84212Z" fill="#FA5252"/>
</svg>
