<svg width="24" height="24" viewBox="0 0 102 102" fill="none" xmlns="http://www.w3.org/2000/svg">
<path d="M0 14.1836H85.1126V69.2366L75.717 71.9386L73.7827 84.4353H0V14.1836Z" fill="#9D70F9"/>
<rect y="6.07812" width="85.1126" height="8.78146" fill="#111111"/>
<path fill-rule="evenodd" clip-rule="evenodd" d="M27.6971 41.2804L5.48356 63.4939L4.05469 62.0651L26.2682 39.8516L27.6971 41.2804Z" fill="white"/>
<path fill-rule="evenodd" clip-rule="evenodd" d="M30.0587 41.8791C32.4836 41.8791 34.4494 39.9133 34.4494 37.4884C34.4494 35.0635 32.4836 33.0977 30.0587 33.0977C27.6338 33.0977 25.668 35.0635 25.668 37.4884C25.668 39.9133 27.6338 41.8791 30.0587 41.8791Z" fill="white"/>
<path fill-rule="evenodd" clip-rule="evenodd" d="M49.9866 62.145C52.225 62.145 54.0396 60.3304 54.0396 58.092C54.0396 55.8536 52.225 54.0391 49.9866 54.0391C47.7482 54.0391 45.9336 55.8536 45.9336 58.092C45.9336 60.3304 47.7482 62.145 49.9866 62.145Z" fill="white"/>
<path fill-rule="evenodd" clip-rule="evenodd" d="M33.8163 39.8516L47.2867 53.322L45.8962 54.7125L32.4258 41.2421L33.8163 39.8516Z" fill="white"/>
<path fill-rule="evenodd" clip-rule="evenodd" d="M80.3831 29.0899L54.7579 54.7152L53.3633 53.3206L78.9885 27.6953L80.3831 29.0899Z" fill="white"/>
<path d="M101.87 79.5219C101.949 78.8062 101.999 78.0804 101.999 77.3421C101.999 76.6038 101.949 75.8781 101.869 75.1611L96.3719 73.2061C96.0982 72.3071 95.7391 71.4483 95.3047 70.6321L97.8058 65.3686C96.8955 64.2271 95.8604 63.191 94.7196 62.2798L89.4563 64.786C88.6359 64.3456 87.7736 63.9881 86.8823 63.7187L84.9287 58.2217C84.2117 58.1413 83.486 58.0898 82.7477 58.0898C82.0095 58.0898 81.2838 58.1401 80.5668 58.2217L78.6132 63.7187C77.7142 63.9912 76.8554 64.3491 76.0392 64.786L70.7746 62.2798C69.6321 63.1901 68.5975 64.226 67.6859 65.3686L70.192 70.6296C69.7551 71.4458 69.3973 72.3059 69.1248 73.2036L63.6279 75.1624C63.5476 75.8781 63.4961 76.6063 63.4961 77.3434C63.4961 78.0804 63.5463 78.8062 63.6279 79.5231L69.1248 81.4794C69.3973 82.3771 69.7551 83.2372 70.192 84.0534L67.6872 89.3169C68.5975 90.4595 69.6333 91.4929 70.7759 92.4032L76.0355 89.8982C76.8516 90.3352 77.7117 90.6943 78.6094 90.968L80.5656 96.4638C81.2812 96.5429 82.007 96.5932 82.7465 96.5932C83.4848 96.5932 84.2092 96.5429 84.9262 96.4626L86.8823 90.9655C87.7801 90.6918 88.6401 90.3327 89.4563 89.8982L94.7196 92.3994C95.8622 91.4891 96.8955 90.4532 97.8058 89.3131L95.3035 84.0509C95.7404 83.2385 96.0995 82.3759 96.3732 81.4769L101.87 79.5219ZM82.7477 83.457C81.9446 83.4571 81.1493 83.2991 80.4072 82.9919C79.6651 82.6847 78.9908 82.2343 78.4228 81.6665C77.2756 80.5197 76.6309 78.9642 76.6306 77.3421C76.6303 75.72 77.2743 74.1643 78.421 73.017C79.5677 71.8698 81.1232 71.2251 82.7452 71.2248C84.3673 71.2245 85.923 71.8685 87.0702 73.0153C88.2174 74.162 88.862 75.7175 88.8624 77.3396C88.8627 78.9617 88.2187 80.5175 87.072 81.6647C85.9252 82.8119 84.3698 83.4566 82.7477 83.457Z" fill="#111111"/>
</svg>
