<svg width="24" height="24" viewBox="0 0 102 102" fill="none" xmlns="http://www.w3.org/2000/svg">
<path fill-rule="evenodd" clip-rule="evenodd" d="M46 13C62.5685 13 76 26.4312 76 42.9998C76 52.5655 76 62.1706 76 68C76 83 86 88 86 88L6 88C6 88 16 83 16 68C16 62.1706 16 52.5655 16 42.9998C16 26.4312 29.4315 13 46 13V13Z" fill="#9D70F9"/>
<path fill-rule="evenodd" clip-rule="evenodd" d="M36 88C36 93.5228 40.4772 98 46 98C51.5228 98 56 93.5228 56 88" fill="#9D70F9"/>
<rect x="44" y="5" width="52" height="27" fill="#111111"/>
<rect x="52" y="10" width="37" height="3" fill="white"/>
<rect x="52" y="17" width="16" height="3" fill="white"/>
<rect x="52" y="24" width="30" height="3" fill="white"/>
</svg>
