<svg width="24" height="24" viewBox="0 0 108 106" fill="none" xmlns="http://www.w3.org/2000/svg">
<path d="M43.6129 79.9163L23.7785 60.0819C23.7785 60.0819 24.7475 58.6285 26.4887 56.1807L10.5556 40.2476L37.0014 27.0247L43.9655 33.9888C46.9626 30.5582 46.8726 30.3764 50.2243 27.0247C52.4994 24.7496 54.9623 22.7877 57.5184 21.0959C73.5321 10.4961 93.1987 10.4961 93.1987 10.4961C93.1987 10.4961 93.1987 30.1627 82.599 46.1765C80.9071 48.7325 78.9452 51.1954 76.6701 53.4705C73.3184 56.8222 73.1366 56.7322 69.706 59.7293L76.6701 66.6934L63.4472 93.1392L47.5142 77.2061C45.0663 78.9473 43.6129 79.9163 43.6129 79.9163Z" fill="#FF5656"/>
<path d="M31.0101 87.8628C35.1901 83.4628 35.0801 76.5328 30.7901 72.3528C26.5001 68.2828 19.7901 68.2828 15.5001 72.3528C11.1001 76.5328 5.6001 97.6528 5.6001 97.6528C5.6001 97.6528 26.7201 92.1528 31.0101 87.8628Z" fill="#9D70F9"/>
<path d="M30.9002 80.0538C32.7702 77.6337 32.2202 74.2238 29.8002 72.3537C27.8202 70.9238 25.1802 70.9238 23.2002 72.3537C21.0002 74.5538 17.7002 85.5538 17.7002 85.5538C17.7002 85.5538 28.8102 82.2538 30.9002 80.0538Z" fill="#FF5656"/>
<path d="M31.3842 55.7681L46.7236 41.006L52.3122 46.8131C53.1206 47.6531 53.6763 48.5815 53.9795 49.5982C54.2899 50.608 54.3172 51.6158 54.0613 52.6218C53.8124 53.6352 53.2607 54.553 52.406 55.3755C52.0846 55.6848 51.7063 55.9715 51.2711 56.2356C50.8431 56.4927 50.3773 56.6666 49.8737 56.7573C49.3701 56.848 48.8479 56.7878 48.307 56.5767C48.6611 57.1786 48.8146 57.7766 48.7673 58.3708C48.7201 58.9649 48.5514 59.5353 48.2613 60.0818C47.9855 60.6286 47.6533 61.1312 47.2645 61.5898C46.883 62.0413 46.5206 62.4323 46.1773 62.7627C45.403 63.5078 44.4978 63.978 43.4616 64.1732C42.4327 64.3614 41.3909 64.2877 40.3363 63.952C39.2889 63.6092 38.3575 63.0142 37.5421 62.1669L31.3842 55.7681ZM37.3305 56.3769L39.9877 59.138C40.3532 59.5178 40.7713 59.7768 41.2418 59.9149C41.7267 60.0532 42.214 60.0626 42.7039 59.9429C43.2007 59.8306 43.65 59.5811 44.0518 59.1944C44.3878 58.8711 44.6142 58.4703 44.7309 57.9922C44.8619 57.5144 44.8713 57.027 44.7589 56.5301C44.6536 56.0406 44.4182 55.6059 44.0526 55.226L41.3955 52.4649L37.3305 56.3769ZM44.1346 49.8288L46.1803 51.9545C46.602 52.3927 47.1101 52.6283 47.7046 52.6612C48.299 52.6941 48.8191 52.4962 49.2646 52.0674C49.7175 51.6316 49.9133 51.1406 49.8521 50.5945C49.7909 50.0485 49.5494 49.5563 49.1276 49.118L47.082 46.9924L44.1346 49.8288ZM43.45 68.3059L58.7895 53.5438L61.9528 56.8308L46.6134 71.593L43.45 68.3059Z" fill="white"/>
</svg>
