<svg width="24" height="24" viewBox="0 0 98 95" fill="none" xmlns="http://www.w3.org/2000/svg">
<path d="M39.5572 71.6509L21.526 53.6197C21.526 53.6197 22.4069 52.2984 23.9898 50.0731L9.50516 35.5885L33.5468 23.5676L39.8778 29.8987C42.6025 26.78 42.5206 26.6146 45.5676 23.5676C47.6358 21.4994 49.8749 19.7158 52.1986 18.1778C66.7565 8.54163 84.6353 8.54163 84.6353 8.54163C84.6353 8.54163 84.6353 26.4204 74.9991 40.9783C73.461 43.302 71.6775 45.541 69.6092 47.6093C66.5623 50.6562 66.3969 50.5744 63.2782 53.2991L69.6092 59.6301L57.5884 83.6717L43.1038 69.1871C40.8785 70.77 39.5572 71.6509 39.5572 71.6509Z" fill="#FF5656"/>
<path d="M28.1 78.875C31.9 74.875 31.8 68.575 27.9 64.775C24 61.075 17.9 61.075 14 64.775C10 68.575 5 87.775 5 87.775C5 87.775 24.2 82.775 28.1 78.875Z" fill="#9D70F9"/>
<path d="M28 71.7758C29.7 69.5758 29.2 66.4758 27 64.7758C25.2 63.4758 22.8 63.4758 21 64.7758C19 66.7758 16 76.7758 16 76.7758C16 76.7758 26.1 73.7758 28 71.7758Z" fill="#FF5656"/>
<path d="M27.8224 48.4239L43.1619 33.6618L48.7504 39.4689C49.5588 40.3089 50.1146 41.2373 50.4177 42.254C50.7281 43.2637 50.7554 44.2716 50.4995 45.2776C50.2506 46.2909 49.6989 47.2088 48.8443 48.0313C48.5229 48.3406 48.1445 48.6273 47.7093 48.8914C47.2814 49.1484 46.8156 49.3223 46.312 49.413C45.8083 49.5038 45.2861 49.4436 44.7453 49.2324C45.0994 49.8343 45.2528 50.4323 45.2056 51.0265C45.1583 51.6207 44.9896 52.191 44.6995 52.7375C44.4238 53.2843 44.0915 53.787 43.7027 54.2456C43.3212 54.6971 42.9588 55.0881 42.6155 55.4185C41.8412 56.1636 40.936 56.6338 39.8998 56.829C38.871 57.0172 37.8292 56.9434 36.7745 56.6077C35.7271 56.265 34.7957 55.67 33.9803 54.8226L27.8224 48.4239ZM33.7687 49.0327L36.4259 51.7938C36.7914 52.1736 37.2095 52.4326 37.68 52.5706C38.1649 52.709 38.6523 52.7183 39.1421 52.5987C39.639 52.4863 40.0883 52.2368 40.49 51.8502C40.826 51.5268 41.0524 51.1261 41.1691 50.648C41.3002 50.1701 41.3095 49.6828 41.1972 49.1859C41.0918 48.6963 40.8564 48.2616 40.4909 47.8818L37.8337 45.1207L33.7687 49.0327ZM40.5729 42.4846L42.6185 44.6102C43.0403 45.0485 43.5484 45.2841 44.1428 45.317C44.7373 45.3499 45.2573 45.152 45.7029 44.7231C46.1557 44.2873 46.3516 43.7964 46.2904 43.2503C46.2291 42.7042 45.9876 42.2121 45.5659 41.7738L43.5202 39.6482L40.5729 42.4846ZM39.8883 60.9617L55.2278 46.1996L58.3911 49.4866L43.0516 64.2487L39.8883 60.9617Z" fill="#111111"/>
</svg>
