<svg width="164" height="159" viewBox="0 0 164 159" fill="none" xmlns="http://www.w3.org/2000/svg">
<path d="M2 107.002L1.18897 106.417L0.320156 107.621L1.76297 107.973L2 107.002ZM20.2103 81.7557L20.0115 80.7757L19.6281 80.8535L19.3992 81.1707L20.2103 81.7557ZM56.1191 74.4717L56.3179 75.4517L56.8501 75.3438L57.0494 74.8387L56.1191 74.4717ZM161.885 92.134L162.216 93.0776L163.091 92.7707L162.851 91.8754L161.885 92.134ZM71.3125 123.913L71.0754 124.884L71.3636 124.954L71.6436 124.856L71.3125 123.913ZM147.119 36.9717L148.085 36.7131L147.932 36.141L147.357 36.0003L147.119 36.9717ZM77.6191 19.9717L77.8567 19.0003L77.0091 18.793L76.6889 19.6047L77.6191 19.9717ZM2.81103 107.587L21.0213 82.3408L19.3992 81.1707L1.18897 106.417L2.81103 107.587ZM20.4091 82.7358L56.3179 75.4517L55.9203 73.4916L20.0115 80.7757L20.4091 82.7358ZM161.554 91.1904L70.9814 122.969L71.6436 124.856L162.216 93.0776L161.554 91.1904ZM71.5495 122.941L2.23703 106.03L1.76297 107.973L71.0754 124.884L71.5495 122.941ZM146.153 37.2303L160.919 92.3925L162.851 91.8754L148.085 36.7131L146.153 37.2303ZM57.0494 74.8387L78.5494 20.3387L76.6889 19.6047L55.1889 74.1047L57.0494 74.8387ZM77.3815 20.943L146.882 37.943L147.357 36.0003L77.8567 19.0003L77.3815 20.943Z" fill="#111111"/>
<path d="M71.426 123.65L77.119 19.4714" stroke="#111111" stroke-width="2"/>
<path d="M71.4258 123.649L147.619 36.4717" stroke="#111111" stroke-width="2"/>
<path d="M71.4254 123.649L18.8943 81.3387" stroke="#111111" stroke-width="2"/>
<rect x="63.8945" y="145.354" width="11.0796" height="3.45801" transform="rotate(-73.0702 63.8945 145.354)" fill="#111111"/>
<rect x="48.1504" y="140.562" width="11.0796" height="3.45801" transform="rotate(-73.0702 48.1504 140.562)" fill="#111111"/>
<rect x="33.6201" y="136.228" width="11.0796" height="3.45801" transform="rotate(-73.0702 33.6201 136.228)" fill="#111111"/>
<path d="M148.3 87.3879C147.947 90.427 145.197 92.6042 142.158 92.2508C139.119 91.8974 136.941 89.1473 137.295 86.1082C137.648 83.0691 140.398 80.8919 143.437 81.2453C146.476 81.5987 148.654 84.3488 148.3 87.3879ZM139.333 86.3452C139.11 88.2587 140.481 89.9903 142.395 90.2128C144.308 90.4353 146.04 89.0645 146.262 87.1509C146.485 85.2374 145.114 83.5058 143.2 83.2833C141.287 83.0608 139.555 84.4316 139.333 86.3452Z" fill="#111111"/>
<rect x="128.16" y="78.6592" width="11.0796" height="3.45801" transform="rotate(96.6324 128.16 78.6592)" fill="#111111"/>
<rect x="129.615" y="22.7759" width="11.0796" height="3.45801" transform="rotate(-62.5856 129.615 22.7759)" fill="#111111"/>
<rect x="115.006" y="15.1982" width="11.0796" height="3.45801" transform="rotate(-62.5856 115.006 15.1982)" fill="#111111"/>
<path d="M40.2503 5.00268C55.1514 4.83368 69.9301 12.6686 77.1631 27.3379C83.3425 39.8575 83.1317 51.7417 76.4969 65.4984C73.2543 72.2246 73.1863 72.664 74.8586 76.1657C76.3134 79.2213 79.8007 81.4318 83.1589 81.4318C86.2452 81.4318 90.9765 77.4704 91.6699 74.3067C92.3497 71.2377 90.3579 66.749 87.5436 64.9981C86.6398 64.4441 85.749 63.8694 84.872 63.2743C83.9951 62.5983 87.7271 60.7055 89.9093 60.7055C94.5795 60.7055 98.3863 64.2613 99.2564 69.426C99.6303 71.6771 100.167 72.2787 102.248 72.8195C108.087 74.3203 111.064 82.6284 107.38 87.1238C105.884 88.949 105.816 88.9558 105.307 87.4077C103.492 81.9929 100.779 79.8365 95.7691 79.8365C93.6005 79.8365 91.8807 80.7018 88.305 83.5951C81.4662 89.1383 75.62 92.4034 68.5433 94.6275C59.8692 97.2233 49.8354 97.8588 40.767 95.682C26.0698 92.7684 11.9981 81.4183 5.06417 66.9045C-3.5964 48.774 -1.03358 29.9676 11.8689 16.968C15.5777 13.2178 19.993 10.2309 24.8627 8.1779C29.7325 6.12488 34.9612 5.04593 40.2503 5.00268Z" fill="#FF5656"/>
</svg>
