<svg width="32" height="32" viewBox="0 0 218 217" fill="none" xmlns="http://www.w3.org/2000/svg">
    <path
        d="M45.8885 86.8723L2 118.713L64.8208 215.096M45.8885 86.8723L70.8447 77.4061L90.5799 67.94L117.413 62.7766M45.8885 86.8723L64.8208 215.096M64.8208 215.096H148.295L184.439 138.506M64.8208 215.096L184.439 138.506M64.8208 215.096L117.413 62.7766M184.439 138.506L117.413 62.7766"
        stroke="#FFFFFF" stroke-width="2" />
    <circle cx="208.533" cy="203.048" r="8.46615" stroke="#FFFFFF" stroke-width="2" />
    <path fill-rule="evenodd" clip-rule="evenodd"
        d="M154.975 23.1908V4.25854L161.859 4.25854V23.1908H154.975Z" fill="#FFFFFF" />
    <path fill-rule="evenodd" clip-rule="evenodd"
        d="M178.414 23.1908V4.25854L185.299 4.25854V23.1908H178.414Z" fill="#FFFFFF" />
    <circle cx="134.861" cy="14.0603" r="8.46615" transform="rotate(53.3902 134.861 14.0603)"
        stroke="#FFFFFF" stroke-width="2" />
    <rect x="39.7305" y="52.3567" width="134.309" height="99.6489" fill="#9D70F9" />
    <rect x="39.7305" y="61.022" width="134.309" height="1.08314" fill="white" />
    <circle cx="157.708" cy="57.0699" r="1.81499" fill="white" />
    <circle cx="163.149" cy="57.0699" r="1.81499" fill="white" />
    <circle cx="168.596" cy="57.0699" r="1.81499" fill="white" />
    <rect x="39.7305" y="52.3567" width="134.309" height="99.6489" fill="#9D70F9" />
    <rect x="39.7305" y="61.022" width="134.309" height="1.08314" fill="white" />
    <circle cx="157.708" cy="57.0699" r="1.81499" fill="white" />
    <circle cx="163.149" cy="57.0699" r="1.81499" fill="white" />
    <circle cx="168.596" cy="57.0699" r="1.81499" fill="white" />
    <path d="M79.5449 73.6064H156.001V86.5911H79.5449V73.6064Z" fill="white" />
    <path d="M105.029 99.5762H156V112.561H105.029V99.5762Z" fill="white" />
    <path d="M130.512 126.544H155.997V139.528H130.512V126.544Z" fill="white" />
    <path
        d="M81.9047 116.556H96.0632C96.689 116.556 97.2892 116.293 97.7317 115.825C98.1743 115.356 98.4229 114.721 98.4229 114.059V99.0766C98.4229 98.4144 98.1743 97.7792 97.7317 97.311C97.2892 96.8427 96.689 96.5796 96.0632 96.5796H81.9047C81.2788 96.5796 80.6786 96.8427 80.2361 97.311C79.7935 97.7792 79.5449 98.4144 79.5449 99.0766V114.059C79.5449 114.721 79.7935 115.356 80.2361 115.825C80.6786 116.293 81.2788 116.556 81.9047 116.556ZM84.2644 101.574H93.7034V111.562H84.2644V101.574Z"
        fill="white" />
    <path
        d="M57.2418 88.5891H70.6923C71.2869 88.5891 71.8571 88.3392 72.2775 87.8943C72.6979 87.4494 72.9341 86.846 72.9341 86.2169V71.9838C72.9341 71.3546 72.6979 70.7512 72.2775 70.3064C71.8571 69.8615 71.2869 69.6116 70.6923 69.6116H57.2418C56.6472 69.6116 56.077 69.8615 55.6566 70.3064C55.2362 70.7512 55 71.3546 55 71.9838V86.2169C55 86.846 55.2362 87.4494 55.6566 87.8943C56.077 88.3392 56.6472 88.5891 57.2418 88.5891ZM59.4835 74.356H68.4506V83.8447H59.4835V74.356Z"
        fill="white" />
    <path
        d="M110.319 139.528H110.294C110.015 139.526 109.74 139.468 109.484 139.358C109.228 139.247 108.996 139.086 108.801 138.884L104.676 134.523C104.287 134.113 104.073 133.563 104.082 132.994C104.092 132.424 104.323 131.882 104.726 131.486C105.128 131.09 105.669 130.872 106.229 130.882C106.506 130.886 106.78 130.947 107.034 131.059C107.289 131.171 107.519 131.333 107.712 131.536L110.355 134.328L117.383 127.265C117.575 127.045 117.809 126.868 118.071 126.744C118.333 126.62 118.618 126.552 118.907 126.544C119.196 126.537 119.483 126.59 119.752 126.7C120.02 126.81 120.263 126.975 120.465 127.185C120.668 127.394 120.827 127.644 120.931 127.918C121.035 128.193 121.082 128.486 121.07 128.78C121.058 129.073 120.987 129.362 120.861 129.626C120.735 129.891 120.557 130.127 120.338 130.319L111.797 138.908C111.403 139.304 110.872 139.527 110.319 139.528Z"
        fill="#FF5656" />
</svg>