<svg width="32" height="32" viewBox="0 0 99 83" fill="none" xmlns="http://www.w3.org/2000/svg">
<path d="M0.732487 0L98.8322 0.219712L98.6215 82.6602L0.526367 82.4405L0.732487 0Z" fill="#9D70F9"/>
<path d="M0.732027 0L98.8317 0.187836L98.7755 18.9827L0.675781 18.7948L0.732027 0Z" fill="white"/>
<circle cx="12.0295" cy="9.6418" r="3.36445" fill="black"/>
<circle cx="22.758" cy="9.6418" r="3.36445" fill="black"/>
<circle cx="33.4875" cy="9.6418" r="3.36445" fill="black"/>
<path d="M56.999 27.2563L8.66504 27.1416L8.61859 46.718L56.9526 46.8326L56.999 27.2563Z" fill="white"/>
<path d="M90.8201 27.2093L62.2744 27.1416L62.228 46.718L90.7736 46.7857L90.8201 27.2093Z" fill="white"/>
<path d="M67.2204 52.3156L32.1836 52.2324L32.1371 71.8088L67.1739 71.8919L67.2204 52.3156Z" fill="white"/>
<path d="M27.3815 52.3081L8.66504 52.2637L8.61859 71.84L27.3351 71.8844L27.3815 52.3081Z" fill="#FF5656"/>
<path d="M90.8669 52.3081L72.1504 52.2637L72.1039 71.84L90.8204 71.8844L90.8669 52.3081Z" fill="white"/>
</svg>
