<svg width="24" height="24" viewBox="0 0 96 95" fill="none" xmlns="http://www.w3.org/2000/svg">
<path fill-rule="evenodd" clip-rule="evenodd" d="M47.6787 95.004C73.9117 95.004 95.1777 73.734 95.1777 47.5C95.1777 21.266 73.9117 0 47.6787 0C21.4447 0 0.178711 21.266 0.178711 47.5C0.178711 73.734 21.4447 95.004 47.6787 95.004ZM47.6707 77.324C64.1427 77.324 77.4967 63.972 77.4967 47.5C77.4967 31.028 64.1427 17.675 47.6707 17.675C31.1987 17.675 17.8457 31.028 17.8457 47.5C17.8457 63.972 31.1987 77.324 47.6707 77.324Z" fill="#9D70F9"/>
<path fill-rule="evenodd" clip-rule="evenodd" d="M95.1806 47.499C95.1796 21.266 73.9146 0.001 47.6826 0V17.675H47.6836C64.1556 17.675 77.5086 31.027 77.5086 47.499H95.1806Z" fill="#FF5656"/>
<path fill-rule="evenodd" clip-rule="evenodd" d="M0.1875 47.501C0.1875 73.734 21.4515 94.994 47.6825 95.004V77.324C31.2115 77.324 17.8585 63.974 17.8585 47.503V47.501H0.1875Z" fill="#111111"/>
</svg>
