<svg width="32" height="32" viewBox="0 0 137 159" fill="none"
    xmlns="http://www.w3.org/2000/svg">
    <circle cx="120.834" cy="21.7706" r="4.5265" stroke="#111111" stroke-width="2"/>
    <circle cx="5.53139" cy="81.2455" r="4.5265" stroke="#111111" stroke-width="2"/>
    <path fill-rule="evenodd" clip-rule="evenodd" d="M136.241 40.0895L127.598 46.8935L125.124 43.7505L133.767 36.9465L136.241 40.0895Z" fill="#111111"/>
    <path d="M28.1057 78.3325L6.00488 98.5473V134.143M28.1057 78.3325L71.5049 103.279M28.1057 78.3325L6.00488 134.143M28.1057 78.3325L64.7581 134.143M71.5049 103.279L119.505 64.2786M71.5049 103.279L101.531 134.143M71.5049 103.279L64.7581 134.143M119.505 64.2786L123.005 78.3325M119.505 64.2786L101.531 134.143M123.005 78.3325L134.957 75.0366V134.143M123.005 78.3325L134.957 134.143M134.957 134.143H101.531M6.00488 134.143H64.7581M101.531 134.143H64.7581" stroke="#111111" stroke-width="2"/>
    <path fill-rule="evenodd" clip-rule="evenodd" d="M62.9216 110.007C88.2516 110.007 108.786 89.4725 108.786 64.1426C108.786 38.8126 88.2516 18.2786 62.9216 18.2786C37.5916 18.2786 17.0576 38.8126 17.0576 64.1426C17.0576 89.4725 37.5916 110.007 62.9216 110.007ZM62.9223 92.9406C78.8272 92.9406 91.7207 80.0472 91.7207 64.1423C91.7207 48.2374 78.8272 35.344 62.9223 35.344C47.0175 35.344 34.124 48.2374 34.124 64.1423C34.124 80.0472 47.0175 92.9406 62.9223 92.9406Z" fill="#9D70F9"/>
    <path fill-rule="evenodd" clip-rule="evenodd" d="M108.782 64.1426C108.782 38.813 88.2484 18.2792 62.9189 18.2786V35.344C78.8236 35.3443 91.7168 48.2376 91.7168 64.1423C91.7168 64.1424 91.7168 64.1425 91.7168 64.1426L108.782 64.1426Z" fill="#FF5656"/>
    <path fill-rule="evenodd" clip-rule="evenodd" d="M17.0562 64.1431C17.0562 64.1431 17.0562 64.1431 17.0562 64.1431C17.0562 89.4727 37.5895 110.006 62.9189 110.007V92.9417C47.0143 92.9414 34.1211 80.048 34.1211 64.1433C34.1211 64.1432 34.1211 64.1431 34.1211 64.1431H17.0562Z" fill="#111111"/>
    <circle cx="120.834" cy="21.7706" r="4.5265" stroke="#111111" stroke-width="2"/>
    <circle cx="5.53139" cy="81.2455" r="4.5265" stroke="#111111" stroke-width="2"/>
    <path fill-rule="evenodd" clip-rule="evenodd" d="M136.241 40.0895L127.598 46.8935L125.124 43.7505L133.767 36.9465L136.241 40.0895Z" fill="#111111"/>
    <path d="M28.1057 78.3325L6.00488 98.5473V134.143M28.1057 78.3325L71.5049 103.279M28.1057 78.3325L6.00488 134.143M28.1057 78.3325L64.7581 134.143M71.5049 103.279L119.505 64.2786M71.5049 103.279L101.531 134.143M71.5049 103.279L64.7581 134.143M119.505 64.2786L123.005 78.3325M119.505 64.2786L101.531 134.143M123.005 78.3325L134.957 75.0366V134.143M123.005 78.3325L134.957 134.143M134.957 134.143H101.531M6.00488 134.143H64.7581M101.531 134.143H64.7581" stroke="#111111" stroke-width="2"/>
    <path fill-rule="evenodd" clip-rule="evenodd" d="M62.9216 110.007C88.2516 110.007 108.786 89.4725 108.786 64.1426C108.786 38.8126 88.2516 18.2786 62.9216 18.2786C37.5916 18.2786 17.0576 38.8126 17.0576 64.1426C17.0576 89.4725 37.5916 110.007 62.9216 110.007ZM62.9223 92.9406C78.8272 92.9406 91.7207 80.0472 91.7207 64.1423C91.7207 48.2374 78.8272 35.344 62.9223 35.344C47.0175 35.344 34.124 48.2374 34.124 64.1423C34.124 80.0472 47.0175 92.9406 62.9223 92.9406Z" fill="#9D70F9"/>
    <path fill-rule="evenodd" clip-rule="evenodd" d="M108.782 64.1426C108.782 38.813 88.2484 18.2792 62.9189 18.2786V35.344C78.8236 35.3443 91.7168 48.2376 91.7168 64.1423C91.7168 64.1424 91.7168 64.1425 91.7168 64.1426L108.782 64.1426Z" fill="#FF5656"/>
    <path fill-rule="evenodd" clip-rule="evenodd" d="M17.0562 64.1431C17.0562 64.1431 17.0562 64.1431 17.0562 64.1431C17.0562 89.4727 37.5895 110.006 62.9189 110.007V92.9417C47.0143 92.9414 34.1211 80.048 34.1211 64.1433C34.1211 64.1432 34.1211 64.1431 34.1211 64.1431H17.0562Z" fill="#111111"/>
    <path fill-rule="evenodd" clip-rule="evenodd" d="M20.1145 7.96673L11.4712 14.7707L8.99707 11.6277L17.6403 4.82372L20.1145 7.96673Z" fill="#111111"/>
    <path fill-rule="evenodd" clip-rule="evenodd" d="M29.1223 19.4216L20.4791 26.2255L18.0049 23.0825L26.6482 16.2786L29.1223 19.4216Z" fill="#111111"/>
</svg>
