<svg width="32" height="32" viewBox="0 0 96 99" fill="none" xmlns="http://www.w3.org/2000/svg">
<path d="M0.701172 13.5269H95.8432V98.7289H0.701172V13.5269Z" fill="#9D70F9"/>
<path d="M0.701172 13.5269H95.8432V36.2479H0.701172V13.5269Z" fill="#FF5656"/>
<path fill-rule="evenodd" clip-rule="evenodd" d="M25.5511 0.0390625V17.079H18.4512V0.0390625H25.5511Z" fill="black"/>
<path fill-rule="evenodd" clip-rule="evenodd" d="M78.0941 0.0390625V17.079H70.9941V0.0390625H78.0941Z" fill="black"/>
<path d="M16.3229 41.9302H7.80273V50.4503H16.3229V41.9302Z" fill="white"/>
<path d="M40.4675 41.9302H31.9473V50.4503H40.4675V41.9302Z" fill="white"/>
<path d="M64.6002 41.9302H56.0801V50.4503H64.6002V41.9302Z" fill="white"/>
<path d="M88.7448 41.9302H80.2246V50.4503H88.7448V41.9302Z" fill="white"/>
<path d="M16.3229 63.23H7.80273V71.7502H16.3229V63.23Z" fill="white"/>
<path d="M40.4675 63.23H31.9473V71.7502H40.4675V63.23Z" fill="white"/>
<path d="M64.6002 63.23H56.0801V71.7502H64.6002V63.23Z" fill="white"/>
<path d="M88.7448 63.23H80.2246V71.7502H88.7448V63.23Z" fill="white"/>
<path d="M16.3229 84.5312H7.80273V93.0514H16.3229V84.5312Z" fill="white"/>
<path d="M40.4675 84.5312H31.9473V93.0514H40.4675V84.5312Z" fill="white"/>
<path d="M64.6002 84.5312H56.0801V93.0514H64.6002V84.5312Z" fill="white"/>
<path d="M88.7448 84.5312H80.2246V93.0514H88.7448V84.5312Z" fill="white"/>
</svg>
