<svg width="170" height="155" viewBox="0 0 170 155" fill="none"
    xmlns="http://www.w3.org/2000/svg">
    <path
        d="M98.8815 83.3968L118.026 13.8492L156.752 76.0813M98.8815 83.3968L156.752 76.0813M98.8815 83.3968L75.6782 117.536L93.9016 132.727L156.752 76.0813M17.0062 102.735L98.2442 83.4127L2.47077 34.687L17.0062 102.735ZM17.0062 102.735L75.9128 117.32M117.733 12.944L1.01074 33.6636"
        stroke="#dddddd" stroke-width="2" />
    <rect x="129.768" y="123.097" width="16.3737" height="60.6744"
        transform="rotate(150 129.768 123.097)" fill="#dddddd" />
    <path fill-rule="evenodd" clip-rule="evenodd"
        d="M140.519 141.718C143.457 136.723 143.697 130.332 140.592 124.955C135.999 117 125.827 114.274 117.873 118.867C109.918 123.46 107.192 133.632 111.785 141.587C114.889 146.964 120.543 149.952 126.339 149.905L118.628 136.549L123.354 128.362L132.808 128.362L140.519 141.718Z"
        fill="#9D70F9" />
    <path fill-rule="evenodd" clip-rule="evenodd"
        d="M86.5734 48.2821C92.3686 48.2352 98.0225 51.223 101.127 56.6003C105.72 64.5552 102.994 74.7271 95.0394 79.3198C87.0846 83.9126 76.9127 81.187 72.3199 73.2321C69.2153 67.8547 69.4548 61.4642 72.3933 56.4688L80.1044 69.8249L89.5578 69.8249L94.2845 61.6381L86.5734 48.2821Z"
        fill="#FF5656" />
    <path
        d="M158.749 46.6344C161.399 45.1046 164.787 46.0124 166.317 48.6621C167.846 51.3117 166.938 54.6998 164.289 56.2296C161.639 57.7594 158.251 56.8515 156.721 54.2019C155.192 51.5522 156.099 48.1641 158.749 46.6344ZM163.263 54.4528C164.931 53.4896 165.503 51.3563 164.54 49.6879C163.577 48.0196 161.443 47.448 159.775 48.4112C158.107 49.3744 157.535 51.5077 158.498 53.176C159.461 54.8444 161.595 55.416 163.263 54.4528Z"
        fill="#dddddd" />
    <rect x="145.722" y="35.1514" width="11.0796" height="3.45801"
        transform="rotate(-30 145.722 35.1514)" fill="#dddddd" />
    <rect x="137.493" y="20.8984" width="11.0796" height="3.45801"
        transform="rotate(-30 137.493 20.8984)" fill="#dddddd" />
    <path
        d="M43.9702 125.515C46.6199 123.985 50.008 124.893 51.5377 127.543C53.0675 130.193 52.1597 133.581 49.51 135.11C46.8604 136.64 43.4723 135.732 41.9425 133.083C40.4127 130.433 41.3206 127.045 43.9702 125.515ZM48.4842 133.334C50.1525 132.37 50.7241 130.237 49.7609 128.569C48.7977 126.9 46.6644 126.329 44.9961 127.292C43.3277 128.255 42.7561 130.389 43.7193 132.057C44.6825 133.725 46.8158 134.297 48.4842 133.334Z"
        fill="#dddddd" />
    <path
        d="M69.8774 33.3482C72.5271 31.8185 75.9152 32.7263 77.445 35.3759C78.9747 38.0256 78.0669 41.4137 75.4173 42.9435C72.7676 44.4732 69.3795 43.5654 67.8497 40.9158C66.3199 38.2661 67.2278 34.878 69.8774 33.3482ZM74.3914 41.1666C76.0597 40.2034 76.6314 38.0701 75.6681 36.4018C74.7049 34.7334 72.5716 34.1618 70.9033 35.1251C69.2349 36.0883 68.6633 38.2216 69.6265 39.8899C70.5898 41.5582 72.7231 42.1299 74.3914 41.1666Z"
        fill="#dddddd" />
    <rect x="36.1299" y="18.4932" width="11.0796" height="3.45801"
        transform="rotate(150 36.1299 18.4932)" fill="#dddddd" />
    <rect x="28.3335" y="3.75439" width="11.0796" height="3.45801"
        transform="rotate(150 28.3335 3.75439)" fill="#dddddd" />
    <rect x="44.3589" y="32.7466" width="11.0796" height="3.45801"
        transform="rotate(150 44.3589 32.7466)" fill="#dddddd" />
</svg>