<svg width="32" height="32" viewBox="0 0 99 96" fill="none" xmlns="http://www.w3.org/2000/svg">
<path d="M25.741 70.459C27.961 70.977 29.141 70.996 31.561 70.705C29.741 79.464 41.1909 80.774 28.1209 96.004C32.5909 78.924 22.711 83.104 25.741 70.459ZM17.2709 66.1411L22.691 69.054C19.321 73.054 21.681 86.304 14.701 93.044C14.431 82.394 13.6809 73.6141 17.2709 66.1411ZM72.471 90.734L72.7909 83.494C70.2209 75.834 66.6209 68.927 62.6309 62.322C65.0709 61.3 67.161 59.779 68.591 57.315C75.381 59.486 82.331 61.302 90.191 60.981C92.011 74.394 84.421 84.194 72.471 90.734ZM35.431 74.734L39.8809 73.304C45.4709 69.411 49.961 65.634 53.341 60.916C55.041 61.929 56.8409 62.883 58.9009 63.623C62.6809 70.943 65.611 77.9441 67.311 85.4641C58.681 92.034 42.461 91.194 35.431 74.734ZM10.591 60.692L15.0209 65.638C12.9909 68.505 10.7909 73.844 8.63092 82.854C5.67092 74.524 6.351 67.078 10.591 60.692ZM4.65094 55.024L8.07098 59.451C6.19098 61.7211 4.01094 66.048 1.65094 73.454C-0.319064 66.283 0.720936 60.091 4.65094 55.024ZM49.301 42.674C48.751 44.746 48.511 46.786 48.941 48.711L50.951 57.535C47.421 61.98 43.031 66.041 37.071 69.611C33.861 57.959 40.331 48.774 49.301 42.674ZM10.551 56.723C4.42096 51.06 4.07097 47.578 7.31097 45.476C7.41097 31.364 13.4909 22.184 22.6509 15.836L21.7509 25.069C22.5309 34.379 26.751 42.16 33.801 53.45C31.851 57.998 30.821 63.0861 32.081 67.7191C24.101 65.4571 15.141 61.482 10.551 56.723ZM60.091 57.604L62.491 47.588C69.391 50.753 66.221 55.785 60.091 57.604ZM98.5109 57.554L91.571 55.083C83.971 55.538 76.8409 54.513 69.8809 52.866C70.2409 49.779 69.5509 46.645 68.3709 43.812C71.5109 38.204 78.851 30.019 84.861 25.086C95.191 35.581 99.6309 46.419 98.5109 57.554ZM56.851 57.3101L55.0009 56.403C53.8109 52.958 52.8909 49.307 52.4009 45.336C54.9809 44.08 57.261 43.8091 59.201 44.6591L56.851 57.3101ZM26.1509 22.1541C33.3509 8.46505 43.461 2.176 54.441 0L50.191 9.06305C48.981 17.931 48.421 27.222 50.481 38.201C45.761 40.3521 40.6209 42.9661 36.2709 49.6541C30.9009 41.5221 26.6009 32.3751 26.1509 22.1541ZM54.7809 38.333C52.8509 29.558 53.4609 20.5031 54.6509 9.40405C68.6709 7.06905 80.7909 10.136 89.6409 18.593C86.7509 19.233 84.1409 20.274 81.6609 21.498C75.2809 27.465 70.1109 34.3341 65.5209 41.6201C62.3309 39.7711 58.6909 38.78 54.7809 38.333Z" fill="#FF4040"/>
</svg>
