<svg width="32" height="32" viewBox="0 0 159 156" fill="none" xmlns="http://www.w3.org/2000/svg">
    <path
        d="M10 70L42 121.28H93.6705L53.8352 97.0243M10 70L42 16.5M10 70L53.8352 97.0243M42 16.5L53.8352 97.0243M42 16.5L80.5 52.4999M42 16.5H80.5M53.8352 97.0243L80.5 52.4999M80.5 52.4999L107 43.5L123.5 13.5273L80.5 16.5M80.5 52.4999V16.5"
        stroke="#111111" stroke-width="2" />
    <path fill-rule="evenodd" clip-rule="evenodd"
        d="M11.1147 104.137L2.47355 110.928L0 107.791L8.6411 101L11.1147 104.137Z" fill="#111111" />
    <circle cx="131.5" cy="25.5" r="4.5" stroke="#111111" stroke-width="2" />
    <path fill-rule="evenodd" clip-rule="evenodd"
        d="M19.1174 114.143L10.4742 120.947L8 117.804L16.6433 111L19.1174 114.143Z" fill="#111111" />
    <path fill-rule="evenodd" clip-rule="evenodd"
        d="M148.896 25.527L144.697 35.694L141 34.167L145.199 24L148.896 25.527Z" fill="#111111" />
    <path
        d="M54.6201 93.0645C57.062 93.6315 58.362 93.6522 61.0267 93.3331C59.0305 102.917 71.6474 104.349 57.244 121C62.1633 102.323 51.2738 106.896 54.6201 93.0645ZM45.2828 88.3412L51.2533 91.5282C47.5411 95.9076 50.1464 110.391 42.4472 117.764C42.15 106.12 41.3311 96.5124 45.2828 88.3412ZM106.11 115.238L106.467 107.319C103.631 98.9386 99.6718 91.3892 95.2708 84.1645C97.9592 83.0472 100.266 81.3828 101.835 78.6883C109.323 81.0623 116.987 83.049 125.644 82.6977C127.65 97.3632 119.28 108.092 106.11 115.238ZM65.2959 97.7406L70.2028 96.1797C76.3568 91.9187 81.3134 87.7872 85.0385 82.6264C86.9103 83.7344 88.8937 84.7786 91.1663 85.588C95.3226 93.594 98.5543 101.247 100.429 109.471C90.9141 116.663 73.0439 115.741 65.2959 97.7406ZM37.9161 82.3823L42.8075 87.7909C40.5642 90.9272 38.137 96.7715 35.7619 106.624C32.5006 97.506 33.2493 89.3665 37.9161 82.3823ZM31.3754 76.1829L35.1397 81.0245C33.0673 83.5073 30.6682 88.2396 28.068 96.3377C25.903 88.4971 27.0413 81.7248 31.3754 76.1829ZM80.5776 62.6743C79.9741 64.9411 79.7124 67.1723 80.1805 69.2774L82.3943 78.9285C78.5126 83.7906 73.668 88.2322 67.0978 92.1368C63.5617 79.3926 70.6983 69.3468 80.5776 62.6743ZM37.8792 78.0402C31.1271 71.8466 30.7355 68.038 34.3062 65.7393C34.4195 50.3038 41.1125 40.2639 51.2072 33.3209L50.2212 43.419C51.0847 53.6017 55.7328 62.1126 63.4951 74.4608C61.3504 79.4357 60.2176 85.0004 61.5992 90.067C52.806 87.5938 42.9342 83.2461 37.8792 78.0402ZM92.4744 79.0037L95.1171 68.0494C102.722 71.5104 99.223 77.0149 92.4744 79.0037ZM134.813 78.9492L127.168 76.2467C118.792 76.7446 110.928 75.6233 103.258 73.8222C103.658 70.4455 102.894 67.0183 101.6 63.9196C105.06 57.7854 113.145 48.8333 119.765 43.4377C131.157 54.9162 136.05 66.7704 134.813 78.9492ZM88.8979 78.6827L86.8591 77.6909C85.546 73.9222 84.5338 69.9295 83.9933 65.5858C86.8402 64.2126 89.3563 63.9161 91.4918 64.8456L88.8979 78.6827ZM55.0694 40.2304C63.0065 25.2587 74.1451 18.3796 86.2475 16L81.5657 25.9122C80.2323 35.6122 79.614 45.7741 81.8797 57.7822C76.678 60.1352 71.0159 62.9937 66.2229 70.3086C60.3024 61.4142 55.5688 51.41 55.0694 40.2304ZM86.6207 57.9268C84.4888 48.3284 85.1647 38.4255 86.4755 26.2859C101.93 23.7321 115.29 27.0864 125.039 36.3356C121.851 37.0361 118.979 38.1742 116.248 39.5133C109.217 46.0393 103.52 53.5531 98.4593 61.5216C94.9439 59.4989 90.9327 58.4154 86.6207 57.9268Z"
        fill="#FF4040" />
</svg>
    