<svg width="24" height="24" viewBox="0 0 652 489" fill="none" xmlns="http://www.w3.org/2000/svg">
<circle cx="332.562" cy="244.648" r="156" fill="#9D70F9"/>
<path d="M617.208 56.2942C618.351 58.1775 620.16 65.4915 610.623 83.1539C601.755 99.5759 585.564 120.051 562.5 143.265C516.568 189.497 446.213 243.778 362.288 294.744C278.363 345.711 197.754 383.106 135.55 402.544C104.315 412.304 78.6812 417.229 60.0203 417.524C39.95 417.842 34.2941 412.864 33.1504 410.981C32.0067 409.098 30.198 401.784 39.7353 384.121C48.6029 367.699 64.7938 347.224 87.8582 324.01C133.79 277.779 204.145 223.497 288.07 172.531C371.995 121.565 452.604 84.169 514.808 64.7315C546.042 54.9711 571.677 50.0465 590.338 49.751C610.408 49.4332 616.064 54.4109 617.208 56.2942Z" stroke="#9D70F9" stroke-width="35"/>
<path d="M551.5 114C516.5 116 550.977 112.526 508 149.5C465.023 186.474 412.934 225.708 355.679 261.103C298.425 296.497 239.373 327.485 185.262 350.53C131.151 373.575 113.004 373.316 78.5 377" stroke="white" stroke-width="30"/>
<path d="M174.502 155.017C160.178 179.827 152.018 207.713 150.708 236.331C149.398 264.95 154.976 293.465 166.974 319.48L190.324 308.711C180.05 286.433 175.273 262.014 176.395 237.507C177.517 213 184.505 189.12 196.771 167.874L174.502 155.017Z" fill="white"/>
<path d="M545.5 359.5C545.5 409.758 504.758 450.5 454.5 450.5C404.242 450.5 363.5 409.758 363.5 359.5C363.5 309.242 404.242 268.5 454.5 268.5C504.758 268.5 545.5 309.242 545.5 359.5Z" fill="#FF5656" stroke="white" stroke-width="25"/>
</svg>
