<svg width="24" height="24" viewBox="0 0 102 102" fill="none" xmlns="http://www.w3.org/2000/svg">
<path d="M0 14.1855H85.1126V69.2385L75.717 71.9405L73.7827 84.4372H0V14.1855Z" fill="#9D70F9"/>
<rect y="6.0791" width="85.1126" height="8.78146" fill="white"/>
<path fill-rule="evenodd" clip-rule="evenodd" d="M27.6951 41.2824L5.48161 63.4959L4.05273 62.067L26.2662 39.8535L27.6951 41.2824Z" fill="white"/>
<path fill-rule="evenodd" clip-rule="evenodd" d="M30.0597 41.8801C32.4846 41.8801 34.4504 39.9143 34.4504 37.4894C34.4504 35.0644 32.4846 33.0986 30.0597 33.0986C27.6347 33.0986 25.6689 35.0644 25.6689 37.4894C25.6689 39.9143 27.6347 41.8801 30.0597 41.8801Z" fill="white"/>
<path fill-rule="evenodd" clip-rule="evenodd" d="M49.9866 62.145C52.225 62.145 54.0396 60.3304 54.0396 58.092C54.0396 55.8536 52.225 54.0391 49.9866 54.0391C47.7482 54.0391 45.9336 55.8536 45.9336 58.092C45.9336 60.3304 47.7482 62.145 49.9866 62.145Z" fill="white"/>
<path fill-rule="evenodd" clip-rule="evenodd" d="M33.8143 39.8535L47.2848 53.3239L45.8942 54.7144L32.4238 41.244L33.8143 39.8535Z" fill="white"/>
<path fill-rule="evenodd" clip-rule="evenodd" d="M80.3841 29.0899L54.7589 54.7152L53.3643 53.3206L78.9895 27.6953L80.3841 29.0899Z" fill="white"/>
<path d="M101.871 79.5248C101.95 78.8091 102 78.0834 102 77.3451C102 76.6068 101.95 75.881 101.87 75.1641L96.3729 73.2091C96.0992 72.3101 95.7401 71.4512 95.3057 70.6351L97.8068 65.3716C96.8965 64.23 95.8613 63.194 94.7206 62.2827L89.4572 64.7889C88.6368 64.3486 87.7746 63.991 86.8833 63.7217L84.9297 58.2246C84.2127 58.1443 83.487 58.0928 82.7487 58.0928C82.0105 58.0928 81.2847 58.143 80.5678 58.2246L78.6141 63.7217C77.7151 63.9941 76.8563 64.352 76.0402 64.7889L70.7756 62.2827C69.633 63.1931 68.5985 64.2289 67.6869 65.3716L70.193 70.6326C69.7561 71.4487 69.3983 72.3088 69.1258 73.2066L63.6289 75.1653C63.5485 75.881 63.4971 76.6093 63.4971 77.3463C63.4971 78.0834 63.5473 78.8091 63.6289 79.5261L69.1258 81.4823C69.3983 82.3801 69.7561 83.2401 70.193 84.0563L67.6882 89.3198C68.5985 90.4624 69.6343 91.4958 70.7769 92.4061L76.0364 89.9012C76.8526 90.3381 77.7126 90.6972 78.6104 90.9709L80.5665 96.4668C81.2822 96.5459 82.0079 96.5961 82.7475 96.5961C83.4857 96.5961 84.2102 96.5459 84.9271 96.4655L86.8833 90.9684C87.781 90.6947 88.6411 90.3356 89.4572 89.9012L94.7206 92.4023C95.8632 91.492 96.8965 90.4561 97.8068 89.3161L95.3044 84.0538C95.7414 83.2414 96.1005 82.3788 96.3742 81.4798L101.871 79.5248ZM82.7487 83.4599C81.9456 83.46 81.1503 83.302 80.4082 82.9948C79.6661 82.6876 78.9918 82.2372 78.4238 81.6694C77.2766 80.5227 76.6319 78.9671 76.6316 77.3451C76.6313 75.723 77.2753 74.1672 78.422 73.02C79.5687 71.8727 81.1242 71.2281 82.7462 71.2277C84.3682 71.2274 85.924 71.8714 87.0712 73.0182C88.2183 74.1649 88.863 75.7205 88.8634 77.3425C88.8637 78.9646 88.2197 80.5204 87.0729 81.6676C85.9262 82.8149 84.3708 83.4595 82.7487 83.4599Z" fill="white"/>
</svg>
