<svg width="24" height="24" viewBox="0 0 98 98" fill="none" xmlns="http://www.w3.org/2000/svg">
<rect x="22" y="20" width="53" height="58" fill="white"/>
<path d="M73.7646 4.93117L74.332 6.06405L78.6125 17.4474C78.9489 18.3438 79.6562 19.0511 80.5526 19.3875L91.5431 23.5107C96.366 25.3201 98.9577 30.4738 97.6726 35.3498L97.3633 36.3203L92.2503 47.6282C91.8543 48.4998 91.8543 49.5002 92.2503 50.3719L97.1062 61.0588C99.2371 65.7486 97.4255 71.2254 93.0688 73.7646L91.936 74.332L80.5526 78.6125C79.6562 78.9489 78.9489 79.6562 78.6125 80.5526L74.4893 91.5431C72.6799 96.366 67.5262 98.9577 62.6502 97.6726L61.6798 97.3633L50.3719 92.2503C49.5002 91.8543 48.4998 91.8543 47.6282 92.2503L36.9412 97.1062C32.2514 99.2371 26.7746 97.4255 24.2354 93.0688L23.668 91.936L19.3875 80.5526C19.0511 79.6562 18.3438 78.9489 17.4474 78.6125L6.45693 74.4893C1.63397 72.6799 -0.957734 67.5262 0.327445 62.6502L0.63666 61.6798L5.74969 50.3719C6.14575 49.5002 6.14575 48.4998 5.74969 47.6282L0.893848 36.9412C-1.23705 32.2514 0.574514 26.7746 4.93117 24.2354L6.06405 23.668L17.4474 19.3875C18.3438 19.0511 19.0511 18.3438 19.3875 17.4474L23.5107 6.45693C25.3201 1.63397 30.4738 -0.957734 35.3498 0.327445L36.3203 0.63666L47.6282 5.74969C48.4998 6.14575 49.5002 6.14575 50.3719 5.74969L61.0588 0.893848C65.7486 -1.23705 71.2254 0.574514 73.7646 4.93117ZM65.0683 31.965L41.4129 58.9997L32.781 50.3678C31.4859 49.0727 29.3861 49.0727 28.091 50.3678C26.7959 51.6629 26.7959 53.7627 28.091 55.0578L39.2294 66.1962C40.5859 67.5527 42.8069 67.4787 44.0702 66.035L70.0598 36.3326C71.2659 34.9542 71.1262 32.8591 69.7478 31.653C68.3694 30.447 66.2743 30.5866 65.0683 31.965Z" fill="#6133BC"/>
</svg>
