<svg width="24" height="24" viewBox="0 0 823 823" fill="none" xmlns="http://www.w3.org/2000/svg">
<g clip-path="url(#clip0_1407_599)">
<path d="M754.157 930.711C755.559 928.523 774.019 919.034 780.898 895.924C787.778 872.813 788.72 868.438 785.586 862.193C782.452 855.947 781.204 854.078 781.522 852.195C781.841 850.313 785.688 840.748 786.325 836.792C786.962 832.837 789.115 821.173 787.306 819.1C785.497 817.014 783.408 812.855 783.612 812.232C783.815 811.609 784.656 808.696 784.86 806.813C785.064 804.931 782.975 786.615 783.191 784.949C783.408 783.283 782.567 778.704 783.408 776.618C784.249 774.532 789.039 760.999 789.243 760.172C789.446 759.346 788.198 754.639 787.777 754.385C787.357 754.131 785.892 752.261 785.688 749.552C785.484 746.843 782.975 740.598 783.191 739.974C783.408 739.351 771.241 712.068 771.483 711.445C771.725 710.822 768.808 690.421 768.184 689.161C767.56 687.902 761.712 676.048 761.712 675.005C761.712 673.962 758.578 658.445 758.578 658.445C758.578 658.445 751.342 638.946 744.641 631.785C744.641 631.785 749.609 608.598 749.609 607.759C749.609 606.919 744.666 604.223 744.641 603.383C744.615 602.544 747.125 583.185 747.125 583.185C747.125 583.185 752.387 573.9 753.992 573.188C755.597 572.476 744.819 570.695 741.061 570.899C737.303 571.102 734.806 566.32 734.806 566.32C734.806 566.32 727.366 554.211 726.041 543.832C724.716 533.454 720.193 528.633 719.785 527.59C719.378 526.547 713.963 508.727 711.021 507.595C708.078 506.476 704.154 500.524 704.765 499.264C705.377 498.005 697.975 483.785 696.217 483.226C694.446 482.666 696.421 478.023 696.217 478.023C696.013 478.023 691.631 474.691 690.586 473.864C689.541 473.038 686.624 470.532 685.579 468.242C684.535 465.953 679.12 459.085 674.521 455.333C669.922 451.58 655.335 435.643 649.704 433.723C644.073 431.802 626.441 426.18 623.575 424.094C620.708 422.008 615.918 421.601 612.364 422.848C608.822 424.094 597.764 426.803 595.051 427.63C592.337 428.47 583.993 423.471 572.527 419.719C561.061 415.967 527.466 399.317 515.797 400.564C515.797 400.564 511.605 374.134 497.375 373.205C483.145 372.289 462.162 439.841 462.162 439.841L422.58 481.699L413.968 488.898C413.968 488.898 407.331 481.661 404.961 479.295C402.591 476.93 380.373 468.026 379.125 467.53C377.876 467.034 362.461 458.729 360.372 454.582C358.282 450.436 356.868 442.397 356.868 442.397C356.868 442.397 326.803 380.913 325.809 382.172C324.815 383.431 319.146 384.678 317.897 387.832C316.649 390.986 314.802 396.85 313.948 396.837C313.095 396.824 294.495 402.332 289.819 404.99C285.144 407.648 271.932 416.03 271.55 415.903C271.168 415.776 267.206 417.671 265.537 418.078C263.868 418.485 261.575 417.251 257.613 418.078C253.651 418.892 251.141 419.693 251.141 419.693C251.141 419.693 250.3 421.627 248.007 423.382C245.714 425.15 244.045 425.989 241.956 426.613C239.867 427.236 239.663 426.753 237.573 427.211C235.484 427.656 234.146 428.851 231.102 427.211C228.057 425.57 228.388 428.737 226.095 428.928C223.802 429.118 223.177 431.293 220.26 430.835C217.343 430.378 196.908 432.985 187.302 437.157C177.697 441.329 174.792 446.035 172.906 446.429C171.034 446.823 168.193 447.803 165.403 449.075C162.613 450.347 161.237 447.727 160.396 449.876C159.555 452.013 159.148 452.814 158.931 454.391C158.727 455.968 158.511 457.635 158.931 459.097C159.351 460.56 158.689 461.26 158.689 461.26L156.421 465.699C156.421 465.699 148.077 475.543 145.784 477.629C143.49 479.715 138.063 486.164 138.28 487.83C138.496 489.496 140.993 494.151 140.993 494.151L136.585 502.508C136.585 502.508 135.362 510.534 125.553 511.678C125.553 511.678 122.011 513.65 121.591 516.155C121.17 518.661 120.546 532.067 120.342 532.334C120.138 532.601 115.539 541.975 115.132 542.802C114.724 543.629 110.851 550.154 110.851 550.154C110.851 550.154 107.832 565.29 107.628 568.622C107.424 571.954 104.711 584.241 104.494 585.284C104.277 586.327 104.074 590.537 102.405 592.076C100.736 593.615 100.596 593.246 100.532 595.281C100.468 597.316 100.112 597.126 98.863 597.99C97.6145 598.855 96.9903 600.903 96.366 601.526C95.7418 602.15 93.4486 603.612 93.2321 604.859C93.0155 606.105 91.5632 619.015 91.5632 622.971V634.838C91.5632 636.504 86.5564 651.551 85.9322 653.293C85.3079 655.036 77.3838 671.482 76.9634 673.364C76.543 675.247 75.2945 698.141 75.0907 705.429C74.8868 712.717 71.1286 734.365 71.1286 734.365C71.1286 734.365 67.7908 766.01 69.0393 767.473C70.2878 768.936 72.3771 775.181 72.3771 775.181C72.3771 775.181 68.6826 785.382 68.759 787.671C68.8354 789.961 67.6379 798.711 68.759 800.378C69.8801 802.044 69.6763 806.216 69.6763 806.216C69.6763 806.216 66.7461 811.202 66.7461 811.825C66.7461 812.448 64.0326 830.153 67.7908 832.442C71.549 834.732 74.4664 837.021 75.2945 838.688C76.1226 840.354 73.2307 850.567 71.7529 852.221C70.275 853.874 74.6703 862.841 75.7149 864.507C76.7596 866.174 78.6323 872.839 79.0527 873.881C79.4731 874.924 77.3838 889.704 77.3838 892.413C77.3838 895.122 78.2883 900.986 81.142 902.411C83.9957 903.835 86.4673 907.803 86.4673 907.803C86.4673 907.803 83.8556 903.25 91.3593 892.63C98.863 882.009 145.58 849.944 156.434 832.875C167.288 815.806 191.468 797.478 203.354 794.349C215.241 791.22 225.458 787.48 226.299 787.061C227.14 786.641 245.013 837.861 245.013 837.861L203.291 939.347L205.495 1009.8H627.027C627.027 1009.8 627.703 932.173 629.664 929.986C631.626 927.798 752.718 932.911 754.106 930.736L754.157 930.711Z" fill="#FF5656"/>
<path d="M479.106 436.788C471.475 442.893 469.258 450.665 466.442 459.81C464.863 464.923 463.105 469.972 459.754 474.233C455.868 479.168 449.078 482.043 443.409 484.37C433.854 488.288 423.917 490.819 415.369 496.873C412.553 498.857 409.789 501.516 407.381 504.556C408.336 502.444 409.419 500.384 410.693 498.4C417.012 488.619 428.287 484.129 436.224 476.217C436.529 475.912 436.326 475.238 435.841 475.302C427.905 476.268 419.942 482.882 413.993 488.898C410.375 478.532 399.546 474.259 389.915 470.189C384.003 467.696 378.079 465.304 372.487 462.15C366.435 458.729 362.219 453.692 356.957 449.342C356.167 448.693 355.186 449.673 355.836 450.461C358.97 454.251 361.378 457.826 365.429 460.865C370.461 464.643 375.952 467.428 381.685 469.96C392.246 474.64 407.317 478.838 412.884 490.043C412.247 490.704 411.636 491.353 411.05 491.989C410.731 492.333 410.477 492.701 410.184 493.045C409.126 486.774 400.514 483.366 395.176 481.674C393.686 481.203 392.182 480.809 390.666 480.453C382.857 477.82 374.309 476.688 365.582 474.933C355.454 472.898 347.275 467.517 340.217 460.153C334.025 453.679 331.49 446.607 328.191 438.836C328.382 438.836 328.573 438.836 328.751 438.836C332.548 438.734 336.701 437.945 340.242 439.815C341.822 440.655 343.44 438.645 342.166 437.335C337.261 432.311 327.12 434.588 320.776 434.549C311.553 434.499 302.329 435.987 293.793 439.523C286.099 442.715 274.837 449.176 269.104 457.558C270.148 451.606 271.83 445.933 274.926 440.388C279.245 432.642 285.5 426.066 291.793 419.91C297.832 413.995 304.355 408.882 310.966 403.642C313.54 401.607 315.642 399.254 317.018 396.278C319.107 391.737 320.228 386.255 324.827 383.406C325.541 382.961 325.311 381.676 324.369 381.74C317.973 382.172 316.037 388.519 313.387 393.759C306.329 396.061 299.284 398.376 292.468 401.34C284.595 404.761 278.85 408.933 272.021 413.894C266.365 418.002 259.676 415.979 253.268 417.328C250.644 417.875 248.822 419.35 247.892 421.372C247.535 421.423 247.179 421.538 246.898 421.805C245.331 423.217 243.764 424.552 241.955 425.672C241.624 425.875 241.28 426.04 240.923 426.206C240.656 426.066 240.325 426.015 239.942 426.079C236.63 426.702 233.789 424.171 230.171 424.794C227.903 425.188 225.483 427.261 223.292 427.948C220.094 428.953 216.387 428.66 213.087 428.508C202.679 428.025 194.181 432.527 184.805 436.546C179.569 438.798 176.129 443.745 170.74 445.488C167.785 446.455 164.001 445.768 161.274 447.447C158.051 449.418 157.109 453.132 157.695 456.643C157.631 458.296 157.835 459.911 158.268 461.501C157.886 461.412 157.453 461.527 157.236 461.908C153.618 468.459 149.223 473.114 143.579 477.973C139.477 481.509 136.623 484.828 137.107 490.501C137.273 492.396 138.101 494.037 139.247 495.5C139.235 495.538 139.197 495.551 139.184 495.589C138.126 500.549 135.961 504.772 131.82 507.913C128.928 510.114 124.533 508.282 121.909 510.559C119.029 513.065 119.373 518.013 120.163 522.324C119.284 529.154 118.469 535.361 114.66 541.301C112.812 544.201 111.488 546.605 111.169 549.531C107.309 557.429 106.57 564.857 105.997 573.684C105.551 580.603 103.372 584.915 100.404 590.83C99.9454 591.733 99.7797 592.598 99.818 593.424C98.7733 594.442 97.9834 596.655 97.6522 598.766C95.2189 600.598 93.0149 602.557 91.346 605.253C88.8618 609.247 89.6516 614.754 89.7663 619.168C89.8682 623.187 89.5115 626.863 90.8237 630.437C90.8237 630.437 90.8237 630.437 90.8237 630.45C89.5497 639.01 87.9318 646.59 84.3392 654.54C81.0778 661.764 76.5934 668.226 74.7334 676.022C73.0263 683.132 73.8289 690.7 73.7907 697.925C73.7779 700.977 73.4467 704.017 73.039 707.044C70.0452 719.687 69.1916 733.182 68.1469 746.08C67.2934 756.56 66.236 766.659 70.7968 776.237C69.268 779.683 67.4463 783.245 67.1278 787.01C66.6309 793 67.9686 799.029 68.5928 804.969C68.6693 805.72 69.1789 806.088 69.7139 806.127C67.0641 808.645 65.0385 811.659 63.9301 815.31C62.4395 820.207 62.7326 826.159 64.6817 830.853C65.3315 832.417 66.6564 834.274 68.1852 835.075C69.5738 835.8 70.7459 836.258 72.2109 836.92C75.1538 838.242 74.2493 842.427 74.2365 845.009C70.9497 848.507 69.0897 852.742 71.2172 859.305C72.3893 862.943 74.8481 866.097 76.2749 869.633C78.5044 875.204 75.9692 881.996 75.3194 887.72C74.4022 895.797 78.1986 905.107 84.594 910.157C84.594 910.169 84.594 910.195 84.594 910.207C84.6704 911.174 85.9189 911.301 86.2374 910.564C87.0018 910.309 87.5241 909.495 87.0145 908.541C86.8616 908.249 86.6705 907.969 86.5049 907.689C88.3012 891.803 104.366 879.898 116.074 871.02C122.431 866.199 129.578 862.574 135.833 857.652C141.795 852.958 146.331 846.624 151.083 840.799C161.211 828.385 172.027 816.48 184.55 806.419C191.608 800.746 199.277 795.837 208.004 793.255C215.52 791.029 223.483 790.724 231.228 789.973C232.936 789.808 233.178 787.837 231.993 787.112C231.942 787.073 231.929 787.01 231.878 786.984C225.61 783.474 221.648 780.714 214.221 781.439C213.291 781.528 212.284 781.655 211.265 781.808C211.112 781.566 210.896 781.375 210.603 781.299C209.456 781.044 208.386 780.688 207.316 780.319C207.533 780.167 207.698 779.963 207.736 779.645C207.762 779.391 207.749 779.137 207.775 778.869C209.125 774.456 212.488 770.767 214.119 766.379C215.074 763.81 215.673 761.075 216.476 758.455C217.533 755.008 219.533 751.994 220.82 748.649C222.769 743.561 223.737 738.283 224.871 732.966C225.024 732.267 225.203 731.567 225.406 730.88C225.406 730.855 225.419 730.842 225.432 730.817C226.527 727.179 228.235 723.707 229.075 720.043C229.381 719.357 229.7 718.682 230.056 718.008C232.286 713.824 233.598 709.754 233.802 705.009C234.057 699.057 233.738 693.079 234.108 687.113C234.439 681.746 235.229 676.442 235.318 671.049C235.394 666.102 233.891 662.222 231.776 658.584C231.572 650.342 233.012 641.973 229.585 634.176C228.107 630.831 226.349 627.601 224.413 624.484C222.463 613.05 225.47 601.043 224.069 589.456C222.209 574.078 217.52 559.49 216.794 543.896C216.055 528.099 216.871 512.302 215.915 496.492C215.469 489.051 214.425 481.814 212.259 474.666C210.297 468.204 206.118 462.671 204.156 456.21C204.029 455.816 203.456 455.981 203.532 456.376C204.768 463.015 207.902 468.891 209.609 475.403C211.813 483.773 212.004 492.663 212.348 501.274C212.985 517.046 211.966 532.83 212.909 548.602C213.839 564.03 219.113 578.645 220.858 593.933C221.674 601.119 219.61 609.959 220.005 617.896C217.737 614.767 215.355 611.727 212.934 608.776C199.01 591.733 180.218 578.81 168.523 559.922C168.421 559.757 168.192 559.897 168.269 560.075C177.467 578.568 192.971 591.771 206.564 606.919C213.571 614.729 220.005 623.531 225.152 632.688C229.024 639.582 228.413 647.099 229.088 654.425C227.394 651.971 225.572 649.49 223.941 646.705C221.419 642.393 218.693 638.221 215.584 634.316C211.698 629.445 206.386 626.125 201.672 622.157C201.532 622.042 201.328 622.233 201.468 622.36C209.342 629.954 215.801 638.844 221.126 648.346C223.139 651.92 225.075 655.405 227.661 658.597C231.598 663.469 231.636 668.633 231.356 674.623C230.872 684.811 229.661 694.783 230.005 705.022C230.184 710.555 227.126 715.083 224.935 719.916C223.572 722.918 222.744 726.149 222.069 729.405C222.005 729.583 221.928 729.761 221.877 729.939C219.801 736.375 219.482 742.963 216.705 749.247C214.323 754.627 212.463 759.803 210.73 765.451C209.991 767.842 208.781 770.004 207.711 772.192C207.431 767.499 206.373 762.754 205.316 758.417C203.086 749.323 199.073 740.903 193.71 733.259C188.78 726.238 182.792 720.12 177.097 713.735C172.384 708.444 167.237 702.885 160.013 701.448C159.86 701.423 159.746 701.639 159.899 701.715C166.383 705.009 170.893 709.843 175.467 715.35C180.766 721.735 186.041 728.133 190.729 734.988C195.455 741.895 198.819 749.361 201.214 757.349C201.787 759.257 202.22 761.177 202.589 763.098C199.596 758.735 195.761 754.881 192.143 751.956C182.206 743.879 169.976 737.825 158.013 733.437C145.21 728.731 131.706 728.921 118.405 731.109C108.201 732.788 96.3145 735.001 89.1038 742.951C88.8873 743.18 89.2185 743.523 89.4478 743.294C96.0979 736.718 108.341 736.07 117.144 734.607C129.833 732.483 142.598 732.267 154.968 736.095C165.708 739.415 175.976 745.113 185.34 751.256C194.933 757.552 200.589 765.044 204.386 775.066C204.5 775.83 204.628 776.58 204.755 777.343C202.959 775.931 200.373 775.181 198.398 774.443C191.595 771.874 186.117 768.058 178.651 767.257C165.644 765.883 152.229 768.02 140.814 774.532C140.649 774.621 140.802 774.876 140.967 774.787C151.248 769.521 163.822 768.77 175.186 769.406C181.671 769.763 187.404 771.772 193.137 774.748C195.786 776.122 198.564 777.127 201.163 778.462C200.755 778.399 200.347 778.335 199.927 778.31C194.169 777.865 188.257 778.768 182.524 779.137C170.804 779.887 158.727 783.55 148.535 789.375C138.19 795.29 130.33 804.753 122.342 813.338C117.705 818.324 113.475 823.679 108.698 828.538C104.927 832.379 101.27 835.915 98.7096 840.697C98.5058 841.079 99.0536 841.397 99.2829 841.028C102.175 836.525 106.099 833.384 110.073 829.899C114.609 825.943 118.494 821.262 122.584 816.862C130.546 808.302 138.445 799.385 148.229 792.861C158.523 786.005 172.052 782.673 184.27 781.922C189.493 781.604 194.678 781.095 199.914 781.324C202.029 781.413 203.8 782.227 205.609 782.863C200.933 783.983 196.232 785.7 192.996 788.218C192.856 788.32 192.971 788.587 193.137 788.561C199.685 787.811 206.131 786.221 212.603 785.026C216.998 784.224 220.387 784.771 223.865 786.539C191.672 787.391 167.415 814.381 148.178 837.785C142.649 844.513 137.464 851.432 130.33 856.596C123.081 861.836 115.348 866.174 108.328 871.808C97.3974 880.572 86.2374 890.722 84.7596 904.687C83.2308 902.334 81.6638 900.019 80.5937 897.31C78.275 891.472 79.7656 885.405 80.5937 879.452C81.7275 871.3 78.8101 866.326 75.2302 859.356C67.51 844.322 90.6581 840.621 90.9638 827.393C90.9638 827.24 90.7345 827.215 90.6963 827.355C88.8745 833.892 82.976 837.594 78.0075 841.6C78.1859 839.209 77.4342 836.818 75.7653 834.796C74.3257 833.04 70.9879 832.519 69.319 831.069C66.4908 828.627 66.8093 823.259 66.9876 819.94C67.4463 811.545 73.383 806.584 79.9312 802.311C85.9826 798.355 90.709 794.069 95.117 788.345C95.5374 787.786 94.6074 787.073 94.1488 787.595C88.5051 794.183 81.2179 798.164 74.0327 802.743C72.9881 803.405 72.0198 804.117 71.1026 804.88C71.5485 800.797 71.0261 796.829 70.6949 792.746C70.3127 787.964 71.4338 784.161 73.2683 779.811C75.192 775.232 76.6061 771.06 81.0651 768.325C84.1863 766.417 87.5368 764.866 90.6963 763.009C91.0148 762.818 90.7982 762.347 90.4542 762.424C81.9186 764.306 76.3259 765.68 72.402 772.93C72.0708 770.246 71.1408 767.511 71.0389 764.828C70.7841 758.582 71.4211 752.223 71.9307 746.003C72.6441 737.265 74.1091 728.464 75.0264 719.675C79.014 705.022 75.3194 689.607 78.3897 674.865C80.0714 666.763 85.6386 659.284 88.8236 651.665C91.1422 646.132 92.964 640.002 92.913 633.935C95.8432 637.7 100.837 640.511 103.984 644.072C104.328 644.466 104.978 643.957 104.71 643.512C102.748 640.345 100.047 638.03 97.3464 635.499C92.7219 631.162 93.1168 624.828 93.206 619.104C93.2825 614.271 92.4162 609.857 94.8877 605.393C95.3718 604.515 95.9833 603.765 96.6075 603.065C96.5056 603.383 96.3782 603.689 96.289 604.007C95.3845 607.186 96.7222 608.942 97.3974 612.007C97.5121 612.528 98.0217 613.05 98.544 613.164C104.302 614.322 110.15 614.843 115.921 615.937C121.832 617.057 127.119 619.435 132.648 621.686C137.833 623.798 143.362 624.942 148.739 626.431C154.089 627.919 158.612 631.404 163.886 633.133C164.6 633.375 165.02 632.307 164.396 631.938C159.504 629.076 154.739 625.998 149.414 624.014C146.191 622.818 142.636 622.246 139.324 621.279C135.145 620.071 131.323 618.163 127.285 616.586C120.367 613.889 113.156 612.643 105.895 611.257C102.391 610.595 97.8306 610.15 99.1173 604.77C99.7797 601.997 100.633 599.911 100.608 597.151C100.799 596.808 100.977 596.604 101.143 596.591C101.296 596.808 101.449 597.024 101.602 597.24C101.742 597.418 101.895 597.558 102.06 597.647C103.003 599.11 104.251 600.433 105.449 601.654C108.112 604.401 111.781 607.059 115.488 608.128C115.87 608.242 116.036 607.733 115.743 607.517C112.851 605.418 109.857 603.638 107.194 601.208C105.882 600.013 104.812 598.665 103.78 597.291C104.035 596.935 104.137 596.439 103.895 595.879C103.423 594.785 102.952 594.035 102.493 593.539C101.882 590.524 105.551 587.446 106.328 584.979C107.525 581.201 108.099 577.5 108.481 573.57C108.914 569.016 108.901 564.463 109.717 559.935C110.073 557.938 110.876 556.17 111.602 554.402C112.596 559.948 114.545 565.9 116.303 571.14C118.023 576.253 120.431 581.201 124.38 584.953C124.686 585.246 125.208 584.864 124.979 584.495C121.96 579.421 119.272 574.422 117.424 568.775C115.666 563.42 113.016 555.394 113.832 549.772C114.469 545.422 118.609 541.734 120.278 537.765C121.272 535.374 121.819 532.818 122.074 530.197C124.648 539.304 129.68 547.941 133.833 556.297C138.496 565.671 144.483 572.947 150.943 580.921C151.248 581.29 151.873 580.807 151.605 580.413C149.235 576.902 146.063 573.9 143.681 570.314C140.929 566.18 138.674 561.677 136.47 557.238C131.54 547.317 126.024 537.346 123.667 526.445C122.89 522.82 122.762 518.877 122.89 515.189C123.004 511.78 130.559 511.691 133.222 510.076C137.26 507.634 140.84 501.961 140.789 497C142.432 498.629 144.369 500.028 146.025 501.3C153.032 506.68 158.701 513.052 163.504 520.493C163.67 520.76 164.166 520.582 164.039 520.264C161.937 514.973 158.306 510.623 154.726 506.247C149.987 500.447 140.891 497.166 140.33 488.746C139.923 482.615 150.65 476.294 154.421 472.236C156.612 469.883 159.032 467.021 159.172 463.791C162.37 471.575 170.256 478.431 175.492 484.091C190.614 500.396 194.691 521.765 202.832 541.67C202.997 542.09 203.596 541.937 203.507 541.479C201.838 533.072 198.283 524.639 195.404 516.575C192.359 508.066 188.563 500.053 184.168 492.167C180.257 485.134 174.626 479.766 169.237 473.915C164.001 468.217 161.122 462.684 160.332 455.74C160.383 453.17 160.994 450.766 163.466 449.812C165.937 448.859 169.084 449.037 171.708 448.528C175.084 447.866 177.76 445.501 180.282 443.338C184.359 439.853 189.71 438.632 194.538 436.521C199.315 434.435 203.749 432.527 209.01 432.196C213.482 431.917 217.852 433.112 222.336 432.222C226.553 431.37 231.305 427.478 235.356 429.385C236.923 430.123 238.197 430.06 239.471 429.475C242.287 429.793 245.064 427.923 247.382 425.977C248.223 428.203 249.344 430.352 250.325 432.476C251.599 435.224 253.039 438.454 255.256 440.566C255.727 441.011 256.593 440.566 256.377 439.904C255.447 437.017 253.752 434.321 252.58 431.522C251.408 428.75 250.771 425.926 250.058 423.026C253.281 419.261 259.167 420.368 264.173 420.444C269.167 420.52 273.244 417.824 277.002 414.86C283.716 409.556 290.392 406.211 298.303 402.879C301.985 401.327 306.176 400.259 309.998 398.643C306.622 402.065 302.138 404.367 298.545 407.547C294.723 410.943 290.952 414.402 287.309 417.989C280.722 424.45 274.735 431.573 270.238 439.65C265.409 448.312 264.632 456.935 264.938 466.627C264.951 467.225 265.231 467.607 265.6 467.848C265.6 468.281 265.549 468.7 265.588 469.133C265.626 469.654 266.314 469.743 266.492 469.26C266.658 468.828 266.836 468.408 267.014 467.975C267.511 467.772 267.919 467.327 267.983 466.64C268.008 466.309 268.046 465.991 268.085 465.66C273.384 455.294 283.678 448.642 294.15 443.796C301.182 440.54 309.017 439.192 316.699 438.734C319.617 438.556 322.521 438.683 325.439 438.734C325.26 445.577 329.872 452.534 333.732 457.724C338.726 464.439 345.402 470.036 352.817 473.903C358.218 476.713 364.168 477.934 370.181 478.799C378.181 481.827 387.736 482.03 395.75 484.752C396.387 485.057 397.036 485.324 397.66 485.655C400.922 487.385 403.686 489.827 406.617 492.027C407.317 492.918 407.967 493.897 408.566 494.978C403.049 502.47 400.501 511.64 398.616 520.696C396.068 532.932 393.788 545.333 392.412 557.76C391.469 566.193 390.59 575.096 390.513 583.898C389.533 592.954 389.38 602.239 388.704 611.206C387.723 624.141 386.883 637.089 386.5 650.063C386.118 663.011 385.812 675.832 384.781 688.754C384.016 698.345 382.755 708.774 384.042 718.555C383.456 725.233 382.385 732.699 384.398 738.855C384.704 739.809 385.978 739.784 386.297 738.855C388.513 732.419 387.889 724.508 388.297 717.729C388.603 712.603 388.985 707.439 388.666 702.326C388.845 697.785 389.036 693.244 389.405 688.754C390.45 675.832 390.832 663.011 391.138 650.063C391.443 637.089 392.514 624.154 393.214 611.206C393.533 605.304 394.017 599.173 394.17 593.055C394.947 583.732 394.756 574.244 395.469 564.959C396.437 552.189 398.947 539.737 401.189 527.158C401.584 524.944 402.005 522.731 402.476 520.518C407.19 509.796 413.407 500.982 424.49 495.538C433.65 491.035 443.829 489.089 452.9 484.332C461.092 480.046 465.767 473.813 468.863 465.254C472.099 456.325 472.952 444.547 480.023 437.513C480.583 436.953 479.768 436.203 479.182 436.674L479.106 436.788Z" fill="#111111"/>
<path d="M437.116 501.757C437.077 501.325 436.491 501.325 436.453 501.757C435.6 511.64 436.211 521.548 436.326 531.444C436.453 542.026 435.306 552.431 434.924 562.975C434.899 563.662 435.943 563.789 436.109 563.14C438.657 553.715 438.364 543.451 438.339 533.759C438.313 523.1 438.096 512.378 437.116 501.757Z" fill="#111111"/>
<path d="M433.803 576.724C433.791 576.533 433.523 576.533 433.51 576.724C432.173 592.063 432.619 607.581 432.364 622.971C432.109 638.221 431.319 653.459 431.854 668.722C432.377 683.603 434.925 699.146 433.421 713.964C432.644 721.684 432.504 729.519 432.02 737.253C431.523 745.151 430.682 753.075 431.268 760.986C431.306 761.521 432.173 761.724 432.262 761.126C434.389 747.212 434.198 732.674 434.823 718.606C435.523 702.745 434.925 686.948 434.224 671.1C432.848 639.697 436.53 608.102 433.791 576.724H433.803Z" fill="#111111"/>
<path d="M406.425 597.1C403.113 599.211 402.043 603.51 402.539 607.58C402.438 612.566 405.686 617.4 410.782 619.028C419.012 621.648 424.248 611.384 423.292 604.681C422.146 596.744 413.012 592.89 406.425 597.113V597.1ZM411.47 614.334C408.616 613.431 406.973 610.175 406.145 607.034C406.145 604.986 406.489 603.002 407.279 601.615C408.565 599.364 412.094 599.084 414.298 599.695C416.744 600.356 418.158 602.887 418.757 605.138C419.865 609.298 416.324 615.861 411.47 614.334Z" fill="#111111"/>
<path d="M402.081 730.88C402.081 730.88 402.03 730.931 402.005 730.956C401.89 730.956 401.775 730.994 401.712 731.134C401.686 731.185 401.661 731.236 401.622 731.287C398.017 734.467 397.864 739.44 400.247 742.963C400.489 743.497 400.782 744.019 401.126 744.54C403.699 748.343 408.578 749.081 412.655 747.593C419.191 745.214 424.006 734.861 417.827 729.608C413.356 725.805 406.26 727.636 402.068 730.88H402.081ZM413.967 742.721C411.585 744.96 407.585 745.634 404.922 743.535C404.527 743.217 404.196 742.874 403.916 742.492C402.26 739.783 401.546 736.692 404.107 734.098C406.527 731.643 410.719 730.613 414.006 731.592C419.089 733.118 416.617 740.216 413.98 742.709L413.967 742.721Z" fill="#111111"/>
<path d="M672.227 592.216C656.735 597.965 642.326 611.04 632.479 624.001C627.281 630.844 624.185 638.921 619.611 646.094C619.204 644.25 618.248 642.596 616.885 640.561C614.414 636.886 617.165 625.578 618.172 621.61C619.828 615.059 626.797 609.145 631.51 604.63C636.874 599.479 642.836 594.925 647.575 589.163C647.868 588.794 647.422 588.362 647.066 588.655C641.218 593.259 635.587 598.207 629.918 603.04C626.809 605.685 623.421 608.344 620.49 611.345C622.809 605.571 626.873 600.636 627.714 594.098C628.338 589.252 628.058 584.495 629.192 579.675C630.173 575.503 631.994 571.636 632.759 567.388C633.753 561.919 634.644 558.396 638.377 554.109C641.04 551.044 644.161 548.386 646.887 545.371C653.142 538.465 657.143 529.625 664.952 524.143C665.143 524.016 665.029 523.66 664.787 523.749C656.595 526.712 652.123 534.064 646.874 540.576C641.957 546.681 635.269 550.993 631.396 557.734C632.135 550.637 633.485 543.743 635.472 536.849C637.702 529.116 639.587 522.21 639.906 514.108C640.224 505.853 639.906 497.547 640.033 489.28C640.033 489.013 639.676 488.987 639.587 489.216C637.154 495.856 637.039 502.571 636.759 509.58C636.39 518.852 634.606 527.043 631.892 535.857C629.994 542.026 628.708 548.309 627.943 554.72C627.485 558.65 627.918 562.568 628.3 566.472C627.676 569.36 627.153 572.298 626.198 575.058C624.427 580.107 623.815 585.182 623.65 590.512C623.446 596.897 621.115 601.03 617.93 606.309C615.904 609.667 615.445 612.999 616.146 616.738C615.777 617.324 615.42 617.896 615.102 618.506C612.681 623.238 612.222 630.233 611.878 635.41C611.483 641.35 615.114 644.81 616.732 650.177C616.63 650.304 616.554 650.444 616.452 650.559C613.318 654.451 610.757 659.169 610.49 664.181C609.19 666.458 610.337 670.604 611.764 672.321C612.057 672.677 612.668 672.804 613.101 672.677C613.203 672.652 613.305 672.601 613.407 672.55C613.407 672.55 613.42 672.55 613.433 672.537C613.815 672.283 614.159 671.838 614.121 671.354C614.07 670.782 613.955 670.222 613.84 669.663C614.006 669.485 614.146 669.281 614.21 669.014C615 665.987 614.809 662.833 615.624 659.793C616.669 655.837 620.006 652.823 622.287 649.541C627.077 642.673 629.676 634.469 634.364 627.473C639.243 620.198 645.499 613.788 652.06 608.013C658.302 602.518 664.646 596.261 672.469 593.094C672.991 592.877 672.774 592.025 672.227 592.229V592.216Z" fill="#111111"/>
<path d="M788.783 752.63C788.312 751.968 787.777 751.371 787.203 750.798C787.267 750.658 787.344 750.531 787.356 750.378C787.586 742.925 784.821 734.48 781.139 728.031C778.63 723.656 776.349 719.929 775.241 714.905C774.986 713.773 774.769 712.666 774.527 711.585C773.1 703.19 773.585 694.605 769.266 687.024C766.603 682.357 765.1 678.579 764.73 673.084C764.412 668.454 763.571 664.384 762.068 659.971C759.023 651.055 755.278 641.197 748.589 634.85C747.29 629.419 748.857 623.632 749.43 618.137C749.749 615.047 750.36 612.287 751.277 609.361C751.532 608.56 751.621 607.135 751.099 606.423C749.965 604.859 748.538 603.854 746.92 603.269C746.385 599.351 748.029 594.518 747.901 590.766C747.71 585.258 747.901 581.634 752.335 577.831C754.106 576.317 755.214 574.752 755.596 572.476C755.787 571.344 755.137 570.479 753.991 570.377C750.054 569.996 746.118 569.792 742.168 569.614C736.983 566.371 733.085 563.216 730.754 557.2C728.511 551.426 728.499 545.142 726.983 539.202C725.479 533.301 721.466 528.569 719.581 522.884C718.128 518.508 717.453 513.993 715.3 509.872C714.014 507.405 712.357 506.362 710.548 506.209C709.223 503.373 707.121 501.058 705.58 498.349C703.975 495.538 703.401 492.205 702.611 489.102C702.051 486.901 700.497 483.086 698.025 482.882C698.267 482.208 698.407 481.496 698.407 480.758C698.407 476.052 694.585 474.106 690.98 471.88C689.935 471.231 689.107 470.468 688.394 469.641C687.222 466.36 684.725 462.951 683.209 460.7C679.387 455.04 673.705 452.153 668.469 448.057C663.641 444.279 661.526 438.314 656.481 434.727C651.041 430.861 643.41 430.759 637.244 428.724C631.243 426.727 626.874 421.792 620.618 420.304C614.427 418.829 606.261 422.619 600.413 424.298C597.725 425.074 595.215 426.053 592.769 427.147C579.405 419.299 564.462 414.924 550.575 407.992C545.085 405.257 539.759 402.751 533.886 400.92C529.122 399.432 522.089 397.206 517.134 399.025C516.076 394.815 514.7 390.681 512.993 386.662C510.662 381.154 506.343 371.806 500.241 369.605C499.54 369.351 498.75 370.152 499.005 370.839C500.024 373.663 502.33 375.85 504.075 378.28C506.636 381.854 508.649 385.848 510.356 389.88C513.605 397.575 515.095 405.931 515.681 414.224C516.356 423.624 515.044 432.845 513.299 442.066C512.738 445.017 512.076 448.044 511.439 451.11C509.744 437.233 504.305 423.064 493.909 416.17C492.903 415.496 491.603 416.819 492.253 417.824C497.884 426.524 502.941 433.888 505.579 444.14C507.948 453.386 507.935 463.028 509.732 472.376C509.859 473.038 510.955 473.05 511.069 472.376C511.222 471.524 511.35 470.634 511.464 469.743C513.961 459.428 515.605 448.68 517.554 438.263C519.299 428.978 519.962 419.719 519.095 410.307C518.828 407.369 518.318 404.469 517.694 401.607C522.599 402.993 527.86 403.324 532.816 404.799C539.823 406.885 546.078 410.37 552.626 413.499C559.646 416.857 566.971 419.592 574.195 422.453C578.96 424.336 584.157 427.325 589.342 428.8C587.062 429.983 584.807 431.281 582.565 432.731C575.087 437.602 566.513 440.858 558.117 443.847C557.952 443.911 558.015 444.152 558.194 444.114C564.64 442.651 571.163 441.812 577.303 439.179C583.686 436.457 589.215 432.247 595.75 429.818C602.082 427.465 608.771 426.028 615.281 424.285C622.326 422.39 628.275 428.775 634.123 431.586C639.117 433.977 644.862 434.397 650.136 435.948C657.041 437.996 659.908 444.559 664.43 449.507C668.66 454.15 674.826 456.782 679.272 461.336C681.476 463.587 683.043 467.11 685.043 469.972C685.171 470.303 685.298 470.646 685.438 470.964C686.98 474.386 691.324 475.658 693.974 477.998C698.879 482.322 686.254 490.946 683.718 493.693C679.311 498.501 675.552 503.907 671.246 508.816C671.119 508.969 671.284 509.236 671.476 509.109C677.845 504.81 681.795 497.954 687.489 492.905C689.999 490.692 694.585 488.199 696.93 484.892C700.153 486.927 700.369 494.609 701.567 497.725C702.879 501.147 705.147 504.25 708.077 506.476C704.803 507.354 701.363 510.101 698.841 511.984C689.706 518.801 680.534 527.234 673.794 536.366C673.705 536.481 673.896 536.62 673.998 536.519C682.253 528.531 690.993 521.154 700.229 514.324C703.592 511.831 709.567 506.133 712.841 511.309C715.3 515.189 715.657 520.442 717.058 524.754C718.6 529.485 721.861 533.466 723.39 538.261C725.123 543.667 724.842 549.683 726.206 555.229C727.556 560.736 730.575 566.294 735.263 569.271C732.486 569.131 729.696 568.991 726.919 568.762C723.466 568.495 719.938 568.991 716.549 569.627C712.179 570.453 708.523 573.277 704.229 574.371C704.077 574.409 704.102 574.663 704.268 574.663C707.542 574.46 710.294 573.379 713.351 572.196C717.937 570.403 723.874 570.593 728.664 571.318C736.283 572.476 743.99 572.756 751.659 573.468C750.207 575.91 747.213 577.563 745.646 579.891C743.43 583.198 744.372 588.019 744.487 591.656C744.563 593.831 743.162 598.932 743.455 602.607C737.251 602.378 729.798 606.181 725.772 609.031C725.619 609.132 725.709 609.387 725.9 609.336C731.021 607.822 736.181 606.36 741.557 606.271C743.353 606.245 748.22 606.487 747.29 609.272C746.589 611.371 746.22 613.457 745.901 615.657C745.328 619.689 743.366 626.799 744.665 631.76C741.646 629.877 738.143 628.618 733.989 628.262C733.709 628.237 733.607 628.669 733.849 628.783C740.805 632.345 747.06 636.949 751.112 643.728C753.469 647.671 754.908 652.53 756.653 656.778C758.501 661.294 760.259 666.012 760.616 670.922C761.138 678.019 762.144 682.853 765.839 689.009C769.1 694.44 769.049 700.723 770.387 706.675C771.049 713.836 771.89 720.832 775.75 727.077C778.107 730.88 780.146 734.581 781.33 738.919C782.146 741.92 782.362 744.96 783.42 747.707C780.974 746.054 778.337 744.604 776.133 742.887C771.075 738.957 767.966 733.424 762.183 730.27C762.106 730.231 762.03 730.32 762.093 730.397C765.762 734.887 769.291 739.516 773.049 743.93C776.018 747.415 780.642 749.501 784.069 752.503C792.108 759.524 783.203 767.867 781.916 776.135C772.693 764.993 763.673 750.875 747.761 750.671C747.43 750.671 747.366 751.154 747.685 751.243C763.584 755.53 772.629 767.778 781.789 780.561C782.222 785.585 780.502 790.724 781.674 795.57C782.197 797.732 782.872 799.83 783.343 802.005C783.84 804.295 783.598 806.597 783.471 808.912C781.955 806.406 780.63 803.964 779.56 800.95C778.196 797.134 776.706 793.534 774.438 790.138C769.113 782.138 762.208 775.626 755.481 768.847C755.201 768.567 754.806 768.987 755.048 769.279C761.482 776.872 767.864 784.695 772.693 793.42C774.731 797.109 775.598 801.586 776.999 805.541C778.349 809.319 780.668 812.333 782.745 815.691C786.77 822.203 786.12 833.587 783.967 840.532C782.999 843.648 781.305 847.044 780.884 850.287C777.317 845.454 773.495 840.812 769.648 836.22C764.043 829.517 757.278 823.704 751.965 816.772C751.838 816.607 751.57 816.747 751.672 816.938C754.781 822.509 758.424 827.049 762.641 831.819C768.323 838.255 772.706 845.492 777.483 852.577C781.509 858.555 785.738 863.757 785.815 871.299C785.866 877.71 782.655 883.535 781.127 889.64C779.407 895.046 777.623 900.426 774.884 905.527C769.533 915.511 761.495 923.092 755.379 932.415C755.035 932.936 755.698 933.509 756.195 933.229C765.648 928.078 772.973 916.554 778.298 907.523C781.572 901.953 783.725 896.254 785.114 890.327C787.777 885.049 789.497 878.562 789.904 873.207C790.414 866.568 788.414 861.302 784.783 855.82C784.745 855.757 784.694 855.693 784.655 855.629C783.802 851.165 785.942 847.324 787.496 843.228C788.834 839.705 789.458 836.22 789.637 832.481C789.968 825.638 789.305 818.782 785.853 812.829C787.28 806.979 787.063 801.98 785.343 796.193C783.891 791.321 785.904 786.463 784.706 781.846C785.101 781.617 785.356 781.21 785.28 780.599C784.069 770.678 795.739 762.347 788.796 752.566L788.783 752.63Z" fill="#111111"/>
<path d="M196.653 440.566C195.99 439.65 195.086 439.167 194.36 438.34C194.207 438.162 193.99 438.391 194.067 438.569C194.372 439.294 194.385 440.095 194.716 440.807C195.264 442.003 195.939 443.097 196.589 444.241C197.608 446.035 198.322 448.121 199.672 449.698C200.003 450.092 200.615 449.762 200.628 449.304C200.679 447.37 199.647 445.552 198.729 443.911C198.092 442.766 197.417 441.647 196.653 440.578V440.566Z" fill="#111111"/>
<path d="M407.7 735.484C407.369 735.192 406.821 735.472 406.949 735.917C407.229 736.934 407.586 737.952 407.955 738.944C408.261 739.758 408.465 740.534 409.344 740.801C409.586 740.877 409.802 740.712 409.891 740.496C410.223 739.631 409.649 738.702 409.267 737.926C408.859 737.049 408.426 736.146 407.687 735.484H407.7Z" fill="#111111"/>
<path d="M411.508 735.001C411.101 734.518 410.362 735.141 410.655 735.662C411.152 736.553 411.738 737.354 412.362 738.155C412.821 738.753 413.165 739.376 413.929 739.58C414.235 739.669 414.49 739.427 414.515 739.135C414.579 738.333 414.056 737.825 413.547 737.24C412.884 736.477 412.171 735.777 411.508 735.001Z" fill="#111111"/>
<path d="M407.344 604.07C407.191 604.108 407.216 604.299 407.344 604.337C408.197 604.655 408.77 605.635 409.076 606.449C409.318 607.097 409.344 607.708 410.006 608.039C410.299 608.191 410.63 608.102 410.809 607.822C411.42 606.894 410.567 605.558 409.93 604.833C409.216 604.007 408.376 603.829 407.344 604.058V604.07Z" fill="#111111"/>
<path d="M412.261 602.022C411.688 601.692 411 602.506 411.535 602.963C412.758 604.032 413.306 605.622 414.503 606.665C414.822 606.945 415.459 606.792 415.408 606.283C415.255 604.503 413.764 602.874 412.261 602.022Z" fill="#111111"/>
<path d="M584.795 596.668C584.732 596.477 584.451 596.553 584.502 596.744C587.751 607.861 588.35 619.588 591.28 630.806C592.758 636.504 594.299 642.177 595.407 647.951C596.656 654.489 596.745 660.887 596.414 667.501C596.401 667.882 596.987 667.946 597.064 667.59C599.815 656.13 596.134 643.792 593.165 632.739C589.968 620.809 588.655 608.407 584.795 596.668Z" fill="#111111"/>
<path d="M558.283 697.441C552.78 706.141 548.41 715.388 544.091 724.724C539.722 734.161 534.881 743.103 529.364 751.917C529.211 752.159 529.581 752.464 529.772 752.235C536.053 744.54 540.244 735.077 544.359 726.123C548.78 716.482 552.844 706.586 558.462 697.556C558.538 697.441 558.36 697.34 558.283 697.454V697.441Z" fill="#111111"/>
<path d="M533.543 734.009C531.836 737.392 529.988 740.546 527.759 743.612C527.632 743.777 527.912 743.98 528.052 743.84C530.664 741.119 532.307 737.595 533.963 734.25C534.103 733.97 533.683 733.729 533.543 734.009Z" fill="#111111"/>
<path d="M474.379 677.765C471.691 680.385 469.143 683.145 466.481 685.791C467.271 682.929 468.939 680.436 469.755 677.574C469.831 677.307 469.462 677.167 469.322 677.396C467.564 680.245 465.907 683.654 465.385 686.986C465.321 687.368 465.767 687.711 466.073 687.38C468.99 684.315 471.755 681.123 474.698 678.083C474.889 677.879 474.583 677.574 474.379 677.765Z" fill="#111111"/>
<path d="M483.5 531.545C472.901 544.977 461.142 559.655 457.206 576.66C457.142 576.953 457.575 577.067 457.651 576.787C462.008 559.566 473.984 546.096 483.959 531.901C484.15 531.634 483.704 531.291 483.513 531.558L483.5 531.545Z" fill="#111111"/>
<path d="M622.478 433.761C614.185 440.273 606.069 446.62 599.445 454.925C593.916 461.857 587.979 472.198 590.132 481.445C590.208 481.788 590.782 481.801 590.845 481.445C591.661 476.789 592.056 472.325 593.788 467.861C595.648 463.066 598.604 458.728 601.827 454.76C607.968 447.192 615.573 440.591 622.733 434.002C622.899 433.85 622.657 433.633 622.491 433.761H622.478Z" fill="#111111"/>
<path d="M594.108 500.587C599.522 508.88 604.631 516.956 608.555 526.089C608.708 526.445 609.281 526.191 609.166 525.822C606.402 516.359 600.223 508.193 594.376 500.434C594.261 500.282 593.993 500.422 594.108 500.587Z" fill="#111111"/>
<path d="M332.356 636.224C332.305 636.16 332.178 636.249 332.229 636.313C346.93 656.028 356.434 678.375 365.874 700.875C365.976 701.117 366.358 701.028 366.282 700.761C362.664 689.339 357.53 678.248 352.128 667.577C346.523 656.524 340.051 645.941 332.356 636.211V636.224Z" fill="#111111"/>
<path d="M365.785 690.585C368.321 695.508 369.837 700.697 371.658 705.887C371.773 706.217 372.244 706.09 372.181 705.734C371.263 700.316 369.008 695.024 366.371 690.229C366.155 689.848 365.581 690.191 365.785 690.573V690.585Z" fill="#111111"/>
<path d="M221.571 520.2C224.399 525.949 227.113 531.749 229.686 537.613C232.425 543.832 234.642 550.255 237.343 556.475C237.483 556.806 238.005 556.564 237.916 556.233C234.336 543.641 228.17 531.444 221.953 519.971C221.813 519.717 221.444 519.946 221.571 520.187V520.2Z" fill="#111111"/>
<path d="M337.579 492.854C337.426 492.523 336.84 492.765 336.98 493.109C338.28 496.25 339.452 499.392 341.274 502.292C341.427 502.546 341.783 502.317 341.656 502.063C340.165 499.048 338.917 495.919 337.566 492.841L337.579 492.854Z" fill="#111111"/>
<path d="M224.833 958.782C231.508 960.639 267.995 953.974 305.335 952.13C342.663 950.285 396.781 929.477 403.571 928.803C410.362 928.129 496.482 903.186 496.482 903.186L528.077 916.096C528.077 916.096 585.215 934.628 586.884 934.628C588.552 934.628 677.756 943.023 688.865 940.822C699.974 938.622 733.76 948.161 736.576 948.479C739.391 948.797 756.602 943.481 768.17 911.785C779.751 880.088 770.361 871.338 769.89 869.303C769.419 867.268 740.792 823.386 727.658 800.746C714.523 778.106 691.999 765.069 691.999 765.069C691.999 765.069 746.589 736.566 752.067 732.966C757.545 729.379 761.762 722.04 757.227 717.665C752.691 713.29 751.647 713.239 733.798 716.418C715.95 719.598 684.547 737.812 684.547 737.812C670.686 742.34 667.017 739.962 668.851 740.102C670.686 740.241 703.427 713.76 706.102 713.455C708.777 713.15 744.907 702.542 753.634 696.615C762.361 690.688 763.8 683.781 757.227 677.536C750.653 671.291 723.594 679.406 719.683 680.347C715.772 681.288 697.783 683.158 697.821 682.535C697.859 681.911 730.32 672.067 734.55 672.665C738.78 673.25 749.162 667.094 750.347 661.942C751.532 656.791 745.34 652.187 745.34 652.187C729.378 642.482 689.528 652.797 685.897 652.187C682.266 651.576 665.564 660.683 665.564 660.683C665.564 660.683 668.851 655.837 670.418 653.649C671.985 651.462 702.484 638.348 706.077 635.067C709.669 631.785 713.746 621.012 699.643 619.295C685.553 617.578 656.022 630.691 647.257 635.385C638.492 640.065 619.421 663.927 619.421 663.927C598.146 684.086 589.801 707.477 589.177 707.897C588.552 708.316 566.653 757.87 566.232 758.493C566.232 758.493 534.536 760.16 511.171 762.042C487.807 763.924 400.221 743.307 372.27 735.395C344.319 727.484 284.671 726.645 280.709 726.657C276.747 726.657 225.304 734.391 225.304 734.391C225.304 734.391 214.59 764.344 214.59 764.967C214.59 765.591 209.583 776.631 209.749 779.582C209.915 782.533 218.756 781.617 219.38 781.617C220.004 781.617 234.439 786.361 234.439 786.361L200.818 794.743C162.026 814.318 166.829 835.966 137.413 855.54C108.009 875.115 92.7726 895.568 89.8679 897.603C86.9632 899.638 81.7399 908.427 95.4989 940.708C101.397 954.534 106.086 962.509 111.029 964.442C119.258 967.647 132.113 964.442 132.113 964.442C141.655 962.623 153.911 960.181 156.382 959.138C160.548 957.37 218.119 956.95 224.795 958.807L224.833 958.782Z" fill="#F8F9F5"/>
<path d="M614.913 706.332C612.25 708.673 609.664 711.802 608.963 715.376C608.9 715.681 609.333 715.897 609.486 715.592C611.167 712.425 612.925 709.423 615.244 706.65C615.435 706.421 615.142 706.116 614.913 706.32V706.332Z" fill="#D1D1D1"/>
<path d="M608.645 713.264C608.084 714.345 607.791 715.693 607.791 716.901C607.791 717.118 608.097 717.156 608.16 716.952C608.555 715.833 608.746 714.574 609.014 713.416C609.065 713.2 608.747 713.048 608.632 713.264H608.645Z" fill="#D1D1D1"/>
<path d="M631.602 736.324C630.022 737.787 628.417 739.237 627.359 741.132C627.206 741.399 627.563 741.679 627.78 741.463C629.283 739.974 630.493 738.206 631.92 736.642C632.111 736.426 631.818 736.133 631.602 736.324Z" fill="#D1D1D1"/>
<path d="M630.85 740.152C630.404 740.598 629.971 741.005 629.614 741.526C629.436 741.781 629.793 742.137 630.048 741.959C630.57 741.603 630.978 741.17 631.424 740.725C631.78 740.356 631.232 739.796 630.863 740.152H630.85Z" fill="#D1D1D1"/>
<path d="M703.531 735.078C703.798 736.528 704.499 737.901 704.945 739.301C705.684 741.603 705.352 743.053 703.505 744.604C703.263 744.808 703.531 745.151 703.785 745.1C708.754 744.058 705.161 737.507 703.875 734.938C703.773 734.734 703.492 734.887 703.531 735.091V735.078Z" fill="#D1D1D1"/>
<path d="M699.554 735.396C699.554 735.396 699.465 735.472 699.529 735.485C700.663 735.93 701.121 736.82 701.937 737.634C702.039 737.736 702.255 737.634 702.204 737.481C701.784 736.362 700.726 735.574 699.567 735.396H699.554Z" fill="#D1D1D1"/>
<path d="M693.324 689.683C693.133 689.619 693.057 689.887 693.197 689.988C694.242 690.777 695.273 691.54 696.038 692.621C696.84 693.779 696.649 694.898 696.853 696.195C696.917 696.589 697.427 696.539 697.605 696.297C698.497 695.089 697.949 693.461 697.21 692.316C696.356 691.019 694.777 690.128 693.337 689.683H693.324Z" fill="#D1D1D1"/>
<path d="M699.033 695.635C699.823 697.06 699.963 698.777 699.53 700.328C699.365 700.901 700.193 701.092 700.397 700.57C701.136 698.662 700.893 696.907 699.645 695.279C699.377 694.936 698.804 695.228 699.033 695.635Z" fill="#D1D1D1"/>
<path d="M677.745 659.831C677.656 659.78 677.554 659.907 677.63 659.984C678.28 660.518 678.981 660.963 679.631 661.472C680.459 662.12 680.815 663.036 681.554 663.71C681.745 663.876 682.013 663.761 682.038 663.507C682.204 661.37 679.172 660.607 677.732 659.831H677.745Z" fill="#D1D1D1"/>
<path d="M681.515 659.679C681.209 659.399 680.764 659.831 681.057 660.137C682.088 661.192 683.184 662.184 684.191 663.278C685.859 665.11 686.203 666.84 685.222 669.116C685.082 669.434 685.503 669.867 685.757 669.536C688.904 665.529 684.216 662.21 681.515 659.691V659.679Z" fill="#D1D1D1"/>
<path d="M684.243 672.563C683.007 673.135 681.924 673.911 680.599 674.305C680.229 674.42 680.382 674.941 680.752 674.878C682.166 674.611 683.631 674.165 684.688 673.135C684.994 672.83 684.599 672.398 684.243 672.563Z" fill="#D1D1D1"/>
<path d="M652.494 639.035C651.106 637.979 649.411 637.293 647.704 636.949C647.488 636.911 647.411 637.204 647.615 637.267C648.774 637.649 649.857 638.247 650.889 638.895C651.526 639.29 652.15 639.773 652.596 640.371C652.979 640.879 652.915 641.363 652.953 641.948C652.979 642.24 653.284 642.368 653.514 642.177C654.647 641.223 653.31 639.646 652.482 639.022L652.494 639.035Z" fill="#D1D1D1"/>
<path d="M655.169 640.523C655.64 643.016 654.978 644.848 654.201 647.176C654.086 647.506 654.57 647.799 654.812 647.532C656.634 645.471 656.762 642.838 656.125 640.269C655.972 639.646 655.067 639.913 655.182 640.523H655.169Z" fill="#D1D1D1"/>
<path d="M643.156 648.193C643.181 647.748 642.532 647.773 642.481 648.193C642.175 650.673 643.882 653.421 646.57 653.497C646.863 653.497 647.016 653.052 646.723 652.912C644.621 651.958 643.003 650.737 643.143 648.18L643.156 648.193Z" fill="#D1D1D1"/>
<path d="M209.342 779.951C209.533 780.396 210.056 782.596 216.094 783.156C219.649 783.486 222.35 783.664 225.484 784.097C226.477 784.669 227.484 785.229 228.49 785.776C222.388 786.03 216.4 788.091 210.527 789.859C202.119 792.403 194.207 795.659 186.704 800.276C170.868 810.006 161.097 826.121 149.899 840.405C143.975 847.96 137.643 855.006 129.362 860.005C121.374 864.838 113.973 869.214 107.322 875.891C103.985 879.249 100.188 882.518 96.6975 885.99C94.226 888.076 92.2513 890.365 90.7098 892.807C88.1491 896.331 86.9516 899.93 86.5949 903.746C84.7094 914.723 87.9962 927.035 92.2768 937.719C95.4617 945.681 100.519 957.472 108.151 964.137C108.176 964.162 108.265 964.238 108.291 964.264C115.501 969.911 123.183 970.814 146.459 964.264C148.637 963.679 150.739 963.132 152.714 962.725C177.875 957.51 204.501 959.952 230.032 960.003C254.976 960.054 279.538 957.612 304.368 955.526C322.535 953.999 341.504 952.257 358.474 945.007C372.143 941.433 385.66 937.223 399.241 933.369C431.957 924.071 465.488 917.483 497.554 905.997C497.796 905.908 497.987 905.768 498.165 905.628C498.7 905.806 499.235 905.985 499.783 906.137C500.165 906.328 500.535 906.531 500.93 906.71C509.58 910.716 518.51 914.074 527.53 917.152C545.57 923.321 562.514 931.372 581.356 935.175C600.21 938.978 620.186 938.889 639.347 940.263C655.718 941.433 672.929 943.621 689.567 942.679C696.103 942.934 702.689 942.946 709.123 943.849C719.633 945.312 729.302 951.227 740.106 948.912C755.661 945.592 764.986 925.992 770.184 912.929C776.834 896.216 779.178 880.419 770.044 864.215C765.254 855.719 758.948 848.011 753.431 839.985C753.329 839.832 753.228 839.68 753.126 839.527C752.578 838.624 752.017 837.734 751.495 836.805C746.794 828.398 741.711 820.194 736.819 811.888C732.029 803.761 726.716 796.231 721.162 788.625C717.926 784.199 714.715 779.671 710.575 776.122C706.027 771.505 700.88 767.842 695.364 764.866C695.86 764.56 696.345 764.242 696.841 763.912C699.682 762.004 702.587 760.376 705.606 758.76C713.785 754.372 721.913 749.959 730.296 745.965C740.985 740.877 759.062 736.019 760.655 721.913C760.68 721.659 760.553 721.519 760.387 721.417C760.336 720.819 760.209 720.196 759.916 719.496C758.54 716.253 755.992 713.798 752.973 713.455C749.087 711.979 743.099 712.895 739.813 713.455C729.99 715.083 720.601 719.611 711.39 723.185C702.281 726.721 693.898 731.669 685.529 736.604C682.789 737.354 680.012 737.99 677.299 738.791C675.693 739.262 673.974 739.516 672.279 739.809C685.974 731.452 697.224 718.682 712.295 712.615C722.334 708.571 733.188 706.841 743.354 703.127C750.527 700.507 759.33 696.398 762.808 689.161C762.897 688.983 762.923 688.818 762.923 688.652C763.763 686.325 762.617 682.878 761.636 680.741C761.075 679.52 760.477 678.643 759.585 678.032C754.756 672.283 746.921 672.97 739.481 674.954C730.487 675.768 721.582 678.337 712.702 679.889C708.868 680.563 705.135 681.174 701.453 681.962C710.486 679.1 720.117 677.434 728.907 675.094C734.653 673.568 747.788 672.003 750.527 665.097C750.603 665.008 750.705 664.957 750.781 664.868C752.068 663.036 751.699 660.772 751.189 658.724C750.45 655.748 749.406 653.128 747.304 651.831C745.202 649.401 742.055 648.129 738.144 647.481C733.252 646.667 727.875 646.247 722.601 646.501C715.48 646.73 708.384 648.117 701.237 649.007C691.3 650.241 681.77 650.393 672.508 654.731C672.292 654.832 672.101 654.96 671.884 655.061C676.254 651.894 680.891 649.02 686 646.59C694.663 642.482 707.836 640.561 710.639 629.75C710.677 629.597 710.677 629.445 710.664 629.318C711.798 627.028 710.613 623.734 708.83 622.017C708.524 621.724 708.193 621.457 707.849 621.216C707.428 620.809 706.919 620.491 706.396 620.287C706.333 620.211 706.307 620.122 706.205 620.058C699.02 616.013 688.089 619.231 680.471 620.567C669.922 622.424 658.75 627.257 649.335 632.307C641.181 636.669 634.875 643.754 629.168 650.851C628.187 652.072 627.219 653.319 626.25 654.552C623.142 657.821 620.416 661.573 617.256 664.779C613.281 668.798 609.23 672.703 605.523 676.989C598.898 684.633 593.242 693.015 589.484 702.44C585.241 713.099 580.145 723.299 575.674 733.869C572.412 741.577 568.094 749.17 565.469 757.145C545.952 757.768 526.46 759.676 506.892 759.549C494.381 759.473 482.215 757.959 469.947 755.555C460.723 753.749 450.964 751.065 441.384 750.836C436.123 749.564 430.619 748.801 425.51 747.618C415.369 745.265 405.305 742.582 395.292 739.796C385.342 737.036 375.456 734.2 365.379 731.91C358.028 730.244 349.925 728.044 342.141 727.853C340.052 727.382 337.886 727.179 335.695 726.988C329.338 726.441 322.879 726.25 316.509 725.869C303.234 725.08 289.921 725.118 276.659 726.021C263.652 726.899 250.823 729.303 237.841 730.473C234.147 730.804 228.465 731.707 225.331 734.403L224.337 737.176C231.216 733.131 241.23 733.767 248.479 732.852C259.41 731.478 270.289 729.977 281.309 729.341C292.24 728.705 303.234 728.731 314.165 729.201C322.968 729.583 332.472 729.456 341.352 730.829C348.027 732.915 355.302 733.742 362.041 735.192C372.118 737.341 382.017 740.114 391.916 742.912C401.942 745.749 412.006 748.382 422.16 750.722C430.3 752.604 439.053 755.161 447.525 755.352C454.633 756.878 461.87 758.035 468.876 759.447C480.712 761.826 492.407 763.301 504.484 763.543C517.262 763.797 530.065 763.149 542.805 762.182C549.15 761.699 555.494 761.164 561.838 760.643C561.889 760.643 561.94 760.643 561.978 760.643C562.093 760.732 562.233 760.796 562.399 760.783C563.571 760.643 564.743 760.528 565.915 760.401C567.839 760.287 569.788 760.134 571.673 759.816C589.28 758.214 607.115 757.997 624.747 757.59C638.812 757.26 652.736 757.018 666.661 759.511C681.668 762.195 694.994 768.554 707.084 777.356C709.428 780.09 711.862 782.774 714.218 785.496C714.511 785.839 714.792 786.208 715.097 786.552C716.741 788.93 718.372 791.334 720.079 793.7C725.277 800.924 729.99 808.225 734.385 815.971C737.048 820.652 739.8 825.282 742.615 829.886C748.374 839.781 755.024 849.155 761.483 858.797C765.942 865.436 769.815 872.393 771.496 880.279C773.42 889.322 770.388 898.506 767.509 907.002C762.63 921.375 752.782 943.57 735.239 945.147C729.952 945.617 724.283 942.985 719.327 941.471C714.69 940.059 709.849 939.423 705.046 938.864C698.714 938.126 692.051 937.553 685.516 937.808C670.992 936.625 656.24 936.65 641.818 935.671C621.499 934.297 600.44 934.323 580.438 930.393C562.564 926.869 545.621 919.619 528.677 913.158C519.339 909.609 509.873 906.646 500.688 902.665C496.56 900.884 492.432 898.455 488.139 896.7C485.667 895.224 483.209 893.736 480.712 892.286C470.634 886.423 460.303 880.966 449.958 875.586C439.575 870.18 429.052 865.131 418.529 860.018C413.841 857.753 409.305 855.197 404.604 852.958C403.547 852.45 402.477 851.979 401.407 851.508C390.96 845.429 380.386 839.731 370.487 832.582C356.69 822.623 342.524 813.173 326.828 806.432C311.209 799.729 296.087 797.961 279.309 797.134C269.55 796.651 260.645 794.908 251.549 791.423C243.37 788.282 235.14 784.517 226.668 782.151C223.101 781.159 215.712 782.062 210.145 777.279L209.342 780.001V779.951ZM116.814 964.264C113.527 963.106 110.724 960.982 107.908 957.853C102.609 951.952 99.4365 943.786 96.4299 936.587C92.952 928.256 90.455 919.658 89.6397 910.652C89.5887 910.156 89.576 909.673 89.5632 909.19C89.6906 908.007 89.7161 906.786 89.7288 905.488C90.1365 902.245 91.1939 899.345 92.608 896.56C93.6654 895.021 94.9139 893.596 96.2516 892.222C101.691 886.626 107.628 881.309 113.272 875.904C119.629 869.811 127.553 866.288 134.904 861.633C141.529 857.436 146.714 851.127 151.631 845.136C162.613 831.743 171.442 816.518 185.672 806.177C199.189 796.346 217.381 790.38 233.943 788.892C234.07 788.892 234.185 788.828 234.299 788.79C245.6 794.45 257.702 798.953 270.136 800.441C278.952 801.497 287.832 801.128 296.648 802.044C305.871 802.998 314.942 805.63 323.567 808.912C351.938 819.698 373.863 842.452 401.075 855.133C405.483 857.677 410.07 859.954 414.49 862.282C425.51 868.069 436.81 873.36 447.856 879.122C458.787 884.833 469.666 890.658 480.368 896.776C484.304 899.027 488.254 901.367 492.368 903.288C462.85 912.802 432.504 919.301 402.668 927.696C376.36 935.099 350.104 944.142 323.248 949.611C316.993 950.209 310.687 950.527 304.432 950.972C281.22 952.626 258.263 955.144 234.962 955.309C211.788 955.475 188.169 953.681 165.084 956.2C155.479 957.243 146.064 959.596 136.713 961.987C133.286 962.865 129.948 963.679 126.725 964.251C124.037 964.734 119.629 965.23 116.839 964.251L116.814 964.264ZM749.66 716.113C753.38 713.607 756.234 716.978 757.967 720.031C760.043 723.694 755.482 724.838 752.603 724.749C751.431 724.724 750.603 724.088 749.928 723.21C748.501 720.794 746.819 718.034 749.66 716.113ZM756.362 679.189C758.094 679.24 758.808 679.787 759.559 681.275C760.209 682.56 760.604 683.997 760.91 685.396C761.266 687.063 761.381 688.385 759.572 688.92C758.107 689.352 756.476 689.339 754.973 689.263C753.686 689.187 752.896 688.665 752.17 687.966C751.673 686.948 750.973 685.969 750.616 684.926C750.259 683.908 750.145 682.827 749.902 681.784C750.043 680.856 750.527 680.105 751.597 679.736C753.113 679.215 754.795 679.139 756.374 679.202L756.362 679.189ZM745.94 653.331C746.628 653.878 747.253 654.502 747.826 655.176C748.157 655.952 748.348 656.829 748.59 657.541C749.533 660.429 750.501 664.295 746.272 664.295C743.367 664.295 741.494 662.909 739.889 660.937C739.558 659.933 739.227 658.928 739.112 657.847C739.112 657.77 739.112 657.694 739.112 657.63C739.125 655.888 739.201 654.222 741.239 653.446C742.641 652.912 744.501 652.823 745.953 653.344L745.94 653.331ZM700.37 621.953C702.523 621.266 705.033 621.953 706.842 623.174C708.779 624.472 709.963 627.893 707.568 629.254C705.632 630.348 703.16 630.259 701.007 629.687C700.893 629.61 700.778 629.521 700.651 629.445C699.912 629 699.364 628.224 698.905 627.524C698.74 627.257 698.612 626.977 698.485 626.698C698.013 624.675 697.873 622.755 700.358 621.953H700.37ZM578.043 737.011C582.056 727.726 586.757 718.746 590.643 709.423C593.063 703.61 595.038 697.912 598.249 692.443C601.357 687.164 605.217 682.331 609.09 677.612C614.301 671.253 622.25 665.071 626.798 657.72C627.18 657.274 627.588 656.842 627.958 656.384C633.907 649.058 639.704 641.821 647.564 636.428C655.501 630.984 665.502 627.639 674.611 624.713C681.605 622.462 689.898 620.834 697.708 620.847C696.548 621.763 696.077 623.034 696.128 624.357C695.873 626.799 697.873 630.653 700.103 631.391C701.886 632.752 705.415 632.307 707.696 631.518C704.664 636.39 698.994 638.628 693.695 640.676C688.191 642.813 682.891 645.217 677.706 648.066C665.565 654.718 657.004 664.41 648.634 675.119C641.755 682.395 634.238 691.451 625.053 695.19C624.989 695.216 625.002 695.305 625.066 695.305C632.187 695.139 638.175 688.614 642.901 683.997C650.685 676.379 657.972 668.086 666.623 661.421C676.19 654.056 687.172 652.568 698.88 651.767C705.008 651.347 711.084 650.088 717.187 649.35C720.958 648.892 724.678 648.892 728.41 648.587C733.366 648.727 738.246 649.312 742.246 651.093C740.271 651.424 738.22 652.161 737.468 654.209C737.367 654.476 737.328 654.794 737.252 655.087C737.188 655.303 737.137 655.519 737.099 655.748C737.099 655.812 737.099 655.863 737.073 655.926C736.806 657.796 737.15 659.958 738.016 661.612C738.513 664.384 743.545 666.229 745.724 666.407C745.813 666.407 745.915 666.407 746.004 666.407C745.686 666.687 745.367 666.966 745.01 667.221C742.883 668.709 740.106 669.396 737.634 670.108C730.627 672.118 723.582 673.987 716.499 675.755C707.275 678.07 696.752 679.889 688.968 685.778C681.63 688.996 675.324 693.982 669.158 699.019C661.094 705.607 653.131 712.552 645.64 719.776C645.589 719.827 645.653 719.929 645.73 719.878C660.711 711.42 671.859 697.492 687.197 689.454C702.511 681.428 721.149 682.725 737.519 677.574C738.08 677.46 738.628 677.371 739.188 677.256C744.246 676.175 748.374 676.175 752.68 677.269C751.941 677.409 751.215 677.574 750.527 677.816C746.845 679.088 747.253 682.573 748.654 685.536C749.062 686.948 749.75 688.258 750.629 689.149C752.043 691.362 755.508 691.591 758.323 691.247C752.463 697.251 743.584 700.125 735.825 702.605C726.308 705.645 716.448 707.464 707.339 711.687C698.357 715.846 690.866 723.185 683.299 729.379C674.254 736.794 664.266 741.183 654.201 746.817C654.112 746.868 654.176 746.97 654.265 746.957C659.106 746.079 663.514 744.426 667.667 742.315C670.457 742.951 673.591 741.997 676.318 741.31C677.082 741.119 677.795 740.865 678.522 740.623C671.961 744.375 665.285 747.873 658.164 750.455C657.947 750.531 658.036 750.836 658.253 750.786C665.412 749.552 672.177 745.634 678.522 742.238C686.306 738.066 693.924 733.475 701.874 729.621C710.46 725.462 720.193 722.485 729.188 719.255C732.895 717.932 736.666 716.825 740.526 716.024C742.029 715.719 745.138 715.007 748.093 714.739C744.73 717.169 746.093 721.442 748.501 724.292C748.539 724.342 748.578 724.406 748.616 724.47C749.75 726.136 751.661 726.657 753.572 726.594C754.998 726.543 756.349 726.238 757.495 725.716C751.393 735.662 736.564 739.809 726.716 744.49C720.384 747.504 714.282 750.9 708.065 754.156C704.816 755.86 701.581 757.59 698.357 759.346C696.65 760.287 694.255 762.983 692.217 762.907C692.026 762.907 691.873 762.945 691.72 762.996C672.152 753.825 648.316 752.986 627.028 753.469C613.918 753.775 600.771 754.042 587.687 754.945C582.018 755.339 576.374 755.873 570.756 756.687C570.157 756.776 569.559 756.865 568.947 756.954C568.718 756.954 568.501 756.967 568.272 756.98C572.654 751.154 575.241 743.51 578.056 737.011H578.043Z" fill="#D1D1D1"/>
<path fill-rule="evenodd" clip-rule="evenodd" d="M487.831 427.478C487.793 426.995 487.716 426.511 487.627 426.028L488.315 425.29L486.952 331.169C496.634 320.154 504.163 311.174 505.335 309.406C508.89 304.064 518.788 245.594 520.215 228.156C522.814 196.244 525.948 111.064 522.139 99.82C518.241 88.3473 451.574 36.0462 405.761 37.3435C359.745 38.6409 297.193 79.2913 289.167 106.548C286.709 114.918 281.676 187.328 283.766 220.537C284.861 238.014 294.594 311.505 300.442 319.149C301.448 320.472 309.691 328.548 320.265 338.444H319.819L319.615 426.511L487.831 427.478Z" fill="#F5F6F9"/>
<path d="M518.102 285.672C516.076 285.672 513.707 284.413 513.248 282.314L513.197 282.098L513.235 281.882C514.573 274.314 515.72 266.58 516.828 259.114C517.121 257.143 517.414 255.184 517.707 253.213C519.3 242.643 520.548 231.692 521.567 219.736L521.618 219.189L522.09 218.922C522.23 218.845 522.332 218.706 522.421 218.527C523.886 215.373 527.81 208.047 532.715 208.047C534.129 208.047 535.479 208.657 536.715 209.853C538.689 211.761 539.352 215.004 539.747 217.93C540.792 225.79 539.352 234.147 537.798 241.282C535.874 250.173 533.109 258.987 529.581 267.458C527.759 271.846 525.784 275.98 523.72 279.757C523.542 280.088 523.351 280.482 523.147 280.915C522.408 282.479 521.478 284.413 520.128 285.188C519.567 285.506 518.879 285.672 518.128 285.672H518.102Z" fill="#F5F6F9"/>
<path fill-rule="evenodd" clip-rule="evenodd" d="M518.203 249.867L526.484 232.251L533.949 221.262C533.949 221.262 537.16 217.586 539.084 219.24C541.007 220.893 541.249 235.113 539.084 240.099C536.918 245.085 522.395 264.367 522.395 264.367L526.662 253.251L531.07 239.145C531.07 239.145 529.389 230.928 529.975 230.356C530.561 229.784 527.924 232.264 527.924 232.264L518.216 249.88L518.203 249.867Z" fill="#BABABA"/>
<path d="M523.325 218.935C525.223 214.852 530.969 204.867 536.231 210.82C537.912 212.715 538.447 215.717 538.753 218.133C539.721 225.714 538.396 233.663 536.804 241.066C534.931 249.728 532.256 258.237 528.893 266.441C527.147 270.702 525.198 274.886 523.007 278.944C522.255 280.33 521.083 283.51 519.618 284.336C517.732 285.405 514.407 284.006 514.191 281.818C513.936 279.249 509.872 279.223 510.14 281.818C510.56 286.028 513.541 288.496 517.783 288.597C522.892 288.712 524.332 285.023 526.523 280.991C533.084 268.895 537.823 255.591 540.728 242.16C542.753 232.798 545.097 220.906 541.314 211.659C539.874 208.136 537.008 204.969 532.931 204.905C526.51 204.804 522.179 211.85 519.835 216.9C518.739 219.253 522.242 221.313 523.338 218.947L523.325 218.935Z" fill="#D1D1D1"/>
<path d="M518.203 254.091C519.464 250.516 534.013 217.536 537.988 221.021C539.453 222.305 541.619 220.169 540.141 218.871C531.159 210.998 517.247 247.655 515.273 253.277C514.623 255.121 517.566 255.922 518.203 254.078V254.091Z" fill="#D1D1D1"/>
<path d="M528.243 226.68C529.224 239.094 526.523 252.411 521.071 263.591C520.217 265.347 522.842 266.886 523.695 265.13C529.39 253.48 532.32 239.641 531.288 226.693C531.135 224.76 528.09 224.747 528.243 226.693V226.68Z" fill="#D1D1D1"/>
<path d="M286.747 285.672C288.772 285.672 291.142 284.413 291.6 282.314L291.651 282.098L291.613 281.882C290.276 274.314 289.129 266.58 288.021 259.114C287.728 257.143 287.435 255.184 287.142 253.213C285.549 242.643 284.301 231.692 283.281 219.736L283.23 219.189L282.759 218.922C282.619 218.845 282.517 218.706 282.428 218.527C280.963 215.373 277.039 208.047 272.134 208.047C270.72 208.047 269.37 208.657 268.134 209.853C266.159 211.761 265.497 215.004 265.102 217.93C264.057 225.79 265.497 234.147 267.051 241.282C268.975 250.173 271.739 258.987 275.268 267.458C277.09 271.846 279.065 275.98 281.128 279.757C281.307 280.088 281.498 280.482 281.702 280.915C282.441 282.479 283.371 284.413 284.721 285.188C285.282 285.506 285.969 285.672 286.721 285.672H286.747Z" fill="#F5F6F9"/>
<path fill-rule="evenodd" clip-rule="evenodd" d="M286.658 249.867L278.377 232.251L270.911 221.262C270.911 221.262 267.701 217.586 265.777 219.24C263.853 220.893 263.611 235.113 265.777 240.099C267.943 245.085 282.466 264.367 282.466 264.367L278.198 253.251L273.79 239.145C273.79 239.145 275.472 230.928 274.886 230.356C274.3 229.784 276.937 232.264 276.937 232.264L286.645 249.88L286.658 249.867Z" fill="#BABABA"/>
<path d="M281.537 218.935C279.639 214.852 273.893 204.867 268.632 210.82C266.95 212.715 266.415 215.717 266.109 218.133C265.141 225.714 266.466 233.663 268.058 241.066C269.931 249.728 272.606 258.237 275.97 266.441C277.715 270.702 279.664 274.886 281.855 278.944C282.607 280.33 283.779 283.51 285.244 284.336C287.13 285.405 290.455 284.006 290.671 281.818C290.926 279.249 294.99 279.223 294.723 281.818C294.302 286.028 291.321 288.496 287.079 288.597C281.97 288.712 280.53 285.023 278.339 280.991C271.778 268.895 267.039 255.591 264.134 242.16C262.109 232.798 259.765 220.906 263.548 211.659C264.988 208.136 267.854 204.969 271.931 204.905C278.352 204.804 282.684 211.85 285.028 216.9C286.123 219.253 282.62 221.313 281.524 218.947L281.537 218.935Z" fill="#D1D1D1"/>
<path d="M286.645 254.091C285.384 250.516 270.835 217.536 266.861 221.021C265.395 222.305 263.23 220.169 264.707 218.871C273.689 210.998 287.601 247.655 289.575 253.277C290.225 255.121 287.282 255.922 286.645 254.078V254.091Z" fill="#D1D1D1"/>
<path d="M276.62 226.68C275.639 239.094 278.34 252.411 283.793 263.591C284.646 265.347 282.022 266.886 281.168 265.13C275.474 253.48 272.543 239.641 273.575 226.693C273.728 224.76 276.773 224.747 276.62 226.693V226.68Z" fill="#D1D1D1"/>
<path fill-rule="evenodd" clip-rule="evenodd" d="M392.297 223.539C392.297 223.539 377.315 224.925 376.755 243.839C376.627 248.087 375.188 272.012 374.602 281.615C369.302 285.176 363.849 289.78 362.397 291.586C350.524 306.43 382.093 291.879 382.093 291.879L388.705 289.195L388.093 287.987C388.31 287.987 388.513 288 388.705 288C392.883 288 392.297 223.539 392.297 223.539Z" fill="#D1D1D1"/>
<path fill-rule="evenodd" clip-rule="evenodd" d="M417.407 292.782L406.642 296.369L400.667 295.174C400.667 295.174 381.289 286.804 381.532 288.013C384.22 301.139 405.75 333.967 426.961 286.817C427.573 285.456 417.394 292.782 417.394 292.782H417.407Z" fill="#D1D1D1"/>
<path d="M381.812 279.097C380.819 281.5 379.01 285.253 380.908 287.606C382.347 289.374 385.622 290.34 387.622 291.192C392.412 293.253 398.845 296.725 404.209 296.509C409.916 296.28 416.566 292.897 421.701 290.658C423.561 289.844 426.516 288.916 427.65 287.046C429.357 284.222 427.064 280.648 425.306 278.499C423.65 276.489 420.796 279.364 422.439 281.361C425.14 284.655 424.197 285.036 421.331 286.41C419.051 287.491 416.668 288.381 414.299 289.246C411.216 290.378 406.884 292.579 403.521 292.426C399.673 292.248 395.049 289.857 391.558 288.458C389.673 287.695 386.959 286.957 385.341 285.66C385.01 285.405 383.902 285.138 383.762 284.718C383.685 284.477 385.456 280.75 385.698 280.152C386.692 277.748 382.768 276.693 381.787 279.071L381.812 279.097Z" fill="#111111"/>
<path d="M532.931 203.087C532.931 203.087 543.543 132.712 540.154 112.362C536.753 92.0109 518.917 87.7754 518.917 87.7754C516.789 67.005 500.228 50.4701 500.228 50.4701C500.228 50.4701 487.488 36.8988 456.059 22.0683C424.63 7.22503 393.214 2.56982 393.214 2.56982L404.68 9.34913C404.68 9.34913 373.251 3.40929 336.739 15.289C300.227 27.1687 284.926 49.2109 284.926 49.2109H296.812L251.803 79.3172C251.803 79.3172 291.716 70.4138 284.073 79.3172C276.429 88.2206 274.301 106.447 274.301 106.447V203.113C275.715 212.665 278.238 220.118 280.709 225.6C279.716 265.78 276.352 368.029 267.511 381.613L274.288 374.834C274.288 374.834 263.689 469.375 344.803 503.297L332.917 484.219C332.917 484.219 416.145 521.524 424.222 537.639L426.35 523.228L432.72 531.279C432.72 531.279 469.245 523.648 503.642 443.517L507.044 468.956C507.044 468.956 527.848 460.472 529.555 407.051L537.198 414.263L525.86 223.73L532.956 203.125L532.931 203.087ZM475.181 312.052C432.72 335.799 353.3 318.831 353.3 318.831C353.3 318.831 295.971 299.333 289.181 246.752L287.831 234.796C288.187 232.049 288.812 226.147 289.602 214.102C290.876 194.604 307.017 178.908 307.017 178.908C301.5 162.793 304.469 147.962 311.692 139.059C318.916 130.156 338.866 123.376 350.332 121.672C361.798 119.98 398.743 126.76 398.743 126.76C398.743 126.76 434.414 132.267 456.072 133.119C477.729 133.971 476.876 125.068 480.277 126.76C483.679 128.451 490.469 134.391 490.469 134.391C505.336 144.986 503.629 177.216 503.629 177.216C512.98 185.891 518.012 200.035 520.675 211.533C518.611 232.888 509.821 292.668 475.169 312.039L475.181 312.052Z" fill="#111111"/>
<path d="M424.223 540.144C423.267 540.144 422.376 539.61 421.942 538.732C416.273 527.4 366.117 502.33 339.555 490.005L346.982 501.91C347.568 502.852 347.479 504.06 346.752 504.899C346.026 505.739 344.854 506.019 343.835 505.599C300.979 487.678 283.665 452.942 276.684 426.957C271.486 407.611 271.066 390.453 271.346 381.346L269.333 383.355C268.416 384.284 266.938 384.36 265.932 383.533C264.912 382.719 264.683 381.257 265.396 380.175C271.231 371.221 275.996 313.616 278.174 226.058C275.168 219.215 273.028 211.609 271.817 203.443C271.805 203.316 271.792 203.189 271.792 203.074V106.409C271.792 106.307 271.792 106.218 271.805 106.116C271.894 105.353 274.059 87.457 281.869 77.9813C277.474 77.2563 263.906 79.1896 252.389 81.7588C251.192 82.0259 249.981 81.4027 249.497 80.2834C249.013 79.1641 249.395 77.8541 250.415 77.1672L288.468 51.7289H284.965C284.022 51.7289 283.143 51.2074 282.71 50.368C282.264 49.5285 282.328 48.511 282.875 47.7351C283.525 46.8066 299.08 24.8406 335.987 12.8465C359.479 5.215 380.717 4.78255 393.303 5.53298L391.966 4.74439C390.921 4.12116 390.45 2.84924 390.857 1.70452C391.265 0.559794 392.424 -0.139759 393.635 0.0383089C393.953 0.0891854 425.79 4.93518 457.193 19.753C488.699 34.6217 501.591 48.1548 502.126 48.7145C502.751 49.3377 518.433 65.2112 521.287 85.8163C526.166 87.5206 539.67 93.8039 542.703 111.929C546.129 132.445 535.925 200.568 535.492 203.456C535.466 203.608 535.428 203.761 535.377 203.901L528.447 224.023L539.76 414.059C539.823 415.102 539.237 416.069 538.295 416.514C537.352 416.959 536.231 416.781 535.466 416.056L531.861 412.66C528.905 462.176 508.904 470.901 508.025 471.257C507.299 471.563 506.471 471.499 505.783 471.105C505.095 470.71 504.636 470.024 504.534 469.235L502.33 452.738C468.927 525.479 434.759 533.403 433.268 533.708C432.325 533.912 431.344 533.556 430.746 532.793L428.032 529.371L426.771 537.957C426.605 539.05 425.752 539.928 424.656 540.093C424.516 540.119 424.388 540.132 424.248 540.132L424.223 540.144ZM332.917 481.636C333.274 481.636 333.618 481.712 333.962 481.865C341.759 485.363 404.744 513.892 422.554 531.444L423.828 522.821C423.981 521.816 424.707 520.989 425.688 520.735C426.669 520.48 427.714 520.824 428.351 521.612L433.638 528.303C440.632 525.81 471.806 511.183 501.298 442.487C501.744 441.431 502.827 440.795 503.986 440.973C505.12 441.126 506.012 442.029 506.165 443.161L509.019 464.503C514.484 459.746 525.784 445.336 526.994 406.949C527.033 405.944 527.644 405.054 528.574 404.673C529.504 404.291 530.562 404.482 531.3 405.169L534.269 407.967L523.313 223.844C523.287 223.514 523.338 223.183 523.44 222.865L530.46 202.489C531.122 198.075 540.855 131.936 537.658 112.781C534.587 94.4271 519.007 90.4079 518.344 90.2425C517.299 89.9881 516.522 89.0978 516.408 88.0294C514.408 68.4292 498.61 52.4158 498.457 52.2631C498.279 52.0723 485.514 38.7681 455.002 24.3573C436.963 15.8355 418.783 10.6842 406.795 7.88602C407.266 8.56014 407.394 9.43776 407.088 10.2391C406.655 11.3965 405.457 12.0579 404.234 11.8417C403.928 11.7781 372.971 6.18166 337.554 17.6925C311.654 26.1126 296.583 39.8874 290.392 46.654H296.851C297.972 46.654 298.966 47.3917 299.284 48.4601C299.615 49.5285 299.195 50.686 298.265 51.3092L263.689 74.4326C264.785 74.2545 265.919 74.0765 267.04 73.9111C281.627 71.7616 285.614 72.9572 287.092 75.4247C287.666 76.3659 288.277 78.3501 286.035 80.9575C279.321 88.7671 277.092 104.933 276.875 106.599V202.921C278.06 210.769 280.136 218.045 283.054 224.557C283.207 224.9 283.283 225.282 283.27 225.663C282.162 270.918 279.436 343.85 273.18 372.544C273.868 372.213 274.684 372.188 275.397 372.544C276.378 373.015 276.951 374.045 276.824 375.113C276.799 375.342 274.314 398.733 281.64 425.85C290.608 459.085 309.616 483.137 338.166 497.446L330.751 485.554C330.165 484.6 330.255 483.379 330.993 482.539C331.49 481.967 332.191 481.674 332.917 481.674V481.636ZM411.954 327.315C381.43 327.315 354.664 321.718 352.766 321.324C352.664 321.299 352.575 321.273 352.473 321.248C351.887 321.044 293.564 300.617 286.646 247.095L285.296 235.101C285.27 234.897 285.27 234.694 285.296 234.478C285.678 231.629 286.29 225.74 287.054 213.949C288.188 196.549 300.291 182.329 304.113 178.259C299.386 163.123 301.475 147.619 309.705 137.469C317.464 127.904 338.306 120.896 349.95 119.166C361.709 117.436 397.673 123.986 399.189 124.266C399.47 124.304 434.899 129.748 456.161 130.588C469.742 131.122 473.602 127.713 475.679 125.882C476.902 124.8 478.762 123.172 481.412 124.495C484.877 126.225 490.992 131.491 492.049 132.406C506.267 142.671 506.381 170.055 506.216 176.173C515.694 185.534 520.65 200.174 523.16 210.96C523.223 211.227 523.236 211.507 523.211 211.774C520.867 236.029 511.605 294.576 476.418 314.265C458.378 324.351 434.173 327.315 411.954 327.315ZM353.989 316.376C357.938 317.19 433.676 332.339 473.933 309.826C507.706 290.938 516.255 230.509 518.102 211.71C515.656 201.332 510.866 187.417 501.897 179.086C501.349 178.577 501.044 177.839 501.082 177.089C501.094 176.784 502.534 146.13 488.979 136.477C488.915 136.426 488.839 136.375 488.775 136.324C487.043 134.81 482.214 130.778 479.539 129.278C479.386 129.405 479.195 129.57 479.042 129.71C476.43 132.012 471.538 136.311 455.958 135.675C434.402 134.836 398.692 129.341 398.336 129.29C397.903 129.214 361.62 122.575 350.689 124.203C339.402 125.869 320.254 132.521 313.655 140.674C306.253 149.794 304.635 164.141 309.412 178.106C309.731 179.035 309.489 180.065 308.775 180.752C308.622 180.905 293.322 196.015 292.124 214.28C291.373 225.803 290.761 231.794 290.379 234.821L291.691 246.472C298.036 295.555 350.893 315.27 353.963 316.376H353.989Z" fill="#FF5656"/>
<path d="M389.826 204.778C389.826 204.778 344.817 194.183 332.918 196.727C321.019 199.271 313.808 199.69 309.133 211.57L389.814 204.791L389.826 204.778Z" fill="#111111"/>
<path d="M421.676 204.778C421.676 204.778 466.685 194.183 478.584 196.727C490.47 199.271 497.694 199.69 502.369 211.57L421.688 204.791L421.676 204.778Z" fill="#111111"/>
<path d="M387.33 322.953C387.33 322.953 410.427 330.725 422.887 322.953C422.887 322.953 409.535 350.795 387.33 322.953Z" fill="#FF5656"/>
<path d="M394.182 299.32C392.688 301.921 392.689 301.922 392.69 301.922L392.693 301.924L392.698 301.927L392.711 301.934L392.746 301.954C392.773 301.969 392.808 301.988 392.85 302.011C392.935 302.057 393.05 302.117 393.194 302.189C393.481 302.333 393.884 302.523 394.389 302.733C395.394 303.152 396.821 303.657 398.549 304.023C402 304.753 406.78 304.947 411.762 302.64C415.623 300.852 418.348 300.516 419.964 300.545C420.779 300.56 421.338 300.667 421.646 300.747C421.789 300.784 421.881 300.816 421.92 300.83L421.989 300.865L422.134 300.919C451.548 311.992 472.717 310.552 486.688 306.102C493.648 303.885 498.752 300.944 502.145 298.521C502.554 298.229 502.938 297.945 503.297 297.67C503.419 298.353 503.539 299.095 503.648 299.889C504.235 304.147 504.505 309.748 503.35 315.353C502.202 320.928 499.669 326.408 494.71 330.668C489.75 334.929 482.071 338.219 470.164 338.87C445.858 340.198 430.149 335.51 420.617 330.662C415.842 328.232 412.583 325.745 410.547 323.91C409.528 322.991 408.814 322.234 408.369 321.727C408.147 321.473 407.991 321.282 407.899 321.164C407.852 321.105 407.822 321.064 407.806 321.044L407.797 321.031L407.796 321.03L407.794 321.027L405.852 318.28L403.344 320.547L403.344 320.547L403.343 320.548L403.342 320.549L403.327 320.562L403.258 320.624C403.194 320.681 403.095 320.768 402.963 320.882C402.697 321.112 402.296 321.454 401.77 321.887C400.717 322.755 399.165 323.989 397.191 325.433C393.238 328.324 387.627 332.035 380.984 335.325C367.595 341.955 350.588 346.605 334.539 340.282C318.402 333.925 312.079 322.468 309.692 312.544C308.487 307.534 308.289 302.901 308.397 299.514C308.402 299.348 308.408 299.186 308.414 299.027C330.593 313.996 349.802 314.831 363.831 311.48C371.228 309.713 377.092 306.806 381.114 304.336C383.128 303.099 384.688 301.967 385.757 301.133C386.292 300.716 386.704 300.372 386.99 300.127C387.133 300.004 387.244 299.906 387.323 299.835C387.95 299.398 388.74 299.381 389.959 299.977C390.559 300.27 391.102 300.647 391.508 300.967C391.705 301.123 391.858 301.256 391.956 301.344C392.004 301.388 392.038 301.419 392.056 301.437L392.065 301.445L392.068 301.449L392.069 301.449L392.071 301.451L392.342 301.722L392.688 301.921L394.182 299.32Z" fill="#111111" stroke="#FF5656" stroke-width="6"/>
<path fill-rule="evenodd" clip-rule="evenodd" d="M477.907 220.067L468.059 218.655H446.937L445.535 231.31L448.351 234.121L458.198 235.52L469.46 234.121L476.493 231.31L480.722 224.277L477.907 220.067Z" fill="white"/>
<path fill-rule="evenodd" clip-rule="evenodd" d="M469.46 217.255L456.797 218.667H449.752L451.166 227.1L458.198 231.31L465.243 229.911L470.874 222.877L469.46 217.255Z" fill="#050010"/>
<path d="M449.09 220.436C449.268 226.668 452.95 231.667 459.575 231.578C465.116 231.501 470.76 227.965 472.021 222.382C472.365 220.894 470.059 220.245 469.715 221.746C468.734 226.096 464.543 228.818 460.237 229.161C454.695 229.606 451.625 225.663 451.459 220.436C451.408 218.909 449.026 218.897 449.077 220.436H449.09Z" fill="#111111"/>
<path d="M432.388 225.421C440.567 221.3 449.689 219.494 458.836 219.787C465.512 220.003 473.907 221.135 478.684 226.325C480.774 228.589 484.137 225.205 482.06 222.954C476.735 217.167 467.983 215.539 460.467 215.094C449.956 214.458 439.37 216.569 429.98 221.3C427.241 222.687 429.649 226.795 432.388 225.421Z" fill="#111111"/>
<path d="M445.994 233.04C444.886 228.983 445.421 224.697 448.198 221.415C450.173 219.088 446.81 215.692 444.822 218.045C440.924 222.649 439.803 228.512 441.383 234.312C442.198 237.263 446.797 236.017 445.982 233.04H445.994Z" fill="#111111"/>
<path d="M444.133 236.831C455.943 238.115 475.753 238.013 482.429 225.854C483.907 223.158 479.779 220.754 478.301 223.45C472.594 233.829 454.07 233.155 444.121 232.061C441.076 231.73 441.089 236.5 444.121 236.831H444.133Z" fill="#111111"/>
<path fill-rule="evenodd" clip-rule="evenodd" d="M364.856 220.588H342.498L332.077 222.076L329.096 226.54L333.567 233.981L341.02 236.957L352.932 238.446L363.366 236.957L366.347 233.981L364.856 220.588Z" fill="white"/>
<path fill-rule="evenodd" clip-rule="evenodd" d="M354.422 220.601L341.02 219.113L339.529 225.065L345.479 232.506L352.932 233.994L360.384 229.53L361.875 220.601H354.422Z" fill="#050010"/>
<path d="M361.315 222.471C361.136 228.436 357.149 232.213 351.136 231.679C346.842 231.298 341.109 228.385 342.001 223.272C342.281 221.682 339.848 221.008 339.568 222.598C338.409 229.174 344.549 233.422 350.46 234.121C358.155 235.037 363.633 230.089 363.85 222.458C363.901 220.83 361.366 220.83 361.327 222.458L361.315 222.471Z" fill="#111111"/>
<path d="M382.806 223.399C372.869 218.388 361.658 216.149 350.537 216.823C342.587 217.307 333.312 219.011 327.682 225.142C325.49 227.533 329.045 231.107 331.261 228.716C336.332 223.208 345.199 222.013 352.269 221.796C361.951 221.491 371.595 223.399 380.258 227.762C383.15 229.224 385.724 224.875 382.806 223.399Z" fill="#111111"/>
<path d="M370.729 237.148C372.411 231.018 371.226 224.811 367.099 219.939C364.997 217.459 361.429 221.046 363.519 223.513C366.462 226.986 367.035 231.526 365.85 235.813C364.984 238.954 369.863 240.29 370.729 237.148Z" fill="#111111"/>
<path d="M367.824 234.77C357.288 235.915 337.682 236.64 331.643 225.65C330.076 222.801 325.706 225.345 327.273 228.194C334.331 241.053 355.339 241.18 367.811 239.819C371.009 239.476 371.047 234.414 367.811 234.77H367.824Z" fill="#111111"/>
<path d="M409.394 424.87C409.56 426.244 410.49 427.147 411.433 427.974C424.478 439.345 434.759 452.929 443.027 468.014C446.365 474.093 449.231 480.453 451.091 487.334C430.912 456.719 404.311 434.321 369.009 422.912C389.202 437.653 406.4 455.015 417.879 477.451C415.242 476.256 414.172 473.623 412.465 471.6C405.483 463.333 398.374 455.231 389.788 448.541C386.781 446.2 383.609 444.153 380.144 442.563C378.704 441.901 377.239 441.24 375.214 442.575C381.787 447.358 387.864 452.318 393.011 458.322C398.056 464.198 402.846 470.227 406.617 477.35C394.234 475.2 382.654 471.918 371.621 467.25C351.696 458.83 336.243 445.793 330.306 423.891C330.026 422.861 330.038 421.144 328.471 421.589C327.146 421.958 328.14 423.293 328.255 424.247C330.497 442.105 339.071 456.414 352.728 467.886C353.416 468.459 353.925 469.26 354.46 469.998C355.085 470.85 355.059 471.753 354.32 472.504C353.48 473.368 352.906 472.44 352.244 472.084C332.077 461.056 318.827 444.356 311.107 422.848C307.757 413.499 306.33 403.795 303.998 394.166C301.922 404.71 302.915 415.522 301.399 426.231C290.876 399.661 293.31 352.804 298.431 340.86C304.189 361.414 312.572 380.544 319.987 400.081C321.668 385.416 318.968 370.521 323.452 355.729C323.477 372.696 325.414 388.926 331.007 404.596C333.007 410.205 335.453 415.611 338.319 420.838C344.434 431.993 353.569 440.311 363.62 447.752C364.257 448.223 364.996 448.579 365.71 448.935C366.27 449.215 366.754 450.003 367.506 449.278C368.449 448.35 367.468 447.841 367.009 447.307C363.213 443.008 359.34 438.772 355.594 434.448C345.173 422.416 338.701 408.348 335.376 392.958C334.255 387.743 333.198 382.274 333.784 376.398C335.848 377.911 337.02 379.819 338.294 381.625C347.517 394.688 360.015 403.171 375.264 407.661C379.074 408.781 383.099 409.149 386.947 410.205C401.305 414.123 414.618 420.406 427.243 428.215C428.007 428.686 428.657 429.411 429.676 429.373C429.854 429.78 430.198 430.34 430.568 430.072C431.205 429.615 430.823 429.131 430.236 428.851C424.516 422.759 418.783 416.679 413.063 410.587C403.292 400.208 393.954 389.422 386.947 376.995C383.38 370.674 380.093 363.818 381.698 355.411C384.794 362 388.183 367.698 393.584 372.073C397.776 375.469 402.706 377.313 407.381 379.705C420.72 386.522 432.479 395.069 439.511 408.781C440.912 411.528 441.957 414.466 443.065 417.353C444.072 419.986 444.518 422.823 446.225 425.163C449.423 419.49 446.097 385.136 436.186 370.038C448.773 379.501 456.327 392.665 462.978 407.292C465.997 396.418 467.946 385.861 473.679 376.105C475.603 380.417 475.985 384.576 476.1 388.71C476.278 394.535 476.864 400.399 475.564 406.199C475.412 406.86 475.475 407.585 475.552 408.259C475.628 408.997 475.322 410.053 476.431 410.205C477.195 410.307 477.565 409.544 477.858 408.921C481.539 400.958 484.138 392.691 485.68 384.042C487.018 376.55 487.272 368.957 488.419 361.453C488.635 360.028 489.132 358.833 490.011 357.726C493.273 353.618 496.509 349.497 499.936 345.134C502.726 360.906 503.808 376.36 503.146 391.915C502.05 417.671 494.738 441.456 480.202 462.888C478.316 465.673 477.475 469.209 474.341 471.13C473.819 471.448 473.679 472.567 472.813 472.097C471.87 471.588 472.316 470.685 472.622 469.96C474.749 464.999 476.966 460.077 479.042 455.104C483.285 444.954 486.992 434.6 490.075 424.044C492.279 416.501 493.375 408.704 494.993 401.035C495.438 398.923 495.438 396.697 494.814 393.734C493.031 397.664 491.617 401.035 489.999 404.303C484.368 415.687 476.227 425.392 468.876 435.631C462.697 444.229 456.799 452.929 454.569 463.587C454.149 465.572 454.544 467.619 453.716 469.922C452.378 468.026 451.206 466.373 450.034 464.719C443.83 456.007 436.976 447.93 429.192 440.515C424.045 435.605 418.694 431.039 413.051 426.765C411.942 425.926 410.872 425.061 409.42 424.908L409.331 424.781L409.445 424.896L409.394 424.87Z" fill="#FF5656"/>
<path d="M421.344 25.0187C433.829 30.4879 441.117 40.6505 446.353 52.6447C450.404 61.9169 452.289 71.8124 454.251 81.6571C454.404 82.3948 454.022 83.4505 455.054 83.7048C456.175 83.9847 456.595 82.9926 457.041 82.204C460.799 75.5646 461.411 68.3274 460.787 60.9757C460.354 55.7863 459.322 50.6478 457.525 45.4075C471.883 60.8231 472.953 109.08 455.054 121.01C453.563 111.255 454.633 101.283 452.442 91.5144C451.168 100.57 450.595 109.715 447.639 118.988C445.359 112.17 443.397 105.696 441.04 99.3748C438.658 93.0025 436.199 86.6175 432.645 80.665C435.74 95.9407 438.747 111.191 439.792 126.874C436.377 126.352 434.543 123.681 432.313 121.951C425.536 116.686 417.892 112.857 410.681 108.355C403.458 103.839 398.043 97.7849 393.559 90.7258C393.037 89.9118 392.731 88.4364 391.419 89.1741C390.425 89.7337 391.342 90.8912 391.61 91.6289C395.992 103.496 401.865 114.409 411.777 122.702C412.529 123.325 413.076 124.203 413.955 125.258C404.745 126.428 397.343 122.931 390.463 118.034C382.425 112.323 377.392 104.297 374.08 95.2411C370.054 84.239 362.423 75.9207 354.55 67.7296C354.155 67.3226 353.696 66.9664 353.251 66.5976C352.499 65.9744 351.887 65.2239 352.448 64.2445C353.059 63.1889 354.066 63.6468 354.919 63.9011C361.837 65.9489 367.366 70.1462 372.398 75.1194C373.953 76.6584 375.392 78.2992 376.921 79.8509C377.456 80.3979 378.042 81.3772 378.883 80.7794C379.787 80.1308 379.342 79.1005 378.87 78.2992C376.526 74.3054 373.558 70.8204 370.245 67.6024C362.793 60.3652 354.015 55.4683 344.103 52.3649C336.88 50.1009 329.504 49.1469 322.051 48.1548C315.197 47.2518 308.356 47.6206 301.018 47.468C313.91 43.0926 326.446 41.5918 339.555 44.2628C352.614 46.9338 365.06 51.0548 376.539 57.7578C385.431 62.9472 393.177 69.7774 400.005 77.3707C403.942 81.7461 408.656 85.3583 412.146 90.128C412.605 90.7513 413.127 91.4381 414.924 91.3109C404.987 73.0971 393.992 56.3332 375.953 45.5601C358.295 35.016 338.804 30.8695 317.783 30.2081C324.115 28.1349 342.74 27.7024 348.46 28.1858C357.926 28.9871 366.793 31.8489 375.545 35.0032C384.59 38.2593 392.463 43.7158 399.559 50.2153C404.91 55.1122 409.84 60.4034 414.21 66.2033C414.541 66.6357 415.051 66.9283 415.471 67.2844C415.522 67.7169 415.815 68.2892 416.134 68.0985C416.72 67.7423 416.478 67.2463 415.905 66.9537C413.217 59.2586 408.63 52.7083 403.471 46.5268C393.304 34.3673 379.966 27.0792 365.277 21.8771C364.245 21.5082 363.022 21.5082 362.041 20.2872C367.035 20.0582 371.749 20.3889 376.488 21.0503C386.476 22.4494 395.916 25.3748 404.668 30.4116C419 38.6663 428.886 50.9403 436.186 65.4783C437.932 68.9634 439.422 72.5756 441.015 76.137C441.244 76.6457 441.282 77.3961 441.983 77.358C442.938 77.3198 442.862 76.4676 442.887 75.8063C443.104 70.4769 441.486 65.4529 440.021 60.4542C436.377 48.0531 429.982 37.0765 422.173 26.8503C421.765 26.3161 421.548 25.6547 421.243 25.0441L421.281 25.006L421.344 25.0187ZM414.682 92.0613C414.631 92.303 414.529 92.5192 414.567 92.6846C414.656 93.028 414.86 93.0407 415.026 92.7227C415.077 92.6337 415.115 92.4811 415.064 92.4047C414.975 92.2775 414.822 92.1758 414.682 92.0486V92.0613Z" fill="#FF5656"/>
<path d="M359.581 93.0787C358.791 95.2283 359.76 96.1059 360.218 97.0853C362.32 101.55 364.55 105.951 366.614 110.44C367.212 111.75 368.588 113.684 367.595 114.51C366.282 115.592 364.282 116.126 362.142 115.477C356.6 113.798 351.568 111.216 346.905 107.82C340.102 102.86 334.102 96.9962 328.191 91.0564C324.228 87.0753 319.349 85.142 314.177 83.3867C307.183 81.021 299.997 80.4613 292.328 80.5885C296.762 77.714 307.195 76.8491 315.578 78.21C323.349 79.4692 330.509 82.4964 337.682 85.6762C338.28 83.9337 338.14 82.5346 337.363 81.1482C332.28 72.1176 325.184 65.9997 314.597 63.9392C310.266 63.0997 305.73 63.2269 301.017 61.1791C308.062 59.6655 314.699 59.78 321.298 60.3015C331.885 61.141 341.223 65.3764 349.644 71.6597C355.25 75.857 358.932 81.7968 362.804 87.4314C366.996 93.5112 371.174 99.7308 372.716 107.261C368.41 102.618 364.155 98.0265 359.568 93.0787H359.581ZM359.046 93.1805C358.944 93.0151 358.868 92.7608 358.74 92.7353C358.588 92.6972 358.384 92.8625 358.205 92.9261C358.32 93.0787 358.396 93.3077 358.549 93.3586C358.677 93.4094 358.868 93.2568 359.046 93.1805Z" fill="#FF5656"/>
<path d="M481.143 70.019C482.735 76.0606 482.99 81.8987 482.544 87.7241C481.984 94.9486 480.697 102.02 476.761 108.342C474.123 112.59 470.875 116.24 466.951 119.306C466.174 119.904 465.257 120.997 464.25 120.374C463.154 119.687 463.511 118.237 463.804 117.22C465.206 112.399 466.607 107.566 468.301 102.834C469.907 98.3446 471.767 94.0074 474.467 89.9372C477.894 84.7733 479.907 78.8589 480.379 72.5629C480.43 71.8252 480.812 71.1002 481.143 70.0318V70.019Z" fill="#FF5656"/>
</g>
<defs>
<clipPath id="clip0_1407_599">
<rect width="823" height="823" fill="white"/>
</clipPath>
</defs>
</svg>
