<svg width="24" height="24" viewBox="0 0 87 67" fill="none" xmlns="http://www.w3.org/2000/svg">
<rect width="87" height="67" fill="#9D70F9"/>
<rect width="87" height="8" fill="#FF5656"/>
<circle cx="76.1162" cy="4.35741" r="1.17869" fill="#111111"/>
<circle cx="79.6514" cy="4.35741" r="1.17869" fill="#111111"/>
<circle cx="83.1885" cy="4.35741" r="1.17869" fill="#111111"/>
<g clip-path="url(#clip0_121_595)">
<path d="M66.5 33.915C66.4345 31.2366 65.7688 28.7643 64.3827 26.4546C63.6623 25.2509 62.8111 24.069 61.8397 23.0388C61.6651 22.8545 61.1849 22.4207 61.1849 22.4207L60.9557 16.5652L54.44 18.1917C54.44 18.1917 53.043 17.6712 52.3117 17.4652C51.6678 17.2917 51.0348 17.1507 50.3799 17.0423C50.2162 17.0098 49.5068 16.9339 49.5068 16.9339L47.3022 14.4398L44.8902 12L42.7729 14.2772L39.9679 17.5086C39.9679 17.5086 38.7674 17.8339 38.3854 17.964C37.1521 18.3544 35.897 18.9725 34.8056 19.6448C34.6091 19.764 34.0634 20.0677 34.0634 20.0677L23.6733 20.4472C23.6733 20.4472 26.2817 29.9028 26.3581 30.2282C26.4345 30.5968 25.9761 31.421 25.867 31.8005C25.6487 32.5595 25.4413 33.3294 25.2776 34.0993C25.1685 34.6198 24.852 35.8777 24.852 35.8777L18.5 43.1212L27.5805 48.1093C27.5805 48.1093 28.148 48.9985 28.3445 49.2913C28.7483 49.8985 29.163 50.4949 29.6432 51.0479C30.0034 51.46 30.7128 52.501 30.7128 52.501L30.8875 59.918L39.7278 57.5866C39.7278 57.5866 41.0593 57.9662 41.4959 58.0746C42.8929 58.4216 44.3881 58.6059 45.8288 58.6276C46.189 58.6276 46.9202 58.6276 46.9202 58.6276L53.5014 62.0108L55.8588 56.0794C55.8588 56.0794 56.2408 55.8083 56.972 55.2661C58.1508 54.3878 59.1876 53.3793 60.0935 52.2407C60.2899 52.0022 60.9775 50.9286 61.0212 50.907C61.1958 50.8202 66.3472 49.0744 66.3472 49.0744L63.4877 44.1622C63.4877 44.1622 63.4659 44.0972 63.4441 43.6743C63.4222 43.1971 63.4441 42.72 63.4441 42.2537C63.4441 41.0826 63.4659 39.9983 63.1276 38.8597C61.5559 33.6005 56.8302 29.5992 51.0457 29.3607C49.2667 29.2848 47.5205 29.404 45.8834 30.1306C43.3622 31.2475 41.2667 33.2644 40.3608 35.8018C39.6078 37.9163 39.455 40.4103 40.4482 42.4815C41.5505 44.7912 43.6896 46.4611 46.3417 46.7972C47.8697 46.9924 49.2885 46.8623 50.4782 45.9623C50.7619 45.7562 51.3404 45.1381 51.3404 45.1381C51.3404 45.1381 50.7401 45.2466 50.3036 45.3116C49.5614 45.4201 48.9066 45.4201 48.1644 45.4201C46.1999 45.4201 44.3881 44.3574 43.4059 42.72C42.2381 40.779 42.5437 38.5452 43.7551 36.691C45.0211 34.7608 47.0075 33.6439 49.3649 33.6439C54.4072 33.6439 58.4345 38.3717 57.8233 43.0995C57.1248 48.5214 52.1044 52.6853 46.4727 52.6853C39.193 52.6853 31.7169 46.5261 31.6733 39.2501C31.6296 33.08 34.369 26.1076 40.7865 23.7328C42.9366 22.9521 45.1194 22.4099 47.2694 22.4099C50.2381 22.4099 52.912 22.7894 55.6405 23.9822C57.7469 24.9039 59.4277 26.2594 61.0102 27.8426C62.6146 29.4474 63.8915 31.4209 64.8411 33.4379C65.0812 33.9584 65.4304 34.6632 65.616 35.0644C65.9325 35.7367 66.2162 36.8428 66.2162 36.8428C66.2162 36.8428 66.5546 34.9777 66.5 33.915Z" fill="#111111"/>
</g>
<defs>
<clipPath id="clip0_121_595">
<rect width="48" height="50" fill="white" transform="translate(18.5 12)"/>
</clipPath>
</defs>
</svg>
