<svg width="24" height="24" viewBox="0 0 430 396" fill="none" xmlns="http://www.w3.org/2000/svg">
<path d="M422.689 90.2344C429.564 100.031 431.111 111.117 427.33 123.492L356.431 357.07C353.166 368.07 346.592 377.309 336.709 384.785C326.826 392.262 316.299 396 305.127 396H67.1658C53.9314 396 41.1697 391.402 28.8806 382.207C16.5915 373.012 8.04076 361.711 3.22826 348.305C-0.896739 336.789 -1.06861 325.875 2.71264 315.562C2.71264 314.875 2.97045 312.555 3.48607 308.602C4.0017 304.648 4.34545 301.469 4.51732 299.062C4.6892 297.688 4.43139 295.84 3.74389 293.52C3.05639 291.199 2.79857 289.523 2.97045 288.492C3.3142 286.602 4.0017 284.797 5.03295 283.078C6.0642 281.359 7.48217 279.34 9.28685 277.02C11.0915 274.699 12.5095 272.68 13.5408 270.961C17.4939 264.43 21.3611 256.566 25.1423 247.371C28.9236 238.176 31.5017 230.312 32.8767 223.781C33.3923 222.062 33.4353 219.484 33.0056 216.047C32.5759 212.609 32.5329 210.203 32.8767 208.828C33.3923 206.938 34.8533 204.531 37.2595 201.609C39.6658 198.688 41.1267 196.711 41.6423 195.68C45.2517 189.492 48.8611 181.586 52.4705 171.961C56.0798 162.336 58.2283 154.602 58.9158 148.758C59.0876 147.211 58.8728 144.461 58.2712 140.508C57.6697 136.555 57.7126 134.148 58.4001 133.289C59.0876 131.055 60.9783 128.434 64.072 125.426C67.1658 122.418 69.0564 120.484 69.7439 119.625C73.0095 115.156 76.6618 107.895 80.7009 97.8398C84.74 87.7852 87.1033 79.4922 87.7908 72.9609C87.9626 71.5859 87.7048 69.3945 87.0173 66.3867C86.3298 63.3789 86.1579 61.1016 86.5017 59.5547C86.8454 58.1797 87.6189 56.6328 88.822 54.9141C90.0251 53.1953 91.572 51.2188 93.4626 48.9844C95.3533 46.75 96.8142 44.9453 97.8454 43.5703C99.2204 41.5078 100.638 38.8867 102.099 35.707C103.56 32.5273 104.849 29.5195 105.967 26.6836C107.084 23.8477 108.459 20.7539 110.092 17.4023C111.724 14.0508 113.4 11.3008 115.119 9.15234C116.838 7.00391 119.115 4.98438 121.951 3.09375C124.787 1.20312 127.881 0.214844 131.232 0.128906C134.584 0.0429687 138.666 0.515625 143.478 1.54688L143.22 2.32031C149.752 0.773438 154.135 0 156.369 0H352.564C365.283 0 375.08 4.8125 381.955 14.4375C388.83 24.0625 390.377 35.2344 386.595 47.9531L315.955 281.531C309.767 301.984 303.623 315.176 297.521 321.105C291.42 327.035 280.377 330 264.392 330H40.3533C35.7126 330 32.447 331.289 30.5564 333.867C28.6658 336.617 28.5798 340.312 30.2986 344.953C34.4236 356.984 46.7986 363 67.4236 363H305.385C310.369 363 315.181 361.668 319.822 359.004C324.463 356.34 327.47 352.773 328.845 348.305L406.189 93.8438C407.392 90.0625 407.822 85.1641 407.478 79.1484C414.01 81.7266 419.08 85.4219 422.689 90.2344ZM148.377 90.75C147.689 92.9844 147.861 94.918 148.892 96.5508C149.924 98.1836 151.642 99 154.049 99H310.799C313.033 99 315.224 98.1836 317.373 96.5508C319.521 94.918 320.939 92.9844 321.627 90.75L327.041 74.25C327.728 72.0156 327.556 70.082 326.525 68.4492C325.494 66.8164 323.775 66 321.369 66H164.619C162.385 66 160.193 66.8164 158.045 68.4492C155.896 70.082 154.478 72.0156 153.791 74.25L148.377 90.75ZM126.978 156.75C126.291 158.984 126.463 160.918 127.494 162.551C128.525 164.184 130.244 165 132.65 165H289.4C291.635 165 293.826 164.184 295.974 162.551C298.123 160.918 299.541 158.984 300.228 156.75L305.642 140.25C306.33 138.016 306.158 136.082 305.127 134.449C304.095 132.816 302.377 132 299.97 132H143.22C140.986 132 138.795 132.816 136.646 134.449C134.498 136.082 133.08 138.016 132.392 140.25L126.978 156.75Z" fill="#6133BC"/>
<path d="M129.809 64.1953H334.512L274.184 263.484H70.6406L129.809 64.1953Z" fill="#6133BC"/>
<path d="M206.643 222.819C215.856 223.987 225.196 223.248 234.416 217.644C235.577 216.959 237.313 215.674 238.677 214.631C239.38 214.093 240.017 213.594 240.479 213.23C240.709 213.047 240.896 212.898 241.026 212.795L241.177 212.674L241.217 212.642L241.227 212.634L241.23 212.632L241.231 212.631L241.231 212.631C241.231 212.631 241.231 212.631 240.404 211.637L241.231 212.631L245.2 209.435L240.52 210.21L240.519 210.21L240.517 210.211L240.509 210.212L240.477 210.217L240.352 210.238C240.242 210.256 240.082 210.282 239.881 210.315C239.675 210.348 239.427 210.389 239.145 210.434C238.878 210.477 238.581 210.524 238.264 210.574C236.961 210.781 235.323 211.033 233.954 211.221C229.37 211.841 225.465 211.843 220.913 211.843C209.423 211.843 200.411 205.874 197.117 196.685L197.117 196.683C193.223 185.875 198.263 173.366 208.253 162.821C218.647 151.881 232.019 145.575 245.932 145.575C275.898 145.575 292.627 172.588 281.835 199.476L281.835 199.477C269.383 230.535 232.961 254.516 199.181 254.516C177.309 254.516 157.446 245.626 144.428 231.444C131.411 217.262 125.337 197.902 130.769 177.044L130.769 177.043C140.085 141.115 167.422 100.926 209.492 87.2747C223.78 82.7189 237.787 79.5918 250.703 79.5918C268.733 79.5918 284.29 81.8027 298.905 88.7069C310.144 94.0222 318.19 101.85 325.341 111.079C332.534 120.361 337.205 131.803 339.831 143.531C340.161 145.072 340.585 146.88 340.987 148.588L341.083 148.992C341.452 150.557 341.794 152.008 342.025 153.08L342.027 153.089C342.447 154.966 342.665 157.495 342.776 159.599C342.831 160.643 342.859 161.565 342.873 162.226C342.88 162.556 342.883 162.82 342.885 163.001C342.886 163.092 342.886 163.161 342.887 163.208L342.887 163.26L342.887 163.273L342.887 163.276L342.887 163.276L345.842 163.174L344.436 162.914C345.842 163.174 345.842 163.174 345.842 163.174L345.842 163.173L345.843 163.172L345.846 163.165L345.858 163.14L345.901 163.044C345.939 162.96 345.994 162.837 346.065 162.679C346.206 162.362 346.408 161.905 346.655 161.337C347.149 160.202 347.821 158.622 348.535 156.844C349.949 153.327 351.574 148.925 352.272 145.663C356.118 129.705 355.915 114.941 350.969 101.149C348.421 94.0108 345.023 86.9804 340.627 80.8386L340.625 80.8362C340.206 80.2548 339.418 79.3154 338.761 78.5489C338.427 78.1595 338.117 77.8045 337.892 77.5469C337.89 77.5443 337.887 77.5417 337.885 77.5391L345.516 43.7564L345.917 41.9785L344.016 42.4068L302.068 51.8532C301.85 51.7679 301.548 51.6503 301.18 51.508C300.387 51.2013 299.286 50.7796 298.055 50.3198C295.603 49.4045 292.593 48.3232 290.469 47.7041L290.461 47.7018L290.453 47.6997C286.752 46.6716 283.06 45.8342 279.178 45.1892C278.617 45.0796 277.275 44.9162 276.145 44.786C275.554 44.7179 274.994 44.6559 274.581 44.6109C274.54 44.6064 274.501 44.6022 274.463 44.5981L265.15 30.3667L265.131 30.3365L265.109 30.3078L254.169 15.9776L253.356 14.9133L252.002 16.0095L235.478 29.3844L235.455 29.4025L235.433 29.4212L213.594 48.07C213.498 48.0935 213.389 48.1203 213.268 48.1499C213.125 48.185 212.966 48.2241 212.793 48.2667C212.014 48.4583 210.95 48.7217 209.805 49.0093C207.546 49.5769 204.913 50.2535 203.586 50.6516C195.279 52.9875 186.511 56.6712 178.695 60.6626C178.027 60.9992 176.754 61.6071 175.624 62.1418C175.062 62.4074 174.544 62.6513 174.166 62.8288C174.071 62.8735 173.984 62.914 173.908 62.9496L110.089 65.1661L108.172 65.2327L108.209 67.0024L109.757 66.6145C108.209 67.0024 108.209 67.0026 108.209 67.003L108.209 67.0049L108.209 67.0125L108.209 67.0426L108.212 67.1617L108.222 67.6265L108.258 69.3924C108.29 70.9147 108.334 73.0915 108.388 75.7097C108.496 80.9461 108.639 87.9478 108.78 95.0092C109.062 109.061 109.336 123.269 109.321 124.374C109.304 124.588 109.168 125.028 108.786 125.751C108.416 126.451 107.901 127.26 107.317 128.12C106.898 128.736 106.467 129.345 106.043 129.944C105.874 130.183 105.706 130.421 105.54 130.656C104.983 131.448 104.436 132.244 104.067 132.895C101.535 137.367 99.0388 141.926 96.8072 146.497L96.8052 146.501C96.0769 148.002 94.7415 150.59 93.5775 152.823C92.9977 153.935 92.4641 154.952 92.0753 155.691C91.8865 156.05 91.732 156.343 91.623 156.55L41.7153 198.831L40.1082 200.193L41.5263 201.063L88.9964 230.183C89.0519 230.322 89.1241 230.503 89.2094 230.716C89.4163 231.233 89.7 231.94 90.0069 232.702C90.6181 234.217 91.3285 235.964 91.7068 236.839C93.2314 240.416 94.8617 243.981 96.9804 247.302L96.9827 247.305C97.7223 248.454 98.764 250.53 99.6398 252.368C100.073 253.277 100.458 254.111 100.735 254.719C100.851 254.973 100.947 255.186 101.02 255.349L90.5769 298.481L90.1333 300.313L92.0918 299.848L149.424 286.255C149.634 286.317 149.926 286.403 150.281 286.506C151.029 286.726 152.053 287.025 153.155 287.344C155.351 287.979 157.886 288.702 159.161 289.026C167.276 291.092 176.248 292.187 185.137 292.316L185.148 292.317H185.16H185.172H185.185H185.199H185.212H185.225H185.238H185.251H185.264H185.278H185.291H185.305H185.318H185.332H185.345H185.359H185.373H185.386H185.4H185.414H185.428H185.442H185.456H185.47H185.484H185.498H185.512H185.526H185.54H185.555H185.569H185.583H185.598H185.612H185.627H185.641H185.656H185.67H185.685H185.7H185.714H185.729H185.744H185.759H185.774H185.789H185.804H185.819H185.834H185.849H185.864H185.879H185.894H185.91H185.925H185.94H185.955H185.971H185.986H186.002H186.017H186.033H186.048H186.064H186.079H186.095H186.111H186.126H186.142H186.158H186.174H186.19H186.205H186.221H186.237H186.253H186.269H186.285H186.301H186.317H186.333H186.349H186.366H186.382H186.398H186.414H186.43H186.447H186.463H186.479H186.496H186.512H186.529H186.545H186.561H186.578H186.594H186.611H186.627H186.644H186.661H186.677H186.694H186.711H186.727H186.744H186.761H186.777H186.794H186.811H186.828H186.845H186.861H186.878H186.895H186.912H186.929H186.946H186.963H186.98H186.997H187.014H187.031H187.048H187.065H187.082H187.099H187.116H187.133H187.15H187.167H187.184H187.202H187.219H187.236H187.253H187.27H187.287H187.305H187.322H187.339H187.356H187.374H187.391H187.408H187.425H187.443H187.46H187.477H187.495H187.512H187.529H187.547H187.564H187.581H187.599H187.616H187.633H187.651H187.668H187.685H187.703H187.72H187.737H187.755H187.772H187.79H187.807H187.824H187.842H187.859H187.877H187.894H187.911H187.929H187.946H187.964H187.981H187.998H188.016H188.033H188.051H188.068H188.085H188.103H188.12H188.137H188.155H188.172H188.189H188.207H188.224H188.242H188.259H188.276H188.293H188.311H188.328H188.345H188.363H188.38H188.397H188.415H188.432H188.449H188.466H188.483H188.501H188.518H188.535H188.552H188.569H188.587H188.604H188.621H188.638H188.655H188.672H188.689H188.706H188.724H188.741H188.758H188.775H188.792H188.809H188.826H188.843H188.859H188.876H188.893H188.91H188.927H188.944H188.961H188.978H188.994H189.011H189.028H189.045H189.061H189.078H189.095H189.111H189.128H189.145H189.161H189.178H189.194H189.211H189.227H189.244H189.26H189.277H189.293H189.309H189.326H189.342H189.358H189.375H189.391H189.407H189.423H189.439H189.456H189.472H189.488H189.504H189.52H189.536H189.552H189.568H189.584H189.6H189.615H189.631H189.647H189.663H189.679H189.694H189.71H189.726H189.741H189.757H189.772H189.788H189.803H189.819H189.834H189.849H189.865H189.88H189.895H189.91H189.926H189.941H189.956H189.971H189.986H190.001H190.016H190.031H190.046H190.061H190.075H190.09H190.105H190.12H190.134H190.149H190.163H190.178H190.192H190.207H190.221H190.236H190.25H190.264H190.278H190.292H190.307H190.321H190.335H190.349H190.363H190.377H190.39H190.404H190.418H190.432H190.445H190.459H190.473H190.486H190.5H190.513H190.526H190.54H190.553H190.566H190.579H190.593H190.606H190.619H190.632H190.645H190.657H190.67H190.683H190.696H190.708H190.721H190.734H190.746H190.759H190.771H190.783H190.796H190.808H190.82H190.832H190.844H190.856H190.868H190.88H190.892H190.904H190.915H190.927H190.939H190.95H190.962H190.973H190.984H190.996H191.007H191.018H191.029H191.04H191.051H191.062H191.073H191.084H191.094H191.105H191.116H191.126H191.137H191.147H191.158H191.168H191.178H191.188H191.198H191.208H191.218H191.228H191.238H191.248H191.257H191.267H191.277H191.286H191.295H191.305H191.314H191.323H191.332H191.341H191.35H191.359H191.368H191.377H191.386H191.394H191.403H191.411H191.42H191.428H191.436H191.444H191.453H191.461H191.469H191.476H191.478L226.176 312.029L227.447 312.752L228.451 311.277L251.899 276.835C251.928 276.818 251.958 276.8 251.99 276.782C252.15 276.689 252.345 276.575 252.577 276.44C252.846 276.283 253.164 276.097 253.53 275.882C254.891 275.083 256.918 273.886 259.585 272.29L259.588 272.288C268.298 267.057 276.337 261.049 283.767 254.269C284.64 253.491 286.575 251.49 288.236 249.77C289.093 248.883 289.899 248.047 290.51 247.424C290.797 247.131 291.032 246.896 291.203 246.729C291.25 246.713 291.305 246.695 291.367 246.675C291.674 246.575 292.096 246.441 292.619 246.278C293.665 245.95 295.097 245.51 296.787 244.994C300.164 243.962 304.557 242.633 308.914 241.32C313.271 240.006 317.591 238.709 320.821 237.74C322.436 237.255 323.779 236.853 324.718 236.571L325.807 236.245L326.093 236.159L326.167 236.137L326.185 236.132L326.19 236.13L326.191 236.13C326.191 236.13 326.191 236.13 326.177 235.948L326.192 236.13L328.092 235.561L327.569 234.023L317.838 205.391C317.843 205.348 317.85 205.295 317.859 205.232C317.911 204.87 318.028 204.189 318.288 202.967C318.689 201.138 319.195 199.346 319.711 197.522C319.975 196.591 320.24 195.652 320.495 194.695C320.604 194.286 320.714 193.878 320.823 193.471C322.535 187.08 324.202 180.86 323.922 174.345L323.922 174.343C322.516 142.893 299.452 118.947 263.76 117.52C252.901 117.07 241.761 117.766 230.263 122.164C212.743 128.854 196.351 140.969 186.553 156.309L186.553 156.31C178.48 168.969 173.448 184.041 176.387 196.66C179.612 210.644 190.422 220.78 206.643 222.819ZM206.643 222.819C206.643 222.819 206.643 222.819 206.643 222.819L207.215 221.381L206.644 222.819C206.644 222.819 206.643 222.819 206.643 222.819ZM98.1906 146.8L98.1907 146.8L98.1906 146.8Z" fill="#111111" stroke="#6133BC" stroke-width="3"/>
</svg>
