<svg width="151" height="151" viewBox="0 0 151 151" fill="none"
    xmlns="http://www.w3.org/2000/svg">
    <path fill-rule="evenodd" clip-rule="evenodd" d="M121.778 117.984L121.953 126.605L118.344 126.678L118.169 118.057L121.778 117.984Z" fill="#dddddd"/>
    <path fill-rule="evenodd" clip-rule="evenodd" d="M110.794 117.818L110.968 126.439L107.359 126.512L107.185 117.891L110.794 117.818Z" fill="#dddddd"/>
    <path fill-rule="evenodd" clip-rule="evenodd" d="M100.218 118.115L100.392 126.736L96.7832 126.809L96.6086 118.188L100.218 118.115Z" fill="#dddddd"/>
    <path fill-rule="evenodd" clip-rule="evenodd" d="M62.5785 6.8067V15.4296H58.9688V6.8067H62.5785Z" fill="#dddddd"/>
    <circle cx="43.9136" cy="11.5579" r="3.73193" stroke="#dddddd" stroke-width="2"/>
    <path d="M63.9023 117.533L30.1629 105.047M63.9023 117.533C63.9023 117.533 61.5525 79.9363 59.8318 55.4163M63.9023 117.533L130.381 98.864M30.1629 105.047L25.6161 47.8115M30.1629 105.047C30.1629 105.047 51.6585 71.3328 59.8318 55.4163M25.6161 47.8115C44.888 38.95 83.6631 21.4987 84.5885 22.5853M25.6161 47.8115C25.6161 47.8115 51.6585 54.1258 59.8318 55.4163M84.5885 22.5853C85.5139 23.6719 108.535 37.8631 119.93 44.8228M84.5885 22.5853L91.2346 91.9812M84.5885 22.5853C84.5885 22.5853 72.3069 38.6395 59.8318 55.4163M119.93 44.8228L130.381 98.864M119.93 44.8228L91.2346 91.9812M130.381 98.864L91.2346 91.9812M59.8318 55.4163C59.8318 55.4163 90.7815 92.2395 91.2346 91.9812" stroke="#dddddd" stroke-width="2"/>
    <rect x="79.6211" y="11.9686" width="17.207" height="17.207" fill="#9D70F9"/>
    <rect x="82.5938" y="80.873" width="17.207" height="17.207" fill="#dddddd"/>
    <rect x="18.5371" y="40.3602" width="17.207" height="17.207" fill="#dddddd"/>
    <rect x="52.9512" y="49.8241" width="12.0449" height="12.0449" fill="#FF5656"/>
    <rect x="56.7832" y="110.985" width="12.0449" height="12.0449" fill="#9D70F9"/>
    <rect x="124.752" y="92.0575" width="12.0449" height="12.0449" fill="#9D70F9"/>
    <rect x="24.0898" y="98.08" width="12.0449" height="12.0449" fill="#FF5656"/>
    <rect x="110.596" y="40.3605" width="12.0449" height="12.0449" fill="#FF5656"/>
</svg>
