<svg width="24" height="24" viewBox="0 0 109 91" fill="none" xmlns="http://www.w3.org/2000/svg">
<path d="M0.226732 0L108.136 0.241684L107.905 90.9262L0 90.6845L0.226732 0Z" fill="#9D70F9"/>
<path d="M0.225933 0L108.136 0.20662L108.074 20.8809L0.164062 20.6743L0.225933 0Z" fill="black"/>
<circle cx="11.8571" cy="10.0891" r="3.7009" fill="white"/>
<circle cx="23.6589" cy="10.0891" r="3.7009" fill="white"/>
<circle cx="35.4607" cy="10.0891" r="3.7009" fill="white"/>
<path d="M0.225933 0L108.136 0.20662L108.074 20.8809L0.164062 20.6743L0.225933 0Z" fill="black"/>
<circle cx="11.8571" cy="10.0891" r="3.7009" fill="white"/>
<circle cx="23.6589" cy="10.0891" r="3.7009" fill="white"/>
<circle cx="35.4607" cy="10.0891" r="3.7009" fill="white"/>
<path d="M30 30H46.16V38.08H38.08V70.4H70.4V62.32H78.48V78.48H30V30ZM54.24 30H78.48V54.24L70.4 46.16L54.24 62.32L46.16 54.24L62.32 38.08L54.24 30Z" fill="white"/>
</svg>
