<svg width="24" height="24" viewBox="0 0 99 84" fill="none" xmlns="http://www.w3.org/2000/svg">
<path d="M0.398502 0.790039L98.4982 1.00975L98.2875 83.4502L0.192383 83.2305L0.398502 0.790039Z" fill="#9D70F9"/>
<path d="M0.398043 0.790039L98.4978 0.977875L98.4415 19.7727L0.341797 19.5849L0.398043 0.790039Z" fill="black"/>
<circle cx="10.9719" cy="9.96211" r="3.36445" fill="white"/>
<circle cx="21.7004" cy="9.96211" r="3.36445" fill="white"/>
<circle cx="32.4299" cy="9.96211" r="3.36445" fill="white"/>
<path d="M25.8164 44.6532V31.3272H23.6074L24.4964 28.0552H29.1304V44.6532H25.8164Z" fill="white"/>
<path d="M40.743 44.9621C39.775 44.9621 38.8901 44.7401 38.0901 44.2981C37.2901 43.8471 36.593 43.2271 36.001 42.4361C35.416 41.6461 34.964 40.7331 34.644 39.6971C34.324 38.6541 34.1641 37.5401 34.1641 36.3541C34.1641 35.1681 34.324 34.0581 34.644 33.0231C34.964 31.9791 35.416 31.0621 36.001 30.2721C36.593 29.4821 37.2901 28.8651 38.0901 28.4221C38.8901 27.9721 39.775 27.7471 40.743 27.7471C41.712 27.7471 42.5961 27.9721 43.3971 28.4221C44.1971 28.8651 44.886 29.4821 45.462 30.2721C46.046 31.0621 46.4991 31.9791 46.8191 33.0231C47.1391 34.0581 47.299 35.1681 47.299 36.3541C47.299 37.5401 47.1391 38.6541 46.8191 39.6971C46.4991 40.7331 46.046 41.6461 45.462 42.4361C44.886 43.2271 44.1971 43.8471 43.3971 44.2981C42.5961 44.7401 41.712 44.9621 40.743 44.9621ZM40.743 41.6891C41.536 41.6891 42.188 41.4361 42.701 40.9311C43.213 40.4251 43.589 39.7651 43.829 38.9511C44.077 38.1361 44.201 37.2711 44.201 36.3541C44.201 35.3821 44.0691 34.4931 43.8051 33.6861C43.5491 32.8801 43.165 32.2361 42.653 31.7541C42.14 31.2641 41.504 31.0191 40.743 31.0191C40.143 31.0191 39.623 31.1651 39.183 31.4581C38.75 31.7501 38.3901 32.1491 38.1021 32.6551C37.8221 33.1611 37.6101 33.7341 37.4661 34.3741C37.3301 35.0061 37.2621 35.6661 37.2621 36.3541C37.2621 37.2711 37.3861 38.1361 37.6341 38.9511C37.8901 39.7571 38.274 40.4171 38.786 40.9311C39.307 41.4361 39.959 41.6891 40.743 41.6891Z" fill="white"/>
<path d="M53.6016 44.6532V31.3272H51.3926L52.2806 28.0552H56.9156V44.6532H53.6016Z" fill="white"/>
<path d="M68.5282 44.9621C67.5592 44.9621 66.6752 44.7401 65.8742 44.2981C65.0742 43.8471 64.3772 43.2271 63.7852 42.4361C63.2012 41.6461 62.7482 40.7331 62.4282 39.6971C62.1082 38.6541 61.9482 37.5401 61.9482 36.3541C61.9482 35.1681 62.1082 34.0581 62.4282 33.0231C62.7482 31.9791 63.2012 31.0621 63.7852 30.2721C64.3772 29.4821 65.0742 28.8651 65.8742 28.4221C66.6752 27.9721 67.5592 27.7471 68.5282 27.7471C69.4962 27.7471 70.3812 27.9721 71.1812 28.4221C71.9822 28.8651 72.6702 29.4821 73.2462 30.2721C73.8312 31.0621 74.2832 31.9791 74.6032 33.0231C74.9232 34.0581 75.0832 35.1681 75.0832 36.3541C75.0832 37.5401 74.9232 38.6541 74.6032 39.6971C74.2832 40.7331 73.8312 41.6461 73.2462 42.4361C72.6702 43.2271 71.9822 43.8471 71.1812 44.2981C70.3812 44.7401 69.4962 44.9621 68.5282 44.9621ZM68.5282 41.6891C69.3202 41.6891 69.9732 41.4361 70.4852 40.9311C70.9972 40.4251 71.3732 39.7651 71.6132 38.9511C71.8622 38.1361 71.9862 37.2711 71.9862 36.3541C71.9862 35.3821 71.8542 34.4931 71.5892 33.6861C71.3332 32.8801 70.9492 32.2361 70.4372 31.7541C69.9252 31.2641 69.2882 31.0191 68.5282 31.0191C67.9272 31.0191 67.4072 31.1651 66.9672 31.4581C66.5352 31.7501 66.1742 32.1491 65.8862 32.6551C65.6062 33.1611 65.3942 33.7341 65.2502 34.3741C65.1142 35.0061 65.0462 35.6661 65.0462 36.3541C65.0462 37.2711 65.1702 38.1361 65.4182 38.9511C65.6742 39.7571 66.0582 40.4171 66.5712 40.9311C67.0912 41.4361 67.7432 41.6891 68.5282 41.6891Z" fill="white"/>
<path d="M25.8164 73.6351V60.3091H23.6074L24.4964 57.0361H29.1304V73.6351H25.8164Z" fill="white"/>
<path d="M40.743 73.943C39.775 73.943 38.8901 73.722 38.0901 73.279C37.2901 72.829 36.593 72.208 36.001 71.418C35.416 70.627 34.964 69.714 34.644 68.679C34.324 67.636 34.1641 66.521 34.1641 65.336C34.1641 64.15 34.324 63.039 34.644 62.004C34.964 60.961 35.416 60.044 36.001 59.253C36.593 58.463 37.2901 57.847 38.0901 57.404C38.8901 56.953 39.775 56.728 40.743 56.728C41.712 56.728 42.5961 56.953 43.3971 57.404C44.1971 57.847 44.886 58.463 45.462 59.253C46.046 60.044 46.4991 60.961 46.8191 62.004C47.1391 63.039 47.299 64.15 47.299 65.336C47.299 66.521 47.1391 67.636 46.8191 68.679C46.4991 69.714 46.046 70.627 45.462 71.418C44.886 72.208 44.1971 72.829 43.3971 73.279C42.5961 73.722 41.712 73.943 40.743 73.943ZM40.743 70.671C41.536 70.671 42.188 70.418 42.701 69.912C43.213 69.406 43.589 68.746 43.829 67.932C44.077 67.118 44.201 66.252 44.201 65.336C44.201 64.363 44.0691 63.474 43.8051 62.668C43.5491 61.862 43.165 61.218 42.653 60.735C42.14 60.245 41.504 60 40.743 60C40.143 60 39.623 60.147 39.183 60.439C38.75 60.731 38.3901 61.131 38.1021 61.636C37.8221 62.142 37.6101 62.715 37.4661 63.356C37.3301 63.988 37.2621 64.648 37.2621 65.336C37.2621 66.252 37.3861 67.118 37.6341 67.932C37.8901 68.738 38.274 69.398 38.786 69.912C39.307 70.418 39.959 70.671 40.743 70.671Z" fill="white"/>
<path d="M53.6016 73.6351V60.3091H51.3926L52.2806 57.0361H56.9156V73.6351H53.6016Z" fill="white"/>
<path d="M68.5282 73.943C67.5592 73.943 66.6752 73.722 65.8742 73.279C65.0742 72.829 64.3772 72.208 63.7852 71.418C63.2012 70.627 62.7482 69.714 62.4282 68.679C62.1082 67.636 61.9482 66.521 61.9482 65.336C61.9482 64.15 62.1082 63.039 62.4282 62.004C62.7482 60.961 63.2012 60.044 63.7852 59.253C64.3772 58.463 65.0742 57.847 65.8742 57.404C66.6752 56.953 67.5592 56.728 68.5282 56.728C69.4962 56.728 70.3812 56.953 71.1812 57.404C71.9822 57.847 72.6702 58.463 73.2462 59.253C73.8312 60.044 74.2832 60.961 74.6032 62.004C74.9232 63.039 75.0832 64.15 75.0832 65.336C75.0832 66.521 74.9232 67.636 74.6032 68.679C74.2832 69.714 73.8312 70.627 73.2462 71.418C72.6702 72.208 71.9822 72.829 71.1812 73.279C70.3812 73.722 69.4962 73.943 68.5282 73.943ZM68.5282 70.671C69.3202 70.671 69.9732 70.418 70.4852 69.912C70.9972 69.406 71.3732 68.746 71.6132 67.932C71.8622 67.118 71.9862 66.252 71.9862 65.336C71.9862 64.363 71.8542 63.474 71.5892 62.668C71.3332 61.862 70.9492 61.218 70.4372 60.735C69.9252 60.245 69.2882 60 68.5282 60C67.9272 60 67.4072 60.147 66.9672 60.439C66.5352 60.731 66.1742 61.131 65.8862 61.636C65.6062 62.142 65.3942 62.715 65.2502 63.356C65.1142 63.988 65.0462 64.648 65.0462 65.336C65.0462 66.252 65.1702 67.118 65.4182 67.932C65.6742 68.738 66.0582 69.398 66.5712 69.912C67.0912 70.418 67.7432 70.671 68.5282 70.671Z" fill="white"/>
</svg>
